<?xml version="1.0" encoding="utf-8"?>
<!-- Generator: Adobe Illustrator 24.0.1, SVG Export Plug-In . SVG Version: 6.00 Build 0)  -->
<svg version="1.1" id="Слой_1" xmlns="http://www.w3.org/2000/svg" xmlns:xlink="http://www.w3.org/1999/xlink" x="0px"
     y="0px"
     viewBox="0 0 117.1 171.3" style="enable-background:new 0 0 117.1 171.3;" xml:space="preserve">
<style type="text/css">
	.st0{fill:transparent; stroke: #FFFFFF; stroke-width: 1;}
</style>
  <path class="st0" d="M99,161.8H18.5c-2.4,0-4.4-2-4.4-4.4V142c0-2.4,2-4.4,4.4-4.4H99c2.4,0,4.4,2,4.4,4.4v15.4
	C103.4,159.9,101.4,161.8,99,161.8z"/>
  <path class="st0" d="M102.9,119.3L84,81.7c-0.3-0.4-0.4-1-0.4-1.8s0.5-1.4,1.3-2c5.3-3.3,9.3-7.6,12-12.8c2.7-5.3,4-11.2,4-17.8
	c0-6.9-1.1-12.8-3.4-17.5c-2.3-4.8-5.4-8.6-9.2-11.6c-3.8-3-8.3-5.1-13.3-6.4c-5.1-1.3-10.4-2-16-2H27.2c-3.5,0-6.5,1.3-9.2,4
	c-2.6,2.7-3.9,6.1-3.9,10.1v96.5c0,1,0.4,1.9,1.1,2.7s1.6,1.2,2.6,1.2h20.6c1.1,0,2-0.4,2.7-1.1s1.1-1.6,1.1-2.8v-0.6V93.3v-8.7
	h11.5c1.8,0,3.1,0.9,4,2.6L73,120.1c1.2,2.9,3.2,4.3,6,4.3h21.2c0.8,0,1.5-0.3,2.2-1s1-1.4,1-2.3
	C103.4,120.5,103.2,119.9,102.9,119.3z M59,65.9c-0.4,0-8.8,0-13.7,0c-2,0-3.6-1.6-3.6-3.6V30.4c0-2,1.6-3.6,3.6-3.6
	c5,0,13.6,0,14,0c12,0,14.9,9,14.8,19.6C74.1,57.2,70.1,65.9,59,65.9z"/>
</svg>
