<?xml version="1.0" encoding="utf-8"?>
<!-- Generator: Adobe Illustrator 23.0.3, SVG Export Plug-In . SVG Version: 6.00 Build 0)  -->
<svg version="1.1" id="Слой_1" xmlns="http://www.w3.org/2000/svg" xmlns:xlink="http://www.w3.org/1999/xlink" x="0px" y="0px"
	 viewBox="0 0 264.22 278.9" style="enable-background:new 0 0 264.22 278.9;" xml:space="preserve">
<style type="text/css">
	.st0{fill:#FFFFFF;}
</style>
<path d="M177.69,171.86l-18.9-37.54c-0.3-0.44-0.43-1.04-0.38-1.81c0.05-0.77,0.47-1.43,1.28-1.98c5.3-3.29,9.3-7.57,12-12.84
	c2.7-5.27,4.05-11.2,4.05-17.78c0-6.91-1.15-12.76-3.45-17.53c-2.3-4.77-5.38-8.64-9.22-11.61c-3.85-2.96-8.3-5.1-13.35-6.42
	c-5.05-1.32-10.38-1.98-15.97-1.98h-31.8c-3.5,0-6.55,1.35-9.15,4.03c-2.6,2.69-3.9,6.07-3.9,10.13v96.48
	c0,0.99,0.38,1.89,1.13,2.72s1.62,1.23,2.63,1.23h20.55c1.1,0,2-0.38,2.7-1.15c0.7-0.66,1.05-1.59,1.05-2.8v-0.55v-26.62v-8.73
	h11.55c1.8,0,3.15,0.88,4.05,2.63l15.3,32.93c1.2,2.86,3.2,4.28,6,4.28h21.15c0.8,0,1.52-0.33,2.17-0.99
	c0.65-0.66,0.98-1.43,0.98-2.3C178.14,173.12,177.99,172.52,177.69,171.86z"/>
<path d="M173.75,214.43H93.29c-2.43,0-4.39-1.97-4.39-4.39v-15.39c0-2.43,1.97-4.39,4.39-4.39h80.46c2.43,0,4.39,1.97,4.39,4.39
	v15.39C178.14,212.46,176.17,214.43,173.75,214.43z"/>
<path class="st0" d="M134.02,79.3c-0.41,0-8.93,0.02-13.97,0.03c-2.01,0.01-3.63,1.63-3.63,3.64v31.86c0,2.01,1.62,3.63,3.63,3.64
	c4.97,0.02,13.32,0.03,13.73,0.03c11.05,0.01,15.06-8.72,15.08-19.6C148.88,88.27,146.02,79.29,134.02,79.3z"/>
</svg>
