<svg viewBox="0 0 69 81" fill="#ac8b44" xmlns="http://www.w3.org/2000/svg" xmlns:xlink="http://www.w3.org/1999/xlink" overflow="hidden"><defs><clipPath id="clip0"><path d="M546 367 615 367 615 448 546 448Z" fill-rule="evenodd" clip-rule="evenodd"/></clipPath></defs><g clip-path="url(#clip0)" transform="translate(-546 -367)"><path d="M575.722 425C575.241 425 575 424.766 575 424.298 575 423.83 575.241 423.596 575.722 423.596 580.296 423.596 580.296 423.596 580.296 423.596 581.982 420.787 581.982 420.787 581.982 420.787 579.815 417.277 579.815 417.277 579.815 417.277 579.333 416.809 579.333 416.34 579.574 415.872 579.574 415.404 580.056 414.936 580.296 414.702 581.259 414 582.704 414.234 583.185 415.17 584.148 416.574 584.148 416.574 584.148 416.574 584.148 416.34 584.148 416.34 584.148 416.34 584.148 415.17 584.87 414.234 586.074 414.234 587.037 414.234 588 415.17 588 416.34 588 421.489 588 421.489 588 421.489 588 421.723 587.759 422.191 587.278 422.191 587.278 422.191 587.278 422.191 587.278 422.191 586.796 422.191 586.556 421.723 586.556 421.489 586.556 416.34 586.556 416.34 586.556 416.34 586.556 415.872 586.315 415.638 586.074 415.638 585.833 415.638 585.593 415.872 585.593 416.34 585.593 418.915 585.593 418.915 585.593 418.915 585.593 419.383 585.352 419.617 584.87 419.617 584.63 419.617 584.389 419.617 584.148 419.383 581.982 415.872 581.982 415.872 581.982 415.872 581.741 415.638 581.5 415.638 581.259 415.872 581.018 415.872 581.018 416.106 580.778 416.106 580.778 416.34 580.778 416.34 581.018 416.574 583.426 420.319 583.426 420.319 583.426 420.319 583.426 420.553 583.426 420.787 583.426 421.021 581.259 424.532 581.259 424.532 581.259 424.532 581.259 424.766 581.018 425 580.778 425L575.722 425Z" fill-rule="evenodd"/><path d="M561.729 445C561.729 443.558 561.729 443.558 561.729 443.558 561.729 443.558 567.557 443.558 570.714 443.558 572.657 443.558 577.514 443.078 580.429 437.791 582.614 434.186 593.3 416.884 593.3 416.884 593.3 416.643 593.543 416.403 593.543 416.163 593.543 416.163 593.543 415.922 593.3 415.922 592.814 415.682 592.329 416.403 592.329 416.403 583.829 426.977 583.829 426.977 583.586 426.977 582.614 428.178 580.429 428.419 578.486 427.698 576.3 427.217 574.6 425.775 574.357 424.093 574.357 424.093 574.357 424.093 574.357 424.093 573.629 420.969 573.386 419.527 573.386 418.806 573.386 418.806 573.386 418.806 573.386 418.806 573.143 417.364 571.686 415.682 570.957 415.682 570.957 415.682 570.957 415.682 570.957 415.682 570.714 415.682 570.471 415.682 570.471 415.682 570.229 415.922 570.471 417.124 570.471 417.845 570.714 418.085 570.714 418.326 570.714 418.566 571.443 424.333 571.443 424.333 571.443 424.333 571.443 424.574 572.414 429.14 569.986 431.783 569.014 433.225 567.314 433.946 565.371 433.946 563.671 433.946 562.7 433.946 562.214 433.705 561.971 433.705 561.971 433.946 561.971 433.946 561.971 433.705 561.971 433.705 561.971 433.705 561.243 433.705 561.243 433.465 561 433.225 561 432.744 561.486 432.504 561.971 432.504 561.971 432.504 561.971 432.504 561.971 432.504 562.214 432.504 562.943 432.504 565.371 432.504 566.829 432.504 568.043 431.783 569.014 430.822 570.714 428.659 569.986 424.574 569.986 424.574 569.257 418.806 569.257 418.806 569.257 418.806 569.257 418.566 569.257 418.326 569.014 418.085 568.771 416.884 568.529 415.682 569.257 414.961 569.5 414.481 570.229 414.24 570.714 414.24 570.714 414.24 570.957 414.24 570.957 414.24 572.9 414.24 574.357 416.884 574.843 418.566 574.843 418.566 574.843 418.566 574.843 418.566 574.843 418.806 574.843 419.527 575.814 423.853 576.057 424.814 577.271 426.016 578.729 426.496 580.429 426.736 581.886 426.736 582.614 425.775 582.857 425.775 588.2 419.047 591.114 415.682 591.6 414.721 592.814 414 594.029 414.481 594.514 414.961 594.757 415.442 595 415.682 595 416.643 594.514 417.364 594.514 417.605 594.514 417.605 583.829 434.907 581.886 438.512 578.486 444.279 572.9 445 570.714 445 567.557 445 561.729 445 561.729 445Z" fill-rule="evenodd"/><path d="M562.231 448C553.769 448 553.769 448 553.769 448 553.256 448 553 447.75 553 447.25 553 446.75 553.256 446.5 553.769 446.5 561.462 446.5 561.462 446.5 561.462 446.5 561.462 431.5 561.462 431.5 561.462 431.5 553.769 431.5 553.769 431.5 553.769 431.5 553.256 431.5 553 431.25 553 430.75 553 430.5 553.256 430 553.769 430 562.231 430 562.231 430 562.231 430 562.487 430 563 430.5 563 430.75 563 447.25 563 447.25 563 447.25 563 447.75 562.487 448 562.231 448Z" fill-rule="evenodd"/><path d="M613.277 410C547.723 410 547.723 410 547.723 410 547.241 410 547 409.833 547 409.5 547 409.167 547.241 409 547.723 409 613.277 409 613.277 409 613.277 409 613.759 409 614 409.167 614 409.5 614 409.833 613.759 410 613.277 410Z" fill-rule="evenodd"/><path d="M587.428 390C587.189 390 586.711 389.758 586.711 389.515 586.711 389.03 586.95 388.788 587.428 388.545 594.594 387.818 599.372 385.394 600.567 384.667 600.567 375.455 600.567 375.455 600.567 375.455 560.433 375.455 560.433 375.455 560.433 375.455 560.433 384.667 560.433 384.667 560.433 384.667 561.628 385.394 566.406 387.576 573.572 388.545 573.811 388.545 574.05 389.03 574.05 389.273 574.05 389.758 573.572 390 573.333 390 564.733 388.788 559.478 385.879 559.239 385.879 559 385.636 559 385.394 559 385.152 559 374.727 559 374.727 559 374.727 559 374.485 559.239 374 559.717 374 601.283 374 601.283 374 601.283 374 601.761 374 602 374.485 602 374.727 602 385.152 602 385.152 602 385.152 602 385.394 602 385.636 601.761 385.879 601.522 385.879 596.267 389.03 587.667 390 587.428 390 587.428 390 587.428 390Z" fill-rule="evenodd"/><path d="M599.287 406C561.713 406 561.713 406 561.713 406 561.238 406 561 405.506 561 405.259 561 386.741 561 386.741 561 386.741 561 386.247 561.238 386 561.713 386 561.951 386 562.427 386.247 562.427 386.741 562.427 404.519 562.427 404.519 562.427 404.519 598.573 404.519 598.573 404.519 598.573 404.519 598.573 386.741 598.573 386.741 598.573 386.741 598.573 386.247 598.811 386 599.287 386 599.762 386 600 386.247 600 386.741 600 405.259 600 405.259 600 405.259 600 405.506 599.762 406 599.287 406Z" fill-rule="evenodd"/><path d="M584.128 372C576.872 372 576.872 372 576.872 372 575.936 372 575 370.684 575 369.368 575 368.053 575.936 367 576.872 367 584.128 367 584.128 367 584.128 367 585.298 367 586 368.053 586 369.368 586 370.684 585.298 372 584.128 372ZM576.872 368.579C576.872 368.579 576.404 369.105 576.404 369.368 576.404 369.895 576.872 370.421 576.872 370.421 584.128 370.421 584.128 370.421 584.128 370.421 584.362 370.421 584.596 369.895 584.596 369.368 584.596 369.105 584.362 368.579 584.128 368.579L576.872 368.579Z" fill-rule="evenodd"/><path d="M572.706 375C572.235 375 572 374.52 572 374.28 572 369.72 572 369.72 572 369.72 572 369.24 572.235 369 572.706 369 575.294 369 575.294 369 575.294 369 575.529 369 576 369.24 576 369.72 576 369.96 575.529 370.44 575.294 370.44 573.412 370.44 573.412 370.44 573.412 370.44 573.412 374.28 573.412 374.28 573.412 374.28 573.412 374.52 573.176 375 572.706 375Z" fill-rule="evenodd"/><path d="M588.143 375C587.571 375 587.286 374.778 587.286 374.333 587.286 370.333 587.286 370.333 587.286 370.333 585.857 370.333 585.857 370.333 585.857 370.333 585.286 370.333 585 369.889 585 369.667 585 369.222 585.286 369 585.857 369 588.143 369 588.143 369 588.143 369 588.429 369 589 369.222 589 369.667 589 374.333 589 374.333 589 374.333 589 374.778 588.429 375 588.143 375Z" fill-rule="evenodd"/><path d="M580.5 395C577.895 395 576 392.692 576 389.872 576 387.308 577.895 385 580.5 385 583.105 385 585 387.308 585 389.872 585 392.692 583.105 395 580.5 395ZM580.5 386.538C578.842 386.538 577.421 388.077 577.421 389.872 577.421 391.923 578.842 393.462 580.5 393.462 582.158 393.462 583.579 391.923 583.579 389.872 583.579 388.077 582.158 386.538 580.5 386.538Z" fill-rule="evenodd"/></g></svg>
