<svg viewBox="0 0 97 105" xmlns="http://www.w3.org/2000/svg" xmlns:xlink="http://www.w3.org/1999/xlink" overflow="hidden"><defs><clipPath id="clip0"><path d="M897 261 994 261 994 366 897 366Z" fill-rule="evenodd" clip-rule="evenodd"/></clipPath></defs><g clip-path="url(#clip0)" transform="translate(-897 -261)"><path d="M938.5 356C938.333 356 938 355.478 938 355.217 938 350.783 938 350.783 938 350.783 938 350.261 938.333 350 938.5 350 938.833 350 939 350.261 939 350.783 939 355.217 939 355.217 939 355.217 939 355.478 938.833 356 938.5 356Z" fill="#B0914E" fill-rule="evenodd"/><path d="M934.732 356C934.244 356 934 355.483 934 355.224 934 346.431 934 346.431 934 346.431 934 343.069 936.927 342.034 938.634 342.034 942.049 342.034 942.049 342.034 942.049 342.034 941.805 342.034 942.537 342.034 942.537 341.776 942.537 341.259 942.781 341 943.268 341 943.512 341 944 341.259 944 341.776 944 343.069 943.024 343.586 942.049 343.586 938.634 343.586 938.634 343.586 938.634 343.586 938.39 343.586 935.463 343.845 935.463 346.431 935.463 355.224 935.463 355.224 935.463 355.224 935.463 355.483 934.976 356 934.732 356Z" fill="#B0914E" fill-rule="evenodd"/><path d="M952.5 355C952.333 355 952 354.545 952 354.318 952 350.682 952 350.682 952 350.682 952 350.455 952.333 350 952.5 350 952.833 350 953 350.455 953 350.682 953 354.318 953 354.318 953 354.318 953 354.545 952.833 355 952.5 355Z" fill="#B0914E" fill-rule="evenodd"/><path d="M956.325 355C955.875 355 955.65 354.754 955.65 354.263 955.65 346.158 955.65 346.158 955.65 346.158 955.65 343.702 952.725 343.456 952.725 343.456 949.575 343.456 949.575 343.456 949.575 343.456 949.575 343.456 948.9 343.456 948.45 342.965 948.225 342.965 948 342.474 948 341.737 948 341.246 948.225 341 948.675 341 948.675 341 948.675 341 948.675 341 949.125 341 949.35 341.246 949.35 341.737 949.35 341.982 949.35 341.982 949.35 341.982 949.575 341.982 949.575 341.982 949.575 341.982 949.575 341.982 949.575 341.982 949.575 341.982 952.725 341.982 952.725 341.982 952.725 341.982 954.075 341.982 957 342.965 957 346.158 957 354.263 957 354.263 957 354.263 957 354.754 956.775 355 956.325 355Z" fill="#B0914E" fill-rule="evenodd"/><path d="M945.5 341C942 341 939 337.862 939 334 939 330.138 942 327 945.5 327 949.25 327 952 330.138 952 334 952 337.862 949.25 341 945.5 341ZM945.5 328.448C942.75 328.448 940.5 331.103 940.5 334 940.5 337.138 942.75 339.552 945.5 339.552 948.25 339.552 950.5 337.138 950.5 334 950.5 331.103 948.25 328.448 945.5 328.448Z" fill="#B0914E" fill-rule="evenodd"/><path d="M945.5 365C945.5 365 945.5 365 945.26 365 928.479 359.182 928.479 359.182 928.479 359.182 928.24 358.939 928 358.697 928.24 358.212 930.877 349.727 930.877 349.727 930.877 349.727 931.116 349.242 931.596 349 931.836 349.242 932.315 349.242 932.555 349.727 932.315 349.97 929.678 357.97 929.678 357.97 929.678 357.97 945.5 363.545 945.5 363.545 945.5 363.545 961.322 357.97 961.322 357.97 961.322 357.97 958.685 350.212 958.685 350.212 958.685 350.212 958.685 349.727 958.925 349.485 959.164 349.242 959.644 349.242 960.123 349.242 960.123 349.727 963 358.212 963 358.212 963 358.212 963 358.455 963 358.697 963 358.939 963 358.939 962.76 359.182 962.521 359.182 945.74 365 945.74 365 945.74 365 945.74 365 945.74 365 945.5 365Z" fill="#B0914E" fill-rule="evenodd"/><path d="M971.5 334C971.167 334 971 333.762 971 333.286 971 329.714 971 329.714 971 329.714 971 329.476 971.167 329 971.5 329 971.667 329 972 329.476 972 329.714 972 333.286 972 333.286 972 333.286 972 333.762 971.667 334 971.5 334Z" fill="#B0914E" fill-rule="evenodd"/><path d="M967.73 334C967.487 334 967 333.765 967 333.294 967 326.471 967 326.471 967 326.471 967 323.647 969.919 322.706 971.378 322.706 974.297 322.706 974.297 322.706 974.297 322.706 974.297 322.706 974.541 322.706 974.541 322.706 974.541 322.235 974.784 322 975.27 322 975.757 322 976 322.235 976 322.706 976 323.647 975.027 324.118 974.297 324.118 971.378 324.118 971.378 324.118 971.378 324.118 971.135 324.118 968.459 324.353 968.459 326.471 968.459 333.294 968.459 333.294 968.459 333.294 968.459 333.765 968.216 334 967.73 334Z" fill="#B0914E" fill-rule="evenodd"/><path d="M983.5 334C983.167 334 983 333.737 983 333.211 983 329.789 983 329.789 983 329.789 983 329.263 983.167 329 983.5 329 983.833 329 984 329.263 984 329.789 984 333.211 984 333.211 984 333.211 984 333.737 983.833 334 983.5 334Z" fill="#B0914E" fill-rule="evenodd"/><path d="M987.25 334C986.75 334 986.5 333.529 986.5 333.294 986.5 326.471 986.5 326.471 986.5 326.471 986.5 324.353 983.75 324.118 983.5 324.118 980.5 324.118 980.5 324.118 980.5 324.118 980.5 324.118 980 324.118 979.5 323.882 979.25 323.647 979 323.176 979 322.706 979 322.235 979.25 322 979.75 322 979.75 322 979.75 322 979.75 322 980 322 980.5 322.235 980.5 322.706 980.5 322.706 980.5 322.706 980.5 322.706 980.5 322.706 980.5 322.706 980.5 322.706 980.5 322.706 980.5 322.706 980.5 322.706 983.5 322.706 983.5 322.706 983.5 322.706 985 322.706 988 323.647 988 326.471 988 333.294 988 333.294 988 333.294 988 333.529 987.5 334 987.25 334Z" fill="#B0914E" fill-rule="evenodd"/><path d="M977.383 321C974.574 321 972 318.231 972 315 972 311.769 974.574 309 977.383 309 980.426 309 983 311.769 983 315 983 318.231 980.426 321 977.383 321ZM977.383 310.385C975.277 310.385 973.404 312.462 973.404 315 973.404 317.538 975.277 319.615 977.383 319.615 979.723 319.615 981.596 317.538 981.596 315 981.596 312.462 979.723 310.385 977.383 310.385Z" fill="#B0914E" fill-rule="evenodd"/><path d="M977.38 342C977.38 342 977.38 342 977.38 342 962.481 337.017 962.481 337.017 962.481 337.017 962 336.78 962 336.305 962 336.068 964.643 328.475 964.643 328.475 964.643 328.475 964.643 328.237 965.124 328 965.364 328.237 965.845 328.237 966.085 328.712 965.845 328.949 963.682 335.831 963.682 335.831 963.682 335.831 977.38 340.576 977.38 340.576 977.38 340.576 991.318 335.831 991.318 335.831 991.318 335.831 988.915 329.186 988.915 329.186 988.915 329.186 988.915 328.712 989.155 328.475 989.395 328.237 989.876 328 990.357 328.237 990.357 328.712 993 336.068 993 336.068 993 336.068 993 336.305 993 336.542 992.76 336.542 992.76 336.78 992.76 336.78 992.519 337.017 977.62 342 977.62 342 977.62 342 977.62 342 977.62 342 977.38 342Z" fill="#B0914E" fill-rule="evenodd"/><path d="M907.5 334C907.333 334 907 333.762 907 333.286 907 329.714 907 329.714 907 329.714 907 329.476 907.333 329 907.5 329 907.833 329 908 329.476 908 329.714 908 333.286 908 333.286 908 333.286 908 333.762 907.833 334 907.5 334Z" fill="#B0914E" fill-rule="evenodd"/><path d="M903.73 334C903.243 334 903 333.765 903 333.294 903 326.471 903 326.471 903 326.471 903 323.647 905.676 322.706 907.135 322.706 910.054 322.706 910.054 322.706 910.054 322.706 910.054 322.706 910.541 322.706 910.541 322.706 910.541 322.235 910.784 322 911.27 322 911.513 322 912 322.235 912 322.706 912 323.647 911.027 324.118 910.054 324.118 907.135 324.118 907.135 324.118 907.135 324.118 906.892 324.118 904.459 324.353 904.459 326.471 904.459 333.294 904.459 333.294 904.459 333.294 904.459 333.765 903.973 334 903.73 334Z" fill="#B0914E" fill-rule="evenodd"/><path d="M920 334C919.333 334 919 333.737 919 333.211 919 329.789 919 329.789 919 329.789 919 329.263 919.333 329 920 329 920.333 329 921 329.263 921 329.789 921 333.211 921 333.211 921 333.211 921 333.737 920.333 334 920 334Z" fill="#B0914E" fill-rule="evenodd"/><path d="M923.25 334C922.75 334 922.5 333.529 922.5 333.294 922.5 326.471 922.5 326.471 922.5 326.471 922.5 324.353 920 324.118 919.75 324.118 916.75 324.118 916.75 324.118 916.75 324.118 916.5 324.118 916 324.118 915.5 323.882 915.25 323.647 915 323.176 915 322.706 915 322.235 915.5 322 915.75 322 915.75 322 915.75 322 915.75 322 916.25 322 916.5 322.235 916.5 322.706 916.5 322.706 916.5 322.706 916.5 322.706 916.5 322.706 916.5 322.706 916.5 322.706 916.5 322.706 916.75 322.706 916.75 322.706 919.75 322.706 919.75 322.706 919.75 322.706 921.25 322.706 924 323.647 924 326.471 924 333.294 924 333.294 924 333.294 924 333.529 923.75 334 923.25 334Z" fill="#B0914E" fill-rule="evenodd"/><path d="M913.5 321C910.391 321 908 318.231 908 315 908 311.769 910.391 309 913.5 309 916.609 309 919 311.769 919 315 919 318.231 916.609 321 913.5 321ZM913.5 310.385C911.109 310.385 909.435 312.462 909.435 315 909.435 317.538 911.109 319.615 913.5 319.615 915.652 319.615 917.565 317.538 917.565 315 917.565 312.462 915.652 310.385 913.5 310.385Z" fill="#B0914E" fill-rule="evenodd"/><path d="M913.62 342C913.62 342 913.38 342 913.38 342 898.721 337.017 898.721 337.017 898.721 337.017 898.24 336.78 898 336.305 898.24 336.068 900.643 328.475 900.643 328.475 900.643 328.475 900.884 328.237 901.124 328 901.605 328.237 901.845 328.237 902.085 328.712 902.085 328.949 899.682 335.831 899.682 335.831 899.682 335.831 913.62 340.576 913.62 340.576 913.62 340.576 927.558 335.831 927.558 335.831 927.558 335.831 925.155 329.186 925.155 329.186 925.155 329.186 924.915 328.712 925.155 328.475 925.636 328.237 925.876 328 926.357 328.237 926.597 328.712 929 336.068 929 336.068 929 336.068 929 336.305 929 336.542 929 336.542 929 336.78 928.76 336.78 928.519 337.017 913.86 342 913.86 342 913.86 342 913.86 342 913.62 342 913.62 342Z" fill="#B0914E" fill-rule="evenodd"/><path d="M931.062 350C931.062 350 931.062 350 930.827 350 913.469 342.385 913.469 342.385 913.469 342.385 913.235 342.385 913 341.923 913.235 341.462 913.469 341.231 913.704 341 914.173 341.231 931.531 348.846 931.531 348.846 931.531 348.846 931.765 348.846 932 349.308 931.765 349.769 931.765 350 931.531 350 931.062 350Z" fill="#B0914E" fill-rule="evenodd"/><path d="M959.713 350C959.475 350 959.237 350 959 349.769 959 349.308 959.237 348.846 959.475 348.846 977.05 341.231 977.05 341.231 977.05 341.231 977.287 341 977.763 341.231 978 341.462 978 341.923 978 342.385 977.525 342.385 959.95 350 959.95 350 959.95 350 959.95 350 959.95 350 959.713 350Z" fill="#B0914E" fill-rule="evenodd"/><path d="M969.265 320C921.735 320 921.735 320 921.735 320 921.245 320 921 319.754 921 319.263 921 261.737 921 261.737 921 261.737 921 261.246 921.245 261 921.735 261 969.265 261 969.265 261 969.265 261 969.51 261 970 261.246 970 261.737 970 319.263 970 319.263 970 319.263 970 319.754 969.51 320 969.265 320ZM922.47 318.525C968.53 318.525 968.53 318.525 968.53 318.525 968.53 262.475 968.53 262.475 968.53 262.475 922.47 262.475 922.47 262.475 922.47 262.475L922.47 318.525Z" fill="#B0914E" fill-rule="evenodd"/><path d="M939 296C938.333 296 938 295.478 938 295.217 938 290.783 938 290.783 938 290.783 938 290.522 938.333 290 939 290 939.667 290 940 290.522 940 290.783 940 295.217 940 295.217 940 295.217 940 295.478 939.667 296 939 296Z" fill="#B0914E" fill-rule="evenodd"/><path d="M934.75 296C934.25 296 934 295.509 934 295.263 934 287.158 934 287.158 934 287.158 934 283.965 937 282.982 938.75 282.982 942 282.982 942 282.982 942 282.982 942 282.982 942.5 282.982 942.5 282.737 942.5 282.246 943 282 943.25 282 943.75 282 944 282.246 944 282.737 944 283.719 943 284.456 942 284.456 938.75 284.456 938.75 284.456 938.75 284.456 938.25 284.456 935.5 284.702 935.5 287.158 935.5 295.263 935.5 295.263 935.5 295.263 935.5 295.509 935 296 934.75 296Z" fill="#B0914E" fill-rule="evenodd"/><path d="M952.5 296C952.333 296 952 295.524 952 295.286 952 291.714 952 291.714 952 291.714 952 291.238 952.333 291 952.5 291 952.833 291 953 291.238 953 291.714 953 295.286 953 295.286 953 295.286 953 295.524 952.833 296 952.5 296Z" fill="#B0914E" fill-rule="evenodd"/><path d="M956.325 296C955.875 296 955.65 295.75 955.65 295.25 955.65 287.25 955.65 287.25 955.65 287.25 955.65 284.75 952.95 284.5 952.5 284.5 949.575 284.5 949.575 284.5 949.575 284.5 949.575 284.5 948.9 284.5 948.45 284 948.225 283.75 948 283.5 948 282.75 948 282.25 948.225 282 948.675 282 949.125 282 949.35 282.25 949.35 282.75 949.35 283 949.35 283 949.575 283 952.5 283 952.5 283 952.5 283 954.075 283 957 284 957 287.25 957 295.25 957 295.25 957 295.25 957 295.75 956.55 296 956.325 296Z" fill="#B0914E" fill-rule="evenodd"/><path d="M945.627 281C941.804 281 939 277.807 939 273.877 939 270.193 941.804 267 945.627 267 949.196 267 952 270.193 952 273.877 952 277.807 949.196 281 945.627 281ZM945.627 268.474C942.824 268.474 940.529 270.93 940.529 273.877 940.529 277.07 942.824 279.526 945.627 279.526 948.176 279.526 950.471 277.07 950.471 273.877 950.471 270.93 948.176 268.474 945.627 268.474Z" fill="#B0914E" fill-rule="evenodd"/><path d="M939.865 313C937.189 313 935 310.75 935 308 935 305.25 937.189 303 939.865 303 941.324 303 942.784 303.75 943.757 304.75 944 305.25 944 305.75 943.757 306 943.27 306.25 942.784 306 942.541 305.75 942.054 305 941.081 304.5 939.865 304.5 937.919 304.5 936.459 306 936.459 308 936.459 310 937.919 311.5 939.865 311.5 940.838 311.5 941.811 311 942.541 310.25 942.784 310 943.27 310 943.513 310.25 944 310.5 944 311 943.757 311.25 942.784 312.5 941.324 313 939.865 313Z" fill="#B0914E" fill-rule="evenodd"/><path d="M951.222 313C950.963 313 950.704 313 950.444 312.762 945.259 304.19 945.259 304.19 945.259 304.19 945 303.952 945 303.476 945.518 303.238 945.778 303 946.296 303.238 946.556 303.476 951.741 312.048 951.741 312.048 951.741 312.048 952 312.286 952 312.762 951.482 313 951.482 313 951.222 313 951.222 313Z" fill="#B0914E" fill-rule="evenodd"/><path d="M951 313C950.75 313 950.75 313 950.5 313 950.25 312.762 950 312.286 950.25 312.048 955.5 303.476 955.5 303.476 955.5 303.476 955.5 303.238 956 303 956.5 303.238 956.75 303.476 957 303.952 956.75 304.19 951.5 312.762 951.5 312.762 951.5 312.762 951.5 313 951.25 313 951 313Z" fill="#B0914E" fill-rule="evenodd"/></g></svg>
