<svg viewBox="0 0 69 40" fill="#ac8b44" xmlns="http://www.w3.org/2000/svg" xmlns:xlink="http://www.w3.org/1999/xlink" overflow="hidden"><defs><clipPath id="clip0"><path d="M763 364 832 364 832 404 763 404Z" fill-rule="evenodd" clip-rule="evenodd"/></clipPath></defs><g clip-path="url(#clip0)" transform="translate(-763 -364)"><path d="M794.947 397C784.574 397 784.574 397 784.574 397 784.367 397 784.16 397 784.16 396.794 783.952 396.794 783.952 396.587 783.952 396.381 783.952 396.175 783.952 396.175 783.952 396.175 783.952 395.968 783.952 395.968 784.16 395.762 784.782 394.936 785.197 394.111 785.197 393.286 785.197 392.048 783.952 391.016 782.5 390.81 782.5 390.81 782.5 390.81 782.5 390.81 782.5 390.81 782.5 390.81 782.5 390.81 780.84 391.016 779.803 392.048 779.803 393.286 779.803 394.111 780.218 394.936 780.84 395.762 781.048 395.968 781.048 395.968 781.048 396.175 781.048 396.381 781.048 396.381 781.048 396.381 781.048 396.587 781.048 396.794 780.84 396.794 780.84 397 780.633 397 780.426 397 770.053 397 770.053 397 770.053 397 769.638 397 769.431 396.794 769.431 396.381 769.431 387.095 769.431 387.095 769.431 387.095 768.601 387.714 767.564 387.921 766.734 387.921 766.734 387.921 766.734 387.921 766.734 387.921 764.867 387.921 763.207 386.27 763 384.206 763 384.206 763 384.206 763 384.206 763.622 384 763.622 384 763.622 384 763 384 763 384 763 384 763 384 763 384 763 384 763.207 381.73 764.66 380.079 766.734 380.079 767.564 380.079 768.394 380.286 769.431 380.905 769.431 371.619 769.431 371.619 769.431 371.619 769.431 371.206 769.638 371 770.053 371 780.426 371 780.426 371 780.426 371 780.633 371 780.84 371 780.84 371.206 781.048 371.206 781.048 371.413 781.048 371.619 781.048 372.032 781.048 372.032 781.048 372.032 781.048 372.238 781.048 372.238 780.84 372.444 780.218 373.27 779.803 374.095 779.803 374.921 779.803 376.159 781.048 377.19 782.5 377.397 782.5 377.397 782.5 377.397 782.5 377.397 782.5 377.397 782.5 377.397 782.5 377.397 783.952 377.19 785.197 376.159 785.197 374.921 785.197 374.095 784.782 373.27 783.952 372.444 783.952 372.238 783.952 372.238 783.952 372.032 783.952 371.619 783.952 371.619 783.952 371.619 783.952 371.413 783.952 371.206 783.952 371.206 784.16 371 784.367 371 784.574 371 794.947 371 794.947 371 794.947 371 795.362 371 795.569 371.206 795.569 371.619 795.569 380.905 795.569 380.905 795.569 380.905 796.606 380.286 797.436 380.079 798.473 380.079 800.34 380.079 801.793 381.936 802 384 802 384 802 384 802 384 802 384 802 384.206 802 384.206 802 384.206 802 384.206 802 384.206 802 384.206 802 384.206 802 384.206 801.793 386.476 800.133 388.127 798.266 387.921 797.229 387.921 796.399 387.714 795.569 387.095 795.569 396.381 795.569 396.381 795.569 396.381 795.569 396.794 795.362 397 794.947 397ZM785.612 395.762C794.324 395.762 794.324 395.762 794.324 395.762 794.324 386.063 794.324 386.063 794.324 386.063 794.324 385.857 794.532 385.651 794.532 385.444 794.739 385.444 794.947 385.444 795.154 385.444 795.362 385.444 795.362 385.444 795.362 385.444 795.362 385.444 795.569 385.444 795.777 385.444 796.606 386.27 797.436 386.683 798.266 386.683 799.511 386.889 800.548 385.651 800.755 384.206 800.755 384.206 800.755 384.206 800.755 384.206 800.755 384.206 800.755 384.206 800.755 384 800.755 382.556 799.718 381.317 798.473 381.317 797.436 381.317 796.606 381.73 795.777 382.349 795.777 382.556 795.569 382.556 795.362 382.556 794.947 382.556 794.947 382.556 794.947 382.556 794.739 382.556 794.324 382.349 794.324 381.936 794.324 372.238 794.324 372.238 794.324 372.238 785.404 372.238 785.404 372.238 785.404 372.238 786.027 373.064 786.441 374.095 786.441 374.921 786.441 376.778 784.782 378.429 782.707 378.635 782.707 378.635 782.707 378.635 782.5 378.635 782.5 378.635 782.5 378.635 782.293 378.635 780.218 378.429 778.559 376.984 778.559 374.921 778.559 374.095 778.766 373.064 779.596 372.238 770.676 372.238 770.676 372.238 770.676 372.238 770.676 381.936 770.676 381.936 770.676 381.936 770.676 382.143 770.468 382.349 770.468 382.349 770.261 382.556 770.261 382.556 770.053 382.556 769.638 382.556 769.638 382.556 769.638 382.556 769.431 382.556 769.431 382.556 769.223 382.349 768.394 381.73 767.564 381.317 766.734 381.317 765.489 381.317 764.452 382.556 764.245 384 764.245 384 764.245 384 764.245 384 764.245 384 764.245 384 764.245 384 764.452 385.651 765.489 386.683 766.734 386.683 766.734 386.683 766.734 386.683 766.734 386.683 767.564 386.683 768.394 386.27 769.223 385.651 769.431 385.444 769.431 385.444 769.638 385.444 770.053 385.444 770.053 385.444 770.053 385.444 770.261 385.444 770.261 385.444 770.468 385.651 770.468 385.651 770.676 385.857 770.676 386.063 770.676 395.762 770.676 395.762 770.676 395.762 779.388 395.762 779.388 395.762 779.388 395.762 778.766 394.936 778.559 394.111 778.559 393.286 778.559 391.429 780.218 389.778 782.293 389.571 782.293 389.571 782.293 389.571 782.5 389.571 782.5 389.571 782.5 389.571 782.5 389.571 782.707 389.571 782.707 389.571 782.707 389.571 784.782 389.778 786.441 391.429 786.441 393.286 786.441 394.111 786.234 394.936 785.612 395.762Z" fill-rule="evenodd"/><path d="M818 404C818 404 817.794 404 817.794 404 815.73 403.787 814.079 402.298 814.079 400.17 814.079 399.319 814.286 398.468 814.905 397.404 805.619 397.404 805.619 397.404 805.619 397.404 805.206 397.404 805 397.191 805 396.766 805 386.128 805 386.128 805 386.128 805 385.915 805 385.702 805 385.702 805.206 385.489 805.413 385.489 805.619 385.489 806.032 385.489 806.032 385.489 806.032 385.489 806.032 385.489 806.238 385.489 806.444 385.702 807.27 386.34 808.095 386.766 808.921 386.766 808.921 386.766 808.921 386.766 808.921 386.766 810.159 386.766 811.19 385.702 811.19 384 811.19 384 811.19 384 811.19 384 811.19 384 811.19 384 811.19 384 811.19 382.511 810.159 381.234 808.921 381.234 808.921 381.234 808.921 381.234 808.921 381.234 808.095 381.234 807.27 381.66 806.444 382.511 806.238 382.511 806.032 382.511 806.032 382.511 805.619 382.511 805.619 382.511 805.619 382.511 805.413 382.511 805.206 382.511 805 382.511 805 382.298 805 382.085 805 381.872 805 371.234 805 371.234 805 371.234 805 370.809 805.206 370.596 805.619 370.596 814.905 370.596 814.905 370.596 814.905 370.596 814.286 369.532 814.079 368.681 814.079 367.617 814.079 365.702 815.73 364.213 818 364.213 818 364 818 364 818 364 818.206 364.213 818.206 364.213 818.206 364.213 818.206 364.213 818.206 364.213 818.206 364.213 820.476 364.213 822.127 365.915 821.921 368.043 821.921 368.894 821.714 369.745 821.095 370.596 830.381 370.596 830.381 370.596 830.381 370.596 830.794 370.596 831 370.809 831 371.234 831 381.872 831 381.872 831 381.872 831 382.085 831 382.298 830.794 382.511 830.794 382.511 830.587 382.511 830.381 382.511 830.175 382.511 830.175 382.511 830.175 382.511 829.968 382.511 829.762 382.511 829.762 382.511 828.937 381.66 828.111 381.234 827.286 381.234 825.841 381.234 824.81 382.511 824.81 384 824.81 384 824.81 384 824.81 384 824.81 384 824.81 384 824.81 384 824.81 385.702 825.841 386.766 827.286 386.766 827.286 386.766 827.286 386.766 827.286 386.766 828.111 386.766 828.937 386.34 829.762 385.702 829.762 385.489 829.968 385.489 830.175 385.489 830.381 385.489 830.381 385.489 830.381 385.489 830.587 385.489 830.794 385.489 830.794 385.702 831 385.702 831 385.915 831 386.128 831 396.766 831 396.766 831 396.766 831 397.191 830.794 397.404 830.381 397.404 820.889 397.404 820.889 397.404 820.889 397.404 821.508 398.468 821.921 399.319 821.921 400.17 821.921 402.085 820.27 403.787 818.206 404 818.206 404 818 404 818 404 818 403.362 818 403.362 818 403.362 818 404 818 404 818 404 818 404 818 404 818 404ZM806.238 396.128C815.937 396.128 815.937 396.128 815.937 396.128 816.143 396.128 816.349 396.34 816.349 396.34 816.556 396.553 816.556 396.766 816.556 396.766 816.556 397.191 816.556 397.191 816.556 397.191 816.556 397.404 816.556 397.404 816.349 397.617 815.73 398.468 815.317 399.319 815.317 400.17 815.317 401.447 816.349 402.511 818 402.723 818 402.723 818 402.723 818 402.723 818 402.723 818 402.723 818 402.723 819.444 402.511 820.683 401.447 820.683 400.17 820.683 399.319 820.27 398.468 819.444 397.617 819.444 397.404 819.444 397.404 819.444 397.191 819.238 396.766 819.238 396.766 819.238 396.766 819.238 396.766 819.444 396.553 819.444 396.34 819.651 396.34 819.857 396.128 819.857 396.128 829.762 396.128 829.762 396.128 829.762 396.128 829.762 387.191 829.762 387.191 829.762 387.191 828.937 387.83 828.111 388.043 827.286 388.043 827.286 388.043 827.286 388.043 827.286 388.043 825.222 388.043 823.778 386.34 823.571 384.213 823.571 384.213 823.571 384.213 823.571 384 823.571 384 823.571 384 823.571 384 823.571 384 823.571 383.787 823.571 383.787 823.778 381.66 825.222 379.957 827.286 379.957 828.111 379.957 828.937 380.17 829.762 380.809 829.762 371.872 829.762 371.872 829.762 371.872 819.857 371.872 819.857 371.872 819.857 371.872 819.651 371.872 819.651 371.66 819.444 371.66 819.444 371.447 819.238 371.234 819.238 371.234 819.238 370.809 819.238 370.809 819.238 370.809 819.238 370.809 819.444 370.596 819.444 370.383 820.27 369.532 820.683 368.681 820.683 367.83 820.683 366.553 819.651 365.489 818.206 365.489 818.206 365.489 818 365.489 818 365.277 818 365.489 818 365.489 818 365.489 816.556 365.489 815.317 366.34 815.317 367.83 815.317 368.468 815.73 369.532 816.349 370.383 816.556 370.596 816.556 370.596 816.556 370.809 816.556 371.234 816.556 371.234 816.556 371.234 816.556 371.447 816.143 371.872 815.937 371.872 806.238 371.872 806.238 371.872 806.238 371.872 806.238 381.021 806.238 381.021 806.238 381.021 807.063 380.383 807.889 379.957 808.921 379.957 808.921 379.957 808.921 379.957 808.921 379.957 810.778 379.957 812.429 381.66 812.429 383.787 812.429 383.787 812.429 384 812.429 384 812.429 384 812.429 384 812.429 384.213 812.429 386.34 810.778 388.043 808.921 388.043 808.921 388.043 808.921 388.043 808.921 388.043 808.095 388.043 807.063 387.83 806.238 386.979L806.238 396.128ZM824.19 384C824.19 384 824.19 384 824.19 384Z" fill-rule="evenodd"/></g></svg>
