<svg viewBox="0 0 38 49" fill="#ac8b44" xmlns="http://www.w3.org/2000/svg" xmlns:xlink="http://www.w3.org/1999/xlink" overflow="hidden"><defs><clipPath id="clip0"><path d="M460 359 498 359 498 408 460 408Z" fill-rule="evenodd" clip-rule="evenodd"/></clipPath></defs><g clip-path="url(#clip0)" transform="translate(-460 -359)"><path d="M496.376 400C466.624 400 466.624 400 466.624 400 466.208 400 466 399.796 466 399.388 466 360.612 466 360.612 466 360.612 466 360.204 466.208 360 466.624 360 496.376 360 496.376 360 496.376 360 496.584 360 497 360.204 497 360.612 497 399.388 497 399.388 497 399.388 497 399.796 496.584 400 496.376 400ZM467.248 398.776C495.752 398.776 495.752 398.776 495.752 398.776 495.752 361.224 495.752 361.224 495.752 361.224 467.248 361.224 467.248 361.224 467.248 361.224L467.248 398.776Z" fill-rule="evenodd"/><path d="M461.5 404C461.333 404 461 403.798 461 403.394 461 364.606 461 364.606 461 364.606 461 364.202 461.333 364 461.5 364 461.833 364 462 364.202 462 364.606 462 403.394 462 403.394 462 403.394 462 403.798 461.833 404 461.5 404Z" fill-rule="evenodd"/><path d="M467 400C466.333 400 466 399.796 466 399.388 466 360.612 466 360.612 466 360.612 466 360.204 466.333 360 467 360 467.667 360 468 360.204 468 360.612 468 399.388 468 399.388 468 399.388 468 399.796 467.667 400 467 400Z" fill-rule="evenodd"/><path d="M496.393 407C465.449 407 465.449 407 465.449 407 463.022 407 461 405.2 461 403 461 400.8 463.022 399 465.449 399 496.393 399 496.393 399 496.393 399 496.596 399 497 399.4 497 399.6 497 400 496.596 400.2 496.393 400.2 465.449 400.2 465.449 400.2 465.449 400.2 463.629 400.2 462.213 401.6 462.213 403 462.213 404.6 463.629 405.8 465.449 405.8 496.393 405.8 496.393 405.8 496.393 405.8 496.596 405.8 497 406 497 406.4 497 406.6 496.596 407 496.393 407Z" fill-rule="evenodd"/><path d="M461.6 365C461.4 365 461 364.565 461 364.348 461 361.957 463 360 465.4 360 467.4 360 467.4 360 467.4 360 467.8 360 468 360.217 468 360.652 468 361.087 467.8 361.304 467.4 361.304 465.4 361.304 465.4 361.304 465.4 361.304 463.6 361.304 462.2 362.609 462.2 364.348 462.2 364.565 462 365 461.6 365Z" fill-rule="evenodd"/><path d="M496.379 404C468.621 404 468.621 404 468.621 404 468.414 404 468 403.833 468 403.5 468 403.333 468.414 403 468.621 403 496.379 403 496.379 403 496.379 403 496.586 403 497 403.333 497 403.5 497 403.833 496.586 404 496.379 404Z" fill-rule="evenodd"/><path d="M486.377 373C476.623 373 476.623 373 476.623 373 476.208 373 476 372.833 476 372.5 476 372.167 476.208 372 476.623 372 486.377 372 486.377 372 486.377 372 486.792 372 487 372.167 487 372.5 487 372.833 486.792 373 486.377 373Z" fill-rule="evenodd"/><path d="M488.384 379C474.616 379 474.616 379 474.616 379 474.205 379 474 378.667 474 378.5 474 378.167 474.205 378 474.616 378 488.384 378 488.384 378 488.384 378 488.589 378 489 378.167 489 378.5 489 378.667 488.589 379 488.384 379Z" fill-rule="evenodd"/></g></svg>
