<svg viewBox="0 0 1307 713" xmlns="http://www.w3.org/2000/svg" xmlns:xlink="http://www.w3.org/1999/xlink" overflow="hidden"><defs><clipPath id="clip0"><path d="M-15 84 1292 84 1292 797-15 797Z" fill-rule="evenodd" clip-rule="evenodd"/></clipPath></defs><g clip-path="url(#clip0)" transform="translate(15 -84)"><text fill="#C00000" font-family="Arial,Arial_MSFontService,sans-serif" font-weight="400" font-size="48" transform="translate(403.371 532)">Х</text><path d="M0-1.5 223.592-1.5 223.592 88.9054 220.592 88.9054 220.592 0 222.092 1.5 0 1.5ZM228.626 80.6515 222.096 91.8823 215.534 80.6709C215.116 79.9559 215.356 79.0371 216.071 78.6186 216.786 78.2001 217.705 78.4405 218.123 79.1554L223.387 88.1477 220.795 88.1515 226.032 79.1438C226.448 78.4276 227.367 78.1845 228.083 78.6009 228.799 79.0172 229.042 79.9353 228.626 80.6515Z" fill="#FFFFFF" transform="matrix(-4.37114e-08 1 1 4.37114e-08 146.5 355.5)"/><path d="M981.515 152 1069.62 152.867 1069.59 155.867 981.485 155ZM1061.43 147.74 1072.58 154.396 1061.3 160.831C1060.58 161.241 1059.66 160.99 1059.25 160.271 1058.84 159.551 1059.09 158.635 1059.81 158.225L1068.86 153.064 1068.84 155.655 1059.89 150.316C1059.18 149.892 1058.94 148.971 1059.37 148.26 1059.79 147.548 1060.71 147.316 1061.43 147.74Z" fill="#FFFFFF"/><path d="M0-1.5 36.9742-1.5 36.9742 642.513 33.9742 642.513 33.9742 0 35.4742 1.5 0 1.5ZM42.0199 634.27 35.4742 645.491 28.9286 634.27C28.5111 633.555 28.7528 632.636 29.4684 632.219 30.184 631.801 31.1025 632.043 31.5199 632.759L36.7699 641.759 34.1786 641.759 39.4286 632.759C39.846 632.043 40.7645 631.801 41.48 632.219 42.1956 632.636 42.4373 633.555 42.0199 634.27Z" fill="#FFFFFF" transform="matrix(-4.37114e-08 1 1 4.37114e-08 419.5 543.5)"/><text fill="#FFFFFF" font-family="Arial,Arial_MSFontService,sans-serif" font-weight="400" font-size="15" transform="translate(1.1495 701)">* Автоматизация при желании клиента<tspan x="0" y="18">** Настраиваемый параметр, клиент определяет, с какого этапа данные уходят в систему</tspan></text><path d="M79.5001 147C79.5001 137.887 86.8875 130.5 96.0004 130.5L202 130.5C211.113 130.5 218.5 137.887 218.5 147L218.5 213C218.5 222.113 211.113 229.5 202 229.5L96.0004 229.5C86.8875 229.5 79.5001 222.113 79.5001 213Z" stroke="#B0914E" stroke-width="4.66667" stroke-miterlimit="8" fill="none" fill-rule="evenodd"/><path d="M107.5 250.167C107.5 248.694 108.694 247.5 110.167 247.5L187.833 247.5C189.306 247.5 190.5 248.694 190.5 250.167L190.5 260.833C190.5 262.306 189.306 263.5 187.833 263.5L110.167 263.5C108.694 263.5 107.5 262.306 107.5 260.833Z" stroke="#B0914E" stroke-width="4.66667" stroke-miterlimit="8" fill="none" fill-rule="evenodd"/><path d="M80.5001 212.5 219.133 212.5" stroke="#AC8B44" stroke-width="4.66667" stroke-miterlimit="8" fill="none" fill-rule="evenodd"/><path d="M161.5 229.5 161.5 247.412" stroke="#AC8B44" stroke-width="4.66667" stroke-miterlimit="8" fill="none" fill-rule="evenodd"/><path d="M136.5 229.5 136.5 246.74" stroke="#AC8B44" stroke-width="4.66667" stroke-miterlimit="8" fill="none" fill-rule="evenodd"/><path d="M108 168C108 154.745 118.745 144 132 144 145.255 144 156 154.745 156 168 156 181.255 145.255 192 132 192 118.745 192 108 181.255 108 168ZM115.055 168C115.055 177.359 122.641 184.945 132 184.945 141.359 184.945 148.945 177.359 148.945 168 148.945 158.641 141.359 151.055 132 151.055 122.641 151.055 115.055 158.641 115.055 168Z" fill="#B0914E" fill-rule="evenodd"/><path d="M144.221 151.939C142.901 150.621 142.9 148.483 144.218 147.163L146.249 145.13C147.567 143.811 149.705 143.809 151.025 145.127L154.702 148.8C156.021 150.118 156.022 152.256 154.704 153.576L152.673 155.609C151.355 156.929 149.217 156.93 147.897 155.612Z" fill="#B0914E" fill-rule="evenodd"/><path d="M102 165.508C102 163.57 103.57 162 105.508 162L108.492 162C110.43 162 112 163.57 112 165.508L112 170.492C112 172.43 110.43 174 108.492 174L105.508 174C103.57 174 102 172.43 102 170.492Z" fill="#B0914E" fill-rule="evenodd"/><path d="M134.492 138C136.43 138 138 139.57 138 141.508L138 144.492C138 146.43 136.43 148 134.492 148L129.508 148C127.57 148 126 146.43 126 144.492L126 141.508C126 139.57 127.57 138 129.508 138Z" fill="#B0914E" fill-rule="evenodd"/><path d="M134.492 188C136.43 188 138 189.57 138 191.508L138 194.492C138 196.43 136.43 198 134.492 198L129.508 198C127.57 198 126 196.43 126 194.492L126 191.508C126 189.57 127.57 188 129.508 188Z" fill="#B0914E" fill-rule="evenodd"/><path d="M151 165.858C151 163.727 152.727 162 154.858 162L158.142 162C160.273 162 162 163.727 162 165.858L162 170.142C162 172.273 160.273 174 158.142 174L154.858 174C152.727 174 151 172.273 151 170.142Z" fill="#B0914E" fill-rule="evenodd"/><path d="M112.438 145.603C113.711 144.31 115.79 144.294 117.082 145.567L119.073 147.527C120.366 148.8 120.382 150.879 119.109 152.171L115.404 155.934C114.131 157.227 112.052 157.243 110.76 155.97L108.769 154.01C107.477 152.737 107.46 150.658 108.733 149.366Z" fill="#B0914E" fill-rule="evenodd"/><path d="M147.305 180.084C148.732 178.635 151.063 178.617 152.512 180.043L154.744 182.241C156.193 183.668 156.211 185.999 154.784 187.448L151.637 190.644C150.21 192.093 147.879 192.111 146.431 190.684L144.198 188.486C142.749 187.059 142.731 184.729 144.158 183.28Z" fill="#B0914E" fill-rule="evenodd"/><path d="M108.736 187.177C107.484 185.927 107.483 183.899 108.733 182.647L110.66 180.719C111.91 179.467 113.938 179.466 115.19 180.716L119.112 184.634C120.364 185.885 120.365 187.913 119.115 189.165L117.188 191.093C115.938 192.345 113.91 192.346 112.658 191.096Z" fill="#B0914E" fill-rule="evenodd"/><path d="M160.087 179.409C162.891 170.746 172.248 166.015 180.986 168.844 189.724 171.672 194.535 180.988 191.731 189.651 188.926 198.315 179.57 203.045 170.831 200.217 162.093 197.388 157.283 188.072 160.087 179.409ZM164.698 180.901C162.718 187.018 166.132 193.602 172.324 195.606 178.515 197.61 185.14 194.276 187.12 188.159 189.1 182.042 185.685 175.459 179.494 173.455 173.302 171.45 166.678 174.785 164.698 180.901Z" fill="#B0914E" fill-rule="evenodd"/><path d="M187.507 176.548C186.923 175.407 187.375 174.008 188.517 173.424L190.276 172.524C191.417 171.94 192.816 172.392 193.4 173.534L195.027 176.714C195.611 177.856 195.159 179.255 194.018 179.839L192.259 180.739C191.118 181.323 189.719 180.871 189.135 179.729Z" fill="#B0914E" fill-rule="evenodd"/><path d="M156.596 176.692C157.034 175.341 158.483 174.601 159.834 175.038L161.915 175.712C163.266 176.149 164.007 177.599 163.57 178.949L162.644 181.808C162.207 183.159 160.758 183.899 159.407 183.462L157.325 182.788C155.975 182.351 155.234 180.902 155.671 179.551Z" fill="#B0914E" fill-rule="evenodd"/><path d="M183.833 165.415C185.123 165.833 185.831 167.217 185.413 168.508L184.769 170.496C184.352 171.787 182.967 172.494 181.676 172.076L178.533 171.059C177.242 170.641 176.535 169.256 176.952 167.966L177.596 165.978C178.014 164.687 179.398 163.98 180.689 164.397Z" fill="#B0914E" fill-rule="evenodd"/><path d="M173.3 198.166C174.556 198.573 175.245 199.921 174.839 201.177L174.212 203.113C173.805 204.369 172.457 205.058 171.201 204.651L167.934 203.594C166.677 203.187 165.988 201.839 166.395 200.583L167.022 198.647C167.428 197.39 168.776 196.702 170.033 197.108Z" fill="#B0914E" fill-rule="evenodd"/><path d="M189.214 187.237C189.649 185.893 191.092 185.156 192.436 185.591L194.508 186.261C195.853 186.697 196.59 188.139 196.155 189.484L195.222 192.365C194.787 193.71 193.344 194.447 191.999 194.011L189.928 193.341C188.583 192.906 187.846 191.463 188.281 190.118Z" fill="#B0914E" fill-rule="evenodd"/><path d="M168.06 165.675C169.166 165.099 170.53 165.529 171.105 166.635L171.993 168.339C172.569 169.445 172.139 170.808 171.033 171.384L167.813 173.061C166.707 173.637 165.343 173.207 164.768 172.101L163.88 170.397C163.304 169.291 163.734 167.928 164.84 167.352Z" fill="#B0914E" fill-rule="evenodd"/><path d="M183.566 195.61C184.806 194.965 186.335 195.446 186.98 196.686L187.975 198.597C188.621 199.837 188.139 201.365 186.899 202.011L184.164 203.435C182.924 204.081 181.395 203.599 180.75 202.359L179.755 200.449C179.109 199.209 179.591 197.68 180.831 197.035Z" fill="#B0914E" fill-rule="evenodd"/><path d="M156.837 192.085C156.283 191.002 156.711 189.675 157.794 189.121L159.462 188.267C160.545 187.713 161.872 188.142 162.426 189.225L164.162 192.618C164.716 193.701 164.288 195.028 163.205 195.582L161.536 196.435C160.454 196.989 159.127 196.561 158.573 195.478Z" fill="#B0914E" fill-rule="evenodd"/><path d="M402.139 337.856 403.429 336.673 408.5 342.205 413.571 336.673 414.861 337.856 409.687 343.5 414.861 349.145 413.571 350.327 408.5 344.795 403.429 350.327 402.139 349.145 407.313 343.5Z" stroke="#B0914E" stroke-width="1.33333" stroke-miterlimit="8" fill="#B0914E" fill-rule="evenodd"/><rect x="391.5" y="325.5" width="82" height="112" stroke="#B0914E" stroke-width="4.66667" stroke-miterlimit="8" fill="none"/><path d="M402 360 408.418 367.702" stroke="#AC8B44" stroke-width="4" stroke-miterlimit="8" fill="none" fill-rule="evenodd"/><path d="M0 0 10.1079 8.99842" stroke="#AC8B44" stroke-width="4" stroke-miterlimit="8" fill="none" fill-rule="evenodd" transform="matrix(1 0 0 -1 406 366.998)"/><path d="M402 378 408.418 385.702" stroke="#AC8B44" stroke-width="4" stroke-miterlimit="8" fill="none" fill-rule="evenodd"/><path d="M0 0 10.1079 8.99842" stroke="#AC8B44" stroke-width="4" stroke-miterlimit="8" fill="none" fill-rule="evenodd" transform="matrix(1 0 0 -1 406 384.998)"/><path d="M419 340 464.639 340" stroke="#AC8B44" stroke-width="2" stroke-miterlimit="8" fill="none" fill-rule="evenodd"/><path d="M419 346 464.639 346" stroke="#AC8B44" stroke-width="2" stroke-miterlimit="8" fill="none" fill-rule="evenodd"/><path d="M420 360 465.639 360" stroke="#AC8B44" stroke-width="2" stroke-miterlimit="8" fill="none" fill-rule="evenodd"/><path d="M420 365 465.639 365" stroke="#AC8B44" stroke-width="2" stroke-miterlimit="8" fill="none" fill-rule="evenodd"/><path d="M420 378 465.639 378" stroke="#AC8B44" stroke-width="2" stroke-miterlimit="8" fill="none" fill-rule="evenodd"/><path d="M420 383 465.639 383" stroke="#AC8B44" stroke-width="2" stroke-miterlimit="8" fill="none" fill-rule="evenodd"/><path d="M433.8 413.5 458.201 413.5C463.337 413.5 467.5 417.664 467.5 422.8L467.5 437.5 424.5 437.5 424.5 422.8C424.5 417.664 428.664 413.5 433.8 413.5Z" stroke="#B0914E" stroke-width="4.66667" stroke-miterlimit="8" fill="none" fill-rule="evenodd"/><path d="M433 399.5C433 392.044 438.596 386 445.5 386 452.404 386 458 392.044 458 399.5 458 406.956 452.404 413 445.5 413 438.596 413 433 406.956 433 399.5ZM436.674 399.5C436.674 404.927 440.626 409.326 445.5 409.326 450.374 409.326 454.326 404.927 454.326 399.5 454.326 394.073 450.374 389.674 445.5 389.674 440.626 389.674 436.674 394.073 436.674 399.5Z" fill="#B0914E" fill-rule="evenodd"/><path d="M376.5 310.5 461.488 310.5" stroke="#B0914E" stroke-width="4.66667" stroke-miterlimit="8" fill="none" fill-rule="evenodd"/><path d="M375.5 419.5 383.452 419.5" stroke="#B0914E" stroke-width="4.66667" stroke-miterlimit="8" fill="none" fill-rule="evenodd"/><path d="M377.5 307.5 377.5 421.852" stroke="#B0914E" stroke-width="4.66667" stroke-miterlimit="8" fill="none" fill-rule="evenodd"/><path d="M459.5 307.5 459.5 316.109" stroke="#B0914E" stroke-width="4.66667" stroke-miterlimit="8" fill="none" fill-rule="evenodd"/><path d="M461.951 288.328C474.391 286.308 488 296.007 492.347 309.99 494.632 317.342 493.962 324.793 490.51 330.406L487.726 328.15C493.038 318.982 489.328 305.057 479.439 297.048 474.386 292.954 468.421 291.031 463.016 291.754Z" stroke="#B0914E" stroke-width="1.33333" stroke-miterlimit="8" fill="#B0914E" fill-rule="evenodd"/><path d="M463.556 276.022C477.149 269.43 494.993 278.135 503.413 295.466 509.616 308.235 509.132 322.674 502.188 331.98L499.834 329.506C507.888 318.131 505 299.014 493.384 286.807 484.906 277.897 473.728 274.843 465.032 279.059Z" stroke="#B0914E" stroke-width="1.33333" stroke-miterlimit="8" fill="#B0914E" fill-rule="evenodd"/><path d="M466.788 263.397C482.216 254.942 504.123 265.204 515.718 286.317 524.067 301.52 525.04 318.885 518.195 330.544L515.285 327.777C523.254 313.104 517.401 289.5 502.211 275.058 491.412 264.789 478.297 261.576 468.681 266.843Z" stroke="#B0914E" stroke-width="1.33333" stroke-miterlimit="8" fill="#B0914E" fill-rule="evenodd"/><path d="M383.5 317.5 468.488 317.5" stroke="#B0914E" stroke-width="4.66667" stroke-miterlimit="8" fill="none" fill-rule="evenodd"/><path d="M382.5 427.5 390.452 427.5" stroke="#B0914E" stroke-width="4.66667" stroke-miterlimit="8" fill="none" fill-rule="evenodd"/><path d="M384.5 315.5 384.5 429.852" stroke="#B0914E" stroke-width="4.66667" stroke-miterlimit="8" fill="none" fill-rule="evenodd"/><path d="M466.5 315.5 466.5 324.109" stroke="#B0914E" stroke-width="4.66667" stroke-miterlimit="8" fill="none" fill-rule="evenodd"/><path d="M953.899 202.411C975.611 204.602 991.651 221.798 989.727 240.819 988.298 254.94 977.174 266.637 961.663 270.329L960.376 266.498C979.16 262.223 989.927 245.483 984.425 229.11 980.32 216.894 968.041 207.885 953.494 206.417Z" stroke="#B0914E" stroke-width="1.33333" stroke-miterlimit="8" fill="#B0914E" fill-rule="evenodd"/><path d="M798.1 111.259C840.654 74.2713 903.664 78.3618 938.838 120.396 958.464 143.849 966.047 175.507 959.392 206.204L954.397 205.24C965.792 152.982 933.566 102.617 882.42 92.7467 853.847 87.2327 823.935 95.5041 801.365 115.161Z" stroke="#B0914E" stroke-width="1.33333" stroke-miterlimit="8" fill="#B0914E" fill-rule="evenodd"/><path d="M671.187 269.373C615.201 252.361 590.016 198.47 614.936 149.002 639.855 99.535 705.441 73.2242 761.427 90.2355 777.477 95.1124 791.601 103.287 802.638 114.086L799.647 116.363C762.379 80.3383 694.855 79.5378 648.828 114.575 602.8 149.613 595.699 207.22 632.967 243.245 643.662 253.584 657.344 261.384 672.884 266.003Z" stroke="#B0914E" stroke-width="1.33333" stroke-miterlimit="8" fill="#B0914E" fill-rule="evenodd"/><path d="M853.717 296.191C824.646 344.586 762.266 360.141 714.388 330.933 691.211 316.795 674.634 293.864 668.358 267.262L673.423 266.032C685.709 318.191 737.575 350.299 789.27 337.747 814.306 331.669 835.914 315.724 849.267 293.476Z" stroke="#B0914E" stroke-width="1.33333" stroke-miterlimit="8" fill="#B0914E" fill-rule="evenodd"/><path d="M964.439 267.904C965.962 294.112 939.242 316.296 904.758 317.454 882.136 318.213 860.743 309.614 848.837 294.976L852.869 293.081C870.048 313.217 905.971 319.205 933.105 306.458 950.735 298.175 961.034 283.518 960.091 268.05Z" stroke="#B0914E" stroke-width="1.33333" stroke-miterlimit="8" fill="#B0914E" fill-rule="evenodd"/><path d="M713.287 205.5 720.713 205.5C727.775 205.5 733.5 211.225 733.5 218.287L733.5 241.5 700.5 241.5 700.5 218.287C700.5 211.225 706.225 205.5 713.287 205.5Z" stroke="#B0914E" stroke-width="4.66667" stroke-miterlimit="8" fill="none" fill-rule="evenodd"/><path d="M704 191C704 183.268 709.596 177 716.5 177 723.404 177 729 183.268 729 191 729 198.732 723.404 205 716.5 205 709.596 205 704 198.732 704 191ZM707.674 191C707.674 196.703 711.626 201.326 716.5 201.326 721.374 201.326 725.326 196.703 725.326 191 725.326 185.297 721.374 180.674 716.5 180.674 711.626 180.674 707.674 185.297 707.674 191Z" fill="#B0914E" fill-rule="evenodd"/><path d="M721.5 217.5 726.712 217.5" stroke="#B0914E" stroke-width="4.66667" stroke-miterlimit="8" fill="none" fill-rule="evenodd"/><path d="M752.287 205.5 759.713 205.5C766.775 205.5 772.5 211.225 772.5 218.287L772.5 241.5 739.5 241.5 739.5 218.287C739.5 211.225 745.225 205.5 752.287 205.5Z" stroke="#B0914E" stroke-width="4.66667" stroke-miterlimit="8" fill="none" fill-rule="evenodd"/><path d="M743 191C743 183.268 748.82 177 756 177 763.18 177 769 183.268 769 191 769 198.732 763.18 205 756 205 748.82 205 743 198.732 743 191ZM746.821 191C746.821 196.622 750.931 201.179 756 201.179 761.069 201.179 765.179 196.622 765.179 191 765.179 185.378 761.069 180.821 756 180.821 750.931 180.821 746.821 185.378 746.821 191Z" fill="#B0914E" fill-rule="evenodd"/><path d="M760.5 217.5 765.712 217.5" stroke="#B0914E" stroke-width="4.66667" stroke-miterlimit="8" fill="none" fill-rule="evenodd"/><path d="M792.287 205.5 799.713 205.5C806.775 205.5 812.5 211.225 812.5 218.287L812.5 241.5 779.5 241.5 779.5 218.287C779.5 211.225 785.225 205.5 792.287 205.5Z" stroke="#B0914E" stroke-width="4.66667" stroke-miterlimit="8" fill="none" fill-rule="evenodd"/><path d="M782 191C782 183.268 787.82 177 795 177 802.18 177 808 183.268 808 191 808 198.732 802.18 205 795 205 787.82 205 782 198.732 782 191ZM785.821 191C785.821 196.622 789.931 201.179 795 201.179 800.069 201.179 804.179 196.622 804.179 191 804.179 185.378 800.069 180.821 795 180.821 789.931 180.821 785.821 185.378 785.821 191Z" fill="#B0914E" fill-rule="evenodd"/><path d="M799.5 217.5 804.712 217.5" stroke="#B0914E" stroke-width="4.66667" stroke-miterlimit="8" fill="none" fill-rule="evenodd"/><rect x="682.5" y="135.5" width="33" height="24" stroke="#B0914E" stroke-width="1.33333" stroke-miterlimit="8" fill="none"/><path d="M700.379 161.71 708.631 176.418" stroke="#B0914E" stroke-width="1.33333" stroke-miterlimit="8" fill="none" fill-rule="evenodd"/><rect x="796.5" y="135.5" width="34" height="24" stroke="#B0914E" stroke-width="1.33333" stroke-miterlimit="8" fill="none"/><path d="M814.921 161.709 804.331 175.467" stroke="#B0914E" stroke-width="1.33333" stroke-miterlimit="8" fill="none" fill-rule="evenodd"/><rect x="740.5" y="135.5" width="33" height="25" stroke="#B0914E" stroke-width="1.33333" stroke-miterlimit="8" fill="none"/><path d="M756.429 162.802 756.634 175.895" stroke="#B0914E" stroke-width="1.33333" stroke-miterlimit="8" fill="none" fill-rule="evenodd"/><path d="M693.152 141.629 694.416 140.419 699.5 145.734 704.584 140.419 705.849 141.629 700.711 147 705.849 152.371 704.584 153.581 699.5 148.266 694.416 153.581 693.152 152.371 698.289 147Z" stroke="#C00000" stroke-width="1.33333" stroke-miterlimit="8" fill="#B0914E" fill-rule="evenodd"/><path d="M748 144 754.325 151.576" stroke="#70AD47" stroke-width="4" stroke-miterlimit="8" fill="none" fill-rule="evenodd"/><path d="M0 0 9.96052 8.85123" stroke="#70AD47" stroke-width="4" stroke-miterlimit="8" fill="none" fill-rule="evenodd" transform="matrix(1 0 0 -1 753 151.851)"/><path d="M804.5 147.5C804.5 143.082 808.306 139.5 813 139.5 817.694 139.5 821.5 143.082 821.5 147.5 821.5 151.918 817.694 155.5 813 155.5 808.306 155.5 804.5 151.918 804.5 147.5ZM806.614 147.5C806.614 150.751 809.473 153.386 813 153.386 816.527 153.386 819.386 150.751 819.386 147.5 819.386 144.249 816.527 141.614 813 141.614 809.473 141.614 806.614 144.249 806.614 147.5Z" stroke="#B0914E" stroke-width="1.33333" stroke-miterlimit="8" fill="#B0914E" fill-rule="evenodd"/><path d="M0 0 9.96052 8.85123" stroke="#AC8B44" stroke-width="3" stroke-miterlimit="8" fill="none" fill-rule="evenodd" transform="matrix(1 0 0 -1 808.5 152.351)"/><path d="M900.512 221.5 918.488 221.5C925.122 221.5 930.5 226.878 930.5 233.512L930.5 252.5 888.5 252.5 888.5 233.512C888.5 226.878 893.878 221.5 900.512 221.5Z" stroke="#B0914E" stroke-width="8.66667" stroke-miterlimit="8" fill="none" fill-rule="evenodd"/><path d="M917.5 283.5 900.5 283.5C890.559 283.5 882.5 275.441 882.5 265.5L882.5 247.5 935.5 247.5 935.5 265.5C935.5 275.441 927.441 283.5 917.5 283.5Z" stroke="#B0914E" stroke-width="4.66667" stroke-miterlimit="8" fill="#B0914E" fill-rule="evenodd"/><path d="M1112.16 195.5 1121.84 195.5C1131.04 195.5 1138.5 202.96 1138.5 212.162L1138.5 243.5 1095.5 243.5 1095.5 212.162C1095.5 202.96 1102.96 195.5 1112.16 195.5Z" stroke="#B0914E" stroke-width="4.66667" stroke-miterlimit="8" fill="none" fill-rule="evenodd"/><path d="M1100 176.5C1100 166.283 1107.39 158 1116.5 158 1125.61 158 1133 166.283 1133 176.5 1133 186.717 1125.61 195 1116.5 195 1107.39 195 1100 186.717 1100 176.5ZM1104.85 176.5C1104.85 184.039 1110.07 190.15 1116.5 190.15 1122.93 190.15 1128.15 184.039 1128.15 176.5 1128.15 168.961 1122.93 162.85 1116.5 162.85 1110.07 162.85 1104.85 168.961 1104.85 176.5Z" fill="#B0914E" fill-rule="evenodd"/><path d="M1122.5 211.5 1129.29 211.5" stroke="#B0914E" stroke-width="4.66667" stroke-miterlimit="8" fill="none" fill-rule="evenodd"/><path d="M1163.16 205.5 1172.84 205.5C1182.04 205.5 1189.5 212.96 1189.5 222.162L1189.5 253.5 1146.5 253.5 1146.5 222.162C1146.5 212.96 1153.96 205.5 1163.16 205.5Z" stroke="#B0914E" stroke-width="4.66667" stroke-miterlimit="8" fill="none" fill-rule="evenodd"/><path d="M1151 186.5C1151 176.283 1158.39 168 1167.5 168 1176.61 168 1184 176.283 1184 186.5 1184 196.717 1176.61 205 1167.5 205 1158.39 205 1151 196.717 1151 186.5ZM1155.85 186.5C1155.85 194.039 1161.07 200.15 1167.5 200.15 1173.93 200.15 1179.15 194.039 1179.15 186.5 1179.15 178.961 1173.93 172.85 1167.5 172.85 1161.07 172.85 1155.85 178.961 1155.85 186.5Z" fill="#B0914E" fill-rule="evenodd"/><path d="M1173.5 217.5 1180.29 217.5" stroke="#B0914E" stroke-width="4.66667" stroke-miterlimit="8" fill="none" fill-rule="evenodd"/><path d="M1215.16 195.5 1224.84 195.5C1234.04 195.5 1241.5 202.96 1241.5 212.162L1241.5 243.5 1198.5 243.5 1198.5 212.162C1198.5 202.96 1205.96 195.5 1215.16 195.5Z" stroke="#B0914E" stroke-width="4.66667" stroke-miterlimit="8" fill="none" fill-rule="evenodd"/><path d="M1203 176.5C1203 166.283 1210.39 158 1219.5 158 1228.61 158 1236 166.283 1236 176.5 1236 186.717 1228.61 195 1219.5 195 1210.39 195 1203 186.717 1203 176.5ZM1207.85 176.5C1207.85 184.039 1213.07 190.15 1219.5 190.15 1225.93 190.15 1231.15 184.039 1231.15 176.5 1231.15 168.961 1225.93 162.85 1219.5 162.85 1213.07 162.85 1207.85 168.961 1207.85 176.5Z" fill="#B0914E" fill-rule="evenodd"/><path d="M1224.5 211.5 1231.29 211.5" stroke="#B0914E" stroke-width="4.66667" stroke-miterlimit="8" fill="none" fill-rule="evenodd"/><path d="M1144.5 114.307 1162.83 114.307 1168.5 97.5001 1174.17 114.307 1192.5 114.307 1177.67 124.693 1183.33 141.5 1168.5 131.113 1153.67 141.5 1159.33 124.693Z" stroke="#B0914E" stroke-width="3" stroke-miterlimit="8" fill="none" fill-rule="evenodd"/><path d="M1100.5 131.341 1113.1 131.341 1117 119.5 1120.9 131.341 1133.5 131.341 1123.3 138.659 1127.2 150.5 1117 143.182 1106.8 150.5 1110.7 138.659Z" stroke="#B0914E" stroke-width="3" stroke-miterlimit="8" fill="none" fill-rule="evenodd"/><path d="M1203.5 131.341 1216.1 131.341 1220 119.5 1223.9 131.341 1236.5 131.341 1226.3 138.659 1230.2 150.5 1220 143.182 1209.8 150.5 1213.7 138.659Z" stroke="#B0914E" stroke-width="3" stroke-miterlimit="8" fill="none" fill-rule="evenodd"/><path d="M453.5 423.5 458.712 423.5" stroke="#B0914E" stroke-width="4.66667" stroke-miterlimit="8" fill="none" fill-rule="evenodd"/><path d="M263.364 510.897 264.685 509.631 270 515.178 275.316 509.631 276.637 510.897 271.267 516.5 276.637 522.103 275.316 523.369 270 517.822 264.685 523.369 263.364 522.103 268.733 516.5Z" stroke="#B0914E" stroke-width="1.33333" stroke-miterlimit="8" fill="#B0914E" fill-rule="evenodd"/><rect x="253.5" y="497.5" width="84" height="116" stroke="#B0914E" stroke-width="4.66667" stroke-miterlimit="8" fill="none"/><path d="M264 533 270.568 540.972" stroke="#AC8B44" stroke-width="4" stroke-miterlimit="8" fill="none" fill-rule="evenodd"/><path d="M0 0 10.3429 9.31402" stroke="#AC8B44" stroke-width="4" stroke-miterlimit="8" fill="none" fill-rule="evenodd" transform="matrix(1 0 0 -1 268 540.314)"/><path d="M264 552 270.568 559.972" stroke="#AC8B44" stroke-width="4" stroke-miterlimit="8" fill="none" fill-rule="evenodd"/><path d="M0 0 10.3429 9.31402" stroke="#AC8B44" stroke-width="4" stroke-miterlimit="8" fill="none" fill-rule="evenodd" transform="matrix(1 0 0 -1 268 559.314)"/><path d="M281 513 327.7 513" stroke="#AC8B44" stroke-width="2" stroke-miterlimit="8" fill="none" fill-rule="evenodd"/><path d="M281 518 327.7 518" stroke="#AC8B44" stroke-width="2" stroke-miterlimit="8" fill="none" fill-rule="evenodd"/><path d="M282 533 328.7 533" stroke="#AC8B44" stroke-width="2" stroke-miterlimit="8" fill="none" fill-rule="evenodd"/><path d="M282 538 328.7 538" stroke="#AC8B44" stroke-width="2" stroke-miterlimit="8" fill="none" fill-rule="evenodd"/><path d="M282 552 328.7 552" stroke="#AC8B44" stroke-width="2" stroke-miterlimit="8" fill="none" fill-rule="evenodd"/><path d="M282 557 328.7 557" stroke="#AC8B44" stroke-width="2" stroke-miterlimit="8" fill="none" fill-rule="evenodd"/><path d="M296.187 588.5 320.813 588.5C326.163 588.5 330.5 592.837 330.5 598.187L330.5 613.5 286.5 613.5 286.5 598.187C286.5 592.837 290.837 588.5 296.187 588.5Z" stroke="#B0914E" stroke-width="4.66667" stroke-miterlimit="8" fill="none" fill-rule="evenodd"/><path d="M295 574C295 566.268 300.82 560 308 560 315.18 560 321 566.268 321 574 321 581.732 315.18 588 308 588 300.82 588 295 581.732 295 574ZM298.821 574C298.821 579.622 302.931 584.179 308 584.179 313.069 584.179 317.179 579.622 317.179 574 317.179 568.378 313.069 563.821 308 563.821 302.931 563.821 298.821 568.378 298.821 574Z" fill="#B0914E" fill-rule="evenodd"/><path d="M319.5 596.5 324.712 596.5" stroke="#B0914E" stroke-width="4.66667" stroke-miterlimit="8" fill="none" fill-rule="evenodd"/><path d="M1112.77 565.5 1122.23 565.5C1131.21 565.5 1138.5 572.786 1138.5 581.774L1138.5 612.5 1096.5 612.5 1096.5 581.774C1096.5 572.786 1103.79 565.5 1112.77 565.5Z" stroke="#B0914E" stroke-width="4.66667" stroke-miterlimit="8" fill="none" fill-rule="evenodd"/><path d="M1100 545.5C1100 535.283 1107.61 527 1117 527 1126.39 527 1134 535.283 1134 545.5 1134 555.717 1126.39 564 1117 564 1107.61 564 1100 555.717 1100 545.5ZM1105 545.5C1105 552.958 1110.37 559.003 1117 559.003 1123.63 559.003 1129 552.958 1129 545.5 1129 538.042 1123.63 531.997 1117 531.997 1110.37 531.997 1105 538.042 1105 545.5Z" fill="#B0914E" fill-rule="evenodd"/><path d="M1122.5 581.5 1129.29 581.5" stroke="#B0914E" stroke-width="4.66667" stroke-miterlimit="8" fill="none" fill-rule="evenodd"/><path d="M1163.77 575.5 1173.23 575.5C1182.21 575.5 1189.5 582.786 1189.5 591.774L1189.5 622.5 1147.5 622.5 1147.5 591.774C1147.5 582.786 1154.79 575.5 1163.77 575.5Z" stroke="#B0914E" stroke-width="4.66667" stroke-miterlimit="8" fill="none" fill-rule="evenodd"/><path d="M1151 556C1151 545.507 1158.61 537 1168 537 1177.39 537 1185 545.507 1185 556 1185 566.493 1177.39 575 1168 575 1158.61 575 1151 566.493 1151 556ZM1156 556C1156 563.734 1161.37 570.003 1168 570.003 1174.63 570.003 1180 563.734 1180 556 1180 548.266 1174.63 541.997 1168 541.997 1161.37 541.997 1156 548.266 1156 556Z" fill="#B0914E" fill-rule="evenodd"/><path d="M1173.5 587.5 1180.29 587.5" stroke="#B0914E" stroke-width="4.66667" stroke-miterlimit="8" fill="none" fill-rule="evenodd"/><path d="M1215.16 565.5 1224.84 565.5C1234.04 565.5 1241.5 572.96 1241.5 582.162L1241.5 612.5 1198.5 612.5 1198.5 582.162C1198.5 572.96 1205.96 565.5 1215.16 565.5Z" stroke="#B0914E" stroke-width="4.66667" stroke-miterlimit="8" fill="none" fill-rule="evenodd"/><path d="M1203 545.5C1203 535.283 1210.39 527 1219.5 527 1228.61 527 1236 535.283 1236 545.5 1236 555.717 1228.61 564 1219.5 564 1210.39 564 1203 555.717 1203 545.5ZM1207.85 545.5C1207.85 553.039 1213.07 559.15 1219.5 559.15 1225.93 559.15 1231.15 553.039 1231.15 545.5 1231.15 537.961 1225.93 531.85 1219.5 531.85 1213.07 531.85 1207.85 537.961 1207.85 545.5Z" fill="#B0914E" fill-rule="evenodd"/><path d="M1225.5 581.5 1232.29 581.5" stroke="#B0914E" stroke-width="4.66667" stroke-miterlimit="8" fill="none" fill-rule="evenodd"/><text fill="#B0914E" font-family="Arial,Arial_MSFontService,sans-serif" font-weight="700" font-size="48" transform="translate(1106.31 522)">₽<tspan x="104.818" y="0">₽</tspan><tspan x="54.4894" y="14">₽</tspan></text><path d="M293 481.056 293 366 360.072 366 360.072 369 294.5 369 296 367.5 296 481.056ZM351.828 360.954 363.049 367.5 351.828 374.046C351.112 374.463 350.194 374.221 349.776 373.506 349.359 372.79 349.6 371.872 350.316 371.454L359.316 366.204 359.316 368.796 350.316 363.546C349.6 363.128 349.359 362.21 349.776 361.494 350.194 360.779 351.112 360.537 351.828 360.954Z" fill="#FFFFFF"/><path d="M0-1.5 2.81339-1.5 2.81339 41.1725 1.31339 39.6725 162.657 39.6725 162.657 42.6725-0.186613 42.6725-0.186613 0 1.31339 1.5 0 1.5ZM154.413 34.6268 165.634 41.1725 154.413 47.7182C153.697 48.1356 152.779 47.8939 152.361 47.1783 151.944 46.4627 152.186 45.5442 152.901 45.1268L161.901 39.8768 161.901 42.4682 152.901 37.2182C152.186 36.8007 151.944 35.8823 152.361 35.1667 152.779 34.4511 153.697 34.2094 154.413 34.6268Z" fill="#FFFFFF" transform="matrix(1 0 0 -1 419.5 199.673)"/><path d="M398 232 417.374 250.88" stroke="#70AD47" stroke-width="6" stroke-miterlimit="8" fill="none" fill-rule="evenodd"/><path d="M0 0 35.2337 33.1417" stroke="#70AD47" stroke-width="6" stroke-miterlimit="8" fill="none" fill-rule="evenodd" transform="matrix(1 0 0 -1 413 250.142)"/><path d="M420.5 268.5 420.5 296.342" stroke="#FFFFFF" stroke-width="3" stroke-miterlimit="8" fill="none" fill-rule="evenodd"/><path d="M420.5 455.5 420.5 483.342" stroke="#FFFFFF" stroke-width="3" stroke-miterlimit="8" fill="none" fill-rule="evenodd"/><text fill="#FFFFFF" font-family="Arial,Arial_MSFontService,sans-serif" font-weight="400" font-size="27" transform="translate(1.47969 296)">Настройка <tspan x="12.7733" y="29">системы</tspan><tspan x="159.193" y="2">Автоматизация </tspan><tspan x="198.94" y="31">воронки*</tspan><tspan font-weight="700" x="136.153" y="7">+</tspan><tspan x="230.286" y="352">Обработка </tspan><tspan x="226.186" y="381">кандидатов</tspan><tspan x="482.067" y="114">Передача </tspan><tspan x="486.394" y="143">данных**</tspan><tspan x="665.328" y="102">Шифрование и хранение </tspan><tspan x="695.415" y="131">данных о кандидате</tspan><tspan x="1066.34" y="-7">Получить новых </tspan><tspan x="1069.4" y="22">кандидатов под </tspan><tspan x="1132.13" y="50">Ваши </tspan><tspan x="1094.34" y="79">требования</tspan><tspan x="1082.44" y="356">Купить новых </tspan><tspan x="1069.13" y="385">кандидатов под </tspan><tspan x="1131.86" y="413">Ваши </tspan><tspan x="1094.07" y="442">требования</tspan></text></g></svg>
