<svg viewBox="0 0 1307 719" xmlns="http://www.w3.org/2000/svg" xmlns:xlink="http://www.w3.org/1999/xlink" overflow="hidden"><defs><clipPath id="clip0"><path d="M-15 78 1292 78 1292 797-15 797Z" fill-rule="evenodd" clip-rule="evenodd"/></clipPath></defs><g clip-path="url(#clip0)" transform="translate(15 -78)"><text fill="#FF0000" font-family="Arial,Arial_MSFontService,sans-serif" font-weight="400" font-size="48" transform="translate(403.371 529)">Х</text><path d="M0-1.5 225.507-1.5 225.507 88.9054 222.507 88.9054 222.507 0 224.007 1.5 0 1.5ZM230.54 80.6515 224.011 91.8823 217.449 80.6709C217.03 79.956 217.271 79.0371 217.986 78.6186 218.7 78.2002 219.619 78.4405 220.038 79.1555L225.301 88.1477 222.71 88.1515 227.946 79.1437C228.363 78.4275 229.281 78.1844 229.997 78.6008 230.713 79.0172 230.956 79.9353 230.54 80.6515Z" fill="#B0914E" transform="matrix(-4.37114e-08 1 1 4.37114e-08 146.5 351.5)"/><path d="M981.515 147 1069.62 147.874 1069.59 150.874 981.485 150ZM1061.43 142.747 1072.58 149.404 1061.3 155.838C1060.58 156.248 1059.66 155.997 1059.25 155.277 1058.84 154.558 1059.09 153.642 1059.81 153.231L1068.86 148.071 1068.84 150.662 1059.89 145.323C1059.18 144.899 1058.94 143.978 1059.37 143.266 1059.79 142.555 1060.71 142.322 1061.43 142.747Z" fill="#B0914E"/><path d="M0-1.5 37.2801-1.5 37.2801 642.513 34.2801 642.513 34.2801 0 35.7801 1.5 0 1.5ZM42.3257 634.27 35.7801 645.491 29.2344 634.27C28.817 633.555 29.0587 632.636 29.7742 632.219 30.4898 631.801 31.4083 632.043 31.8257 632.759L37.0757 641.759 34.4844 641.759 39.7344 632.759C40.1518 632.043 41.0703 631.801 41.7859 632.219 42.5014 632.636 42.7431 633.555 42.3257 634.27Z" fill="#FF0000" transform="matrix(-4.37114e-08 1 1 4.37114e-08 419.5 541.5)"/><text fill="#FFFFFF" font-family="Arial,Arial_MSFontService,sans-serif" font-weight="400" font-size="15" transform="translate(1.1495 700)">* Автоматизация <tspan x="118.667" y="0">при желании клиента</tspan><tspan x="0" y="18">** Настраиваемый параметр, клиент определяет, с какого этапа данные уходят в систему</tspan></text><path d="M79.5001 141.167C79.5001 131.962 86.9621 124.5 96.167 124.5L201.833 124.5C211.038 124.5 218.5 131.962 218.5 141.167L218.5 207.833C218.5 217.038 211.038 224.5 201.833 224.5L96.167 224.5C86.9621 224.5 79.5001 217.038 79.5001 207.833Z" stroke="#B0914E" stroke-width="4.66667" stroke-miterlimit="8" fill="none" fill-rule="evenodd"/><path d="M107.5 245.167C107.5 243.694 108.694 242.5 110.167 242.5L187.833 242.5C189.306 242.5 190.5 243.694 190.5 245.167L190.5 255.833C190.5 257.306 189.306 258.5 187.833 258.5L110.167 258.5C108.694 258.5 107.5 257.306 107.5 255.833Z" stroke="#B0914E" stroke-width="4.66667" stroke-miterlimit="8" fill="none" fill-rule="evenodd"/><path d="M80.5001 207.5 219.133 207.5" stroke="#AC8B44" stroke-width="4.66667" stroke-miterlimit="8" fill="none" fill-rule="evenodd"/><path d="M161.5 224.5 161.5 242.567" stroke="#AC8B44" stroke-width="4.66667" stroke-miterlimit="8" fill="none" fill-rule="evenodd"/><path d="M136.5 224.5 136.5 241.888" stroke="#AC8B44" stroke-width="4.66667" stroke-miterlimit="8" fill="none" fill-rule="evenodd"/><path d="M108 163C108 149.745 118.745 139 132 139 145.255 139 156 149.745 156 163 156 176.255 145.255 187 132 187 118.745 187 108 176.255 108 163ZM115.055 163C115.055 172.359 122.641 179.945 132 179.945 141.359 179.945 148.945 172.359 148.945 163 148.945 153.641 141.359 146.055 132 146.055 122.641 146.055 115.055 153.641 115.055 163Z" fill="#B0914E" fill-rule="evenodd"/><path d="M144.212 146.423C142.881 145.094 142.88 142.937 144.209 141.606L146.258 139.555C147.587 138.225 149.744 138.223 151.075 139.553L154.71 143.184C156.041 144.514 156.042 146.67 154.713 148.001L152.665 150.052C151.335 151.383 149.178 151.384 147.848 150.055Z" fill="#B0914E" fill-rule="evenodd"/><path d="M102 160.508C102 158.57 103.57 157 105.508 157L108.492 157C110.43 157 112 158.57 112 160.508L112 165.492C112 167.43 110.43 169 108.492 169L105.508 169C103.57 169 102 167.43 102 165.492Z" fill="#B0914E" fill-rule="evenodd"/><path d="M134.492 133C136.43 133 138 134.57 138 136.508L138 139.492C138 141.43 136.43 143 134.492 143L129.508 143C127.57 143 126 141.43 126 139.492L126 136.508C126 134.57 127.57 133 129.508 133Z" fill="#B0914E" fill-rule="evenodd"/><path d="M134.492 183C136.43 183 138 184.57 138 186.508L138 189.492C138 191.43 136.43 193 134.492 193L129.508 193C127.57 193 126 191.43 126 189.492L126 186.508C126 184.57 127.57 183 129.508 183Z" fill="#B0914E" fill-rule="evenodd"/><path d="M151 160.858C151 158.727 152.727 157 154.858 157L158.142 157C160.273 157 162 158.727 162 160.858L162 165.142C162 167.273 160.273 169 158.142 169L154.858 169C152.727 169 151 167.273 151 165.142Z" fill="#B0914E" fill-rule="evenodd"/><path d="M112.474 140.004C113.747 138.712 115.826 138.696 117.118 139.968L119.109 141.929C120.401 143.201 120.417 145.28 119.145 146.573L115.368 150.408C114.096 151.701 112.016 151.717 110.724 150.444L108.733 148.484C107.441 147.211 107.425 145.132 108.697 143.84Z" fill="#B0914E" fill-rule="evenodd"/><path d="M147.341 174.783C148.768 173.334 151.099 173.316 152.547 174.743L154.78 176.941C156.229 178.367 156.247 180.698 154.82 182.147L151.601 185.416C150.175 186.865 147.844 186.883 146.395 185.456L144.162 183.258C142.714 181.832 142.696 179.501 144.122 178.052Z" fill="#B0914E" fill-rule="evenodd"/><path d="M108.727 181.965C107.465 180.704 107.464 178.658 108.725 177.396L110.668 175.451C111.929 174.188 113.975 174.187 115.237 175.448L119.121 179.328C120.383 180.589 120.384 182.634 119.123 183.897L117.18 185.842C115.919 187.104 113.873 187.105 112.611 185.844Z" fill="#B0914E" fill-rule="evenodd"/><path d="M160.087 174.138C162.915 165.399 172.292 160.609 181.03 163.437 189.768 166.265 194.559 175.642 191.731 184.38 188.902 193.118 179.526 197.909 170.788 195.081 162.049 192.252 157.259 182.876 160.087 174.138ZM164.738 175.643C162.741 181.813 166.123 188.433 172.293 190.43 178.463 192.427 185.083 189.044 187.08 182.875 189.077 176.705 185.694 170.085 179.525 168.088 173.355 166.091 166.735 169.473 164.738 175.643Z" fill="#B0914E" fill-rule="evenodd"/><path d="M187.524 171.207C186.935 170.056 187.39 168.645 188.542 168.056L190.316 167.148C191.467 166.559 192.878 167.015 193.467 168.167L195.076 171.312C195.665 172.463 195.209 173.874 194.058 174.463L192.284 175.371C191.133 175.96 189.722 175.504 189.133 174.352Z" fill="#B0914E" fill-rule="evenodd"/><path d="M156.607 171.387C157.045 170.037 158.494 169.296 159.845 169.733L161.926 170.407C163.277 170.844 164.018 172.294 163.58 173.644L162.634 176.57C162.196 177.92 160.747 178.661 159.396 178.224L157.315 177.55C155.964 177.113 155.223 175.663 155.66 174.313Z" fill="#B0914E" fill-rule="evenodd"/><path d="M183.867 159.968C185.169 160.389 185.882 161.786 185.461 163.087L184.812 165.093C184.391 166.394 182.994 167.108 181.693 166.687L178.589 165.682C177.287 165.261 176.574 163.864 176.995 162.563L177.644 160.557C178.066 159.256 179.462 158.542 180.764 158.963Z" fill="#B0914E" fill-rule="evenodd"/><path d="M173.244 193.001C174.511 193.411 175.206 194.771 174.796 196.038L174.164 197.991C173.753 199.258 172.394 199.952 171.127 199.542L167.898 198.497C166.631 198.087 165.936 196.728 166.347 195.46L166.979 193.508C167.389 192.241 168.748 191.546 170.016 191.956Z" fill="#B0914E" fill-rule="evenodd"/><path d="M189.224 181.932C189.66 180.588 191.102 179.851 192.447 180.286L194.519 180.956C195.863 181.392 196.601 182.834 196.165 184.179L195.211 187.127C194.776 188.471 193.333 189.209 191.989 188.773L189.917 188.103C188.572 187.668 187.835 186.225 188.27 184.88Z" fill="#B0914E" fill-rule="evenodd"/><path d="M168.123 160.289C169.229 159.713 170.592 160.143 171.168 161.249L172.056 162.953C172.632 164.059 172.202 165.422 171.096 165.998L167.813 167.707C166.707 168.283 165.344 167.854 164.768 166.748L163.881 165.044C163.305 163.938 163.735 162.574 164.841 161.999Z" fill="#B0914E" fill-rule="evenodd"/><path d="M183.566 190.42C184.806 189.774 186.334 190.256 186.98 191.496L187.975 193.406C188.62 194.646 188.139 196.174 186.899 196.82L184.101 198.277C182.861 198.922 181.333 198.441 180.687 197.201L179.692 195.29C179.047 194.051 179.529 192.522 180.768 191.876Z" fill="#B0914E" fill-rule="evenodd"/><path d="M156.789 186.942C156.23 185.85 156.662 184.512 157.754 183.953L159.437 183.092C160.529 182.533 161.868 182.966 162.426 184.058L164.145 187.418C164.704 188.51 164.272 189.848 163.179 190.407L161.497 191.268C160.405 191.826 159.066 191.394 158.508 190.302Z" fill="#B0914E" fill-rule="evenodd"/><path d="M402.139 333.856 403.429 332.673 408.5 338.205 413.571 332.673 414.861 333.856 409.687 339.5 414.861 345.145 413.571 346.327 408.5 340.795 403.429 346.327 402.139 345.145 407.313 339.5Z" stroke="#B0914E" stroke-width="1.33333" stroke-miterlimit="8" fill="#B0914E" fill-rule="evenodd"/><rect x="391.5" y="321.5" width="82" height="113" stroke="#B0914E" stroke-width="4.66667" stroke-miterlimit="8" fill="none"/><path d="M402 356 408.418 363.768" stroke="#AC8B44" stroke-width="4" stroke-miterlimit="8" fill="none" fill-rule="evenodd"/><path d="M0 0 10.1079 9.07601" stroke="#AC8B44" stroke-width="4" stroke-miterlimit="8" fill="none" fill-rule="evenodd" transform="matrix(1 0 0 -1 406 363.076)"/><path d="M402 374 408.418 381.768" stroke="#AC8B44" stroke-width="4" stroke-miterlimit="8" fill="none" fill-rule="evenodd"/><path d="M0 0 10.1079 9.07601" stroke="#AC8B44" stroke-width="4" stroke-miterlimit="8" fill="none" fill-rule="evenodd" transform="matrix(1 0 0 -1 406 382.076)"/><path d="M419 336 464.639 336" stroke="#AC8B44" stroke-width="2" stroke-miterlimit="8" fill="none" fill-rule="evenodd"/><path d="M419 342 464.639 342" stroke="#AC8B44" stroke-width="2" stroke-miterlimit="8" fill="none" fill-rule="evenodd"/><path d="M420 356 465.639 356" stroke="#AC8B44" stroke-width="2" stroke-miterlimit="8" fill="none" fill-rule="evenodd"/><path d="M420 361 465.639 361" stroke="#AC8B44" stroke-width="2" stroke-miterlimit="8" fill="none" fill-rule="evenodd"/><path d="M420 374 465.639 374" stroke="#AC8B44" stroke-width="2" stroke-miterlimit="8" fill="none" fill-rule="evenodd"/><path d="M420 380 465.639 380" stroke="#AC8B44" stroke-width="2" stroke-miterlimit="8" fill="none" fill-rule="evenodd"/><path d="M433.8 410.5 458.201 410.5C463.337 410.5 467.5 414.664 467.5 419.8L467.5 434.5 424.5 434.5 424.5 419.8C424.5 414.664 428.664 410.5 433.8 410.5Z" stroke="#B0914E" stroke-width="4.66667" stroke-miterlimit="8" fill="none" fill-rule="evenodd"/><path d="M433 396C433 388.268 438.596 382 445.5 382 452.404 382 458 388.268 458 396 458 403.732 452.404 410 445.5 410 438.596 410 433 403.732 433 396ZM436.674 396C436.674 401.703 440.626 406.326 445.5 406.326 450.374 406.326 454.326 401.703 454.326 396 454.326 390.297 450.374 385.674 445.5 385.674 440.626 385.674 436.674 390.297 436.674 396Z" fill="#B0914E" fill-rule="evenodd"/><path d="M376.5 305.5 461.488 305.5" stroke="#B0914E" stroke-width="4.66667" stroke-miterlimit="8" fill="none" fill-rule="evenodd"/><path d="M375.5 416.5 383.452 416.5" stroke="#B0914E" stroke-width="4.66667" stroke-miterlimit="8" fill="none" fill-rule="evenodd"/><path d="M377.5 303.5 377.5 418.838" stroke="#B0914E" stroke-width="4.66667" stroke-miterlimit="8" fill="none" fill-rule="evenodd"/><path d="M459.5 303.5 459.5 312.184" stroke="#B0914E" stroke-width="4.66667" stroke-miterlimit="8" fill="none" fill-rule="evenodd"/><path d="M461.892 283.981C474.372 282.041 488.04 291.889 492.419 305.977 494.706 313.334 494.068 320.769 490.669 326.375L487.883 324.119C493.137 314.889 489.311 300.856 479.336 292.777 474.28 288.681 468.339 286.735 462.958 287.409Z" stroke="#B0914E" stroke-width="1.33333" stroke-miterlimit="8" fill="#B0914E" fill-rule="evenodd"/><path d="M463.425 271.54C477.018 264.948 494.921 273.774 503.413 291.254 509.653 304.099 509.237 318.597 502.361 327.95L500.004 325.473C507.991 313.999 504.972 294.722 493.261 282.415 484.741 273.461 473.57 270.374 464.9 274.577Z" stroke="#B0914E" stroke-width="1.33333" stroke-miterlimit="8" fill="#B0914E" fill-rule="evenodd"/><path d="M466.607 258.805C482.035 250.351 504.023 260.761 515.718 282.056 524.115 297.346 525.173 314.778 518.415 326.491L515.501 323.72C523.374 308.92 517.347 285.123 502.039 270.566 491.19 260.251 478.084 257.002 468.5 262.252Z" stroke="#B0914E" stroke-width="1.33333" stroke-miterlimit="8" fill="#B0914E" fill-rule="evenodd"/><path d="M383.5 313.5 468.488 313.5" stroke="#B0914E" stroke-width="4.66667" stroke-miterlimit="8" fill="none" fill-rule="evenodd"/><path d="M382.5 424.5 390.452 424.5" stroke="#B0914E" stroke-width="4.66667" stroke-miterlimit="8" fill="none" fill-rule="evenodd"/><path d="M384.5 311.5 384.5 426.838" stroke="#B0914E" stroke-width="4.66667" stroke-miterlimit="8" fill="none" fill-rule="evenodd"/><path d="M466.5 311.5 466.5 320.184" stroke="#B0914E" stroke-width="4.66667" stroke-miterlimit="8" fill="none" fill-rule="evenodd"/><path d="M956.437 197.772C977.849 201.979 992.19 220.727 988.468 239.647 985.713 253.657 973.581 264.358 957.836 266.667L956.904 262.701C975.984 260.086 988.225 244.234 984.245 227.295 981.285 214.694 969.944 204.565 955.653 201.758Z" stroke="#B0914E" stroke-width="1.33333" stroke-miterlimit="8" fill="#B0914E" fill-rule="evenodd"/><path d="M799.488 105.959C842.211 68.4785 905.379 72.1944 940.578 114.258 960.335 137.868 967.854 169.9 960.933 200.978L955.938 200.014C967.733 147.403 935.785 96.7428 884.579 86.8613 855.793 81.3063 825.559 89.8039 802.753 109.86Z" stroke="#B0914E" stroke-width="1.33333" stroke-miterlimit="8" fill="#B0914E" fill-rule="evenodd"/><path d="M670.934 264.563C614.985 247.094 589.943 192.606 615.002 142.862 640.061 93.1173 705.73 66.9527 761.679 84.4215 777.697 89.4226 791.785 97.7294 802.787 108.66L799.773 110.955C762.583 74.4332 695.066 73.2732 648.969 108.364 602.871 143.454 595.651 201.508 632.84 238.029 643.498 248.496 657.14 256.426 672.644 261.167Z" stroke="#B0914E" stroke-width="1.33333" stroke-miterlimit="8" fill="#B0914E" fill-rule="evenodd"/><path d="M853.829 291.495C824.842 340.424 762.48 356.382 714.539 327.136 691.151 312.869 674.459 289.573 668.244 262.525L673.309 261.295C685.37 313.941 737.106 346.432 788.864 333.865 814.135 327.729 835.958 311.471 849.38 288.78Z" stroke="#B0914E" stroke-width="1.33333" stroke-miterlimit="8" fill="#B0914E" fill-rule="evenodd"/><path d="M964.439 261.904C965.962 288.112 939.242 310.296 904.758 311.454 882.136 312.213 860.743 303.614 848.837 288.976L852.869 287.081C870.048 307.217 905.971 313.205 933.105 300.458 950.735 292.175 961.034 277.518 960.091 262.05Z" stroke="#B0914E" stroke-width="1.33333" stroke-miterlimit="8" fill="#B0914E" fill-rule="evenodd"/><path d="M713.287 200.5 720.713 200.5C727.775 200.5 733.5 206.225 733.5 213.287L733.5 236.5 700.5 236.5 700.5 213.287C700.5 206.225 706.225 200.5 713.287 200.5Z" stroke="#B0914E" stroke-width="4.66667" stroke-miterlimit="8" fill="none" fill-rule="evenodd"/><path d="M704 186C704 178.268 709.596 172 716.5 172 723.404 172 729 178.268 729 186 729 193.732 723.404 200 716.5 200 709.596 200 704 193.732 704 186ZM707.674 186C707.674 191.703 711.626 196.326 716.5 196.326 721.374 196.326 725.326 191.703 725.326 186 725.326 180.297 721.374 175.674 716.5 175.674 711.626 175.674 707.674 180.297 707.674 186Z" fill="#B0914E" fill-rule="evenodd"/><path d="M721.5 212.5 726.712 212.5" stroke="#B0914E" stroke-width="4.66667" stroke-miterlimit="8" fill="none" fill-rule="evenodd"/><path d="M752.287 200.5 759.713 200.5C766.775 200.5 772.5 206.225 772.5 213.287L772.5 236.5 739.5 236.5 739.5 213.287C739.5 206.225 745.225 200.5 752.287 200.5Z" stroke="#B0914E" stroke-width="4.66667" stroke-miterlimit="8" fill="none" fill-rule="evenodd"/><path d="M743 186C743 178.268 748.82 172 756 172 763.18 172 769 178.268 769 186 769 193.732 763.18 200 756 200 748.82 200 743 193.732 743 186ZM746.821 186C746.821 191.622 750.931 196.179 756 196.179 761.069 196.179 765.179 191.622 765.179 186 765.179 180.378 761.069 175.821 756 175.821 750.931 175.821 746.821 180.378 746.821 186Z" fill="#B0914E" fill-rule="evenodd"/><path d="M760.5 212.5 765.712 212.5" stroke="#B0914E" stroke-width="4.66667" stroke-miterlimit="8" fill="none" fill-rule="evenodd"/><path d="M792.287 200.5 799.713 200.5C806.775 200.5 812.5 206.225 812.5 213.287L812.5 236.5 779.5 236.5 779.5 213.287C779.5 206.225 785.225 200.5 792.287 200.5Z" stroke="#B0914E" stroke-width="4.66667" stroke-miterlimit="8" fill="none" fill-rule="evenodd"/><path d="M782 186C782 178.268 787.82 172 795 172 802.18 172 808 178.268 808 186 808 193.732 802.18 200 795 200 787.82 200 782 193.732 782 186ZM785.821 186C785.821 191.622 789.931 196.179 795 196.179 800.069 196.179 804.179 191.622 804.179 186 804.179 180.378 800.069 175.821 795 175.821 789.931 175.821 785.821 180.378 785.821 186Z" fill="#B0914E" fill-rule="evenodd"/><path d="M799.5 212.5 804.712 212.5" stroke="#B0914E" stroke-width="4.66667" stroke-miterlimit="8" fill="none" fill-rule="evenodd"/><rect x="682.5" y="129.5" width="33" height="25" stroke="#B0914E" stroke-width="1.33333" stroke-miterlimit="8" fill="none"/><path d="M700.379 156.802 708.631 172.123" stroke="#B0914E" stroke-width="1.33333" stroke-miterlimit="8" fill="none" fill-rule="evenodd"/><rect x="796.5" y="129.5" width="34" height="25" stroke="#B0914E" stroke-width="1.33333" stroke-miterlimit="8" fill="none"/><path d="M814.921 156.802 804.331 171.133" stroke="#B0914E" stroke-width="1.33333" stroke-miterlimit="8" fill="none" fill-rule="evenodd"/><rect x="740.5" y="129.5" width="33" height="25" stroke="#B0914E" stroke-width="1.33333" stroke-miterlimit="8" fill="none"/><path d="M756.429 156.802 756.634 169.895" stroke="#B0914E" stroke-width="1.33333" stroke-miterlimit="8" fill="none" fill-rule="evenodd"/><path d="M693.152 136.629 694.416 135.419 699.5 140.734 704.584 135.419 705.849 136.629 700.711 142 705.849 147.371 704.584 148.581 699.5 143.266 694.416 148.581 693.152 147.371 698.289 142Z" stroke="#B0914E" stroke-width="1.33333" stroke-miterlimit="8" fill="#B0914E" fill-rule="evenodd"/><path d="M748 139 754.325 146.641" stroke="#AC8B44" stroke-width="4" stroke-miterlimit="8" fill="none" fill-rule="evenodd"/><path d="M0 0 9.96052 8.92756" stroke="#AC8B44" stroke-width="4" stroke-miterlimit="8" fill="none" fill-rule="evenodd" transform="matrix(1 0 0 -1 753 145.928)"/><path d="M804.5 142C804.5 137.306 808.306 133.5 813 133.5 817.694 133.5 821.5 137.306 821.5 142 821.5 146.694 817.694 150.5 813 150.5 808.306 150.5 804.5 146.694 804.5 142ZM806.746 142C806.746 145.454 809.546 148.254 813 148.254 816.454 148.254 819.254 145.454 819.254 142 819.254 138.546 816.454 135.746 813 135.746 809.546 135.746 806.746 138.546 806.746 142Z" stroke="#B0914E" stroke-width="1.33333" stroke-miterlimit="8" fill="#B0914E" fill-rule="evenodd"/><path d="M0 0 9.96052 8.92756" stroke="#AC8B44" stroke-width="3" stroke-miterlimit="8" fill="none" fill-rule="evenodd" transform="matrix(1 0 0 -1 808.5 146.428)"/><path d="M900.899 216.5 918.101 216.5C924.949 216.5 930.5 222.051 930.5 228.899L930.5 248.5 888.5 248.5 888.5 228.899C888.5 222.051 894.051 216.5 900.899 216.5Z" stroke="#B0914E" stroke-width="8.66667" stroke-miterlimit="8" fill="none" fill-rule="evenodd"/><path d="M917.5 278.5 900.5 278.5C890.559 278.5 882.5 270.441 882.5 260.5L882.5 242.5 935.5 242.5 935.5 260.5C935.5 270.441 927.441 278.5 917.5 278.5Z" stroke="#B0914E" stroke-width="4.66667" stroke-miterlimit="8" fill="#B0914E" fill-rule="evenodd"/><path d="M1112.16 190.5 1121.84 190.5C1131.04 190.5 1138.5 197.96 1138.5 207.162L1138.5 238.5 1095.5 238.5 1095.5 207.162C1095.5 197.96 1102.96 190.5 1112.16 190.5Z" stroke="#B0914E" stroke-width="4.66667" stroke-miterlimit="8" fill="none" fill-rule="evenodd"/><path d="M1100 171C1100 160.507 1107.39 152 1116.5 152 1125.61 152 1133 160.507 1133 171 1133 181.493 1125.61 190 1116.5 190 1107.39 190 1100 181.493 1100 171ZM1104.85 171C1104.85 178.815 1110.07 185.15 1116.5 185.15 1122.93 185.15 1128.15 178.815 1128.15 171 1128.15 163.185 1122.93 156.85 1116.5 156.85 1110.07 156.85 1104.85 163.185 1104.85 171Z" fill="#B0914E" fill-rule="evenodd"/><path d="M1122.5 206.5 1129.29 206.5" stroke="#B0914E" stroke-width="4.66667" stroke-miterlimit="8" fill="none" fill-rule="evenodd"/><path d="M1163.16 200.5 1172.84 200.5C1182.04 200.5 1189.5 207.96 1189.5 217.162L1189.5 248.5 1146.5 248.5 1146.5 217.162C1146.5 207.96 1153.96 200.5 1163.16 200.5Z" stroke="#B0914E" stroke-width="4.66667" stroke-miterlimit="8" fill="none" fill-rule="evenodd"/><path d="M1151 181.5C1151 171.283 1158.39 163 1167.5 163 1176.61 163 1184 171.283 1184 181.5 1184 191.717 1176.61 200 1167.5 200 1158.39 200 1151 191.717 1151 181.5ZM1155.85 181.5C1155.85 189.039 1161.07 195.15 1167.5 195.15 1173.93 195.15 1179.15 189.039 1179.15 181.5 1179.15 173.961 1173.93 167.85 1167.5 167.85 1161.07 167.85 1155.85 173.961 1155.85 181.5Z" fill="#B0914E" fill-rule="evenodd"/><path d="M1173.5 212.5 1180.29 212.5" stroke="#B0914E" stroke-width="4.66667" stroke-miterlimit="8" fill="none" fill-rule="evenodd"/><path d="M1215.16 190.5 1224.84 190.5C1234.04 190.5 1241.5 197.96 1241.5 207.162L1241.5 238.5 1198.5 238.5 1198.5 207.162C1198.5 197.96 1205.96 190.5 1215.16 190.5Z" stroke="#B0914E" stroke-width="4.66667" stroke-miterlimit="8" fill="none" fill-rule="evenodd"/><path d="M1203 171C1203 160.507 1210.39 152 1219.5 152 1228.61 152 1236 160.507 1236 171 1236 181.493 1228.61 190 1219.5 190 1210.39 190 1203 181.493 1203 171ZM1207.85 171C1207.85 178.815 1213.07 185.15 1219.5 185.15 1225.93 185.15 1231.15 178.815 1231.15 171 1231.15 163.185 1225.93 156.85 1219.5 156.85 1213.07 156.85 1207.85 163.185 1207.85 171Z" fill="#B0914E" fill-rule="evenodd"/><path d="M1224.5 206.5 1231.29 206.5" stroke="#B0914E" stroke-width="4.66667" stroke-miterlimit="8" fill="none" fill-rule="evenodd"/><path d="M1144.5 108.688 1162.83 108.689 1168.5 91.5001 1174.17 108.689 1192.5 108.688 1177.67 119.311 1183.33 136.5 1168.5 125.877 1153.67 136.5 1159.33 119.311Z" stroke="#B0914E" stroke-width="3" stroke-miterlimit="8" fill="none" fill-rule="evenodd"/><path d="M1100.5 125.341 1113.1 125.341 1117 113.5 1120.9 125.341 1133.5 125.341 1123.3 132.659 1127.2 144.5 1117 137.182 1106.8 144.5 1110.7 132.659Z" stroke="#B0914E" stroke-width="3" stroke-miterlimit="8" fill="none" fill-rule="evenodd"/><path d="M1203.5 125.341 1216.1 125.341 1220 113.5 1223.9 125.341 1236.5 125.341 1226.3 132.659 1230.2 144.5 1220 137.182 1209.8 144.5 1213.7 132.659Z" stroke="#B0914E" stroke-width="3" stroke-miterlimit="8" fill="none" fill-rule="evenodd"/><path d="M453.5 420.5 458.712 420.5" stroke="#B0914E" stroke-width="4.66667" stroke-miterlimit="8" fill="none" fill-rule="evenodd"/><path d="M263.364 507.897 264.685 506.631 270 512.178 275.316 506.631 276.637 507.897 271.267 513.5 276.637 519.103 275.316 520.369 270 514.822 264.685 520.369 263.364 519.103 268.733 513.5Z" stroke="#B0914E" stroke-width="1.33333" stroke-miterlimit="8" fill="#B0914E" fill-rule="evenodd"/><rect x="253.5" y="494.5" width="84" height="117" stroke="#B0914E" stroke-width="4.66667" stroke-miterlimit="8" fill="none"/><path d="M264 531 270.568 539.041" stroke="#AC8B44" stroke-width="4" stroke-miterlimit="8" fill="none" fill-rule="evenodd"/><path d="M0 0 10.3429 9.39433" stroke="#AC8B44" stroke-width="4" stroke-miterlimit="8" fill="none" fill-rule="evenodd" transform="matrix(1 0 0 -1 268 538.394)"/><path d="M264 550 270.568 558.041" stroke="#AC8B44" stroke-width="4" stroke-miterlimit="8" fill="none" fill-rule="evenodd"/><path d="M0 0 10.3429 9.39433" stroke="#AC8B44" stroke-width="4" stroke-miterlimit="8" fill="none" fill-rule="evenodd" transform="matrix(1 0 0 -1 268 557.394)"/><path d="M281 510 327.7 510" stroke="#AC8B44" stroke-width="2" stroke-miterlimit="8" fill="none" fill-rule="evenodd"/><path d="M281 516 327.7 516" stroke="#AC8B44" stroke-width="2" stroke-miterlimit="8" fill="none" fill-rule="evenodd"/><path d="M282 531 328.7 531" stroke="#AC8B44" stroke-width="2" stroke-miterlimit="8" fill="none" fill-rule="evenodd"/><path d="M282 536 328.7 536" stroke="#AC8B44" stroke-width="2" stroke-miterlimit="8" fill="none" fill-rule="evenodd"/><path d="M282 550 328.7 550" stroke="#AC8B44" stroke-width="2" stroke-miterlimit="8" fill="none" fill-rule="evenodd"/><path d="M282 555 328.7 555" stroke="#AC8B44" stroke-width="2" stroke-miterlimit="8" fill="none" fill-rule="evenodd"/><path d="M296.187 586.5 320.813 586.5C326.163 586.5 330.5 590.837 330.5 596.187L330.5 611.5 286.5 611.5 286.5 596.187C286.5 590.837 290.837 586.5 296.187 586.5Z" stroke="#B0914E" stroke-width="4.66667" stroke-miterlimit="8" fill="none" fill-rule="evenodd"/><path d="M295 572C295 564.268 300.82 558 308 558 315.18 558 321 564.268 321 572 321 579.732 315.18 586 308 586 300.82 586 295 579.732 295 572ZM298.821 572C298.821 577.622 302.931 582.179 308 582.179 313.069 582.179 317.179 577.622 317.179 572 317.179 566.378 313.069 561.821 308 561.821 302.931 561.821 298.821 566.378 298.821 572Z" fill="#B0914E" fill-rule="evenodd"/><path d="M319.5 595.5 324.712 595.5" stroke="#B0914E" stroke-width="4.66667" stroke-miterlimit="8" fill="none" fill-rule="evenodd"/><path d="M1112.77 563.5 1122.23 563.5C1131.21 563.5 1138.5 570.786 1138.5 579.774L1138.5 611.5 1096.5 611.5 1096.5 579.774C1096.5 570.786 1103.79 563.5 1112.77 563.5Z" stroke="#B0914E" stroke-width="4.66667" stroke-miterlimit="8" fill="none" fill-rule="evenodd"/><path d="M1100 543.5C1100 533.283 1107.61 525 1117 525 1126.39 525 1134 533.283 1134 543.5 1134 553.717 1126.39 562 1117 562 1107.61 562 1100 553.717 1100 543.5ZM1105 543.5C1105 550.958 1110.37 557.003 1117 557.003 1123.63 557.003 1129 550.958 1129 543.5 1129 536.042 1123.63 529.997 1117 529.997 1110.37 529.997 1105 536.042 1105 543.5Z" fill="#B0914E" fill-rule="evenodd"/><path d="M1122.5 579.5 1129.29 579.5" stroke="#B0914E" stroke-width="4.66667" stroke-miterlimit="8" fill="none" fill-rule="evenodd"/><path d="M1163.77 573.5 1173.23 573.5C1182.21 573.5 1189.5 580.786 1189.5 589.774L1189.5 621.5 1147.5 621.5 1147.5 589.774C1147.5 580.786 1154.79 573.5 1163.77 573.5Z" stroke="#B0914E" stroke-width="4.66667" stroke-miterlimit="8" fill="none" fill-rule="evenodd"/><path d="M1151 554C1151 543.507 1158.61 535 1168 535 1177.39 535 1185 543.507 1185 554 1185 564.493 1177.39 573 1168 573 1158.61 573 1151 564.493 1151 554ZM1156 554C1156 561.734 1161.37 568.003 1168 568.003 1174.63 568.003 1180 561.734 1180 554 1180 546.266 1174.63 539.997 1168 539.997 1161.37 539.997 1156 546.266 1156 554Z" fill="#B0914E" fill-rule="evenodd"/><path d="M1173.5 585.5 1180.29 585.5" stroke="#B0914E" stroke-width="4.66667" stroke-miterlimit="8" fill="none" fill-rule="evenodd"/><path d="M1215.16 563.5 1224.84 563.5C1234.04 563.5 1241.5 570.96 1241.5 580.162L1241.5 611.5 1198.5 611.5 1198.5 580.162C1198.5 570.96 1205.96 563.5 1215.16 563.5Z" stroke="#B0914E" stroke-width="4.66667" stroke-miterlimit="8" fill="none" fill-rule="evenodd"/><path d="M1203 543.5C1203 533.283 1210.39 525 1219.5 525 1228.61 525 1236 533.283 1236 543.5 1236 553.717 1228.61 562 1219.5 562 1210.39 562 1203 553.717 1203 543.5ZM1207.85 543.5C1207.85 551.039 1213.07 557.15 1219.5 557.15 1225.93 557.15 1231.15 551.039 1231.15 543.5 1231.15 535.961 1225.93 529.85 1219.5 529.85 1213.07 529.85 1207.85 535.961 1207.85 543.5Z" fill="#B0914E" fill-rule="evenodd"/><path d="M1225.5 579.5 1232.29 579.5" stroke="#B0914E" stroke-width="4.66667" stroke-miterlimit="8" fill="none" fill-rule="evenodd"/><text fill="#B0914E" font-family="Arial,Arial_MSFontService,sans-serif" font-weight="700" font-size="48" transform="translate(1106.31 520)">₽<tspan x="104.818" y="0">₽</tspan><tspan x="54.4894" y="13">₽</tspan></text><path d="M293 478.034 293 362 360.072 362 360.072 365 294.5 365 296 363.5 296 478.034ZM351.828 356.954 363.049 363.5 351.828 370.046C351.112 370.463 350.194 370.221 349.776 369.506 349.359 368.79 349.6 367.872 350.316 367.454L359.316 362.204 359.316 364.796 350.316 359.546C349.6 359.128 349.359 358.21 349.776 357.494 350.194 356.779 351.112 356.537 351.828 356.954Z" fill="#B0914E"/><path d="M0-1.5 2.81339-1.5 2.81339 41.5275 1.31339 40.0275 162.657 40.0275 162.657 43.0275-0.186613 43.0275-0.186613 0 1.31339 1.5 0 1.5ZM154.413 34.9818 165.634 41.5275 154.413 48.0731C153.697 48.4905 152.779 48.2488 152.361 47.5333 151.944 46.8177 152.186 45.8992 152.901 45.4818L161.901 40.2318 161.901 42.8231 152.901 37.5731C152.186 37.1557 151.944 36.2372 152.361 35.5216 152.779 34.8061 153.697 34.5644 154.413 34.9818Z" fill="#92D050" transform="matrix(1 0 0 -1 419.5 195.028)"/><path d="M398 227 417.374 246.043" stroke="#92D050" stroke-width="6" stroke-miterlimit="8" fill="none" fill-rule="evenodd"/><path d="M0 0 35.2337 33.4274" stroke="#92D050" stroke-width="6" stroke-miterlimit="8" fill="none" fill-rule="evenodd" transform="matrix(1 0 0 -1 413 245.427)"/><path d="M420.5 264.5 420.5 292.582" stroke="#B0914E" stroke-width="3" stroke-miterlimit="8" fill="none" fill-rule="evenodd"/><path d="M420.5 452.5 420.5 480.582" stroke="#B0914E" stroke-width="3" stroke-miterlimit="8" fill="none" fill-rule="evenodd"/><text fill="#B0914E" font-family="Arial,Arial_MSFontService,sans-serif" font-weight="400" font-size="27" transform="translate(1.47969 292)">Настройка <tspan x="12.7733" y="29">системы</tspan><tspan x="154.193" y="1">Автоматизация </tspan><tspan x="193.94" y="30">воронки*</tspan><tspan font-weight="700" font-size="43" x="131.403" y="20">+</tspan><tspan x="230.286" y="354">Обработка </tspan><tspan x="226.186" y="383">кандидатов</tspan><tspan x="482.067" y="114">Передача </tspan><tspan x="486.394" y="143">данных**</tspan><tspan x="665.328" y="76">Шифрование и хранение </tspan><tspan x="695.415" y="105">данных о кандидате</tspan><tspan x="1066.34" y="-8">Получить новых </tspan><tspan x="1069.4" y="21">кандидатов под </tspan><tspan x="1132.13" y="49">Ваши </tspan><tspan x="1094.34" y="78">требования</tspan><tspan x="1082.44" y="359">Купить новых </tspan><tspan x="1069.13" y="388">кандидатов под </tspan><tspan x="1131.86" y="416">Ваши </tspan><tspan x="1094.07" y="445">требования</tspan></text></g></svg>
