<svg viewBox="0 0 43 44" fill="#ac8b44" xmlns="http://www.w3.org/2000/svg" xmlns:xlink="http://www.w3.org/1999/xlink" overflow="hidden"><defs><clipPath id="clip0"><path d="M687 504 730 504 730 548 687 548Z" fill-rule="evenodd" clip-rule="evenodd"/></clipPath></defs><g clip-path="url(#clip0)" transform="translate(-687 -504)"><path d="M710.152 547C690.848 547 690.848 547 690.848 547 689.266 547 688 545.523 688 543.882 688 506.954 688 506.954 688 506.954 688 505.313 689.266 504 690.848 504 710.152 504 710.152 504 710.152 504 711.734 504 713 505.313 713 506.954 713 543.882 713 543.882 713 543.882 713 545.523 711.734 547 710.152 547ZM690.848 504.985C689.899 504.985 688.949 505.805 688.949 506.954 688.949 543.882 688.949 543.882 688.949 543.882 688.949 545.031 689.899 546.015 690.848 546.015 710.152 546.015 710.152 546.015 710.152 546.015 711.26 546.015 712.051 545.031 712.051 543.882 712.051 506.954 712.051 506.954 712.051 506.954 712.051 505.805 711.26 504.985 710.152 504.985L690.848 504.985Z" fill-rule="evenodd"/><path d="M712.525 540C688.475 540 688.475 540 688.475 540 688.158 540 688 539.84 688 539.519 688 511.481 688 511.481 688 511.481 688 511.16 688.158 511 688.475 511 712.525 511 712.525 511 712.525 511 712.842 511 713 511.16 713 511.481 713 539.519 713 539.519 713 539.519 713 539.84 712.842 540 712.525 540ZM688.949 539.039C712.051 539.039 712.051 539.039 712.051 539.039 712.051 511.961 712.051 511.961 712.051 511.961 688.949 511.961 688.949 511.961 688.949 511.961L688.949 539.039Z" fill-rule="evenodd"/><path d="M702.423 544C698.577 544 698.577 544 698.577 544 698.192 544 698 543.833 698 543.5 698 543.333 698.192 543 698.577 543 702.423 543 702.423 543 702.423 543 702.808 543 703 543.333 703 543.5 703 543.833 702.808 544 702.423 544Z" fill-rule="evenodd"/><path d="M707.559 523C707.265 523 707.118 522.853 707.118 522.559 707.118 518.882 707.118 518.882 707.118 518.882 703.441 518.882 703.441 518.882 703.441 518.882 703.147 518.882 703 518.735 703 518.441 703 518.147 703.147 518 703.441 518 707.559 518 707.559 518 707.559 518 707.853 518 708 518.147 708 518.441 708 522.559 708 522.559 708 522.559 708 522.853 707.853 523 707.559 523Z" fill-rule="evenodd"/><path d="M707.559 534C703.441 534 703.441 534 703.441 534 703.147 534 703 533.824 703 533.471 703 533.118 703.147 532.941 703.441 532.941 707.118 532.941 707.118 532.941 707.118 532.941 707.118 528.529 707.118 528.529 707.118 528.529 707.118 528.176 707.265 528 707.559 528 707.853 528 708 528.176 708 528.529 708 533.471 708 533.471 708 533.471 708 533.824 707.853 534 707.559 534Z" fill-rule="evenodd"/><path d="M697.559 534C693.441 534 693.441 534 693.441 534 693.147 534 693 533.824 693 533.471 693 528.529 693 528.529 693 528.529 693 528.176 693.147 528 693.441 528 693.735 528 693.882 528.176 693.882 528.529 693.882 532.941 693.882 532.941 693.882 532.941 697.559 532.941 697.559 532.941 697.559 532.941 697.853 532.941 698 533.118 698 533.471 698 533.824 697.853 534 697.559 534Z" fill-rule="evenodd"/><path d="M693.441 523C693.147 523 693 522.853 693 522.559 693 518.441 693 518.441 693 518.441 693 518.147 693.147 518 693.441 518 697.559 518 697.559 518 697.559 518 697.853 518 698 518.147 698 518.441 698 518.735 697.853 518.882 697.559 518.882 693.882 518.882 693.882 518.882 693.882 518.882 693.882 522.559 693.882 522.559 693.882 522.559 693.882 522.853 693.735 523 693.441 523Z" fill-rule="evenodd"/><path d="M729.521 540C715.479 540 715.479 540 715.479 540 715.16 540 715 539.835 715 539.505 715 539.176 715.16 539.011 715.479 539.011 729.043 539.011 729.043 539.011 729.043 539.011 729.043 519.231 729.043 519.231 729.043 519.231 721.702 510.989 721.702 510.989 721.702 510.989 715.479 510.989 715.479 510.989 715.479 510.989 715.16 510.989 715 510.824 715 510.495 715 510.165 715.16 510 715.479 510 721.862 510 721.862 510 721.862 510 722.021 510 722.181 510 722.181 510.165 729.84 518.736 729.84 518.736 729.84 518.736 730 518.901 730 518.901 730 519.066 730 539.505 730 539.505 730 539.505 730 539.835 729.84 540 729.521 540Z" fill-rule="evenodd"/><path d="M729.5 520C721.5 520 721.5 520 721.5 520 721.167 520 721 519.828 721 519.483 721 510.517 721 510.517 721 510.517 721 510.345 721.167 510.172 721.333 510 721.5 510 721.667 510 721.833 510.172 729.833 519.138 729.833 519.138 729.833 519.138 730 519.31 730 519.483 730 519.655 729.833 519.828 729.667 520 729.5 520ZM722 518.966C728.333 518.966 728.333 518.966 728.333 518.966 722 511.897 722 511.897 722 511.897L722 518.966Z" fill-rule="evenodd"/><path d="M725.515 525C715.485 525 715.485 525 715.485 525 715.162 525 715 524.833 715 524.5 715 524.167 715.162 524 715.485 524 725.515 524 725.515 524 725.515 524 725.838 524 726 524.167 726 524.5 726 524.833 725.838 525 725.515 525Z" fill-rule="evenodd"/><path d="M725.515 529C715.485 529 715.485 529 715.485 529 715.162 529 715 528.833 715 528.5 715 528.167 715.162 528 715.485 528 725.515 528 725.515 528 725.515 528 725.838 528 726 528.167 726 528.5 726 528.833 725.838 529 725.515 529Z" fill-rule="evenodd"/><path d="M725.515 534C715.485 534 715.485 534 715.485 534 715.162 534 715 533.833 715 533.5 715 533.167 715.162 533 715.485 533 725.515 533 725.515 533 725.515 533 725.838 533 726 533.167 726 533.5 726 533.833 725.838 534 725.515 534Z" fill-rule="evenodd"/></g></svg>
