<svg viewBox="0 0 101 90" fill="#ac8b44" xmlns="http://www.w3.org/2000/svg" xmlns:xlink="http://www.w3.org/1999/xlink" overflow="hidden"><defs><clipPath id="clip0"><path d="M770 369 871 369 871 459 770 459Z" fill-rule="evenodd" clip-rule="evenodd"/></clipPath></defs><g clip-path="url(#clip0)" transform="translate(-770 -369)"><path d="M849.5 397C849.333 397 849 396.474 849 396.211 849 392.789 849 392.789 849 392.789 849 392.263 849.333 392 849.5 392 849.833 392 850 392.263 850 392.789 850 396.211 850 396.211 850 396.211 850 396.474 849.833 397 849.5 397Z" fill-rule="evenodd"/><path d="M846.727 397C846.242 397 846 396.478 846 396.217 846 389.435 846 389.435 846 389.435 846 386.565 848.424 386.043 849.636 386.043 852.303 386.043 852.303 386.043 852.303 386.043 852.303 386.043 852.303 385.783 852.545 385.783 852.545 385.261 852.788 385 853.273 385 853.515 385 854 385.522 853.758 385.783 853.758 386.826 853.03 387.348 852.303 387.609 849.636 387.609 849.636 387.609 849.636 387.609 849.394 387.609 847.455 387.609 847.455 389.435 847.455 396.217 847.455 396.217 847.455 396.217 847.455 396.478 847.212 397 846.727 397Z" fill-rule="evenodd"/><path d="M860.5 397C860.167 397 860 396.444 860 396.167 860 392.833 860 392.833 860 392.833 860 392.278 860.167 392 860.5 392 860.833 392 861 392.278 861 392.833 861 396.167 861 396.167 861 396.167 861 396.444 860.833 397 860.5 397Z" fill-rule="evenodd"/><path d="M863.323 397C863.097 397 862.645 396.733 862.645 396.2 862.645 389.533 862.645 389.533 862.645 389.533 862.645 387.667 860.613 387.667 860.613 387.667 858.355 387.667 858.355 387.667 858.355 387.667 858.129 387.667 857.677 387.667 857.226 387.133 857.226 386.867 857 386.6 857 385.8 857 385.533 857.226 385 857.677 385 857.677 385 857.677 385 857.677 385 857.903 385 858.355 385.533 858.355 385.8 858.355 386.067 858.355 386.067 858.355 386.067 860.613 386.067 860.613 386.067 860.613 386.067 861.742 386.067 864 386.6 864 389.533 864 396.2 864 396.2 864 396.2 864 396.733 863.774 397 863.323 397Z" fill-rule="evenodd"/><path d="M855.122 385C852.195 385 850 382.556 850 379.378 850 376.444 852.195 374 855.122 374 857.805 374 860 376.444 860 379.378 860 382.556 857.805 385 855.122 385ZM855.122 375.467C853.171 375.467 851.463 377.178 851.463 379.378 851.463 381.822 853.171 383.533 855.122 383.533 857.073 383.533 858.537 381.822 858.537 379.378 858.537 377.178 857.073 375.467 855.122 375.467Z" fill-rule="evenodd"/><path d="M815.5 397C815.167 397 815 396.474 815 396.211 815 392.789 815 392.789 815 392.789 815 392.263 815.167 392 815.5 392 815.667 392 816 392.263 816 392.789 816 396.211 816 396.211 816 396.211 816 396.474 815.667 397 815.5 397Z" fill-rule="evenodd"/><path d="M812.727 397C812.485 397 812 396.478 812 396.217 812 389.435 812 389.435 812 389.435 812 386.565 814.424 386.043 815.879 386.043 818.303 386.043 818.303 386.043 818.303 386.043 818.303 386.043 818.545 385.783 818.545 385.783 818.545 385.261 818.788 385 819.273 385 819.758 385 820 385.522 820 385.783 820 386.826 819.273 387.348 818.303 387.609 815.879 387.609 815.879 387.609 815.879 387.609 815.636 387.609 813.455 387.609 813.455 389.435 813.455 396.217 813.455 396.217 813.455 396.217 813.455 396.478 813.212 397 812.727 397Z" fill-rule="evenodd"/><path d="M826 397C825.667 397 825 396.444 825 396.167 825 392.833 825 392.833 825 392.833 825 392.278 825.667 392 826 392 826.667 392 827 392.278 827 392.833 827 396.167 827 396.167 827 396.167 827 396.444 826.667 397 826 397Z" fill-rule="evenodd"/><path d="M829.25 397C828.75 397 828.5 396.733 828.5 396.2 828.5 389.533 828.5 389.533 828.5 389.533 828.5 387.667 826.25 387.667 826 387.667 823.5 387.667 823.5 387.667 823.5 387.667 823.5 387.667 823 387.667 822.5 387.133 822.25 386.867 822 386.6 822 385.8 822 385.533 822.25 385 822.75 385 822.75 385 822.75 385 822.75 385 823.25 385 823.5 385.533 823.5 385.8 823.5 386.067 823.5 386.067 823.5 386.067 826 386.067 826 386.067 826 386.067 827.5 386.067 830 386.6 830 389.533 830 396.2 830 396.2 830 396.2 830 396.733 829.75 397 829.25 397Z" fill-rule="evenodd"/><path d="M820.878 385C818.195 385 816 382.556 816 379.378 816 376.444 818.195 374 820.878 374 823.561 374 826 376.444 826 379.378 826 382.556 823.561 385 820.878 385ZM820.878 375.467C818.927 375.467 817.463 377.178 817.463 379.378 817.463 381.822 818.927 383.533 820.878 383.533 822.829 383.533 824.537 381.822 824.537 379.378 824.537 377.178 822.829 375.467 820.878 375.467Z" fill-rule="evenodd"/><path d="M781.5 397C781.167 397 781 396.474 781 396.211 781 392.789 781 392.789 781 392.789 781 392.263 781.167 392 781.5 392 781.667 392 782 392.263 782 392.789 782 396.211 782 396.211 782 396.211 782 396.474 781.667 397 781.5 397Z" fill-rule="evenodd"/><path d="M777.727 397C777.485 397 777 396.478 777 396.217 777 389.435 777 389.435 777 389.435 777 386.565 779.667 386.043 780.879 386.043 783.303 386.043 783.303 386.043 783.303 386.043 783.303 386.043 783.545 385.783 783.545 385.783 783.545 385.522 783.788 385 784.273 385 784.273 385 784.273 385 784.273 385 784.758 385 785 385.522 785 385.783 785 386.826 784.273 387.348 783.303 387.609 780.879 387.609 780.879 387.609 780.879 387.609 780.636 387.609 778.455 387.609 778.455 389.435 778.455 396.217 778.455 396.217 778.455 396.217 778.455 396.478 778.212 397 777.727 397Z" fill-rule="evenodd"/><path d="M792 397C791.333 397 791 396.444 791 396.167 791 392.833 791 392.833 791 392.833 791 392.278 791.333 392 792 392 792.333 392 793 392.278 793 392.833 793 396.167 793 396.167 793 396.167 793 396.444 792.333 397 792 397Z" fill-rule="evenodd"/><path d="M795.25 397C794.75 397 794.5 396.733 794.5 396.2 794.5 389.533 794.5 389.533 794.5 389.533 794.5 387.667 792.25 387.667 792 387.667 789.5 387.667 789.5 387.667 789.5 387.667 789.5 387.667 789 387.667 788.5 387.133 788.25 386.867 788 386.6 788 385.8 788 385.533 788.25 385 788.75 385 788.75 385 788.75 385 788.75 385 789.25 385 789.5 385.533 789.5 385.8 789.5 386.067 789.5 386.067 789.5 386.067 792 386.067 792 386.067 792 386.067 793.5 386.067 796 386.6 796 389.533 796 396.2 796 396.2 796 396.2 796 396.733 795.75 397 795.25 397Z" fill-rule="evenodd"/><path d="M786.878 385C784.195 385 782 382.556 782 379.378 782 376.444 784.195 374 786.878 374 789.561 374 792 376.444 792 379.378 792 382.556 789.561 385 786.878 385ZM786.878 375.467C784.927 375.467 783.463 377.178 783.463 379.378 783.463 381.822 784.927 383.533 786.878 383.533 788.829 383.533 790.537 381.822 790.537 379.378 790.537 377.178 788.829 375.467 786.878 375.467Z" fill-rule="evenodd"/><path d="M794.5 401C778.5 401 778.5 401 778.5 401 774.5 401 771 397.75 771 393.5 771 377.5 771 377.5 771 377.5 771 373.25 774.5 370 778.5 370 794.5 370 794.5 370 794.5 370 798.75 370 802 373.25 802 377.5 802 393.5 802 393.5 802 393.5 802 397.75 798.75 401 794.5 401ZM778.5 371.5C775.25 371.5 772.5 374.25 772.5 377.5 772.5 393.5 772.5 393.5 772.5 393.5 772.5 396.75 775.25 399.5 778.5 399.5 794.5 399.5 794.5 399.5 794.5 399.5 797.75 399.5 800.5 396.75 800.5 393.5 800.5 377.5 800.5 377.5 800.5 377.5 800.5 374.25 797.75 371.5 794.5 371.5L778.5 371.5Z" fill-rule="evenodd"/><path d="M828.927 401C813.073 401 813.073 401 813.073 401 809.171 401 806 397.75 806 393.5 806 377.5 806 377.5 806 377.5 806 373.25 809.171 370 813.073 370 828.927 370 828.927 370 828.927 370 832.829 370 836 373.25 836 377.5 836 393.5 836 393.5 836 393.5 836 397.75 832.829 401 828.927 401ZM813.073 371.5C809.902 371.5 807.463 374.25 807.463 377.5 807.463 393.5 807.463 393.5 807.463 393.5 807.463 396.75 809.902 399.5 813.073 399.5 828.927 399.5 828.927 399.5 828.927 399.5 832.098 399.5 834.537 396.75 834.537 393.5 834.537 377.5 834.537 377.5 834.537 377.5 834.537 374.25 832.098 371.5 828.927 371.5L813.073 371.5Z" fill-rule="evenodd"/><path d="M862.927 401C847.073 401 847.073 401 847.073 401 843.171 401 840 397.75 840 393.5 840 377.5 840 377.5 840 377.5 840 373.25 843.171 370 847.073 370 862.927 370 862.927 370 862.927 370 866.829 370 870 373.25 870 377.5 870 393.5 870 393.5 870 393.5 870 397.75 866.829 401 862.927 401ZM847.073 371.5C843.902 371.5 841.463 374.25 841.463 377.5 841.463 393.5 841.463 393.5 841.463 393.5 841.463 396.75 843.902 399.5 847.073 399.5 862.927 399.5 862.927 399.5 862.927 399.5 866.098 399.5 868.537 396.75 868.537 393.5 868.537 377.5 868.537 377.5 868.537 377.5 868.537 374.25 866.098 371.5 862.927 371.5L847.073 371.5Z" fill-rule="evenodd"/><path d="M823.308 455C818.692 455 818.692 455 818.692 455 818.231 455 818 454.667 818 454 818 453.667 818.231 453 818.692 453 823.308 453 823.308 453 823.308 453 823.769 453 824 453.667 824 454 824 454.667 823.769 455 823.308 455Z" fill-rule="evenodd"/><path d="M822.25 458C818.75 458 818.75 458 818.75 458 818.25 458 818 457.833 818 457.5 818 457.167 818.25 457 818.75 457 822.25 457 822.25 457 822.25 457 822.75 457 823 457.167 823 457.5 823 457.833 822.75 458 822.25 458Z" fill-rule="evenodd"/><path d="M824.25 446C817.75 446 817.75 446 817.75 446 817.25 446 817 445.727 817 445.455 817 445.182 817 445.182 817 444.909 817 441.364 817 441.364 817 441.364 817 438.909 818.75 437 820.75 437 821.25 437 821.25 437 821.25 437 823.25 437 825 438.909 825 441.364 825 444.909 825 444.909 825 444.909 825 445.182 825 445.182 825 445.182 825 445.727 824.75 446 824.25 446ZM818.5 444.364C823.5 444.364 823.5 444.364 823.5 444.364 823.5 441.364 823.5 441.364 823.5 441.364 823.5 440 822.5 438.636 821.25 438.636 820.75 438.636 820.75 438.636 820.75 438.636 819.5 438.636 818.5 440 818.5 441.364L818.5 444.364Z" fill-rule="evenodd"/><path d="M831.532 449C831.284 449 831.037 448.745 830.789 448.491 830.789 448.236 830.789 447.726 831.037 447.472 832.523 446.453 833.514 444.925 833.514 443.142 833.514 428.623 833.514 428.623 833.514 428.623 833.514 425.821 831.284 423.528 828.312 423.528 814.44 423.528 814.44 423.528 814.44 423.528 811.716 423.528 809.486 425.821 809.486 428.623 809.486 443.142 809.486 443.142 809.486 443.142 809.486 444.67 809.982 446.198 811.468 447.217 811.716 447.472 811.716 447.981 811.468 448.236 811.22 448.745 810.725 448.745 810.477 448.491 808.743 447.217 808 445.179 808 443.142 808 428.623 808 428.623 808 428.623 808 425.057 810.725 422 814.44 422 828.312 422 828.312 422 828.312 422 832.028 422 835 425.057 835 428.623 835 443.142 835 443.142 835 443.142 835 445.434 833.761 447.472 832.028 448.745 831.78 448.745 831.78 449 831.532 449Z" fill-rule="evenodd"/><path d="M855.25 436C833.75 436 833.75 436 833.75 436 833.25 436 833 435.75 833 435.25 833 435 833.25 434.5 833.75 434.5 854.5 434.5 854.5 434.5 854.5 434.5 854.5 411.75 854.5 411.75 854.5 411.75 854.5 411.5 855 411 855.25 411 855.75 411 856 411.5 856 411.75 856 435.25 856 435.25 856 435.25 856 435.75 855.75 436 855.25 436Z" fill-rule="evenodd"/><path d="M808.234 436C785.766 436 785.766 436 785.766 436 785.511 436 785 435.75 785 435.25 785 411.75 785 411.75 785 411.75 785 411.5 785.511 411 785.766 411 786.277 411 786.532 411.5 786.532 411.75 786.532 434.5 786.532 434.5 786.532 434.5 808.234 434.5 808.234 434.5 808.234 434.5 808.745 434.5 809 435 809 435.25 809 435.75 808.745 436 808.234 436Z" fill-rule="evenodd"/><path d="M821 419C820.667 419 820 418.529 820 418.294 820 411.706 820 411.706 820 411.706 820 411.471 820.667 411 821 411 821.667 411 822 411.471 822 411.706 822 418.294 822 418.294 822 418.294 822 418.529 821.667 419 821 419Z" fill-rule="evenodd"/><path d="M786.379 412C784.448 412 783 410.552 783 408.621 783 406.69 784.448 405 786.379 405 788.552 405 790 406.69 790 408.621 790 410.552 788.552 412 786.379 412ZM786.379 406.448C785.414 406.448 784.448 407.414 784.448 408.621 784.448 409.586 785.414 410.552 786.379 410.552 787.586 410.552 788.552 409.586 788.552 408.621 788.552 407.414 787.586 406.448 786.379 406.448Z" fill-rule="evenodd"/><path d="M855.379 412C853.448 412 852 410.552 852 408.621 852 406.69 853.448 405 855.379 405 857.31 405 859 406.69 859 408.621 859 410.552 857.31 412 855.379 412ZM855.379 406.448C854.414 406.448 853.448 407.414 853.448 408.621 853.448 409.586 854.414 410.552 855.379 410.552 856.586 410.552 857.552 409.586 857.552 408.621 857.552 407.414 856.586 406.448 855.379 406.448Z" fill-rule="evenodd"/><path d="M821.379 412C819.448 412 818 410.552 818 408.621 818 406.69 819.448 405 821.379 405 823.31 405 825 406.69 825 408.621 825 410.552 823.31 412 821.379 412ZM821.379 406.448C820.414 406.448 819.448 407.414 819.448 408.621 819.448 409.586 820.414 410.552 821.379 410.552 822.586 410.552 823.552 409.586 823.552 408.621 823.552 407.414 822.586 406.448 821.379 406.448Z" fill-rule="evenodd"/></g></svg>
