<svg viewBox="0 0 73 53" fill="#ac8b44" xmlns="http://www.w3.org/2000/svg" xmlns:xlink="http://www.w3.org/1999/xlink" overflow="hidden"><defs><clipPath id="clip0"><path d="M681 217 754 217 754 270 681 270Z" fill-rule="evenodd" clip-rule="evenodd"/></clipPath></defs><g clip-path="url(#clip0)" transform="translate(-681 -217)"><path d="M726.163 242C714.837 242 714.837 242 714.837 242 713.765 242 713 241.051 713 240.101 713 218.899 713 218.899 713 218.899 713 217.791 713.765 217 714.837 217 726.163 217 726.163 217 726.163 217 727.235 217 728 217.791 728 218.899 728 240.101 728 240.101 728 240.101 728 241.051 727.235 242 726.163 242ZM714.837 217.949C714.378 217.949 713.918 218.424 713.918 218.899 713.918 240.101 713.918 240.101 713.918 240.101 713.918 240.576 714.378 241.051 714.837 241.051 726.163 241.051 726.163 241.051 726.163 241.051 726.622 241.051 727.082 240.576 727.082 240.101 727.082 218.899 727.082 218.899 727.082 218.899 727.082 218.424 726.622 217.949 726.163 217.949L714.837 217.949Z" fill-rule="evenodd"/><path d="M727.541 238C713.459 238 713.459 238 713.459 238 713.153 238 713 237.691 713 237.536 713 221.464 713 221.464 713 221.464 713 221.155 713.153 221 713.459 221 727.541 221 727.541 221 727.541 221 727.847 221 728 221.155 728 221.464 728 237.536 728 237.536 728 237.536 728 237.691 727.847 238 727.541 238ZM713.918 237.073C727.082 237.073 727.082 237.073 727.082 237.073 727.082 221.927 727.082 221.927 727.082 221.927 713.918 221.927 713.918 221.927 713.918 221.927L713.918 237.073Z" fill-rule="evenodd"/><path d="M721.5 240C719.5 240 719.5 240 719.5 240 719.167 240 719 239.833 719 239.5 719 239.167 719.167 239 719.5 239 721.5 239 721.5 239 721.5 239 721.833 239 722 239.167 722 239.5 722 239.833 721.833 240 721.5 240Z" fill-rule="evenodd"/><path d="M749.964 270C745.563 270 721.732 270 721.429 270 719.304 270 719.152 268.667 719 267.167 719 267.167 719 266.833 719 266.5 719 266.333 719.152 266.333 719.152 266.167 719.304 266.167 719.455 266 719.455 266 719.455 266 719.455 266 719.455 266 752.545 266 752.545 266 752.545 266 752.696 266 752.848 266.167 752.848 266.167 753 266.333 753 266.5 753 266.5 753 267.167 753 267.167 753 267.167 753 268.667 752.848 270 750.571 270 750.571 270 750.268 270 749.964 270ZM719.911 267C719.911 267.167 719.911 267.167 719.911 267.167 720.063 268.5 720.063 269 721.429 269 721.884 269 750.116 269 750.571 269 751.938 269 752.089 268.5 752.089 267.167 752.089 267 752.089 267 752.089 267L719.911 267Z" fill-rule="evenodd"/><path d="M748.544 267C748.24 267 748.088 266.841 748.088 266.522 748.088 250.434 748.088 250.434 748.088 250.434 748.088 250.115 747.784 249.956 747.632 249.956 724.368 249.956 724.368 249.956 724.368 249.956 724.064 249.956 723.912 250.115 723.912 250.434 723.912 266.204 723.912 266.204 723.912 266.204 723.912 266.522 723.76 266.681 723.456 266.681 723.152 266.681 723 266.522 723 266.204 723 250.434 723 250.434 723 250.434 723 249.478 723.76 249 724.368 249 747.632 249 747.632 249 747.632 249 748.088 249 749 249.478 749 250.434 749 266.522 749 266.522 749 266.522 749 266.841 748.696 267 748.544 267Z" fill-rule="evenodd"/><path d="M746.545 265C746.393 265 746.09 264.841 746.09 264.523 746.09 251.955 746.09 251.955 746.09 251.955 725.91 251.955 725.91 251.955 725.91 251.955 725.91 264.205 725.91 264.205 725.91 264.205 725.91 264.523 725.759 264.682 725.455 264.682 725.152 264.682 725 264.523 725 264.205 725 251.477 725 251.477 725 251.477 725 251.318 725.152 251 725.455 251 746.545 251 746.545 251 746.545 251 746.848 251 747 251.318 747 251.477 747 264.523 747 264.523 747 264.523 747 264.841 746.848 265 746.545 265Z" fill-rule="evenodd"/><path d="M731.591 230C729.409 230 729.409 230 729.409 230 729.136 230 729 229.833 729 229.5 729 229.167 729.136 229 729.409 229 731.591 229 731.591 229 731.591 229 731.727 229 732 229.167 732 229.5 732 229.833 731.727 230 731.591 230Z" fill-rule="evenodd"/><path d="M736.591 233C736.318 233 736.182 232.818 736.182 232.455 736.182 230.091 736.182 230.091 736.182 230.091 734.409 230.091 734.409 230.091 734.409 230.091 734.136 230.091 734 229.909 734 229.545 734 229.182 734.136 229 734.409 229 736.591 229 736.591 229 736.591 229 736.864 229 737 229.182 737 229.545 737 232.455 737 232.455 737 232.455 737 232.818 736.864 233 736.591 233Z" fill-rule="evenodd"/><path d="M737.5 241C737.167 241 737 240.844 737 240.531 737 236.469 737 236.469 737 236.469 737 236.156 737.167 236 737.5 236 737.833 236 738 236.156 738 236.469 738 240.531 738 240.531 738 240.531 738 240.844 737.833 241 737.5 241Z" fill-rule="evenodd"/><path d="M737.5 248C737.167 248 737 247.818 737 247.455 737 244.545 737 244.545 737 244.545 737 244.182 737.167 244 737.5 244 737.833 244 738 244.182 738 244.545 738 247.455 738 247.455 738 247.455 738 247.818 737.833 248 737.5 248Z" fill-rule="evenodd"/><path d="M707.028 263C683.972 263 683.972 263 683.972 263 682.91 263 682 262.06 682 260.963 682 244.037 682 244.037 682 244.037 682 242.94 682.91 242 683.972 242 707.028 242 707.028 242 707.028 242 708.09 242 709 242.94 709 244.037 709 260.963 709 260.963 709 260.963 709 262.06 708.09 263 707.028 263ZM683.972 242.94C683.365 242.94 682.91 243.41 682.91 244.037 682.91 260.963 682.91 260.963 682.91 260.963 682.91 261.59 683.365 262.06 683.972 262.06 707.028 262.06 707.028 262.06 707.028 262.06 707.635 262.06 708.09 261.59 708.09 260.963 708.09 244.037 708.09 244.037 708.09 244.037 708.09 243.41 707.635 242.94 707.028 242.94L683.972 242.94Z" fill-rule="evenodd"/><path d="M708.545 259C682.455 259 682.455 259 682.455 259 682.152 259 682 258.851 682 258.553 682 245.447 682 245.447 682 245.447 682 245.149 682.152 245 682.455 245 682.607 245 682.91 245.149 682.91 245.447 682.91 258.106 682.91 258.106 682.91 258.106 708.09 258.106 708.09 258.106 708.09 258.106 708.09 245.447 708.09 245.447 708.09 245.447 708.09 245.149 708.242 245 708.545 245 708.697 245 709 245.149 709 245.447 709 258.553 709 258.553 709 258.553 709 258.851 708.697 259 708.545 259Z" fill-rule="evenodd"/><path d="M697.538 261C694.462 261 694.462 261 694.462 261 694.154 261 694 260.833 694 260.5 694 260.167 694.154 260 694.462 260 697.538 260 697.538 260 697.538 260 697.692 260 698 260.167 698 260.5 698 260.833 697.692 261 697.538 261Z" fill-rule="evenodd"/><path d="M695.5 270C695.167 270 695 269.842 695 269.526 695 264.474 695 264.474 695 264.474 695 264.158 695.167 264 695.5 264 695.667 264 696 264.158 696 264.474 696 269.526 696 269.526 696 269.526 696 269.842 695.667 270 695.5 270Z" fill-rule="evenodd"/><path d="M701.538 270C690.462 270 690.462 270 690.462 270 690.154 270 690 269.833 690 269.5 690 269.167 690.154 269 690.462 269 701.538 269 701.538 269 701.538 269 701.692 269 702 269.167 702 269.5 702 269.833 701.692 270 701.538 270Z" fill-rule="evenodd"/><path d="M695.5 241C695.167 241 695 240.818 695 240.455 695 237.545 695 237.545 695 237.545 695 237.182 695.167 237 695.5 237 695.833 237 696 237.182 696 237.545 696 240.455 696 240.455 696 240.455 696 240.818 695.833 241 695.5 241Z" fill-rule="evenodd"/><path d="M695.545 233C695.182 233 695 232.818 695 232.455 695 229.545 695 229.545 695 229.545 695 229.182 695.182 229 695.545 229 698.455 229 698.455 229 698.455 229 698.818 229 699 229.182 699 229.545 699 229.909 698.818 230.091 698.455 230.091 696.091 230.091 696.091 230.091 696.091 230.091 696.091 232.455 696.091 232.455 696.091 232.455 696.091 232.818 695.909 233 695.545 233Z" fill-rule="evenodd"/><path d="M705.464 230C701.536 230 701.536 230 701.536 230 701.179 230 701 229.833 701 229.5 701 229.167 701.179 229 701.536 229 705.464 229 705.464 229 705.464 229 705.821 229 706 229.167 706 229.5 706 229.833 705.821 230 705.464 230Z" fill-rule="evenodd"/><path d="M711.455 230C708.545 230 708.545 230 708.545 230 708.182 230 708 229.833 708 229.5 708 229.167 708.182 229 708.545 229 711.455 229 711.455 229 711.455 229 711.636 229 712 229.167 712 229.5 712 229.833 711.636 230 711.455 230Z" fill-rule="evenodd"/></g></svg>
