<svg viewBox="0 0 30 47" xmlns="http://www.w3.org/2000/svg" xmlns:xlink="http://www.w3.org/1999/xlink" overflow="hidden"><defs><clipPath id="clip0"><path d="M548 221 578 221 578 268 548 268Z" fill-rule="evenodd" clip-rule="evenodd"/></clipPath></defs><g clip-path="url(#clip0)" transform="translate(-548 -221)"><path d="M576.584 222C549.416 222 549.416 222 549.416 222 549.139 222 549 222.141 549 222.422 549 256.578 549 256.578 549 256.578 549 256.859 549.139 257 549.416 257 553.297 257 553.297 257 553.297 257 553.574 257 553.713 256.859 553.713 256.578 553.713 256.297 553.574 256.157 553.297 256.157 549.832 256.157 549.832 256.157 549.832 256.157 549.832 222.843 549.832 222.843 549.832 222.843 576.168 222.843 576.168 222.843 576.168 222.843 576.168 256.157 576.168 256.157 576.168 256.157 572.148 256.157 572.148 256.157 572.148 256.157 572.01 256.157 571.733 256.297 571.733 256.578 571.733 256.859 572.01 257 572.148 257 576.584 257 576.584 257 576.584 257 576.861 257 577 256.859 577 256.578 577 222.422 577 222.422 577 222.422 577 222.141 576.861 222 576.584 222Z" fill-rule="evenodd"/><path d="M571.904 226C553.959 226 553.959 226 553.959 226 553.548 226 553 226.264 553 227.057 553 231.943 553 231.943 553 231.943 553 232.736 553.548 233 553.959 233 571.904 233 571.904 233 571.904 233 572.452 233 573 232.736 573 231.943 573 227.057 573 227.057 573 227.057 573 226.264 572.452 226 571.904 226ZM572.178 231.943C572.178 232.075 572.178 232.208 571.904 232.208 554.096 232.208 554.096 232.208 554.096 232.208 553.822 232.208 553.822 232.075 553.822 231.943 553.822 227.057 553.822 227.057 553.822 227.057 553.822 226.925 553.822 226.792 553.959 226.792 571.904 226.792 571.904 226.792 571.904 226.792 572.178 226.792 572.178 226.792 572.178 227.057L572.178 231.943Z" fill-rule="evenodd"/><path d="M556.647 240C553.353 240 553.353 240 553.353 240 553.118 240 553 240.147 553 240.441 553 244.559 553 244.559 553 244.559 553 244.853 553.118 245 553.353 245 556.647 245 556.647 245 556.647 245 556.882 245 557 244.853 557 244.559 557 240.441 557 240.441 557 240.441 557 240.147 556.882 240 556.647 240ZM556.294 244.118C553.706 244.118 553.706 244.118 553.706 244.118 553.706 240.882 553.706 240.882 553.706 240.882 556.294 240.882 556.294 240.882 556.294 240.882L556.294 244.118Z" fill-rule="evenodd"/><path d="M564.647 240C561.353 240 561.353 240 561.353 240 561.118 240 561 240.147 561 240.441 561 244.559 561 244.559 561 244.559 561 244.853 561.118 245 561.353 245 564.647 245 564.647 245 564.647 245 564.882 245 565 244.853 565 244.559 565 240.441 565 240.441 565 240.441 565 240.147 564.882 240 564.647 240ZM564.294 244.118C561.706 244.118 561.706 244.118 561.706 244.118 561.706 240.882 561.706 240.882 561.706 240.882 564.294 240.882 564.294 240.882 564.294 240.882L564.294 244.118Z" fill-rule="evenodd"/><path d="M572.559 240C568.441 240 568.441 240 568.441 240 568.147 240 568 240.147 568 240.441 568 244.559 568 244.559 568 244.559 568 244.853 568.147 245 568.441 245 572.559 245 572.559 245 572.559 245 572.853 245 573 244.853 573 244.559 573 240.441 573 240.441 573 240.441 573 240.147 572.853 240 572.559 240ZM572.118 244.118C568.882 244.118 568.882 244.118 568.882 244.118 568.882 240.882 568.882 240.882 568.882 240.882 572.118 240.882 572.118 240.882 572.118 240.882L572.118 244.118Z" fill-rule="evenodd"/><path d="M556.647 248C553.353 248 553.353 248 553.353 248 553.118 248 553 248.147 553 248.441 553 252.559 553 252.559 553 252.559 553 252.853 553.118 253 553.353 253 555 253 555 253 555 253 555.235 253 555.353 252.853 555.353 252.559 555.353 252.265 555.235 252.118 555 252.118 553.706 252.118 553.706 252.118 553.706 252.118 553.706 248.882 553.706 248.882 553.706 248.882 556.294 248.882 556.294 248.882 556.294 248.882 556.294 250.206 556.294 250.206 556.294 250.206 556.294 250.5 556.412 250.647 556.647 250.647 556.882 250.647 557 250.5 557 250.206 557 248.441 557 248.441 557 248.441 557 248.147 556.882 248 556.647 248Z" fill-rule="evenodd"/><path d="M572.559 248C568.441 248 568.441 248 568.441 248 568.147 248 568 248.147 568 248.441 568 250.206 568 250.206 568 250.206 568 250.353 568.147 250.647 568.441 250.647 568.735 250.647 568.882 250.353 568.882 250.206 568.882 248.882 568.882 248.882 568.882 248.882 572.118 248.882 572.118 248.882 572.118 248.882 572.118 252.118 572.118 252.118 572.118 252.118 570.647 252.118 570.647 252.118 570.647 252.118 570.353 252.118 570.206 252.265 570.206 252.559 570.206 252.853 570.353 253 570.647 253 572.559 253 572.559 253 572.559 253 572.853 253 573 252.853 573 252.559 573 248.441 573 248.441 573 248.441 573 248.147 572.853 248 572.559 248Z" fill-rule="evenodd"/><path d="M563 248C557.571 248 553 252.571 553 258 553 263.429 557.571 268 563 268 568.429 268 573 263.429 573 258 573 252.571 568.429 248 563 248ZM563 267.143C558 267.143 553.857 263 553.857 258 553.857 253 558 248.857 563 248.857 568 248.857 572.143 253 572.143 258 572.143 263 568 267.143 563 267.143Z" fill-rule="evenodd"/><path d="M567 252.452C567 252.151 566.852 252 566.704 252 566.556 252 566.407 252.151 566.407 252.301 559 262.397 559 262.397 559 262.397 559 262.548 559 262.548 559 262.699 559 262.849 559.148 263 559.296 263 559.444 263 559.444 262.849 559.593 262.849 567 252.603 567 252.603 567 252.603 567 252.452 567 252.452 567 252.452Z" fill-rule="evenodd"/><path d="M566.065 258C564.774 258 564 259.111 564 260.5 564 260.5 564 260.5 564 260.5 564 261.889 564.774 263 565.935 263 567.226 263 568 261.75 568 260.5 568 260.5 568 260.5 568 260.5 568 259.111 567.226 258 566.065 258ZM567.355 260.5C567.355 261.611 566.839 262.444 566.065 262.444 565.29 262.444 564.645 261.611 564.645 260.5 564.645 260.5 564.645 260.5 564.645 260.5 564.645 259.389 565.161 258.556 565.935 258.556 566.71 258.556 567.355 259.389 567.355 260.5Z" fill-rule="evenodd"/><path d="M562 254.919C562 254.919 562 254.919 562 254.919 562 253.459 561.25 252 560 252 558.875 252 558 253.459 558 254.919 558 254.919 558 254.919 558 254.919 558 256.541 558.875 258 560 258 561.125 258 562 256.541 562 254.919ZM558.75 254.919C558.75 254.919 558.75 254.919 558.75 254.919 558.75 253.784 559.25 252.649 560 252.649 560.75 252.649 561.25 253.622 561.25 254.919 561.25 254.919 561.25 254.919 561.25 254.919 561.25 256.216 560.75 257.189 560 257.189 559.25 257.189 558.75 256.216 558.75 254.919Z" fill-rule="evenodd"/></g></svg>
