<svg viewBox="0 0 75 80" fill="#ac8b44" xmlns="http://www.w3.org/2000/svg" xmlns:xlink="http://www.w3.org/1999/xlink" overflow="hidden"><defs><clipPath id="clip0"><path d="M382 342 457 342 457 422 382 422Z" fill-rule="evenodd" clip-rule="evenodd"/></clipPath></defs><g clip-path="url(#clip0)" transform="translate(-382 -342)"><path d="M390 421 388 421 388 413.964 387 413.964 387 412 390 412 390 421Z" fill-rule="evenodd"/><path d="M408 421 406 421 406 412 409 412 409 413.964 408 413.964 408 421Z" fill-rule="evenodd"/><path d="M414 421C412 421 412 421 412 421 412 411 412 411 412 411 412 404.75 407.75 400 402 400 394 400 394 400 394 400 388.25 400 384 404.75 384 411 384 421 384 421 384 421 382 421 382 421 382 421 382 411 382 411 382 411 382 403.5 387.25 398 394 398 402 398 402 398 402 398 408.75 398 414 403.5 414 411L414 421Z" fill-rule="evenodd"/><path d="M398 396C393.5 396 390 392.5 390 388 390 383.5 393.5 380 398 380 402.5 380 406 383.5 406 388 406 392.5 402.5 396 398 396ZM398 382C394.75 382 392 384.75 392 388 392 391.25 394.75 394 398 394 401.25 394 404 391.25 404 388 404 384.75 401.25 382 398 382Z" fill-rule="evenodd"/><rect x="397" y="407" width="2" height="2"/><rect x="397" y="413" width="2" height="2"/><rect x="397" y="419" width="2" height="2"/><path d="M432 421 430 421 430 413.964 429 413.964 429 412 432 412 432 421Z" fill-rule="evenodd"/><path d="M450 421 448 421 448 412 451 412 451 413.964 450 413.964 450 421Z" fill-rule="evenodd"/><path d="M457 421C454.938 421 454.938 421 454.938 421 454.938 411 454.938 411 454.938 411 454.938 404.75 450.555 400 444.625 400 436.375 400 436.375 400 436.375 400 430.445 400 426.063 404.75 426.063 411 426.063 421 426.063 421 426.063 421 424 421 424 421 424 421 424 411 424 411 424 411 424 403.5 429.414 398 436.375 398 444.625 398 444.625 398 444.625 398 451.586 398 457 403.5 457 411L457 421Z" fill-rule="evenodd"/><path d="M440 396C435.5 396 432 392.5 432 388 432 383.5 435.5 380 440 380 444.5 380 448 383.5 448 388 448 392.5 444.5 396 440 396ZM440 382C436.75 382 434 384.75 434 388 434 391.25 436.75 394 440 394 443.25 394 446 391.25 446 388 446 384.75 443.25 382 440 382Z" fill-rule="evenodd"/><rect x="439" y="407" width="2" height="2"/><rect x="439" y="413" width="2" height="2"/><rect x="439" y="419" width="2" height="2"/><path d="M419.014 362C418.767 362 418.521 362 418.274 361.753 402.493 345.726 402.493 345.726 402.493 345.726 402 345.479 402 344.74 402.493 344.493 402.74 344 403.479 344 403.726 344.493 419.753 360.274 419.753 360.274 419.753 360.274 420 360.767 420 361.26 419.753 361.753 419.507 362 419.26 362 419.014 362Z" fill-rule="evenodd"/><path d="M404.968 352 401 347.886 405.921 346 411 351.486 404.968 352ZM404.492 348.571 405.762 349.943 406.714 349.943 405.444 348.4 404.492 348.571Z" fill-rule="evenodd"/><path d="M409.486 353 404 347.5 405.886 342 410 346.469 409.486 353ZM406.4 346.984 407.943 348.359 407.943 347.328 406.571 345.953 406.4 346.984Z" fill-rule="evenodd"/><path d="M419 366C416.25 366 414 363.75 414 361 414 358.25 416.25 356 419 356 421.75 356 424 358.25 424 361 424 363.75 421.75 366 419 366ZM419 358C417.25 358 416 359.25 416 361 416 362.75 417.25 364 419 364 420.75 364 422 362.75 422 361 422 359.25 420.75 358 419 358Z" fill-rule="evenodd"/><path d="M419 351C418.5 351 418 350.5 418 350 418 344 418 344 418 344 418 343.5 418.5 343 419 343 419.5 343 420 343.5 420 344 420 350 420 350 420 350 420 350.5 419.5 351 419 351Z" fill-rule="evenodd"/><path d="M419 380C418.5 380 418 379.438 418 378.875 418 372.125 418 372.125 418 372.125 418 371.563 418.5 371 419 371 419.5 371 420 371.563 420 372.125 420 378.875 420 378.875 420 378.875 420 379.438 419.5 380 419 380Z" fill-rule="evenodd"/><path d="M436 362C430 362 430 362 430 362 429.5 362 429 361.5 429 361 429 360.5 429.5 360 430 360 436 360 436 360 436 360 436.5 360 437 360.5 437 361 437 361.5 436.5 362 436 362Z" fill-rule="evenodd"/><path d="M408 362C402 362 402 362 402 362 401.5 362 401 361.5 401 361 401 360.5 401.5 360 402 360 408 360 408 360 408 360 408.5 360 409 360.5 409 361 409 361.5 408.5 362 408 362Z" fill-rule="evenodd"/><path d="M419 377C415.75 377 412.75 375.967 410.25 373.9 403.25 375.967 403.25 375.967 403.25 375.967 402.75 375.967 402.5 375.967 402.25 375.45 402 375.192 402 374.675 402.25 374.417 405.5 368.217 405.5 368.217 405.5 368.217 404.5 366.15 404 363.825 404 361.5 404 358.658 404.75 355.817 406.25 353.492 406.5 352.975 407 352.717 407.5 353.233 408 353.492 408.25 354.008 407.75 354.525 406.75 356.592 406 358.917 406 361.5 406 363.825 406.5 365.892 407.5 367.958 407.75 368.217 407.75 368.475 407.5 368.992 405 373.383 405 373.383 405 373.383 410.25 371.833 410.25 371.833 410.25 371.833 410.5 371.833 410.75 371.833 411 372.092 413.25 373.9 416 374.933 419 374.933 422 374.933 424.75 373.9 427 372.092 427.25 371.833 427.5 371.833 427.75 371.833 433 373.383 433 373.383 433 373.383 430.5 368.992 430.5 368.992 430.5 368.992 430.25 368.475 430.25 368.217 430.5 367.958 431.5 365.892 432 363.825 432 361.5 432 354.008 426.25 348.067 419 348.067 416.75 348.067 414.75 348.583 413 349.617 412.5 349.875 411.75 349.617 411.5 349.1 411.25 348.842 411.5 348.067 412 347.808 414 346.517 416.5 346 419 346 427.25 346 434 352.975 434 361.5 434 363.825 433.5 366.15 432.5 368.217 435.75 374.417 435.75 374.417 435.75 374.417 436 374.675 436 375.192 435.75 375.45 435.5 375.967 435.25 375.967 434.75 375.967 427.75 373.9 427.75 373.9 427.75 373.9 425.25 375.967 422.25 377 419 377Z" fill-rule="evenodd"/></g></svg>
