<svg viewBox="0 0 126 98" fill="#ac8b44" xmlns="http://www.w3.org/2000/svg" xmlns:xlink="http://www.w3.org/1999/xlink" overflow="hidden"><defs><clipPath id="clip0"><path d="M536 496 599 496 599 545 536 545Z" fill-rule="evenodd" clip-rule="evenodd"/></clipPath></defs><g clip-path="url(#clip0)" transform="translate(-536 -496)"><path d="M564.865 522C564.519 522 564.346 521.826 564.346 521.477 564.346 521.302 564.519 520.953 564.865 520.953 580.269 520.953 580.269 520.953 580.269 520.953 580.615 520.953 580.962 520.43 580.962 519.732 580.962 519.034 580.615 518.336 580.269 518.336 580.269 518.336 580.269 518.336 580.096 518.336 579.577 518.336 579.577 518.336 579.577 518.336 579.404 518.336 579.231 518.161 579.231 517.987 579.058 517.812 579.231 517.463 579.404 517.289 579.404 517.289 579.577 517.289 579.577 517.289 580.096 517.289 580.096 517.289 580.096 517.289 580.096 517.289 580.096 517.289 580.096 517.289 580.269 517.289 580.269 517.289 580.269 517.289 580.615 517.114 580.962 516.416 580.962 515.718 580.962 514.846 580.615 514.148 580.269 513.973 580.269 513.973 580.269 513.973 580.096 513.973 579.577 513.973 579.577 513.973 579.577 513.973 579.404 513.973 579.231 513.973 579.231 513.624 579.058 513.45 579.231 513.275 579.404 513.101 579.404 513.101 579.577 512.926 579.75 512.926 580.096 512.926 580.096 512.926 580.096 512.926 580.269 512.926 580.269 512.926 580.269 512.926 580.615 512.926 580.962 512.228 580.962 511.53 580.962 510.658 580.615 509.785 580.096 509.785 579.577 509.785 579.577 509.785 579.577 509.785 579.577 509.785 579.404 509.785 579.231 509.611 579.231 509.611 579.058 509.436 579.231 509.262 579.231 508.913 579.404 508.738 579.75 508.738 580.096 508.738 580.096 508.738 580.096 508.738 580.615 508.738 580.962 508.215 580.962 507.517 580.962 506.819 580.615 506.121 580.096 506.121 573.692 506.121 573.692 506.121 573.692 506.121 573.519 506.121 573.346 506.121 573.346 505.946 573.173 505.772 573.173 505.597 573.173 505.423 573.173 505.423 573.173 505.248 573.346 505.248 573.346 504.725 574.904 500.013 574.731 499.315 574.731 499.315 574.731 499.315 574.731 499.315 574.904 498.268 574.731 497.57 574.385 497.221 574.212 497.047 574.038 497.047 573.692 497.047 573.346 497.047 573 497.396 573 497.57 572.308 500.013 569.365 504.899 568.5 506.295 568.5 506.295 568.5 506.47 568.5 506.47 568.327 506.644 568.327 506.644 564.519 506.644 564.173 506.644 564 506.295 564 506.121 564 505.772 564.173 505.597 564.519 505.597 564.519 505.597 564.519 505.597 564.519 505.597 565.731 505.597 567.288 505.597 567.808 505.597 568.846 503.852 571.269 499.49 571.962 497.221 572.135 496.523 572.827 496.174 573.519 496 574.212 496 574.731 496.174 575.077 496.523 575.596 497.047 575.942 498.094 575.769 499.315 575.942 500.188 574.904 503.678 574.385 505.074 580.096 505.074 580.096 505.074 580.096 505.074 581.135 505.074 582 506.121 582 507.517 582 508.215 581.827 508.913 581.308 509.436 581.827 509.785 582 510.658 582 511.53 582 512.403 581.827 513.101 581.308 513.45 581.827 513.973 582 514.846 582 515.718 582 516.591 581.827 517.289 581.308 517.812 581.827 518.161 582 518.859 582 519.732 582 520.953 581.308 522 580.269 522 564.865 522 564.865 522 564.865 522Z" fill-rule="evenodd"/><path d="M564.471 524C553.529 524 553.529 524 553.529 524 553.353 524 553 523.652 553 523.478 553 523.13 553.353 522.957 553.529 522.957 563.941 522.957 563.941 522.957 563.941 522.957 563.941 505.043 563.941 505.043 563.941 505.043 553.529 505.043 553.529 505.043 553.529 505.043 553.529 505.043 553.529 505.043 553.529 505.043 553.353 505.043 553 504.87 553 504.522 553 504.174 553.353 504 553.529 504 564.471 504 564.471 504 564.471 504 564.471 504 564.471 504 564.471 504 564.647 504 564.824 504 564.824 504.174 565 504.174 565 504.348 565 504.522 565 523.478 565 523.478 565 523.478 565 523.652 564.824 524 564.471 524Z" fill-rule="evenodd"/><path d="M551.257 544.825C551.079 544.825 551.079 544.825 551.079 544.825 546.089 542.196 546.089 542.196 546.089 542.196 541.099 544.825 541.099 544.825 541.099 544.825 540.921 545 540.743 545 540.564 544.825 540.386 544.649 540.208 544.474 540.386 544.299 541.277 538.866 541.277 538.866 541.277 538.866 537.178 535.01 537.178 535.01 537.178 535.01 537.178 534.835 537 534.66 537.178 534.485 537.178 534.309 537.356 534.134 537.535 534.134 543.059 533.258 543.059 533.258 543.059 533.258 545.554 528.351 545.554 528.351 545.554 528.351 545.733 528 546.267 528 546.446 528.351 548.941 533.258 548.941 533.258 548.941 533.258 554.465 534.134 554.465 534.134 554.465 534.134 554.822 534.134 555 534.309 555 534.485 555 534.66 555 534.835 554.822 535.01 550.901 538.866 550.901 538.866 550.901 538.866 551.792 544.299 551.792 544.299 551.792 544.299 551.792 544.474 551.792 544.649 551.614 544.825 551.436 544.825 551.436 544.825 551.257 544.825ZM546.089 541.144C546.089 541.144 546.267 541.144 546.267 541.144 550.545 543.423 550.545 543.423 550.545 543.423 549.653 538.691 549.653 538.691 549.653 538.691 549.653 538.515 549.832 538.34 549.832 538.34 553.396 535.01 553.396 535.01 553.396 535.01 548.584 534.309 548.584 534.309 548.584 534.309 548.406 534.309 548.228 534.134 548.228 533.959 546.089 529.753 546.089 529.753 546.089 529.753 543.951 533.959 543.951 533.959 543.951 533.959 543.772 534.134 543.772 534.309 543.594 534.309 538.782 535.01 538.782 535.01 538.782 535.01 542.168 538.34 542.168 538.34 542.168 538.34 542.347 538.34 542.347 538.515 542.347 538.691 541.634 543.423 541.634 543.423 541.634 543.423 545.733 541.144 545.733 541.144 545.733 541.144 545.911 541.144 545.911 541.144 546.089 541.144Z" fill-rule="evenodd"/><path d="M572.465 544.825C572.297 544.825 572.297 544.825 572.297 544.825 567.584 542.196 567.584 542.196 567.584 542.196 562.871 544.825 562.871 544.825 562.871 544.825 562.703 545 562.535 545 562.366 544.825 562.198 544.649 562.03 544.474 562.198 544.299 563.04 538.866 563.04 538.866 563.04 538.866 559.168 535.01 559.168 535.01 559.168 535.01 559.168 534.835 559 534.66 559.168 534.485 559.168 534.309 559.337 534.134 559.505 534.134 564.723 533.258 564.723 533.258 564.723 533.258 567.079 528.351 567.079 528.351 567.079 528.351 567.247 528 567.753 528 567.921 528.351 570.277 533.258 570.277 533.258 570.277 533.258 575.495 534.134 575.495 534.134 575.495 534.134 575.832 534.134 576 534.309 576 534.485 576 534.66 576 534.835 575.832 535.01 572.129 538.866 572.129 538.866 572.129 538.866 572.97 544.299 572.97 544.299 572.97 544.299 572.97 544.474 572.97 544.649 572.802 544.825 572.634 544.825 572.634 544.825 572.465 544.825ZM567.584 541.144C567.584 541.144 567.753 541.144 567.753 541.144 571.792 543.423 571.792 543.423 571.792 543.423 570.951 538.691 570.951 538.691 570.951 538.691 570.951 538.515 571.119 538.34 571.119 538.34 574.485 535.01 574.485 535.01 574.485 535.01 569.941 534.309 569.941 534.309 569.941 534.309 569.772 534.309 569.604 534.134 569.604 533.959 567.584 529.753 567.584 529.753 567.584 529.753 565.564 533.959 565.564 533.959 565.564 533.959 565.396 534.134 565.396 534.309 565.228 534.309 560.683 535.01 560.683 535.01 560.683 535.01 563.881 538.34 563.881 538.34 563.881 538.34 564.049 538.34 564.049 538.515 564.049 538.691 563.376 543.423 563.376 543.423 563.376 543.423 567.247 541.144 567.247 541.144 567.247 541.144 567.416 541.144 567.416 541.144 567.584 541.144Z" fill-rule="evenodd"/><path d="M594.257 544.825C594.079 544.825 594.079 544.825 594.079 544.825 589.089 542.196 589.089 542.196 589.089 542.196 584.099 544.825 584.099 544.825 584.099 544.825 583.921 545 583.743 545 583.564 544.825 583.386 544.649 583.208 544.474 583.386 544.299 584.277 538.866 584.277 538.866 584.277 538.866 580.178 535.01 580.178 535.01 580.178 535.01 580.178 534.835 580 534.66 580.178 534.485 580.178 534.309 580.356 534.134 580.535 534.134 586.059 533.258 586.059 533.258 586.059 533.258 588.554 528.351 588.554 528.351 588.554 528.351 588.733 528 589.267 528 589.446 528.351 591.941 533.258 591.941 533.258 591.941 533.258 597.465 534.134 597.465 534.134 597.465 534.134 597.822 534.134 598 534.309 598 534.485 598 534.66 598 534.835 597.822 535.01 593.901 538.866 593.901 538.866 593.901 538.866 594.792 544.299 594.792 544.299 594.792 544.299 594.792 544.474 594.792 544.649 594.614 544.825 594.436 544.825 594.436 544.825 594.257 544.825ZM589.089 541.144C589.089 541.144 589.267 541.144 589.267 541.144 593.545 543.423 593.545 543.423 593.545 543.423 592.653 538.691 592.653 538.691 592.653 538.691 592.653 538.515 592.832 538.34 592.832 538.34 596.396 535.01 596.396 535.01 596.396 535.01 591.584 534.309 591.584 534.309 591.584 534.309 591.406 534.309 591.228 534.134 591.228 533.959 589.089 529.753 589.089 529.753 589.089 529.753 586.951 533.959 586.951 533.959 586.951 533.959 586.772 534.134 586.772 534.309 586.594 534.309 581.782 535.01 581.782 535.01 581.782 535.01 585.168 538.34 585.168 538.34 585.168 538.34 585.347 538.34 585.347 538.515 585.347 538.691 584.634 543.423 584.634 543.423 584.634 543.423 588.733 541.144 588.733 541.144 588.733 541.144 588.911 541.144 588.911 541.144 589.089 541.144Z" fill-rule="evenodd"/></g></svg>
