<?xml version="1.0" standalone="no"?>
<!DOCTYPE svg PUBLIC "-//W3C//DTD SVG 1.1//EN" "http://www.w3.org/Graphics/SVG/1.1/DTD/svg11.dtd" >
<svg xmlns="http://www.w3.org/2000/svg" xmlns:xlink="http://www.w3.org/1999/xlink" version="1.1">
<metadata>
Created by FontForge 20190801 at Wed Jul 10 15:19:54 2019
 By Jimmy Wärting
Copyright 2013 The Exo 2 Project Authors (https://github.com/NDISCOVER/Exo-2.0)
</metadata>
<defs>
<font id="Exo2-Regular" horiz-adv-x="668" >
  <font-face 
    font-family="Exo 2"
    font-weight="400"
    font-stretch="normal"
    units-per-em="1000"
    panose-1="0 0 5 0 0 0 0 0 0 0"
    ascent="800"
    descent="-200"
    x-height="487"
    cap-height="690"
    bbox="-411 -275 1218 1051"
    underline-thickness="50"
    underline-position="-100"
    unicode-range="U+000D-FB02"
  />
<missing-glyph horiz-adv-x="624" 
d="M527 0h-430v690h430v-690zM486 649h-348v-608h348v608z" />
    <glyph glyph-name="f_f" unicode="ff" horiz-adv-x="711" 
d="M551 628.5q-19 -18.5 -19 -63.5v-78h155v-67h-155v-420h-86v420h-245v-420h-85v420h-88v62l88 5v75q0 69 35.5 105.5t106.5 36.5q74 0 122 -7l-6 -63h-86q-49 0 -68 -17t-19 -65v-65h245v87q0 71 33.5 107t108.5 36q84 0 137 -7l-6 -63h-101q-48 0 -67 -18.5z" />
    <glyph glyph-name="f_f_i" unicode="ffi" horiz-adv-x="929" 
d="M847 0h-84v420h-239v-420h-85v420h-245v-420h-85v420h-81v62l81 4v76q0 69 35.5 105.5t106.5 36.5q74 0 122 -7l-7 -63h-85q-49 0 -68 -17t-19 -65v-65h245v77q0 76 33 114.5t109 38.5q70 0 119 -7v-63h-89q-48 0 -67.5 -20.5t-19.5 -71.5v-68h323v-487zM850 668v-57
q0 -26 -26 -26h-40q-25 0 -25 26v57q0 26 25 26h40q26 0 26 -26z" />
    <glyph glyph-name="f_f_l" unicode="ffl" horiz-adv-x="1000" 
d="M990 4q-13 -6 -40 -9.5t-49 -3.5q-55 0 -87 30t-32 84v543h-164q-48 1 -67 -20t-19 -73v-68h148v-67h-148v-420h-86v420h-245v-420h-85v420h-88v62l88 5v75q0 69 35.5 105.5t106.5 36.5q74 0 122 -7l-6 -63h-86q-49 0 -68 -17t-19 -65v-65h245v77q0 76 32.5 114.5
t106.5 38.5q208 0 282 -12v-581q0 -66 66 -66h47z" />
    <glyph glyph-name="fi" unicode="fi" horiz-adv-x="606" 
d="M524 0h-84v420h-239v-420h-85v420h-88v62l88 5v77q0 76 33 114.5t109 38.5q66 0 114 -7v-63h-84q-48 0 -67.5 -20.5t-19.5 -71.5v-68h323v-487zM527 668v-57q0 -26 -26 -26h-40q-25 0 -25 26v57q0 26 25 26h40q26 0 26 -26z" />
    <glyph glyph-name="fl" unicode="fl" 
d="M659 4q-13 -6 -40 -9.5t-49 -3.5q-55 0 -87 30t-32 84v543h-164q-48 1 -67 -20t-19 -73v-68h145v-67h-145v-420h-86v420h-87v62l87 5v77q0 76 32.5 114.5t106.5 38.5q208 0 282 -12v-581q0 -66 66 -66h47z" />
    <glyph glyph-name=".notdef" horiz-adv-x="624" 
d="M527 0h-430v690h430v-690zM486 649h-348v-608h348v608z" />
    <glyph glyph-name="nonmarkingreturn" unicode="&#xd;" horiz-adv-x="223" 
 />
    <glyph glyph-name="space" unicode=" " horiz-adv-x="223" 
 />
    <glyph glyph-name="A" unicode="A" horiz-adv-x="622" 
d="M453 216h-284l-68 -216h-91l222 666q3 11 12 17.5t21 6.5h92q12 0 21 -6.5t12 -17.5l222 -666h-91zM429 292l-87 274q-9 26 -17 56h-28q-8 -30 -17 -56l-87 -274h236z" />
    <glyph glyph-name="Aacute" unicode="&#xc1;" horiz-adv-x="622" 
d="M453 216h-284l-68 -216h-91l222 666q3 11 12 17.5t21 6.5h92q12 0 21 -6.5t12 -17.5l222 -666h-91zM429 292l-87 274q-9 26 -17 56h-28q-8 -30 -17 -56l-87 -274h236zM461 848l-192 -120l-29 39l172 147z" />
    <glyph glyph-name="Abreve" unicode="&#x102;" horiz-adv-x="622" 
d="M453 216h-284l-68 -216h-91l222 666q3 11 12 17.5t21 6.5h92q12 0 21 -6.5t12 -17.5l222 -666h-91zM429 292l-87 274q-9 26 -17 56h-28q-8 -30 -17 -56l-87 -274h236zM461 870q4 -59 -37 -95.5t-113 -36.5t-113 36.5t-37 95.5l44 6q-1 -35 27 -55t80 -20q49 0 77 20
t28 55z" />
    <glyph glyph-name="uni1EAE" unicode="&#x1eae;" horiz-adv-x="622" 
d="M453 216h-284l-68 -216h-91l222 666q3 11 12 17.5t21 6.5h92q12 0 21 -6.5t12 -17.5l222 -666h-91zM429 292l-87 274q-9 26 -17 56h-28q-8 -30 -17 -56l-87 -274h236zM429 955l-138 -81l-27 36l119 107zM461 872q4 -59 -37 -95.5t-113 -36.5t-113 36.5t-37 95.5l44 6
q-1 -35 27 -55t80 -20q49 0 77 20t28 55z" />
    <glyph glyph-name="uni1EB6" unicode="&#x1eb6;" horiz-adv-x="622" 
d="M460 870q5 -59 -35.5 -95.5t-112.5 -36.5q-73 0 -114 36.5t-37 95.5l43 6q0 -36 28 -55.5t80 -19.5q49 0 77 20t28 55zM453 216h-284l-68 -216h-91l222 666q3 11 12 17.5t21 6.5h92q12 0 21 -6.5t12 -17.5l222 -666h-91zM429 292l-87 274q-9 26 -17 56h-28
q-8 -30 -17 -56l-87 -274h236zM351 -84v-57q0 -26 -26 -26h-28q-26 0 -26 26v57q0 25 26 25h28q26 0 26 -25z" />
    <glyph glyph-name="uni1EB0" unicode="&#x1eb0;" horiz-adv-x="622" 
d="M453 216h-284l-68 -216h-91l222 666q3 11 12 17.5t21 6.5h92q12 0 21 -6.5t12 -17.5l222 -666h-91zM429 292l-87 274q-9 26 -17 56h-28q-8 -30 -17 -56l-87 -274h236zM359 910l-27 -36l-139 81l46 62zM233.5 823q27.5 -20 77.5 -20q51 0 79 19.5t28 55.5l44 -6
q4 -59 -37.5 -95.5t-113.5 -36.5q-71 0 -112 36.5t-37 95.5l44 6q0 -35 27.5 -55z" />
    <glyph glyph-name="uni1EB2" unicode="&#x1eb2;" horiz-adv-x="622" 
d="M453 216h-284l-68 -216h-91l222 666q3 11 12 17.5t21 6.5h92q12 0 21 -6.5t12 -17.5l222 -666h-91zM429 292l-87 274q-9 26 -17 56h-28q-8 -30 -17 -56l-87 -274h236zM337 960q0 28 -34 28q-17 0 -37 -7l-9 43q30 10 58 10q34 0 54.5 -18t20.5 -53q0 -38 -24.5 -64
t-70.5 -36l-9 39q51 15 51 58zM461 872q4 -59 -37 -95.5t-113 -36.5t-113 36.5t-37 95.5l44 6q-1 -35 27 -55t80 -20q49 0 77 20t28 55z" />
    <glyph glyph-name="uni1EB4" unicode="&#x1eb4;" horiz-adv-x="622" 
d="M453 216h-284l-68 -216h-91l222 666q3 11 12 17.5t21 6.5h92q12 0 21 -6.5t12 -17.5l222 -666h-91zM429 292l-87 274q-9 26 -17 56h-28q-8 -30 -17 -56l-87 -274h236zM270.5 1006q16.5 -7 37.5 -21q19 -12 32.5 -18t30.5 -8q26 -2 36 9.5t10 39.5h37q1 -8 1 -22
q0 -40 -18.5 -62.5t-49.5 -22.5q-26 0 -44 8t-42 23q-20 12 -32.5 18t-29.5 6q-21 0 -29.5 -12.5t-8.5 -39.5h-37q-1 7 -1 21q0 42 19 65t49 23q23 0 39.5 -7zM461 872q4 -59 -37 -95.5t-113 -36.5t-113 36.5t-37 95.5l44 6q-1 -35 27 -55t79 -20q50 0 78 20t28 55z" />
    <glyph glyph-name="Acircumflex" unicode="&#xc2;" horiz-adv-x="622" 
d="M453 216h-284l-68 -216h-91l222 666q3 11 12 17.5t21 6.5h92q12 0 21 -6.5t12 -17.5l222 -666h-91zM429 292l-87 274q-9 26 -17 56h-28q-8 -30 -17 -56l-87 -274h236zM474 762l-30 -37l-129 97h-8l-130 -97l-29 37l132 127h61z" />
    <glyph glyph-name="uni1EA4" unicode="&#x1ea4;" horiz-adv-x="622" 
d="M453 216h-284l-68 -216h-91l222 666q3 11 12 17.5t21 6.5h92q12 0 21 -6.5t12 -17.5l222 -666h-91zM429 292l-87 274q-9 26 -17 56h-28q-8 -30 -17 -56l-87 -274h236zM566 932l-128 -100l-32 32l104 122zM377 852l88 -86l-58 -9l-94 60l-38 -25l-94 -57l8 62l97 83z" />
    <glyph glyph-name="uni1EAC" unicode="&#x1eac;" horiz-adv-x="622" 
d="M453 216h-284l-68 -216h-91l222 666q3 11 12 17.5t21 6.5h92q12 0 21 -6.5t12 -17.5l222 -666h-91zM429 292l-87 274q-9 26 -17 56h-28q-8 -30 -17 -56l-87 -274h236zM475 762l-30 -37l-130 97h-8l-129 -97l-29 37l131 127h62zM351 -89v-57q0 -26 -26 -26h-27
q-26 0 -26 26v57q0 25 26 25h27q26 0 26 -25z" />
    <glyph glyph-name="uni1EA6" unicode="&#x1ea6;" horiz-adv-x="622" 
d="M453 216h-284l-68 -216h-91l222 666q3 11 12 17.5t21 6.5h92q12 0 21 -6.5t12 -17.5l222 -666h-91zM429 292l-87 274q-9 26 -17 56h-28q-8 -30 -17 -56l-87 -274h236zM217 864l-32 -32l-127 100l55 54zM434 797l8 -62l-94 57l-38 25l-94 -60l-58 9l88 86l92 28z" />
    <glyph glyph-name="uni1EA8" unicode="&#x1ea8;" horiz-adv-x="622" 
d="M453 216h-284l-68 -216h-91l222 666q3 11 12 17.5t21 6.5h92q12 0 21 -6.5t12 -17.5l222 -666h-91zM429 292l-87 274q-9 26 -17 56h-28q-8 -30 -17 -56l-87 -274h236zM454 903.5q12 14.5 12 35.5q0 27 -33 27q-18 0 -38 -7l-9 44q33 10 56 10q36 0 56.5 -18t20.5 -54
q0 -37 -24.5 -63.5t-70.5 -35.5l-9 38q27 9 39 23.5zM342 880l126 -111l-28 -37l-124 85h-8l-124 -85l-30 37l127 111h61z" />
    <glyph glyph-name="uni1EAA" unicode="&#x1eaa;" horiz-adv-x="622" 
d="M453 216h-284l-68 -216h-91l222 666q3 11 12 17.5t21 6.5h92q12 0 21 -6.5t12 -17.5l222 -666h-91zM429 292l-87 274q-9 26 -17 56h-28q-8 -30 -17 -56l-87 -274h236zM274.5 1002q16.5 -7 37.5 -21q20 -13 35.5 -19.5t36.5 -6.5q20 0 28.5 12t8.5 37h37q1 -7 1 -21
q0 -40 -18.5 -62.5t-49.5 -22.5q-26 0 -44.5 7.5t-41.5 22.5q-20 13 -33.5 19t-30.5 6q-20 0 -28 -12.5t-8 -40.5h-37q-1 8 -1 22q0 42 19 64.5t49 22.5q23 0 39.5 -7zM342 880l126 -111l-28 -37l-124 85h-8l-124 -85l-30 37l127 111h61z" />
    <glyph glyph-name="uni0200" unicode="&#x200;" horiz-adv-x="622" 
d="M453 216h-284l-68 -216h-91l222 666q3 11 12 17.5t21 6.5h92q12 0 21 -6.5t12 -17.5l222 -666h-91zM429 292l-87 274q-9 26 -17 56h-28q-8 -30 -17 -56l-87 -274h236zM271 750l-37 -28l-134 160l62 42zM436 750l-38 -28l-134 160l62 42z" />
    <glyph glyph-name="Adieresis" unicode="&#xc4;" horiz-adv-x="622" 
d="M453 216h-284l-68 -216h-91l222 666q3 11 12 17.5t21 6.5h92q12 0 21 -6.5t12 -17.5l222 -666h-91zM429 292l-87 274q-9 26 -17 56h-28q-8 -30 -17 -56l-87 -274h236zM260 839v-55q0 -24 -23 -24h-29q-23 0 -23 24v55q0 24 23 24h29q23 0 23 -24zM431.5 856.5
q6.5 -6.5 6.5 -17.5v-55q0 -24 -24 -24h-28q-24 0 -24 24v55q0 24 24 24h28q11 0 17.5 -6.5z" />
    <glyph glyph-name="uni1EA0" unicode="&#x1ea0;" horiz-adv-x="622" 
d="M453 216h-284l-68 -216h-91l222 666q3 11 12 17.5t21 6.5h92q12 0 21 -6.5t12 -17.5l222 -666h-91zM429 292l-87 274q-9 26 -17 56h-28q-8 -30 -17 -56l-87 -274h236zM351 -89v-57q0 -26 -26 -26h-28q-26 0 -26 26v57q0 25 26 25h28q26 0 26 -25z" />
    <glyph glyph-name="Agrave" unicode="&#xc0;" horiz-adv-x="622" 
d="M453 216h-284l-68 -216h-91l222 666q3 11 12 17.5t21 6.5h92q12 0 21 -6.5t12 -17.5l222 -666h-91zM429 292l-87 274q-9 26 -17 56h-28q-8 -30 -17 -56l-87 -274h236zM368 760l-29 -39l-192 120l49 65z" />
    <glyph glyph-name="uni1EA2" unicode="&#x1ea2;" horiz-adv-x="622" 
d="M453 216h-284l-68 -216h-91l222 666q3 11 12 17.5t21 6.5h92q12 0 21 -6.5t12 -17.5l222 -666h-91zM429 292l-87 274q-9 26 -17 56h-28q-8 -30 -17 -56l-87 -274h236zM345.5 804q13.5 17 13.5 42q0 20 -12.5 30.5t-34.5 10.5q-12 0 -32 -5l-10 48q24 8 52 8
q42 0 68.5 -24t26.5 -66t-27 -72.5t-78 -39.5l-10 42q30 9 43.5 26z" />
    <glyph glyph-name="uni0202" unicode="&#x202;" horiz-adv-x="622" 
d="M453 216h-284l-68 -216h-91l222 666q3 11 12 17.5t21 6.5h92q12 0 21 -6.5t12 -17.5l222 -666h-91zM429 292l-87 274q-9 26 -17 56h-28q-8 -30 -17 -56l-87 -274h236zM160 752q-4 59 37 95.5t112 36.5q72 0 113.5 -36.5t37.5 -95.5l-44 -7q0 36 -27.5 55.5t-79.5 19.5
q-50 0 -78 -19.5t-28 -55.5z" />
    <glyph glyph-name="Amacron" unicode="&#x100;" horiz-adv-x="622" 
d="M453 216h-284l-68 -216h-91l222 666q3 11 12 17.5t21 6.5h92q12 0 21 -6.5t12 -17.5l222 -666h-91zM429 292l-87 274q-9 26 -17 56h-28q-8 -30 -17 -56l-87 -274h236zM450 779h-278v63h278v-63z" />
    <glyph glyph-name="Aogonek" unicode="&#x104;" horiz-adv-x="622" 
d="M626 -193q-49 -20 -84 -20q-34 0 -52 17t-18 45q0 16 6 34q19 58 93 117h-50l-68 216h-284l-68 -216h-91l222 666q3 11 12 17.5t21 6.5h92q12 0 21 -6.5t12 -17.5l222 -666q-26 -30 -44 -56.5t-30 -57.5q-6 -14 -6 -24q0 -28 38 -28q22 0 46 8zM429 292l-87 274
q-9 26 -17 56h-28q-8 -30 -17 -56l-87 -274h236z" />
    <glyph glyph-name="Aring" unicode="&#xc5;" horiz-adv-x="622" 
d="M453 216h-284l-68 -216h-91l222 666q3 11 12 17.5t21 6.5h92q12 0 21 -6.5t12 -17.5l222 -666h-91zM429 292l-87 274q-9 26 -17 56h-28q-8 -30 -17 -56l-87 -274h236zM386.5 893.5q31.5 -30.5 31.5 -74.5t-31.5 -74.5t-75.5 -30.5q-45 0 -76 30t-31 75q0 44 31.5 74.5
t75.5 30.5t75.5 -30.5zM268.5 863q-16.5 -17 -16.5 -44q0 -28 17 -44.5t42 -16.5q26 0 43 16.5t17 44.5q0 27 -17 44t-43 17t-42.5 -17z" />
    <glyph glyph-name="Aringacute" unicode="&#x1fa;" horiz-adv-x="622" 
d="M254 869l-27 38l145 116l45 -64zM237 683q-31 30 -31 74q0 45 31 75t76 30q44 0 75.5 -30.5t31.5 -74.5q0 -43 -31.5 -73.5t-75.5 -30.5q-45 0 -76 30zM270 802q-17 -17 -17 -45q0 -27 17 -43.5t43 -16.5q25 0 42 16.5t17 43.5t-17 44.5t-42 17.5q-26 0 -43 -17zM459 175
h-296l-62 -175h-91l222 606q10 24 33 24h92q23 0 33 -24l222 -606h-91zM432 251l-90 255q-5 13 -17 56h-28q-12 -43 -17 -56l-90 -255h242z" />
    <glyph glyph-name="Atilde" unicode="&#xc3;" horiz-adv-x="622" 
d="M453 216h-284l-68 -216h-91l222 666q3 11 12 17.5t21 6.5h92q12 0 21 -6.5t12 -17.5l222 -666h-91zM429 292l-87 274q-9 26 -17 56h-28q-8 -30 -17 -56l-87 -274h236zM271 863q18 -7 40 -20q23 -12 37 -18t32 -8q4 -1 12 -1q20 0 28.5 12.5t8.5 38.5h40q1 -7 1 -21
q0 -46 -21.5 -70t-57.5 -21q-25 2 -45 10.5t-44 22.5q-22 12 -38 18.5t-33 6.5q-22 0 -30 -13t-8 -42h-40q-1 7 -1 21q0 48 22.5 72t56.5 21q22 -2 40 -9z" />
    <glyph glyph-name="AE" unicode="&#xc6;" horiz-adv-x="913" 
d="M859 74l3 -69q-95 -6 -293 -6q-52 0 -84 33.5t-32 86.5v106h-232l-130 -225h-92l343 582q24 43 53 66.5t69 33t103 9.5q189 0 295 -6l-3 -70h-255q-31 0 -49.5 -18.5t-18.5 -50.5v-145l283 -1v-71l-283 -1v-187q0 -35 16.5 -51t51.5 -16h255zM453 298v260q0 21 9.5 42
t22.5 30h-8q-29 -16 -58 -63l-156 -269h190z" />
    <glyph glyph-name="AEacute" unicode="&#x1fc;" horiz-adv-x="913" 
d="M859 74l3 -69q-95 -6 -293 -6q-52 0 -84 33.5t-32 86.5v106h-232l-130 -225h-92l343 582q24 43 53 66.5t69 33t103 9.5q189 0 295 -6l-3 -70h-255q-31 0 -49.5 -18.5t-18.5 -50.5v-145l283 -1v-71l-283 -1v-187q0 -35 16.5 -51t51.5 -16h255zM453 298v260q0 21 9.5 42
t22.5 30h-8q-29 -16 -58 -63l-156 -269h190zM720 848l-191 -120l-30 39l173 146z" />
    <glyph glyph-name="B" unicode="B" horiz-adv-x="620" 
d="M530.5 303.5q31.5 -45.5 31.5 -131.5q0 -71 -22 -110t-69 -54.5t-129 -15.5q-95 0 -147 1.5t-108 6.5v690q49 5 95.5 6.5t128.5 1.5q87 0 136.5 -15.5t71.5 -54.5t22 -110q0 -75 -28 -113.5t-89 -44.5v-4q75 -7 106.5 -52.5zM173 623v-232h148q52 1 80.5 11t41.5 34.5
t13 71.5t-14 71.5t-45.5 34t-89.5 9.5h-134zM415.5 77q30.5 10 44 35.5t13.5 74.5q0 54 -14 83t-46 41t-91 13h-149v-256q41 -1 155 -1q57 0 87.5 10z" />
    <glyph glyph-name="C" unicode="C" horiz-adv-x="570" 
d="M435 697.5q40 -4.5 85 -15.5l-9 -67q-50 5 -86.5 7t-92.5 2q-69 0 -107 -26t-54.5 -86t-16.5 -167t16.5 -167t54.5 -86t107 -26q116 0 193 11l9 -66q-45 -12 -90.5 -17.5t-111.5 -5.5q-101 0 -159.5 34.5t-85 112t-26.5 210.5t26.5 210.5t85 112t159.5 34.5
q63 0 103 -4.5z" />
    <glyph glyph-name="Cacute" unicode="&#x106;" horiz-adv-x="570" 
d="M435 697.5q40 -4.5 85 -15.5l-9 -67q-50 5 -86.5 7t-92.5 2q-69 0 -107 -26t-54.5 -86t-16.5 -167t16.5 -167t54.5 -86t107 -26q116 0 193 11l9 -66q-45 -12 -90.5 -17.5t-111.5 -5.5q-101 0 -159.5 34.5t-85 112t-26.5 210.5t26.5 210.5t85 112t159.5 34.5
q63 0 103 -4.5zM470 855l-192 -120l-29 39l172 147z" />
    <glyph glyph-name="Ccaron" unicode="&#x10c;" horiz-adv-x="570" 
d="M435 697.5q40 -4.5 85 -15.5l-9 -67q-50 5 -86.5 7t-92.5 2q-69 0 -107 -26t-54.5 -86t-16.5 -167t16.5 -167t54.5 -86t107 -26q116 0 193 11l9 -66q-45 -12 -90.5 -17.5t-111.5 -5.5q-101 0 -159.5 34.5t-85 112t-26.5 210.5t26.5 210.5t85 112t159.5 34.5
q63 0 103 -4.5zM485 875l-143 -128h-40l-143 128l29 36l130 -87h8l129 87z" />
    <glyph glyph-name="Ccedilla" unicode="&#xc7;" horiz-adv-x="570" 
d="M435 697.5q40 -4.5 85 -15.5l-9 -67q-50 5 -86.5 7t-92.5 2q-69 0 -107 -26t-54.5 -86t-16.5 -167t16.5 -167t54.5 -86t107 -26q116 0 193 11l9 -66q-45 -12 -90.5 -17.5t-111.5 -5.5q-101 0 -159.5 34.5t-85 112t-26.5 210.5t26.5 210.5t85 112t159.5 34.5
q63 0 103 -4.5zM317 -53q39 0 57.5 -14t18.5 -48q0 -59 -38 -93.5t-100 -34.5q-9 0 -29 2l13 45q41 -1 67 19t26 53q0 16 -12 22t-47 7l9 40q26 2 35 2z" />
    <glyph glyph-name="uni1E08" unicode="&#x1e08;" horiz-adv-x="570" 
d="M435 697.5q40 -4.5 85 -15.5l-9 -67q-50 5 -86.5 7t-92.5 2q-69 0 -107 -26t-54.5 -86t-16.5 -167t16.5 -167t54.5 -86t107 -26q116 0 193 11l9 -66q-45 -12 -90.5 -17.5t-111.5 -5.5q-101 0 -159.5 34.5t-85 112t-26.5 210.5t26.5 210.5t85 112t159.5 34.5
q63 0 103 -4.5zM476 848l-191 -120l-30 39l173 146zM317 -53q40 0 58.5 -14.5t18.5 -49.5q0 -58 -38.5 -92t-99.5 -34q-10 0 -30 2l14 45q41 -1 66.5 19t25.5 53q0 16 -12 22t-47 7l9 40q26 2 35 2z" />
    <glyph glyph-name="Ccircumflex" unicode="&#x108;" horiz-adv-x="570" 
d="M435 697.5q40 -4.5 85 -15.5l-9 -67q-50 5 -86.5 7t-92.5 2q-69 0 -107 -26t-54.5 -86t-16.5 -167t16.5 -167t54.5 -86t107 -26q116 0 193 11l9 -66q-45 -12 -90.5 -17.5t-111.5 -5.5q-101 0 -159.5 34.5t-85 112t-26.5 210.5t26.5 210.5t85 112t159.5 34.5
q63 0 103 -4.5zM484 770l-30 -37l-129 97h-8l-130 -97l-29 37l132 127h61z" />
    <glyph glyph-name="Cdotaccent" unicode="&#x10a;" horiz-adv-x="570" 
d="M435 697.5q40 -4.5 85 -15.5l-9 -67q-50 5 -86.5 7t-92.5 2q-69 0 -107 -26t-54.5 -86t-16.5 -167t16.5 -167t54.5 -86t107 -26q116 0 193 11l9 -66q-45 -12 -90.5 -17.5t-111.5 -5.5q-101 0 -159.5 34.5t-85 112t-26.5 210.5t26.5 210.5t85 112t159.5 34.5
q63 0 103 -4.5zM360 842v-57q0 -26 -26 -26h-27q-26 0 -26 26v57q0 25 26 25h27q26 0 26 -25z" />
    <glyph glyph-name="D" unicode="D" horiz-adv-x="664" 
d="M492 666q58 -33 84 -109.5t26 -211.5t-26 -211.5t-84 -109.5t-159 -33q-116 0 -246 9v690q130 9 246 9q101 0 159 -33zM438 94q38 26 55 85.5t17 165.5t-17 166t-55 86t-105 26q-64 0 -158 -2v-551q90 -2 158 -2q67 0 105 26z" />
    <glyph glyph-name="uni01C4" unicode="&#x1c4;" horiz-adv-x="1224" 
d="M492 666q58 -33 84 -109.5t26 -211.5t-26 -211.5t-84 -109.5t-159 -33q-116 0 -246 9v690q130 9 246 9q101 0 159 -33zM438 94q38 26 55 85.5t17 165.5t-17 166t-55 86t-105 26q-64 0 -158 -2v-551q90 -2 158 -2q67 0 105 26zM1177 75v-75h-471v75l367 540h-361v75h458
v-75l-366 -540h373zM1104 875l-143 -128h-40l-143 128l29 36l130 -87h8l129 87z" />
    <glyph glyph-name="Eth" unicode="&#xd0;" horiz-adv-x="669" 
d="M496 666q58 -33 84 -109.5t26 -211.5t-26 -211.5t-84 -109.5t-159 -33q-115 0 -246 9v342h-69v49h69v299q130 9 246 9q101 0 159 -33zM443 94q38 26 54.5 85.5t16.5 165.5t-16.5 166t-54.5 86t-106 26q-64 0 -158 -2v-230h152v-49h-152v-272q92 -2 158 -2q68 0 106 26z
" />
    <glyph glyph-name="Dcaron" unicode="&#x10e;" horiz-adv-x="664" 
d="M492 666q58 -33 84 -109.5t26 -211.5t-26 -211.5t-84 -109.5t-159 -33q-116 0 -246 9v690q130 9 246 9q101 0 159 -33zM438 94q38 26 55 85.5t17 165.5t-17 166t-55 86t-105 26q-64 0 -158 -2v-551q90 -2 158 -2q67 0 105 26zM483 875l-143 -128h-40l-143 128l29 36
l130 -87h8l129 87z" />
    <glyph glyph-name="Dcroat" unicode="&#x110;" horiz-adv-x="669" 
d="M496 666q58 -33 84 -109.5t26 -211.5t-26 -211.5t-84 -109.5t-159 -33q-115 0 -246 9v342h-69v49h69v299q130 9 246 9q101 0 159 -33zM443 94q38 26 54.5 85.5t16.5 165.5t-16.5 166t-54.5 86t-106 26q-64 0 -158 -2v-230h152v-49h-152v-272q92 -2 158 -2q68 0 106 26z
" />
    <glyph glyph-name="uni1E0C" unicode="&#x1e0c;" horiz-adv-x="664" 
d="M492 666q58 -33 84 -109.5t26 -211.5t-26 -211.5t-84 -109.5t-159 -33q-116 0 -246 9v690q130 9 246 9q101 0 159 -33zM438 94q38 26 55 85.5t17 165.5t-17 166t-55 86t-105 26q-64 0 -158 -2v-551q90 -2 158 -2q67 0 105 26zM363 -89v-57q0 -26 -26 -26h-27
q-26 0 -26 26v57q0 25 26 25h27q26 0 26 -25z" />
    <glyph glyph-name="uni1E0E" unicode="&#x1e0e;" horiz-adv-x="664" 
d="M492 666q58 -33 84 -109.5t26 -211.5t-26 -211.5t-84 -109.5t-159 -33q-116 0 -246 9v690q130 9 246 9q101 0 159 -33zM438 94q38 26 55 85.5t17 165.5t-17 166t-55 86t-105 26q-64 0 -158 -2v-551q90 -2 158 -2q67 0 105 26zM462 -153h-278v63h278v-63z" />
    <glyph glyph-name="uni01C5" unicode="&#x1c5;" horiz-adv-x="1174" 
d="M492 666q58 -33 84 -109.5t26 -211.5t-26 -211.5t-84 -109.5t-159 -33q-116 0 -246 9v690q130 9 246 9q101 0 159 -33zM438 94q38 26 55 85.5t17 165.5t-17 166t-55 86t-105 26q-64 0 -158 -2v-551q90 -2 158 -2q67 0 105 26zM1125 69v-69h-412v69l313 348h-310v70h406
v-70l-313 -348h316zM1083 695l-143 -128h-40l-143 128l29 36l130 -87h8l129 87z" />
    <glyph glyph-name="E" unicode="E" horiz-adv-x="560" 
d="M506 73l4 -68q-92 -6 -296 -6q-61 0 -96.5 32.5t-36.5 87.5v452q1 55 36.5 87.5t96.5 32.5q204 0 296 -6l-4 -69h-277q-31 0 -45.5 -16t-14.5 -50v-150h298v-71h-298v-189q0 -35 14.5 -51t45.5 -16h277z" />
    <glyph glyph-name="Eacute" unicode="&#xc9;" horiz-adv-x="560" 
d="M506 73l4 -68q-92 -6 -296 -6q-61 0 -96.5 32.5t-36.5 87.5v452q1 55 36.5 87.5t96.5 32.5q204 0 296 -6l-4 -69h-277q-31 0 -45.5 -16t-14.5 -50v-150h298v-71h-298v-189q0 -35 14.5 -51t45.5 -16h277zM460 869l-192 -120l-29 39l172 147z" />
    <glyph glyph-name="Ebreve" unicode="&#x114;" horiz-adv-x="560" 
d="M506 73l4 -68q-92 -6 -296 -6q-61 0 -96.5 32.5t-36.5 87.5v452q1 55 36.5 87.5t96.5 32.5q204 0 296 -6l-4 -69h-277q-31 0 -45.5 -16t-14.5 -50v-150h298v-71h-298v-189q0 -35 14.5 -51t45.5 -16h277zM460 891q4 -59 -37 -95.5t-113 -36.5t-113 36.5t-37 95.5l44 6
q-1 -35 27 -55t80 -20q49 0 77 20t28 55z" />
    <glyph glyph-name="Ecaron" unicode="&#x11a;" horiz-adv-x="560" 
d="M506 73l4 -68q-92 -6 -296 -6q-61 0 -96.5 32.5t-36.5 87.5v452q1 55 36.5 87.5t96.5 32.5q204 0 296 -6l-4 -69h-277q-31 0 -45.5 -16t-14.5 -50v-150h298v-71h-298v-189q0 -35 14.5 -51t45.5 -16h277zM474 888l-143 -128h-40l-143 128l29 36l130 -87h8l129 87z" />
    <glyph glyph-name="uni1E1C" unicode="&#x1e1c;" horiz-adv-x="560" 
d="M458 891q5 -59 -35.5 -95.5t-112.5 -36.5q-73 0 -114 36.5t-37 95.5l43 6q0 -36 28 -55.5t80 -19.5q49 0 77 20t28 55zM506 73l4 -68q-92 -6 -296 -6q-61 0 -96.5 32.5t-36.5 87.5v452q1 55 36.5 87.5t96.5 32.5q204 0 296 -6l-4 -69h-277q-31 0 -45.5 -16t-14.5 -50
v-150h298v-71h-298v-189q0 -35 14.5 -51t45.5 -16h277zM292 -41q40 0 58.5 -14.5t18.5 -49.5q0 -58 -38.5 -92t-99.5 -34q-10 0 -30 2l14 45q41 -1 66.5 19t25.5 53q0 16 -12 22t-47 7l9 40q26 2 35 2z" />
    <glyph glyph-name="Ecircumflex" unicode="&#xca;" horiz-adv-x="560" 
d="M506 73l4 -68q-92 -6 -296 -6q-61 0 -96.5 32.5t-36.5 87.5v452q1 55 36.5 87.5t96.5 32.5q204 0 296 -6l-4 -69h-277q-31 0 -45.5 -16t-14.5 -50v-150h298v-71h-298v-189q0 -35 14.5 -51t45.5 -16h277zM473 783l-30 -37l-129 97h-8l-130 -97l-29 37l132 127h61z" />
    <glyph glyph-name="uni1EBE" unicode="&#x1ebe;" horiz-adv-x="560" 
d="M506 73l4 -68q-92 -6 -296 -6q-61 0 -96.5 32.5t-36.5 87.5v452q1 55 36.5 87.5t96.5 32.5q204 0 296 -6l-4 -69h-277q-31 0 -45.5 -16t-14.5 -50v-150h298v-71h-298v-189q0 -35 14.5 -51t45.5 -16h277zM564 953l-128 -100l-32 32l104 122zM375 873l88 -86l-58 -9l-94 60
l-38 -25l-94 -57l8 62l97 83z" />
    <glyph glyph-name="uni1EC6" unicode="&#x1ec6;" horiz-adv-x="560" 
d="M473 783l-30 -37l-130 97h-8l-129 -97l-29 37l131 127h62zM506 73l4 -68q-92 -6 -296 -6q-61 0 -96.5 32.5t-36.5 87.5v452q1 55 36.5 87.5t96.5 32.5q204 0 296 -6l-4 -69h-277q-31 0 -45.5 -16t-14.5 -50v-150h298v-71h-298v-189q0 -35 14.5 -51t45.5 -16h277zM340 -77
v-57q0 -26 -26 -26h-27q-26 0 -26 26v57q0 25 26 25h27q26 0 26 -25z" />
    <glyph glyph-name="uni1EC0" unicode="&#x1ec0;" horiz-adv-x="560" 
d="M506 73l4 -68q-92 -6 -296 -6q-61 0 -96.5 32.5t-36.5 87.5v452q1 55 36.5 87.5t96.5 32.5q204 0 296 -6l-4 -69h-277q-31 0 -45.5 -16t-14.5 -50v-150h298v-71h-298v-189q0 -35 14.5 -51t45.5 -16h277zM215 885l-32 -32l-127 100l55 54zM432 818l8 -62l-94 57l-38 25
l-94 -60l-58 9l88 86l92 28z" />
    <glyph glyph-name="uni1EC2" unicode="&#x1ec2;" horiz-adv-x="560" 
d="M506 73l4 -68q-92 -6 -296 -6q-61 0 -96.5 32.5t-36.5 87.5v452q1 55 36.5 87.5t96.5 32.5q204 0 296 -6l-4 -69h-277q-31 0 -45.5 -16t-14.5 -50v-150h298v-71h-298v-189q0 -35 14.5 -51t45.5 -16h277zM452 924.5q12 14.5 12 35.5q0 27 -33 27q-18 0 -38 -7l-9 44
q33 10 56 10q36 0 56.5 -18t20.5 -54q0 -37 -24.5 -63.5t-70.5 -35.5l-9 38q27 9 39 23.5zM340 901l126 -111l-28 -37l-124 85h-8l-124 -85l-30 37l127 111h61z" />
    <glyph glyph-name="uni1EC4" unicode="&#x1ec4;" horiz-adv-x="560" 
d="M506 73l4 -68q-92 -6 -296 -6q-61 0 -96.5 32.5t-36.5 87.5v452q1 55 36.5 87.5t96.5 32.5q204 0 296 -6l-4 -69h-277q-31 0 -45.5 -16t-14.5 -50v-150h298v-71h-298v-189q0 -35 14.5 -51t45.5 -16h277zM272.5 1023q16.5 -7 37.5 -21q20 -13 35.5 -19.5t36.5 -6.5
q20 0 28.5 12t8.5 37h37q1 -7 1 -21q0 -40 -18.5 -62.5t-49.5 -22.5q-26 0 -44.5 7.5t-41.5 22.5q-20 13 -33.5 19t-30.5 6q-20 0 -28 -12.5t-8 -40.5h-37q-1 8 -1 22q0 42 19 64.5t49 22.5q23 0 39.5 -7zM340 901l126 -111l-28 -37l-124 85h-8l-124 -85l-30 37l127 111h61z
" />
    <glyph glyph-name="uni0204" unicode="&#x204;" horiz-adv-x="560" 
d="M506 73l4 -68q-92 -6 -296 -6q-61 0 -96.5 32.5t-36.5 87.5v452q1 55 36.5 87.5t96.5 32.5q204 0 296 -6l-4 -69h-277q-31 0 -45.5 -16t-14.5 -50v-150h298v-71h-298v-189q0 -35 14.5 -51t45.5 -16h277zM269 771l-37 -28l-134 160l62 42zM434 771l-38 -28l-134 160l62 42
z" />
    <glyph glyph-name="Edieresis" unicode="&#xcb;" horiz-adv-x="560" 
d="M506 73l4 -68q-92 -6 -296 -6q-61 0 -96.5 32.5t-36.5 87.5v452q1 55 36.5 87.5t96.5 32.5q204 0 296 -6l-4 -69h-277q-31 0 -45.5 -16t-14.5 -50v-150h298v-71h-298v-189q0 -35 14.5 -51t45.5 -16h277zM258 859v-55q0 -24 -23 -24h-29q-23 0 -23 24v55q0 24 23 24h29
q23 0 23 -24zM429.5 876.5q6.5 -6.5 6.5 -17.5v-55q0 -24 -24 -24h-28q-24 0 -24 24v55q0 24 24 24h28q11 0 17.5 -6.5z" />
    <glyph glyph-name="Edotaccent" unicode="&#x116;" horiz-adv-x="560" 
d="M506 73l4 -68q-92 -6 -296 -6q-61 0 -96.5 32.5t-36.5 87.5v452q1 55 36.5 87.5t96.5 32.5q204 0 296 -6l-4 -69h-277q-31 0 -45.5 -16t-14.5 -50v-150h298v-71h-298v-189q0 -35 14.5 -51t45.5 -16h277zM350 855v-57q0 -26 -26 -26h-27q-26 0 -26 26v57q0 25 26 25h27
q26 0 26 -25z" />
    <glyph glyph-name="uni1EB8" unicode="&#x1eb8;" horiz-adv-x="560" 
d="M506 73l4 -68q-92 -6 -296 -6q-61 0 -96.5 32.5t-36.5 87.5v452q1 55 36.5 87.5t96.5 32.5q204 0 296 -6l-4 -69h-277q-31 0 -45.5 -16t-14.5 -50v-150h298v-71h-298v-189q0 -35 14.5 -51t45.5 -16h277zM341 -77v-57q0 -26 -26 -26h-28q-26 0 -26 26v57q0 25 26 25h28
q26 0 26 -25z" />
    <glyph glyph-name="Egrave" unicode="&#xc8;" horiz-adv-x="560" 
d="M506 73l4 -68q-92 -6 -296 -6q-61 0 -96.5 32.5t-36.5 87.5v452q1 55 36.5 87.5t96.5 32.5q204 0 296 -6l-4 -69h-277q-31 0 -45.5 -16t-14.5 -50v-150h298v-71h-298v-189q0 -35 14.5 -51t45.5 -16h277zM367 781l-29 -39l-192 120l49 65z" />
    <glyph glyph-name="uni1EBA" unicode="&#x1eba;" horiz-adv-x="560" 
d="M506 73l4 -68q-92 -6 -296 -6q-61 0 -96.5 32.5t-36.5 87.5v452q1 55 36.5 87.5t96.5 32.5q204 0 296 -6l-4 -69h-277q-31 0 -45.5 -16t-14.5 -50v-150h298v-71h-298v-189q0 -35 14.5 -51t45.5 -16h277zM344 864q0 20 -12.5 31t-34.5 11q-14 0 -32 -5l-10 48q29 8 51 8
q43 0 69.5 -23.5t26.5 -66.5q0 -42 -28 -72.5t-77 -40.5l-10 43q57 16 57 67z" />
    <glyph glyph-name="uni0206" unicode="&#x206;" horiz-adv-x="560" 
d="M506 73l4 -68q-92 -6 -296 -6q-61 0 -96.5 32.5t-36.5 87.5v452q1 55 36.5 87.5t96.5 32.5q204 0 296 -6l-4 -69h-277q-31 0 -45.5 -16t-14.5 -50v-150h298v-71h-298v-189q0 -35 14.5 -51t45.5 -16h277zM159 773q-4 59 37 95.5t112 36.5q72 0 113.5 -36.5t37.5 -95.5
l-44 -7q0 36 -27.5 55.5t-79.5 19.5q-50 0 -78 -19.5t-28 -55.5z" />
    <glyph glyph-name="Emacron" unicode="&#x112;" horiz-adv-x="560" 
d="M506 73l4 -68q-92 -6 -296 -6q-61 0 -96.5 32.5t-36.5 87.5v452q1 55 36.5 87.5t96.5 32.5q204 0 296 -6l-4 -69h-277q-31 0 -45.5 -16t-14.5 -50v-150h298v-71h-298v-189q0 -35 14.5 -51t45.5 -16h277zM449 799h-278v63h278v-63z" />
    <glyph glyph-name="uni1E16" unicode="&#x1e16;" horiz-adv-x="560" 
d="M506 73l4 -68q-92 -6 -296 -6q-61 0 -96.5 32.5t-36.5 87.5v452q1 55 36.5 87.5t96.5 32.5q204 0 296 -6l-4 -69h-277q-31 0 -45.5 -16t-14.5 -50v-150h298v-71h-298v-189q0 -35 14.5 -51t45.5 -16h277zM407 968l-133 -90l-30 34l112 115zM449 785h-278v63h278v-63z" />
    <glyph glyph-name="uni1E14" unicode="&#x1e14;" horiz-adv-x="560" 
d="M506 73l4 -68q-92 -6 -296 -6q-61 0 -96.5 32.5t-36.5 87.5v452q1 55 36.5 87.5t96.5 32.5q204 0 296 -6l-4 -69h-277q-31 0 -45.5 -16t-14.5 -50v-150h298v-71h-298v-189q0 -35 14.5 -51t45.5 -16h277zM376 912l-30 -34l-133 90l51 59zM449 848v-63h-278v63h278z" />
    <glyph glyph-name="Eogonek" unicode="&#x118;" horiz-adv-x="560" 
d="M524 -188q-49 -20 -84 -20q-34 0 -52 17t-18 45q0 16 6 34q20 57 91 115q-81 -4 -253 -4q-61 0 -96.5 32.5t-36.5 87.5v452q1 55 36.5 87.5t96.5 32.5q204 0 296 -6l-4 -69h-277q-31 0 -45.5 -16t-14.5 -50v-150h298v-71h-298v-189q0 -35 14.5 -51t45.5 -16h277l4 -68
q-26 -30 -44 -56.5t-30 -57.5q-6 -14 -6 -24q0 -28 38 -28q22 0 46 8z" />
    <glyph glyph-name="uni1EBC" unicode="&#x1ebc;" horiz-adv-x="560" 
d="M506 73l4 -68q-92 -6 -296 -6q-61 0 -96.5 32.5t-36.5 87.5v452q1 55 36.5 87.5t96.5 32.5q204 0 296 -6l-4 -69h-277q-31 0 -45.5 -16t-14.5 -50v-150h298v-71h-298v-189q0 -35 14.5 -51t45.5 -16h277zM270 884q18 -7 40 -20q23 -12 37 -18t32 -8q4 -1 12 -1
q20 0 28.5 12.5t8.5 38.5h40q1 -7 1 -21q0 -46 -21.5 -70t-57.5 -21q-25 2 -45 10.5t-44 22.5q-22 12 -38 18.5t-33 6.5q-22 0 -30 -13t-8 -42h-40q-1 7 -1 21q0 48 22.5 72t56.5 21q22 -2 40 -9z" />
    <glyph glyph-name="F" unicode="F" horiz-adv-x="539" 
d="M189 600.5q-16 -15.5 -16 -50.5v-160h288v-71h-288v-319h-88v567q0 59 36 91.5t97 32.5q197 0 286 -7l-5 -68h-259q-35 0 -51 -15.5z" />
    <glyph glyph-name="G" unicode="G" horiz-adv-x="628" 
d="M560 399v-399h-64l-10 73q-36 -36 -88.5 -61t-117.5 -25q-115 0 -166.5 86t-51.5 274q0 138 27.5 214.5t89.5 109t171 32.5t192 -21l-9 -66q-84 8 -178 8q-79 0 -121 -21.5t-60.5 -81.5t-18.5 -180q0 -103 14 -163t46.5 -87t88.5 -27q48 0 87 17.5t83 49.5v268h86z" />
    <glyph glyph-name="Gbreve" unicode="&#x11e;" horiz-adv-x="628" 
d="M560 399v-399h-64l-10 73q-36 -36 -88.5 -61t-117.5 -25q-115 0 -166.5 86t-51.5 274q0 138 27.5 214.5t89.5 109t171 32.5t192 -21l-9 -66q-84 8 -178 8q-79 0 -121 -21.5t-60.5 -81.5t-18.5 -180q0 -103 14 -163t46.5 -87t88.5 -27q48 0 87 17.5t83 49.5v268h86z
M477 885q4 -59 -37 -95.5t-113 -36.5t-113 36.5t-37 95.5l44 6q-1 -35 27 -55t80 -20q49 0 77 20t28 55z" />
    <glyph glyph-name="Gcaron" unicode="&#x1e6;" horiz-adv-x="628" 
d="M560 399v-399h-64l-10 73q-36 -36 -88.5 -61t-117.5 -25q-115 0 -166.5 86t-51.5 274q0 138 27.5 214.5t89.5 109t171 32.5t192 -21l-9 -66q-84 8 -178 8q-79 0 -121 -21.5t-60.5 -81.5t-18.5 -180q0 -103 14 -163t46.5 -87t88.5 -27q48 0 87 17.5t83 49.5v268h86z
M492 882l-143 -128h-40l-143 128l29 36l130 -87h8l129 87z" />
    <glyph glyph-name="Gcircumflex" unicode="&#x11c;" horiz-adv-x="628" 
d="M560 399v-399h-64l-10 73q-36 -36 -88.5 -61t-117.5 -25q-115 0 -166.5 86t-51.5 274q0 138 27.5 214.5t89.5 109t171 32.5t192 -21l-9 -66q-84 8 -178 8q-79 0 -121 -21.5t-60.5 -81.5t-18.5 -180q0 -103 14 -163t46.5 -87t88.5 -27q48 0 87 17.5t83 49.5v268h86z
M491 777l-30 -37l-129 97h-8l-130 -97l-29 37l132 127h61z" />
    <glyph glyph-name="uni0122" unicode="&#x122;" horiz-adv-x="628" 
d="M560 399v-399h-64l-10 73q-36 -36 -88.5 -61t-117.5 -25q-115 0 -166.5 86t-51.5 274q0 138 27.5 214.5t89.5 109t171 32.5t192 -21l-9 -66q-84 8 -178 8q-79 0 -121 -21.5t-60.5 -81.5t-18.5 -180q0 -103 14 -163t46.5 -87t88.5 -27q48 0 87 17.5t83 49.5v268h86z
M359 -64.5q6 -6.5 6 -21.5v-55q-1 -72 -32 -132l-36 10q9 52 9 103q-10 0 -16 6.5t-6 17.5v50q1 15 8 21.5t22 6.5h23q16 0 22 -6.5z" />
    <glyph glyph-name="Gdotaccent" unicode="&#x120;" horiz-adv-x="628" 
d="M560 399v-399h-64l-10 73q-36 -36 -88.5 -61t-117.5 -25q-115 0 -166.5 86t-51.5 274q0 138 27.5 214.5t89.5 109t171 32.5t192 -21l-9 -66q-84 8 -178 8q-79 0 -121 -21.5t-60.5 -81.5t-18.5 -180q0 -103 14 -163t46.5 -87t88.5 -27q48 0 87 17.5t83 49.5v268h86z
M367 849v-57q0 -26 -26 -26h-27q-26 0 -26 26v57q0 25 26 25h27q26 0 26 -25z" />
    <glyph glyph-name="uni1E20" unicode="&#x1e20;" horiz-adv-x="628" 
d="M560 399v-399h-64l-10 73q-36 -36 -88.5 -61t-117.5 -25q-115 0 -166.5 86t-51.5 274q0 138 27.5 214.5t89.5 109t171 32.5t192 -21l-9 -66q-84 8 -178 8q-79 0 -121 -21.5t-60.5 -81.5t-18.5 -180q0 -103 14 -163t46.5 -87t88.5 -27q48 0 87 17.5t83 49.5v268h86z
M467 793h-279v63h279v-63z" />
    <glyph glyph-name="H" unicode="H" 
d="M581 690v-690h-88v331h-318v-331h-88v690h88v-283h318v283h88z" />
    <glyph glyph-name="Hbar" unicode="&#x126;" horiz-adv-x="676" 
d="M655 519h-70v-519h-88v331h-318v-331h-88v519h-71v47h71v124h88v-124h318v124h88v-124h70v-47zM497 519h-318v-112h318v112z" />
    <glyph glyph-name="uni1E2A" unicode="&#x1e2a;" 
d="M581 690v-690h-88v331h-318v-331h-88v690h88v-283h318v283h88zM484 -49q4 -59 -37 -95.5t-112 -36.5q-72 0 -113.5 36.5t-37.5 95.5l44 7q0 -36 27.5 -55.5t79.5 -19.5q50 0 78 19.5t28 55.5z" />
    <glyph glyph-name="Hcircumflex" unicode="&#x124;" 
d="M581 690v-690h-88v331h-318v-331h-88v690h88v-283h318v283h88zM497 777l-30 -37l-129 97h-8l-130 -97l-29 37l132 127h61z" />
    <glyph glyph-name="uni1E24" unicode="&#x1e24;" 
d="M581 690v-690h-88v331h-318v-331h-88v690h88v-283h318v283h88zM375 -77v-57q0 -26 -26 -26h-27q-26 0 -26 26v57q0 25 26 25h27q26 0 26 -25z" />
    <glyph glyph-name="I" unicode="I" horiz-adv-x="262" 
d="M175 0h-88v690h88v-690z" />
    <glyph glyph-name="IJ" unicode="&#x132;" horiz-adv-x="602" 
d="M175 0h-88v690h88v-690zM518 145q0 -76 -34.5 -115t-99.5 -39q-21 0 -48.5 3.5t-43.5 9.5l10 62h50q78 0 78 76v548h88v-545z" />
    <glyph glyph-name="Iacute" unicode="&#xcd;" horiz-adv-x="262" 
d="M175 0h-88v690h88v-690zM281 855l-192 -120l-29 39l172 147z" />
    <glyph glyph-name="Ibreve" unicode="&#x12c;" horiz-adv-x="262" 
d="M175 0h-88v690h88v-690zM281 877q4 -59 -37 -95.5t-113 -36.5t-113 36.5t-37 95.5l44 6q-1 -35 27 -55t80 -20q49 0 77 20t28 55z" />
    <glyph glyph-name="Icircumflex" unicode="&#xce;" horiz-adv-x="262" 
d="M175 0h-88v690h88v-690zM294 770l-30 -37l-129 97h-8l-130 -97l-29 37l132 127h61z" />
    <glyph glyph-name="uni0208" unicode="&#x208;" horiz-adv-x="262" 
d="M175 0h-88v690h88v-690zM91 757l-37 -28l-134 160l62 42zM256 757l-38 -28l-134 160l62 42z" />
    <glyph glyph-name="Idieresis" unicode="&#xcf;" horiz-adv-x="262" 
d="M175 0h-88v690h88v-690zM80 846v-55q0 -24 -23 -24h-29q-23 0 -23 24v55q0 24 23 24h29q23 0 23 -24zM251.5 863.5q6.5 -6.5 6.5 -17.5v-55q0 -24 -24 -24h-28q-24 0 -24 24v55q0 24 24 24h28q11 0 17.5 -6.5z" />
    <glyph glyph-name="uni1E2E" unicode="&#x1e2e;" horiz-adv-x="262" 
d="M175 0h-88v690h88v-690zM252 989l-163 -100l-27 37l143 125zM83 831v-50q0 -21 -21 -21h-26q-22 0 -22 21v50q0 22 22 22h26q21 0 21 -22zM245 831v-50q0 -21 -22 -21h-26q-22 0 -22 21v50q0 22 22 22h26q22 0 22 -22z" />
    <glyph glyph-name="Idotaccent" unicode="&#x130;" horiz-adv-x="262" 
d="M175 0h-88v690h88v-690zM171 842v-57q0 -26 -26 -26h-27q-26 0 -26 26v57q0 25 26 25h27q26 0 26 -25z" />
    <glyph glyph-name="uni1ECA" unicode="&#x1eca;" horiz-adv-x="262" 
d="M175 0h-88v690h88v-690zM169 -77v-57q0 -26 -26 -26h-28q-26 0 -26 26v57q0 25 26 25h28q26 0 26 -25z" />
    <glyph glyph-name="Igrave" unicode="&#xcc;" horiz-adv-x="262" 
d="M175 0h-88v690h88v-690zM188 767l-29 -39l-192 120l49 65z" />
    <glyph glyph-name="uni1EC8" unicode="&#x1ec8;" horiz-adv-x="262" 
d="M175 0h-88v690h88v-690zM165 850q0 20 -12.5 31t-34.5 11q-14 0 -32 -5l-10 48q29 8 51 8q43 0 69.5 -23.5t26.5 -66.5q0 -42 -28 -72.5t-77 -40.5l-10 43q57 16 57 67z" />
    <glyph glyph-name="uni020A" unicode="&#x20a;" horiz-adv-x="262" 
d="M175 0h-88v690h88v-690zM-20 759q-4 59 37 95.5t112 36.5q72 0 113.5 -36.5t37.5 -95.5l-44 -7q0 36 -27.5 55.5t-79.5 19.5q-50 0 -78 -19.5t-28 -55.5z" />
    <glyph glyph-name="Imacron" unicode="&#x12a;" horiz-adv-x="262" 
d="M175 0h-88v690h88v-690zM270 786h-278v63h278v-63z" />
    <glyph glyph-name="Iogonek" unicode="&#x12e;" horiz-adv-x="262" 
d="M179 -193q-49 -20 -84 -20q-34 0 -52 17t-18 45q0 16 6 34q19 58 93 117h-37v690h88v-690h-10q-26 -30 -44 -56.5t-30 -57.5q-6 -14 -6 -24q0 -28 38 -28q22 0 46 8z" />
    <glyph glyph-name="Itilde" unicode="&#x128;" horiz-adv-x="262" 
d="M175 0h-88v690h88v-690zM91 870q18 -7 40 -20q23 -12 37 -18t32 -8q4 -1 12 -1q20 0 28.5 12.5t8.5 38.5h40q1 -7 1 -21q0 -46 -21.5 -70t-57.5 -21q-25 2 -45 10.5t-44 22.5q-22 12 -38 18.5t-33 6.5q-22 0 -30 -13t-8 -42h-40q-1 7 -1 21q0 48 22.5 72t56.5 21
q22 -2 40 -9z" />
    <glyph glyph-name="J" unicode="J" horiz-adv-x="340" 
d="M256 145q0 -76 -34.5 -115t-99.5 -39q-21 0 -48.5 3.5t-43.5 9.5l10 62h50q78 0 78 76v548h88v-545z" />
    <glyph glyph-name="Jcircumflex" unicode="&#x134;" horiz-adv-x="340" 
d="M256 145q0 -76 -34.5 -115t-99.5 -39q-21 0 -48.5 3.5t-43.5 9.5l10 62h50q78 0 78 76v548h88v-545zM375 771l-30 -37l-129 97h-8l-130 -97l-29 37l132 127h61z" />
    <glyph glyph-name="K" unicode="K" horiz-adv-x="591" 
d="M253 324h-85q6 -37 6 -73v-251h-87v690h87v-216q0 -40 -6 -79h84l210 295h96l-201 -286q-12 -18 -38 -44v-2q28 -27 43 -48l210 -310h-99z" />
    <glyph glyph-name="uni0136" unicode="&#x136;" horiz-adv-x="591" 
d="M572 0h-99l-220 324h-85q6 -37 6 -73v-251h-87v690h87v-216q0 -40 -6 -79h84l210 295h96l-201 -286q-12 -18 -38 -44v-2q28 -27 43 -48zM348.5 -64.5q6.5 -6.5 5.5 -21.5l1 -55q-1 -69 -32 -132l-37 10q9 52 9 103q-10 0 -16 6.5t-6 17.5l1 50q1 15 7.5 21.5t22.5 6.5h22
q16 0 22.5 -6.5z" />
    <glyph glyph-name="L" unicode="L" horiz-adv-x="514" 
d="M172 140q0 -34 16 -50t51 -16h249l4 -68q-87 -7 -267 -7q-73 0 -106.5 35t-33.5 95v561h87v-550z" />
    <glyph glyph-name="uni01C7" unicode="&#x1c7;" horiz-adv-x="854" 
d="M172 140q0 -34 16 -50t51 -16h249l4 -68q-87 -7 -267 -7q-73 0 -106.5 35t-33.5 95v561h87v-550zM770 145q0 -76 -34.5 -115t-99.5 -39q-21 0 -48.5 3.5t-43.5 9.5l10 62h50q78 0 78 76v548h88v-545z" />
    <glyph glyph-name="Lacute" unicode="&#x139;" horiz-adv-x="514" 
d="M172 140q0 -34 16 -50t51 -16h249l4 -68q-87 -7 -267 -7q-73 0 -106.5 35t-33.5 95v561h87v-550zM280 857l-192 -120l-29 39l172 147z" />
    <glyph glyph-name="Lcaron" unicode="&#x13d;" horiz-adv-x="514" 
d="M172 140q0 -34 16 -50t51 -16h249l4 -68q-87 -7 -267 -7q-73 0 -106.5 35t-33.5 95v561h87v-550zM374 683.5q6 -5.5 6 -20.5v-54q1 -63 -31 -128l-37 9q9 53 9 101q-21 0 -21 22v50q0 14 7 20t23 6h22q16 0 22 -5.5z" />
    <glyph glyph-name="uni013B" unicode="&#x13b;" horiz-adv-x="514" 
d="M172 140q0 -34 16 -50t51 -16h249l4 -68q-87 -7 -267 -7q-73 0 -106.5 35t-33.5 95v561h87v-550zM330 -67q6 -6 6 -21v-55q-2 -74 -32 -132l-36 10q9 51 9 103q-10 0 -16 6t-6 17v51q1 15 7.5 21t22.5 6h23q16 0 22 -6z" />
    <glyph glyph-name="Ldot" unicode="&#x13f;" horiz-adv-x="514" 
d="M172 140q0 -34 16 -50t51 -16h249l4 -68q-87 -7 -267 -7q-73 0 -106.5 35t-33.5 95v561h87v-550zM310 378v57q0 25 25 25h28q26 0 26 -25v-57q0 -26 -26 -26h-28q-25 0 -25 26z" />
    <glyph glyph-name="uni1E36" unicode="&#x1e36;" horiz-adv-x="514" 
d="M172 140q0 -34 16 -50t51 -16h249l4 -68q-87 -7 -267 -7q-73 0 -106.5 35t-33.5 95v561h87v-550zM341 -77v-57q0 -26 -26 -26h-27q-26 0 -26 26v57q0 25 26 25h27q26 0 26 -25z" />
    <glyph glyph-name="uni01C8" unicode="&#x1c8;" horiz-adv-x="763" 
d="M172 140q0 -34 16 -50t51 -16h249l4 -68q-87 -7 -267 -7q-73 0 -106.5 35t-33.5 95v561h87v-550zM685 668v-57q0 -26 -25 -26h-40q-26 0 -26 26v57q0 26 26 26h40q25 0 25 -26zM682 -12q0 -58 -25 -108t-69 -83l-47 37q29 36 42.5 72t13.5 82v499h85v-499z" />
    <glyph glyph-name="uni1E3A" unicode="&#x1e3a;" horiz-adv-x="514" 
d="M172 140q0 -34 16 -50t51 -16h249l4 -68q-87 -7 -267 -7q-73 0 -106.5 35t-33.5 95v561h87v-550zM440 -141h-278v63h278v-63z" />
    <glyph glyph-name="Lslash" unicode="&#x141;" horiz-adv-x="520" 
d="M498 6q-58 -5 -129 -6t-138 -1q-73 0 -106.5 35t-33.5 95v206l-71 -30v55l71 30v300h88v-264l115 48v-54l-115 -48v-232q0 -34 16 -50t50 -16h250z" />
    <glyph glyph-name="M" unicode="M" horiz-adv-x="877" 
d="M765.5 680.5q9.5 -9.5 9.5 -27.5l29 -653h-88l-25 617h-21l-154 -509q-8 -30 -38 -30h-79q-31 0 -40 30l-154 509h-20l-24 -617h-88l27 653q2 37 37 37h100q28 0 37 -30l129 -421q7 -20 17 -60l9 -33h18q5 16 10 38l16 57l129 419q8 30 38 30h99q17 0 26.5 -9.5z" />
    <glyph glyph-name="uni1E42" unicode="&#x1e42;" horiz-adv-x="877" 
d="M765.5 680.5q9.5 -9.5 9.5 -27.5l29 -653h-88l-25 617h-21l-154 -509q-8 -30 -38 -30h-79q-31 0 -40 30l-154 509h-20l-24 -617h-88l27 653q2 37 37 37h100q28 0 37 -30l129 -421q7 -20 17 -60l9 -33h18q5 16 10 38l16 57l129 419q8 30 38 30h99q17 0 26.5 -9.5zM478 -77
v-57q0 -26 -26 -26h-27q-26 0 -26 26v57q0 25 26 25h27q26 0 26 -25z" />
    <glyph glyph-name="N" unicode="N" horiz-adv-x="705" 
d="M618 35q0 -35 -34 -35h-86q-15 0 -24 6.5t-15 21.5l-233 489q-4 8 -18.5 38.5t-20.5 52.5h-16q4 -40 4 -91v-517h-88v655q0 35 35 35h83q15 0 24 -6.5t15 -21.5l226 -477q24 -49 47 -100h17q-3 54 -3 105v500h87v-655z" />
    <glyph glyph-name="uni01CA" unicode="&#x1ca;" horiz-adv-x="1045" 
d="M618 35q0 -35 -34 -35h-86q-15 0 -24 6.5t-15 21.5l-233 489q-4 8 -18.5 38.5t-20.5 52.5h-16q4 -40 4 -91v-517h-88v655q0 35 35 35h83q15 0 24 -6.5t15 -21.5l226 -477q24 -49 47 -100h17q-3 54 -3 105v500h87v-655zM961 145q0 -76 -34.5 -115t-99.5 -39
q-21 0 -48.5 3.5t-43.5 9.5l10 62h50q78 0 78 76v548h88v-545z" />
    <glyph glyph-name="Nacute" unicode="&#x143;" horiz-adv-x="705" 
d="M618 35q0 -35 -34 -35h-86q-15 0 -24 6.5t-15 21.5l-233 489q-4 8 -18.5 38.5t-20.5 52.5h-16q4 -40 4 -91v-517h-88v655q0 35 35 35h83q15 0 24 -6.5t15 -21.5l226 -477q24 -49 47 -100h17q-3 54 -3 105v500h87v-655zM513 855l-192 -120l-29 39l172 147z" />
    <glyph glyph-name="Ncaron" unicode="&#x147;" horiz-adv-x="705" 
d="M618 35q0 -35 -34 -35h-86q-15 0 -24 6.5t-15 21.5l-233 489q-4 8 -18.5 38.5t-20.5 52.5h-16q4 -40 4 -91v-517h-88v655q0 35 35 35h83q15 0 24 -6.5t15 -21.5l226 -477q24 -49 47 -100h17q-3 54 -3 105v500h87v-655zM528 875l-143 -128h-40l-143 128l29 36l130 -87h8
l129 87z" />
    <glyph glyph-name="uni0145" unicode="&#x145;" horiz-adv-x="705" 
d="M618 35q0 -35 -34 -35h-86q-15 0 -24 6.5t-15 21.5l-233 489q-4 8 -18.5 38.5t-20.5 52.5h-16q4 -40 4 -91v-517h-88v655q0 35 35 35h83q15 0 24 -6.5t15 -21.5l226 -477q24 -49 47 -100h17q-3 54 -3 105v500h87v-655zM373.5 -64.5q6.5 -6.5 5.5 -21.5l1 -55
q-1 -69 -32 -132l-37 10q9 52 9 103q-10 0 -16 6.5t-6 17.5l1 50q1 15 7.5 21.5t22.5 6.5h22q16 0 22.5 -6.5z" />
    <glyph glyph-name="uni1E44" unicode="&#x1e44;" horiz-adv-x="705" 
d="M618 35q0 -35 -34 -35h-86q-15 0 -24 6.5t-15 21.5l-233 489q-4 8 -18.5 38.5t-20.5 52.5h-16q4 -40 4 -91v-517h-88v655q0 35 35 35h83q15 0 24 -6.5t15 -21.5l226 -477q24 -49 47 -100h17q-3 54 -3 105v500h87v-655zM403 842v-57q0 -26 -26 -26h-27q-26 0 -26 26v57
q0 25 26 25h27q26 0 26 -25z" />
    <glyph glyph-name="uni1E46" unicode="&#x1e46;" horiz-adv-x="705" 
d="M618 35q0 -35 -34 -35h-86q-15 0 -24 6.5t-15 21.5l-233 489q-4 8 -18.5 38.5t-20.5 52.5h-16q4 -40 4 -91v-517h-88v655q0 35 35 35h83q15 0 24 -6.5t15 -21.5l226 -477q24 -49 47 -100h17q-3 54 -3 105v500h87v-655zM400 -77v-57q0 -26 -26 -26h-27q-26 0 -26 26v57
q0 25 26 25h27q26 0 26 -25z" />
    <glyph glyph-name="Eng" unicode="&#x14a;" horiz-adv-x="705" 
d="M618 -79q0 -65 -35.5 -101t-97.5 -36q-19 0 -46 3t-44 9l9 56h49q41 0 61.5 18.5t20.5 57.5v72h-35q-14 0 -26 25l-248 477q-18 35 -41 92h-14q4 -31 4 -93v-501h-88v655q0 35 35 35h67q14 0 23 -6.5t17 -21.5l241 -462q19 -37 47 -100h17q-4 68 -4 102v488h88v-769z" />
    <glyph glyph-name="uni01CB" unicode="&#x1cb;" horiz-adv-x="955" 
d="M618 35q0 -35 -34 -35h-86q-15 0 -24 6.5t-15 21.5l-233 489q-4 8 -18.5 38.5t-20.5 52.5h-16q4 -40 4 -91v-517h-88v655q0 35 35 35h83q15 0 24 -6.5t15 -21.5l226 -477q24 -49 47 -100h17q-3 54 -3 105v500h87v-655zM876 668v-57q0 -26 -25 -26h-40q-26 0 -26 26v57
q0 26 26 26h40q25 0 25 -26zM873 -12q0 -58 -25 -108t-69 -83l-47 37q29 36 42.5 72t13.5 82v499h85v-499z" />
    <glyph glyph-name="uni1E48" unicode="&#x1e48;" horiz-adv-x="705" 
d="M618 35q0 -35 -34 -35h-86q-15 0 -24 6.5t-15 21.5l-233 489q-4 8 -18.5 38.5t-20.5 52.5h-16q4 -40 4 -91v-517h-88v655q0 35 35 35h83q15 0 24 -6.5t15 -21.5l226 -477q24 -49 47 -100h17q-3 54 -3 105v500h87v-655zM498 -141h-278v63h278v-63z" />
    <glyph glyph-name="Ntilde" unicode="&#xd1;" horiz-adv-x="705" 
d="M618 35q0 -35 -34 -35h-86q-15 0 -24 6.5t-15 21.5l-233 489q-4 8 -18.5 38.5t-20.5 52.5h-16q4 -40 4 -91v-517h-88v655q0 35 35 35h83q15 0 24 -6.5t15 -21.5l226 -477q24 -49 47 -100h17q-3 54 -3 105v500h87v-655zM324 870q18 -7 40 -20q23 -12 37 -18t32 -8
q4 -1 12 -1q20 0 28.5 12.5t8.5 38.5h40q1 -7 1 -21q0 -46 -21.5 -70t-57.5 -21q-25 2 -45 10.5t-44 22.5q-22 12 -38 18.5t-33 6.5q-22 0 -30 -13t-8 -42h-40q-1 7 -1 21q0 48 22.5 72t56.5 21q22 -2 40 -9z" />
    <glyph glyph-name="O" unicode="O" 
d="M495 669.5q59 -33.5 85 -111t26 -213.5t-26 -213.5t-85 -111t-161 -33.5q-103 0 -161.5 33.5t-85 111t-26.5 213.5t26.5 213.5t85 111t161.5 33.5q102 0 161 -33.5zM226.5 598q-38.5 -26 -55.5 -86t-17 -167t17 -167t55.5 -86t107.5 -26t107.5 26t55.5 86t17 167t-17 167
t-55.5 86t-107.5 26t-107.5 -26z" />
    <glyph glyph-name="Oacute" unicode="&#xd3;" 
d="M495 669.5q59 -33.5 85 -111t26 -213.5t-26 -213.5t-85 -111t-161 -33.5q-103 0 -161.5 33.5t-85 111t-26.5 213.5t26.5 213.5t85 111t161.5 33.5q102 0 161 -33.5zM226.5 598q-38.5 -26 -55.5 -86t-17 -167t17 -167t55.5 -86t107.5 -26t107.5 26t55.5 86t17 167t-17 167
t-55.5 86t-107.5 26t-107.5 -26zM485 855l-192 -120l-29 39l172 147z" />
    <glyph glyph-name="Obreve" unicode="&#x14e;" 
d="M495 669.5q59 -33.5 85 -111t26 -213.5t-26 -213.5t-85 -111t-161 -33.5q-103 0 -161.5 33.5t-85 111t-26.5 213.5t26.5 213.5t85 111t161.5 33.5q102 0 161 -33.5zM226.5 598q-38.5 -26 -55.5 -86t-17 -167t17 -167t55.5 -86t107.5 -26t107.5 26t55.5 86t17 167t-17 167
t-55.5 86t-107.5 26t-107.5 -26zM485 877q4 -59 -37 -95.5t-113 -36.5t-113 36.5t-37 95.5l44 6q-1 -35 27 -55t80 -20q49 0 77 20t28 55z" />
    <glyph glyph-name="Ocircumflex" unicode="&#xd4;" 
d="M495 669.5q59 -33.5 85 -111t26 -213.5t-26 -213.5t-85 -111t-161 -33.5q-103 0 -161.5 33.5t-85 111t-26.5 213.5t26.5 213.5t85 111t161.5 33.5q102 0 161 -33.5zM226.5 598q-38.5 -26 -55.5 -86t-17 -167t17 -167t55.5 -86t107.5 -26t107.5 26t55.5 86t17 167t-17 167
t-55.5 86t-107.5 26t-107.5 -26zM499 770l-30 -37l-129 97h-8l-130 -97l-29 37l132 127h61z" />
    <glyph glyph-name="uni1ED0" unicode="&#x1ed0;" 
d="M495 669.5q59 -33.5 85 -111t26 -213.5t-26 -213.5t-85 -111t-161 -33.5q-103 0 -161.5 33.5t-85 111t-26.5 213.5t26.5 213.5t85 111t161.5 33.5q102 0 161 -33.5zM226.5 598q-38.5 -26 -55.5 -86t-17 -167t17 -167t55.5 -86t107.5 -26t107.5 26t55.5 86t17 167t-17 167
t-55.5 86t-107.5 26t-107.5 -26zM590 940l-128 -100l-32 32l104 122zM401 860l88 -86l-58 -9l-94 60l-38 -25l-94 -57l8 62l97 83z" />
    <glyph glyph-name="uni1ED8" unicode="&#x1ed8;" 
d="M499 769l-30 -37l-130 97h-8l-129 -97l-29 37l131 127h62zM495 669.5q59 -33.5 85 -111t26 -213.5t-26 -213.5t-85 -111t-161 -33.5q-103 0 -161.5 33.5t-85 111t-26.5 213.5t26.5 213.5t85 111t161.5 33.5q102 0 161 -33.5zM226.5 598q-38.5 -26 -55.5 -86t-17 -167
t17 -167t55.5 -86t107.5 -26t107.5 26t55.5 86t17 167t-17 167t-55.5 86t-107.5 26t-107.5 -26zM373 -77v-57q0 -26 -26 -26h-27q-26 0 -26 26v57q0 25 26 25h27q26 0 26 -25z" />
    <glyph glyph-name="uni1ED2" unicode="&#x1ed2;" 
d="M495 669.5q59 -33.5 85 -111t26 -213.5t-26 -213.5t-85 -111t-161 -33.5q-103 0 -161.5 33.5t-85 111t-26.5 213.5t26.5 213.5t85 111t161.5 33.5q102 0 161 -33.5zM226.5 598q-38.5 -26 -55.5 -86t-17 -167t17 -167t55.5 -86t107.5 -26t107.5 26t55.5 86t17 167t-17 167
t-55.5 86t-107.5 26t-107.5 -26zM241 872l-32 -32l-127 100l55 54zM458 805l8 -62l-94 57l-38 25l-94 -60l-58 9l88 86l92 28z" />
    <glyph glyph-name="uni1ED4" unicode="&#x1ed4;" 
d="M495 669.5q59 -33.5 85 -111t26 -213.5t-26 -213.5t-85 -111t-161 -33.5q-103 0 -161.5 33.5t-85 111t-26.5 213.5t26.5 213.5t85 111t161.5 33.5q102 0 161 -33.5zM226.5 598q-38.5 -26 -55.5 -86t-17 -167t17 -167t55.5 -86t107.5 -26t107.5 26t55.5 86t17 167t-17 167
t-55.5 86t-107.5 26t-107.5 -26zM478 911.5q12 14.5 12 35.5q0 27 -33 27q-18 0 -38 -7l-9 44q33 10 56 10q36 0 56.5 -18t20.5 -54q0 -37 -24.5 -63.5t-70.5 -35.5l-9 38q27 9 39 23.5zM366 888l126 -111l-28 -37l-124 85h-8l-124 -85l-30 37l127 111h61z" />
    <glyph glyph-name="uni1ED6" unicode="&#x1ed6;" 
d="M495 669.5q59 -33.5 85 -111t26 -213.5t-26 -213.5t-85 -111t-161 -33.5q-103 0 -161.5 33.5t-85 111t-26.5 213.5t26.5 213.5t85 111t161.5 33.5q102 0 161 -33.5zM226.5 598q-38.5 -26 -55.5 -86t-17 -167t17 -167t55.5 -86t107.5 -26t107.5 26t55.5 86t17 167t-17 167
t-55.5 86t-107.5 26t-107.5 -26zM298.5 1010q16.5 -7 37.5 -21q20 -13 35.5 -19.5t36.5 -6.5q20 0 28.5 12t8.5 37h37q1 -7 1 -21q0 -40 -18.5 -62.5t-49.5 -22.5q-26 0 -44.5 7.5t-41.5 22.5q-20 13 -33.5 19t-30.5 6q-20 0 -28 -12.5t-8 -40.5h-37q-1 8 -1 22
q0 42 19 64.5t49 22.5q23 0 39.5 -7zM366 888l126 -111l-28 -37l-124 85h-8l-124 -85l-30 37l127 111h61z" />
    <glyph glyph-name="uni020C" unicode="&#x20c;" 
d="M495 669.5q59 -33.5 85 -111t26 -213.5t-26 -213.5t-85 -111t-161 -33.5q-103 0 -161.5 33.5t-85 111t-26.5 213.5t26.5 213.5t85 111t161.5 33.5q102 0 161 -33.5zM226.5 598q-38.5 -26 -55.5 -86t-17 -167t17 -167t55.5 -86t107.5 -26t107.5 26t55.5 86t17 167t-17 167
t-55.5 86t-107.5 26t-107.5 -26zM295 757l-37 -28l-134 160l62 42zM460 757l-38 -28l-134 160l62 42z" />
    <glyph glyph-name="Odieresis" unicode="&#xd6;" 
d="M495 669.5q59 -33.5 85 -111t26 -213.5t-26 -213.5t-85 -111t-161 -33.5q-103 0 -161.5 33.5t-85 111t-26.5 213.5t26.5 213.5t85 111t161.5 33.5q102 0 161 -33.5zM226.5 598q-38.5 -26 -55.5 -86t-17 -167t17 -167t55.5 -86t107.5 -26t107.5 26t55.5 86t17 167t-17 167
t-55.5 86t-107.5 26t-107.5 -26zM284 846v-55q0 -24 -23 -24h-29q-23 0 -23 24v55q0 24 23 24h29q23 0 23 -24zM455.5 863.5q6.5 -6.5 6.5 -17.5v-55q0 -24 -24 -24h-28q-24 0 -24 24v55q0 24 24 24h28q11 0 17.5 -6.5z" />
    <glyph glyph-name="uni022A" unicode="&#x22a;" 
d="M495 669.5q59 -33.5 85 -111t26 -213.5t-26 -213.5t-85 -111t-161 -33.5q-103 0 -161.5 33.5t-85 111t-26.5 213.5t26.5 213.5t85 111t161.5 33.5q102 0 161 -33.5zM226.5 598q-38.5 -26 -55.5 -86t-17 -167t17 -167t55.5 -86t107.5 -26t107.5 26t55.5 86t17 167t-17 167
t-55.5 86t-107.5 26t-107.5 -26zM462 963v-56h-254v56h254zM289 833v-50q0 -21 -21 -21h-26q-22 0 -22 21v50q0 22 22 22h26q21 0 21 -22zM451 833v-50q0 -21 -22 -21h-26q-22 0 -22 21v50q0 22 22 22h26q22 0 22 -22z" />
    <glyph glyph-name="uni0230" unicode="&#x230;" 
d="M495 669.5q59 -33.5 85 -111t26 -213.5t-26 -213.5t-85 -111t-161 -33.5q-103 0 -161.5 33.5t-85 111t-26.5 213.5t26.5 213.5t85 111t161.5 33.5q102 0 161 -33.5zM226.5 598q-38.5 -26 -55.5 -86t-17 -167t17 -167t55.5 -86t107.5 -26t107.5 26t55.5 86t17 167t-17 167
t-55.5 86t-107.5 26t-107.5 -26zM462 958l-64 -51l-190 5l64 51zM371 834v-52q0 -24 -24 -24h-25q-24 0 -24 24v52q0 23 24 23h25q24 0 24 -23z" />
    <glyph glyph-name="uni1ECC" unicode="&#x1ecc;" 
d="M495 669.5q59 -33.5 85 -111t26 -213.5t-26 -213.5t-85 -111t-161 -33.5q-103 0 -161.5 33.5t-85 111t-26.5 213.5t26.5 213.5t85 111t161.5 33.5q102 0 161 -33.5zM226.5 598q-38.5 -26 -55.5 -86t-17 -167t17 -167t55.5 -86t107.5 -26t107.5 26t55.5 86t17 167t-17 167
t-55.5 86t-107.5 26t-107.5 -26zM373 -77v-57q0 -26 -26 -26h-28q-26 0 -26 26v57q0 25 26 25h28q26 0 26 -25z" />
    <glyph glyph-name="Ograve" unicode="&#xd2;" 
d="M495 669.5q59 -33.5 85 -111t26 -213.5t-26 -213.5t-85 -111t-161 -33.5q-103 0 -161.5 33.5t-85 111t-26.5 213.5t26.5 213.5t85 111t161.5 33.5q102 0 161 -33.5zM226.5 598q-38.5 -26 -55.5 -86t-17 -167t17 -167t55.5 -86t107.5 -26t107.5 26t55.5 86t17 167t-17 167
t-55.5 86t-107.5 26t-107.5 -26zM392 767l-29 -39l-192 120l49 65z" />
    <glyph glyph-name="uni1ECE" unicode="&#x1ece;" 
d="M495 669.5q59 -33.5 85 -111t26 -213.5t-26 -213.5t-85 -111t-161 -33.5q-103 0 -161.5 33.5t-85 111t-26.5 213.5t26.5 213.5t85 111t161.5 33.5q102 0 161 -33.5zM226.5 598q-38.5 -26 -55.5 -86t-17 -167t17 -167t55.5 -86t107.5 -26t107.5 26t55.5 86t17 167t-17 167
t-55.5 86t-107.5 26t-107.5 -26zM370 850q0 20 -12.5 31t-34.5 11q-14 0 -32 -5l-10 48q29 8 51 8q43 0 69.5 -23.5t26.5 -66.5q0 -42 -28 -72.5t-77 -40.5l-10 43q57 16 57 67z" />
    <glyph glyph-name="Ohorn" unicode="&#x1a0;" 
d="M641.5 636.5q-30.5 -35.5 -74.5 -47.5q39 -79 39 -244q0 -136 -26 -213.5t-85 -111t-161 -33.5q-103 0 -161.5 33.5t-85 111t-26.5 213.5t26.5 213.5t85.5 111t161 33.5q75 0 125.5 -17.5t82.5 -55.5q30 9 48.5 34t21.5 60l61 -5q-1 -47 -31.5 -82.5zM441.5 92
q38.5 26 55.5 86t17 167t-17 167t-55.5 86t-107.5 26t-107.5 -26t-55.5 -86t-17 -167t17 -167t55.5 -86t107.5 -26t107.5 26z" />
    <glyph glyph-name="uni1EDA" unicode="&#x1eda;" 
d="M641.5 636.5q-30.5 -35.5 -74.5 -47.5q39 -79 39 -244q0 -136 -26 -213.5t-85 -111t-161 -33.5q-103 0 -161.5 33.5t-85 111t-26.5 213.5t26.5 213.5t85.5 111t161 33.5q75 0 125.5 -17.5t82.5 -55.5q30 9 48.5 34t21.5 60l61 -5q-1 -47 -31.5 -82.5zM441.5 92
q38.5 26 55.5 86t17 167t-17 167t-55.5 86t-107.5 26t-107.5 -26t-55.5 -86t-17 -167t17 -167t55.5 -86t107.5 -26t107.5 26zM485 855l-192 -120l-29 39l172 147z" />
    <glyph glyph-name="uni1EE2" unicode="&#x1ee2;" 
d="M641.5 636.5q-30.5 -35.5 -74.5 -47.5q39 -79 39 -244q0 -136 -26 -213.5t-85 -111t-161 -33.5q-103 0 -161.5 33.5t-85 111t-26.5 213.5t26.5 213.5t85.5 111t161 33.5q75 0 125.5 -17.5t82.5 -55.5q30 9 48.5 34t21.5 60l61 -5q-1 -47 -31.5 -82.5zM441.5 92
q38.5 26 55.5 86t17 167t-17 167t-55.5 86t-107.5 26t-107.5 -26t-55.5 -86t-17 -167t17 -167t55.5 -86t107.5 -26t107.5 26zM373 -77v-57q0 -26 -26 -26h-27q-26 0 -26 26v57q0 25 26 25h27q26 0 26 -25z" />
    <glyph glyph-name="uni1EDC" unicode="&#x1edc;" 
d="M641.5 636.5q-30.5 -35.5 -74.5 -47.5q39 -79 39 -244q0 -136 -26 -213.5t-85 -111t-161 -33.5q-103 0 -161.5 33.5t-85 111t-26.5 213.5t26.5 213.5t85.5 111t161 33.5q75 0 125.5 -17.5t82.5 -55.5q30 9 48.5 34t21.5 60l61 -5q-1 -47 -31.5 -82.5zM441.5 92
q38.5 26 55.5 86t17 167t-17 167t-55.5 86t-107.5 26t-107.5 -26t-55.5 -86t-17 -167t17 -167t55.5 -86t107.5 -26t107.5 26zM392 767l-29 -39l-192 120l49 65z" />
    <glyph glyph-name="uni1EDE" unicode="&#x1ede;" 
d="M641.5 636.5q-30.5 -35.5 -74.5 -47.5q39 -79 39 -244q0 -136 -26 -213.5t-85 -111t-161 -33.5q-103 0 -161.5 33.5t-85 111t-26.5 213.5t26.5 213.5t85.5 111t161 33.5q75 0 125.5 -17.5t82.5 -55.5q30 9 48.5 34t21.5 60l61 -5q-1 -47 -31.5 -82.5zM441.5 92
q38.5 26 55.5 86t17 167t-17 167t-55.5 86t-107.5 26t-107.5 -26t-55.5 -86t-17 -167t17 -167t55.5 -86t107.5 -26t107.5 26zM370 850q0 20 -12.5 31t-34.5 11q-14 0 -32 -5l-10 48q29 8 51 8q43 0 69.5 -23.5t26.5 -66.5q0 -42 -28 -72.5t-77 -40.5l-10 43q57 16 57 67z
" />
    <glyph glyph-name="uni1EE0" unicode="&#x1ee0;" 
d="M641.5 636.5q-30.5 -35.5 -74.5 -47.5q39 -79 39 -244q0 -136 -26 -213.5t-85 -111t-161 -33.5q-103 0 -161.5 33.5t-85 111t-26.5 213.5t26.5 213.5t85.5 111t161 33.5q75 0 125.5 -17.5t82.5 -55.5q30 9 48.5 34t21.5 60l61 -5q-1 -47 -31.5 -82.5zM441.5 92
q38.5 26 55.5 86t17 167t-17 167t-55.5 86t-107.5 26t-107.5 -26t-55.5 -86t-17 -167t17 -167t55.5 -86t107.5 -26t107.5 26zM296 870q18 -7 40 -20q23 -12 37 -18t32 -8q4 -1 12 -1q20 0 28.5 12.5t8.5 38.5h39q1 -8 1 -23q0 -44 -21.5 -68t-56.5 -21q-25 2 -45 10.5
t-44 22.5q-22 12 -38 18.5t-33 6.5q-22 0 -30 -13t-8 -42h-40q-1 8 -1 23q0 46 22.5 70t56.5 21q22 -2 40 -9z" />
    <glyph glyph-name="Ohungarumlaut" unicode="&#x150;" 
d="M495 669.5q59 -33.5 85 -111t26 -213.5t-26 -213.5t-85 -111t-161 -33.5q-103 0 -161.5 33.5t-85 111t-26.5 213.5t26.5 213.5t85 111t161.5 33.5q102 0 161 -33.5zM226.5 598q-38.5 -26 -55.5 -86t-17 -167t17 -167t55.5 -86t107.5 -26t107.5 26t55.5 86t17 167t-17 167
t-55.5 86t-107.5 26t-107.5 -26zM369 889l-134 -160l-38 28l110 174zM533 889l-134 -160l-38 28l110 174z" />
    <glyph glyph-name="uni020E" unicode="&#x20e;" 
d="M495 669.5q59 -33.5 85 -111t26 -213.5t-26 -213.5t-85 -111t-161 -33.5q-103 0 -161.5 33.5t-85 111t-26.5 213.5t26.5 213.5t85 111t161.5 33.5q102 0 161 -33.5zM226.5 598q-38.5 -26 -55.5 -86t-17 -167t17 -167t55.5 -86t107.5 -26t107.5 26t55.5 86t17 167t-17 167
t-55.5 86t-107.5 26t-107.5 -26zM185 759q-4 59 37 95.5t112 36.5q72 0 113.5 -36.5t37.5 -95.5l-44 -7q0 36 -27.5 55.5t-79.5 19.5q-50 0 -78 -19.5t-28 -55.5z" />
    <glyph glyph-name="Omacron" unicode="&#x14c;" 
d="M495 669.5q59 -33.5 85 -111t26 -213.5t-26 -213.5t-85 -111t-161 -33.5q-103 0 -161.5 33.5t-85 111t-26.5 213.5t26.5 213.5t85 111t161.5 33.5q102 0 161 -33.5zM226.5 598q-38.5 -26 -55.5 -86t-17 -167t17 -167t55.5 -86t107.5 -26t107.5 26t55.5 86t17 167t-17 167
t-55.5 86t-107.5 26t-107.5 -26zM475 786h-278v63h278v-63z" />
    <glyph glyph-name="uni1E52" unicode="&#x1e52;" 
d="M495 669.5q59 -33.5 85 -111t26 -213.5t-26 -213.5t-85 -111t-161 -33.5q-103 0 -161.5 33.5t-85 111t-26.5 213.5t26.5 213.5t85 111t161.5 33.5q102 0 161 -33.5zM226.5 598q-38.5 -26 -55.5 -86t-17 -167t17 -167t55.5 -86t107.5 -26t107.5 26t55.5 86t17 167t-17 167
t-55.5 86t-107.5 26t-107.5 -26zM433 955l-133 -90l-30 34l112 115zM475 772h-278v63h278v-63z" />
    <glyph glyph-name="uni1E50" unicode="&#x1e50;" 
d="M495 669.5q59 -33.5 85 -111t26 -213.5t-26 -213.5t-85 -111t-161 -33.5q-103 0 -161.5 33.5t-85 111t-26.5 213.5t26.5 213.5t85 111t161.5 33.5q102 0 161 -33.5zM226.5 598q-38.5 -26 -55.5 -86t-17 -167t17 -167t55.5 -86t107.5 -26t107.5 26t55.5 86t17 167t-17 167
t-55.5 86t-107.5 26t-107.5 -26zM402 899l-30 -34l-133 90l51 59zM475 835v-63h-278v63h278z" />
    <glyph glyph-name="uni01EA" unicode="&#x1ea;" 
d="M323.5 -63.5q-15.5 -23.5 -25.5 -50.5q-6 -14 -6 -24q0 -28 38 -28q22 0 46 8l10 -35q-49 -20 -84 -20q-34 0 -52 17t-18 45q0 16 6 34q18 52 78 104q-95 3 -150 37.5t-80 111.5t-25 209q0 136 26.5 213.5t85 111t161.5 33.5q102 0 161 -33.5t85 -111t26 -213.5
q0 -130 -24 -206t-77 -111.5t-144 -39.5q-22 -28 -37.5 -51.5zM171 178q17 -60 55.5 -86t107.5 -26t107.5 26t55.5 86t17 167t-17 167t-55.5 86t-107.5 26t-107.5 -26t-55.5 -86t-17 -167t17 -167z" />
    <glyph glyph-name="Oslash" unicode="&#xd8;" 
d="M583 550q23 -76 23 -205q0 -136 -26 -213.5t-85 -111t-161 -33.5q-84 0 -134 21l-31 -66l-45 20l32 69q-50 37 -72.5 112.5t-22.5 201.5q0 136 26.5 213.5t85 111t161.5 33.5q75 0 128 -18l31 65l46 -19l-32 -69q53 -36 76 -112zM164.5 205.5q10.5 -54.5 33.5 -86.5
l228 488q-34 17 -92 17q-69 0 -107.5 -26t-55.5 -86t-17 -167q0 -85 10.5 -139.5zM441.5 92q38.5 26 55.5 86t17 167q0 89 -11 144.5t-37 86.5l-230 -490q37 -20 98 -20q69 0 107.5 26z" />
    <glyph glyph-name="Oslashacute" unicode="&#x1fe;" 
d="M583 550q23 -76 23 -205q0 -136 -26 -213.5t-85 -111t-161 -33.5q-84 0 -134 21l-31 -66l-45 20l32 69q-50 37 -72.5 112.5t-22.5 201.5q0 136 26.5 213.5t85 111t161.5 33.5q75 0 128 -18l31 65l46 -19l-32 -69q53 -36 76 -112zM164.5 205.5q10.5 -54.5 33.5 -86.5
l228 488q-34 17 -92 17q-69 0 -107.5 -26t-55.5 -86t-17 -167q0 -85 10.5 -139.5zM441.5 92q38.5 26 55.5 86t17 167q0 89 -11 144.5t-37 86.5l-230 -490q37 -20 98 -20q69 0 107.5 26zM486 848l-191 -120l-30 39l173 146z" />
    <glyph glyph-name="Otilde" unicode="&#xd5;" 
d="M495 669.5q59 -33.5 85 -111t26 -213.5t-26 -213.5t-85 -111t-161 -33.5q-103 0 -161.5 33.5t-85 111t-26.5 213.5t26.5 213.5t85 111t161.5 33.5q102 0 161 -33.5zM226.5 598q-38.5 -26 -55.5 -86t-17 -167t17 -167t55.5 -86t107.5 -26t107.5 26t55.5 86t17 167t-17 167
t-55.5 86t-107.5 26t-107.5 -26zM295 870q18 -7 40 -20q23 -12 37 -18t32 -8q4 -1 12 -1q20 0 28.5 12.5t8.5 38.5h40q1 -7 1 -21q0 -46 -21.5 -70t-57.5 -21q-25 2 -45 10.5t-44 22.5q-22 12 -38 18.5t-33 6.5q-22 0 -30 -13t-8 -42h-40q-1 7 -1 21q0 48 22.5 72t56.5 21
q22 -2 40 -9z" />
    <glyph glyph-name="uni1E4C" unicode="&#x1e4c;" 
d="M495 669.5q59 -33.5 85 -111t26 -213.5t-26 -213.5t-85 -111t-161 -33.5q-103 0 -161.5 33.5t-85 111t-26.5 213.5t26.5 213.5t85 111t161.5 33.5q102 0 161 -33.5zM226.5 598q-38.5 -26 -55.5 -86t-17 -167t17 -167t55.5 -86t107.5 -26t107.5 26t55.5 86t17 167t-17 167
t-55.5 86t-107.5 26t-107.5 -26zM440 986l-133 -91l-30 35l112 114zM291.5 864.5q18.5 -7.5 44.5 -21.5q21 -12 36 -18.5t32 -8.5q28 -3 38.5 9t10.5 42h40q1 -7 1 -21q0 -43 -19.5 -67t-51.5 -24q-28 0 -48.5 8t-49.5 24q-21 13 -36.5 19.5t-33.5 6.5q-22 0 -30 -13.5
t-8 -42.5h-40q-1 7 -1 21q0 45 20 69.5t52 24.5q25 0 43.5 -7.5z" />
    <glyph glyph-name="uni1E4E" unicode="&#x1e4e;" 
d="M495 669.5q59 -33.5 85 -111t26 -213.5t-26 -213.5t-85 -111t-161 -33.5q-103 0 -161.5 33.5t-85 111t-26.5 213.5t26.5 213.5t85 111t161.5 33.5q102 0 161 -33.5zM226.5 598q-38.5 -26 -55.5 -86t-17 -167t17 -167t55.5 -86t107.5 -26t107.5 26t55.5 86t17 167t-17 167
t-55.5 86t-107.5 26t-107.5 -26zM267 1009q12 0 17 -5.5t5 -16.5v-50q0 -22 -22 -22h-25q-22 0 -22 22v50q0 22 22 22h25zM429 1009q21 0 21 -22v-50q0 -22 -21 -22h-26q-21 0 -21 22v50q0 22 21 22h26zM291.5 864.5q18.5 -7.5 44.5 -21.5q21 -12 36 -18.5t32 -8.5
q28 -3 38.5 9t10.5 42h40q1 -7 1 -21q0 -43 -19.5 -67t-51.5 -24q-28 0 -48.5 8t-49.5 24q-21 13 -36.5 19.5t-33.5 6.5q-22 0 -30 -13.5t-8 -42.5h-40q-1 7 -1 21q0 45 20 69.5t52 24.5q25 0 43.5 -7.5z" />
    <glyph glyph-name="uni022C" unicode="&#x22c;" 
d="M495 669.5q59 -33.5 85 -111t26 -213.5t-26 -213.5t-85 -111t-161 -33.5q-103 0 -161.5 33.5t-85 111t-26.5 213.5t26.5 213.5t85 111t161.5 33.5q102 0 161 -33.5zM226.5 598q-38.5 -26 -55.5 -86t-17 -167t17 -167t55.5 -86t107.5 -26t107.5 26t55.5 86t17 167t-17 167
t-55.5 86t-107.5 26t-107.5 -26zM462 972l-64 -51l-190 6l64 51zM291.5 864.5q18.5 -7.5 44.5 -21.5q21 -12 36 -18.5t32 -8.5q28 -3 38.5 9t10.5 42h40q1 -7 1 -21q0 -43 -19.5 -67t-51.5 -24q-28 0 -48.5 8t-49.5 24q-21 13 -36.5 19.5t-33.5 6.5q-22 0 -30 -13.5
t-8 -42.5h-40q-1 7 -1 21q0 45 20 69.5t52 24.5q25 0 43.5 -7.5z" />
    <glyph glyph-name="OE" unicode="&#x152;" horiz-adv-x="913" 
d="M859 73l3 -68q-92 -6 -296 -6q-38 0 -69 21q-41 -18 -76 -25.5t-87 -7.5q-103 0 -161.5 33.5t-85 111t-26.5 213.5t26.5 213.5t85 111t161.5 33.5q53 0 89 -7t79 -25q31 20 71 20q199 0 289 -6l-3 -69h-257q-35 0 -51 -16t-16 -50v-149l284 -1v-71l-284 -1v-188
q0 -35 16 -51t51 -16h257zM171 178q17 -60 55.5 -86t107.5 -26q41 0 66.5 3.5t53.5 12.5q-7 20 -7 47v432q0 24 8 48q-31 8 -56.5 11.5t-64.5 3.5q-69 0 -108 -25.5t-55.5 -85.5t-16.5 -168q0 -107 17 -167z" />
    <glyph glyph-name="P" unicode="P" horiz-adv-x="590" 
d="M456.5 680q47.5 -19 68.5 -65.5t21 -131.5t-20.5 -131.5t-65.5 -65.5t-126 -19q-73 0 -159 8v-275h-88v690q54 6 101 7.5t136 1.5q85 0 132.5 -19zM403.5 356q28.5 12 41 41.5t12.5 85.5t-12.5 86t-41 42t-80.5 12q-109 0 -148 -1v-279h148q52 1 80.5 13z" />
    <glyph glyph-name="Thorn" unicode="&#xde;" horiz-adv-x="592" 
d="M457 548q47 -19 68 -66t21 -133t-20.5 -133t-65.5 -66t-126 -19q-73 0 -159 8v-139h-88v690h88v-125q41 2 150 2q85 0 132 -19zM403.5 219.5q28.5 11.5 41 42t12.5 87.5q0 58 -12.5 88.5t-41 42.5t-80.5 12q-109 0 -148 -1v-284h148q52 1 80.5 12.5z" />
    <glyph glyph-name="Q" unicode="Q" horiz-adv-x="669" 
d="M496 669.5q59 -33.5 85 -111t26 -213.5t-26 -213.5t-85 -111t-161 -33.5q-103 0 -162 33.5t-85 110.5t-26 214t26 214t85 110.5t162 33.5q102 0 161 -33.5zM227.5 598q-38.5 -26 -55.5 -86t-17 -167t17 -167t55.5 -86t107.5 -26t107.5 26t55.5 86t17 167t-17 167
t-55.5 86t-107.5 26t-107.5 -26zM559 -113l-28 -88q-130 26 -262 105l25 53q110 -48 265 -70z" />
    <glyph glyph-name="R" unicode="R" horiz-adv-x="618" 
d="M573 0h-94l-61 216q-13 39 -35 55.5t-57 16.5l-152 1v-289h-87v690q54 6 101.5 7.5t136.5 1.5q83 0 130.5 -18t70 -61t22.5 -120q0 -85 -29.5 -127t-97.5 -51v-5q28 -7 51 -32.5t34 -66.5zM405 376.5q29 11.5 41.5 39t12.5 79.5q0 51 -12.5 78.5t-41.5 38.5t-82 11
l-149 -1v-258h149q53 1 82 12.5z" />
    <glyph glyph-name="Racute" unicode="&#x154;" horiz-adv-x="618" 
d="M573 0h-94l-61 216q-13 39 -35 55.5t-57 16.5l-152 1v-289h-87v690q54 6 101.5 7.5t136.5 1.5q83 0 130.5 -18t70 -61t22.5 -120q0 -85 -29.5 -127t-97.5 -51v-5q28 -7 51 -32.5t34 -66.5zM405 376.5q29 11.5 41.5 39t12.5 79.5q0 51 -12.5 78.5t-41.5 38.5t-82 11
l-149 -1v-258h149q53 1 82 12.5zM453 855l-192 -120l-29 39l172 147z" />
    <glyph glyph-name="Rcaron" unicode="&#x158;" horiz-adv-x="618" 
d="M573 0h-94l-61 216q-13 39 -35 55.5t-57 16.5l-152 1v-289h-87v690q54 6 101.5 7.5t136.5 1.5q83 0 130.5 -18t70 -61t22.5 -120q0 -85 -29.5 -127t-97.5 -51v-5q28 -7 51 -32.5t34 -66.5zM405 376.5q29 11.5 41.5 39t12.5 79.5q0 51 -12.5 78.5t-41.5 38.5t-82 11
l-149 -1v-258h149q53 1 82 12.5zM467 875l-143 -128h-40l-143 128l29 36l130 -87h8l129 87z" />
    <glyph glyph-name="uni0156" unicode="&#x156;" horiz-adv-x="618" 
d="M573 0h-94l-61 216q-13 39 -35 55.5t-57 16.5l-152 1v-289h-87v690q54 6 101.5 7.5t136.5 1.5q83 0 130.5 -18t70 -61t22.5 -120q0 -85 -29.5 -127t-97.5 -51v-5q28 -7 51 -32.5t34 -66.5zM405 376.5q29 11.5 41.5 39t12.5 79.5q0 51 -12.5 78.5t-41.5 38.5t-82 11
l-149 -1v-258h149q53 1 82 12.5zM362 -64.5q6 -6.5 6 -21.5v-55q-1 -72 -32 -132l-36 10q9 52 9 103q-10 0 -16 6.5t-6 17.5v50q1 15 8 21.5t22 6.5h23q16 0 22 -6.5z" />
    <glyph glyph-name="uni0210" unicode="&#x210;" horiz-adv-x="618" 
d="M573 0h-94l-61 216q-13 39 -35 55.5t-57 16.5l-152 1v-289h-87v690q54 6 101.5 7.5t136.5 1.5q83 0 130.5 -18t70 -61t22.5 -120q0 -85 -29.5 -127t-97.5 -51v-5q28 -7 51 -32.5t34 -66.5zM405 376.5q29 11.5 41.5 39t12.5 79.5q0 51 -12.5 78.5t-41.5 38.5t-82 11
l-149 -1v-258h149q53 1 82 12.5zM262 757l-37 -28l-134 160l62 42zM427 757l-38 -28l-134 160l62 42z" />
    <glyph glyph-name="uni1E5A" unicode="&#x1e5a;" horiz-adv-x="618" 
d="M573 0h-94l-61 216q-13 39 -35 55.5t-57 16.5l-152 1v-289h-87v690q54 6 101.5 7.5t136.5 1.5q83 0 130.5 -18t70 -61t22.5 -120q0 -85 -29.5 -127t-97.5 -51v-5q28 -7 51 -32.5t34 -66.5zM405 376.5q29 11.5 41.5 39t12.5 79.5q0 51 -12.5 78.5t-41.5 38.5t-82 11
l-149 -1v-258h149q53 1 82 12.5zM355 -77v-57q0 -26 -26 -26h-27q-26 0 -26 26v57q0 25 26 25h27q26 0 26 -25z" />
    <glyph glyph-name="uni0212" unicode="&#x212;" horiz-adv-x="618" 
d="M573 0h-94l-61 216q-13 39 -35 55.5t-57 16.5l-152 1v-289h-87v690q54 6 101.5 7.5t136.5 1.5q83 0 130.5 -18t70 -61t22.5 -120q0 -85 -29.5 -127t-97.5 -51v-5q28 -7 51 -32.5t34 -66.5zM405 376.5q29 11.5 41.5 39t12.5 79.5q0 51 -12.5 78.5t-41.5 38.5t-82 11
l-149 -1v-258h149q53 1 82 12.5zM152 759q-4 59 37 95.5t112 36.5q72 0 113.5 -36.5t37.5 -95.5l-44 -7q0 36 -27.5 55.5t-79.5 19.5q-50 0 -78 -19.5t-28 -55.5z" />
    <glyph glyph-name="uni1E5E" unicode="&#x1e5e;" horiz-adv-x="618" 
d="M573 0h-94l-61 216q-13 39 -35 55.5t-57 16.5l-152 1v-289h-87v690q54 6 101.5 7.5t136.5 1.5q83 0 130.5 -18t70 -61t22.5 -120q0 -85 -29.5 -127t-97.5 -51v-5q28 -7 51 -32.5t34 -66.5zM405 376.5q29 11.5 41.5 39t12.5 79.5q0 51 -12.5 78.5t-41.5 38.5t-82 11
l-149 -1v-258h149q53 1 82 12.5zM454 -141h-278v63h278v-63z" />
    <glyph glyph-name="S" unicode="S" horiz-adv-x="561" 
d="M484 682l-6 -64q-97 5 -195 5q-58 0 -85 -5.5t-40.5 -27.5t-13.5 -72q0 -55 19.5 -78t67.5 -35l140 -35q77 -19 108 -65t31 -129q0 -78 -23.5 -118.5t-72.5 -55t-135 -14.5q-109 0 -214 19l6 65q56 -2 72 -2q73 -3 111 -3q71 0 104 6.5t48 30t15 74.5q0 39 -9 61
t-27 33.5t-51 19.5l-143 36q-73 18 -104.5 64.5t-31.5 127.5q0 79 23 118t69.5 51.5t131.5 12.5q122 -2 205 -20z" />
    <glyph glyph-name="Sacute" unicode="&#x15a;" horiz-adv-x="561" 
d="M484 682l-6 -64q-97 5 -195 5q-58 0 -85 -5.5t-40.5 -27.5t-13.5 -72q0 -55 19.5 -78t67.5 -35l140 -35q77 -19 108 -65t31 -129q0 -78 -23.5 -118.5t-72.5 -55t-135 -14.5q-109 0 -214 19l6 65q56 -2 72 -2q73 -3 111 -3q71 0 104 6.5t48 30t15 74.5q0 39 -9 61
t-27 33.5t-51 19.5l-143 36q-73 18 -104.5 64.5t-31.5 127.5q0 79 23 118t69.5 51.5t131.5 12.5q122 -2 205 -20zM435 855l-192 -120l-29 39l172 147z" />
    <glyph glyph-name="uni1E64" unicode="&#x1e64;" horiz-adv-x="561" 
d="M484 682l-6 -64q-97 5 -195 5q-58 0 -85 -5.5t-40.5 -27.5t-13.5 -72q0 -55 19.5 -78t67.5 -35l140 -35q77 -19 108 -65t31 -129q0 -78 -23.5 -118.5t-72.5 -55t-135 -14.5q-109 0 -214 19l6 65q56 -2 72 -2q73 -3 111 -3q71 0 104 6.5t48 30t15 74.5q0 39 -9 61
t-27 33.5t-51 19.5l-143 36q-73 18 -104.5 64.5t-31.5 127.5q0 79 23 118t69.5 51.5t131.5 12.5q122 -2 205 -20zM321 996v-52q0 -24 -24 -24h-24q-24 0 -24 24v52q0 23 24 23h24q24 0 24 -23zM394 838l-175 -101l-27 37l156 126z" />
    <glyph glyph-name="Scaron" unicode="&#x160;" horiz-adv-x="561" 
d="M484 682l-6 -64q-97 5 -195 5q-58 0 -85 -5.5t-40.5 -27.5t-13.5 -72q0 -55 19.5 -78t67.5 -35l140 -35q77 -19 108 -65t31 -129q0 -78 -23.5 -118.5t-72.5 -55t-135 -14.5q-109 0 -214 19l6 65q56 -2 72 -2q73 -3 111 -3q71 0 104 6.5t48 30t15 74.5q0 39 -9 61
t-27 33.5t-51 19.5l-143 36q-73 18 -104.5 64.5t-31.5 127.5q0 79 23 118t69.5 51.5t131.5 12.5q122 -2 205 -20zM450 875l-143 -128h-40l-143 128l29 36l130 -87h8l129 87z" />
    <glyph glyph-name="uni1E66" unicode="&#x1e66;" horiz-adv-x="561" 
d="M484 682l-6 -64q-97 5 -195 5q-58 0 -85 -5.5t-40.5 -27.5t-13.5 -72q0 -55 19.5 -78t67.5 -35l140 -35q77 -19 108 -65t31 -129q0 -78 -23.5 -118.5t-72.5 -55t-135 -14.5q-109 0 -214 19l6 65q56 -2 72 -2q73 -3 111 -3q71 0 104 6.5t48 30t15 74.5q0 39 -9 61
t-27 33.5t-51 19.5l-143 36q-73 18 -104.5 64.5t-31.5 127.5q0 79 23 118t69.5 51.5t131.5 12.5q122 -2 205 -20zM321 1012v-51q0 -24 -24 -24h-25q-23 0 -23 24v51q0 24 23 24h25q24 0 24 -24zM438 868l-132 -118h-40l-132 118l29 36l119 -77h8l118 77z" />
    <glyph glyph-name="Scedilla" unicode="&#x15e;" horiz-adv-x="561" 
d="M484 682l-6 -64q-97 5 -195 5q-58 0 -85 -5.5t-40.5 -27.5t-13.5 -72q0 -55 19.5 -78t67.5 -35l140 -35q77 -19 108 -65t31 -129q0 -78 -23.5 -118.5t-72.5 -55t-135 -14.5q-109 0 -214 19l6 65q56 -2 72 -2q73 -3 111 -3q71 0 104 6.5t48 30t15 74.5q0 39 -9 61
t-27 33.5t-51 19.5l-143 36q-73 18 -104.5 64.5t-31.5 127.5q0 79 23 118t69.5 51.5t131.5 12.5q122 -2 205 -20zM276 -53q39 0 57.5 -14t18.5 -48q0 -59 -38 -93.5t-100 -34.5q-9 0 -29 2l13 45q41 -1 67 19t26 53q0 16 -12 22t-47 7l9 40q26 2 35 2z" />
    <glyph glyph-name="Scircumflex" unicode="&#x15c;" horiz-adv-x="561" 
d="M484 682l-6 -64q-97 5 -195 5q-58 0 -85 -5.5t-40.5 -27.5t-13.5 -72q0 -55 19.5 -78t67.5 -35l140 -35q77 -19 108 -65t31 -129q0 -78 -23.5 -118.5t-72.5 -55t-135 -14.5q-109 0 -214 19l6 65q56 -2 72 -2q73 -3 111 -3q71 0 104 6.5t48 30t15 74.5q0 39 -9 61
t-27 33.5t-51 19.5l-143 36q-73 18 -104.5 64.5t-31.5 127.5q0 79 23 118t69.5 51.5t131.5 12.5q122 -2 205 -20zM448 770l-30 -37l-129 97h-8l-130 -97l-29 37l132 127h61z" />
    <glyph glyph-name="uni0218" unicode="&#x218;" horiz-adv-x="561" 
d="M484 682l-6 -64q-97 5 -195 5q-58 0 -85 -5.5t-40.5 -27.5t-13.5 -72q0 -55 19.5 -78t67.5 -35l140 -35q77 -19 108 -65t31 -129q0 -78 -23.5 -118.5t-72.5 -55t-135 -14.5q-109 0 -214 19l6 65q56 -2 72 -2q73 -3 111 -3q71 0 104 6.5t48 30t15 74.5q0 39 -9 61
t-27 33.5t-51 19.5l-143 36q-73 18 -104.5 64.5t-31.5 127.5q0 79 23 118t69.5 51.5t131.5 12.5q122 -2 205 -20zM319 -64.5q6 -6.5 6 -21.5v-55q0 -68 -31 -132l-37 10q9 52 9 103q-10 0 -16 6.5t-6 17.5l1 50q1 15 7.5 21.5t22.5 6.5h22q16 0 22 -6.5z" />
    <glyph glyph-name="uni1E60" unicode="&#x1e60;" horiz-adv-x="561" 
d="M484 682l-6 -64q-97 5 -195 5q-58 0 -85 -5.5t-40.5 -27.5t-13.5 -72q0 -55 19.5 -78t67.5 -35l140 -35q77 -19 108 -65t31 -129q0 -78 -23.5 -118.5t-72.5 -55t-135 -14.5q-109 0 -214 19l6 65q56 -2 72 -2q73 -3 111 -3q71 0 104 6.5t48 30t15 74.5q0 39 -9 61
t-27 33.5t-51 19.5l-143 36q-73 18 -104.5 64.5t-31.5 127.5q0 79 23 118t69.5 51.5t131.5 12.5q122 -2 205 -20zM325 842v-57q0 -26 -26 -26h-27q-26 0 -26 26v57q0 25 26 25h27q26 0 26 -25z" />
    <glyph glyph-name="uni1E62" unicode="&#x1e62;" horiz-adv-x="561" 
d="M484 682l-6 -64q-97 5 -195 5q-58 0 -85 -5.5t-40.5 -27.5t-13.5 -72q0 -55 19.5 -78t67.5 -35l140 -35q77 -19 108 -65t31 -129q0 -78 -23.5 -118.5t-72.5 -55t-135 -14.5q-109 0 -214 19l6 65q56 -2 72 -2q73 -3 111 -3q71 0 104 6.5t48 30t15 74.5q0 39 -9 61
t-27 33.5t-51 19.5l-143 36q-73 18 -104.5 64.5t-31.5 127.5q0 79 23 118t69.5 51.5t131.5 12.5q122 -2 205 -20zM324 -89v-57q0 -26 -26 -26h-27q-26 0 -26 26v57q0 25 26 25h27q26 0 26 -25z" />
    <glyph glyph-name="uni1E68" unicode="&#x1e68;" horiz-adv-x="561" 
d="M484 682l-6 -64q-97 5 -195 5q-58 0 -85 -5.5t-40.5 -27.5t-13.5 -72q0 -55 19.5 -78t67.5 -35l140 -35q77 -19 108 -65t31 -129q0 -78 -23.5 -118.5t-72.5 -55t-135 -14.5q-109 0 -214 19l6 65q56 -2 72 -2q73 -3 111 -3q71 0 104 6.5t48 30t15 74.5q0 39 -9 61
t-27 33.5t-51 19.5l-143 36q-73 18 -104.5 64.5t-31.5 127.5q0 79 23 118t69.5 51.5t131.5 12.5q122 -2 205 -20zM325 842v-57q0 -26 -26 -26h-27q-26 0 -26 26v57q0 25 26 25h27q26 0 26 -25zM324 -89v-57q0 -26 -26 -26h-27q-26 0 -26 26v57q0 25 26 25h27q26 0 26 -25z
" />
    <glyph glyph-name="uni1E9E" unicode="&#x1e9e;" horiz-adv-x="651" 
d="M609.5 78.5q-20.5 -45.5 -68.5 -68.5t-130 -23q-88 0 -189 18l6 71q92 -10 162 -10q83 0 118 28.5t35 102.5q0 61 -29 91.5t-108 30.5l-98 1v61l159 235h-227q-35 0 -51 -15.5t-16 -50.5v-550h-88v567q0 59 36 91.5t97 32.5q260 0 349 -7l-5 -68l-128 -187
q-19 -27 -38 -42v-3l52 3q86 1 134 -47.5t48 -141.5q0 -74 -20.5 -119.5z" />
    <glyph glyph-name="uni018F" unicode="&#x18f;" horiz-adv-x="633" 
d="M466.5 666q59.5 -37 82.5 -114t23 -209q0 -129 -23.5 -205.5t-79.5 -113t-156 -36.5q-135 0 -196 59t-61 163q0 89 42.5 134t125.5 45h255q-3 89 -21 139.5t-57.5 73t-109.5 22.5q-89 0 -208 -17l-11 61q100 35 225 35q110 0 169.5 -37zM438.5 124q38.5 58 41.5 185h-251
q-42 0 -61.5 -28t-19.5 -71q0 -70 36 -107t122 -37q94 0 132.5 58z" />
    <glyph glyph-name="T" unicode="T" horiz-adv-x="581" 
d="M557 612h-223v-612h-88v612h-222v78h533v-78z" />
    <glyph glyph-name="Tbar" unicode="&#x166;" horiz-adv-x="581" 
d="M334 612v-211h140v-50h-140v-351h-88v351h-141v50h141v211h-222v78h533v-78h-223z" />
    <glyph glyph-name="Tcaron" unicode="&#x164;" horiz-adv-x="581" 
d="M557 612h-223v-612h-88v612h-222v78h533v-78zM455 875l-143 -128h-40l-143 128l29 36l130 -87h8l129 87z" />
    <glyph glyph-name="uni0162" unicode="&#x162;" horiz-adv-x="581" 
d="M557 612h-223v-612h-88v612h-222v78h533v-78zM282 -41q39 0 57.5 -14t18.5 -48q0 -59 -38 -93.5t-100 -34.5q-9 0 -29 2l13 45q41 -1 67 19t26 53q0 16 -12 22t-47 7l9 40q26 2 35 2z" />
    <glyph glyph-name="uni021A" unicode="&#x21a;" horiz-adv-x="581" 
d="M557 612h-223v-612h-88v612h-222v78h533v-78zM313 -64.5q6 -6.5 5 -21.5l1 -55q-1 -72 -32 -132l-36 10q8 47 8 103q-10 0 -15.5 6.5t-5.5 17.5v50q1 15 7.5 21.5t22.5 6.5h23q16 0 22 -6.5z" />
    <glyph glyph-name="uni1E6C" unicode="&#x1e6c;" horiz-adv-x="581" 
d="M557 612h-223v-612h-88v612h-222v78h533v-78zM330 -77v-57q0 -26 -26 -26h-27q-26 0 -26 26v57q0 25 26 25h27q26 0 26 -25z" />
    <glyph glyph-name="uni1E6E" unicode="&#x1e6e;" horiz-adv-x="581" 
d="M557 612h-223v-612h-88v612h-222v78h533v-78zM428 -141h-278v63h278v-63z" />
    <glyph glyph-name="U" unicode="U" horiz-adv-x="666" 
d="M584 264q0 -101 -24 -161.5t-78 -88t-145 -27.5q-94 0 -149.5 27.5t-80.5 88t-25 161.5v426h88v-426q0 -75 15.5 -117.5t51 -61.5t96.5 -19t96 19t51 61.5t16 117.5v426h88v-426z" />
    <glyph glyph-name="Uacute" unicode="&#xda;" horiz-adv-x="666" 
d="M584 264q0 -101 -24 -161.5t-78 -88t-145 -27.5q-94 0 -149.5 27.5t-80.5 88t-25 161.5v426h88v-426q0 -75 15.5 -117.5t51 -61.5t96.5 -19t96 19t51 61.5t16 117.5v426h88v-426zM484 855l-192 -120l-29 39l172 147z" />
    <glyph glyph-name="Ubreve" unicode="&#x16c;" horiz-adv-x="666" 
d="M584 264q0 -101 -24 -161.5t-78 -88t-145 -27.5q-94 0 -149.5 27.5t-80.5 88t-25 161.5v426h88v-426q0 -75 15.5 -117.5t51 -61.5t96.5 -19t96 19t51 61.5t16 117.5v426h88v-426zM484 877q4 -59 -37 -95.5t-113 -36.5t-113 36.5t-37 95.5l44 6q-1 -35 27 -55t80 -20
q49 0 77 20t28 55z" />
    <glyph glyph-name="Ucircumflex" unicode="&#xdb;" horiz-adv-x="666" 
d="M584 264q0 -101 -24 -161.5t-78 -88t-145 -27.5q-94 0 -149.5 27.5t-80.5 88t-25 161.5v426h88v-426q0 -75 15.5 -117.5t51 -61.5t96.5 -19t96 19t51 61.5t16 117.5v426h88v-426zM497 770l-30 -37l-129 97h-8l-130 -97l-29 37l132 127h61z" />
    <glyph glyph-name="uni0214" unicode="&#x214;" horiz-adv-x="666" 
d="M584 264q0 -101 -24 -161.5t-78 -88t-145 -27.5q-94 0 -149.5 27.5t-80.5 88t-25 161.5v426h88v-426q0 -75 15.5 -117.5t51 -61.5t96.5 -19t96 19t51 61.5t16 117.5v426h88v-426zM297 772l-37 -28l-135 159l62 43zM462 772l-38 -28l-135 159l62 43z" />
    <glyph glyph-name="Udieresis" unicode="&#xdc;" horiz-adv-x="666" 
d="M584 264q0 -101 -24 -161.5t-78 -88t-145 -27.5q-94 0 -149.5 27.5t-80.5 88t-25 161.5v426h88v-426q0 -75 15.5 -117.5t51 -61.5t96.5 -19t96 19t51 61.5t16 117.5v426h88v-426zM283 846v-55q0 -24 -23 -24h-29q-23 0 -23 24v55q0 24 23 24h29q23 0 23 -24zM454.5 863.5
q6.5 -6.5 6.5 -17.5v-55q0 -24 -24 -24h-28q-24 0 -24 24v55q0 24 24 24h28q11 0 17.5 -6.5z" />
    <glyph glyph-name="uni1EE4" unicode="&#x1ee4;" horiz-adv-x="666" 
d="M584 264q0 -101 -24 -161.5t-78 -88t-145 -27.5q-94 0 -149.5 27.5t-80.5 88t-25 161.5v426h88v-426q0 -75 15.5 -117.5t51 -61.5t96.5 -19t96 19t51 61.5t16 117.5v426h88v-426zM372 -77v-57q0 -26 -26 -26h-28q-26 0 -26 26v57q0 25 26 25h28q26 0 26 -25z" />
    <glyph glyph-name="Ugrave" unicode="&#xd9;" horiz-adv-x="666" 
d="M584 264q0 -101 -24 -161.5t-78 -88t-145 -27.5q-94 0 -149.5 27.5t-80.5 88t-25 161.5v426h88v-426q0 -75 15.5 -117.5t51 -61.5t96.5 -19t96 19t51 61.5t16 117.5v426h88v-426zM391 767l-29 -39l-192 120l49 65z" />
    <glyph glyph-name="uni1EE6" unicode="&#x1ee6;" horiz-adv-x="666" 
d="M584 264q0 -101 -24 -161.5t-78 -88t-145 -27.5q-94 0 -149.5 27.5t-80.5 88t-25 161.5v426h88v-426q0 -75 15.5 -117.5t51 -61.5t96.5 -19t96 19t51 61.5t16 117.5v426h88v-426zM368 850q0 20 -12.5 31t-34.5 11q-14 0 -32 -5l-10 48q29 8 51 8q43 0 69.5 -23.5
t26.5 -66.5q0 -42 -28 -72.5t-77 -40.5l-10 43q57 16 57 67z" />
    <glyph glyph-name="Uhorn" unicode="&#x1af;" horiz-adv-x="695" 
d="M673.5 627q-38.5 -37 -89.5 -42v-321q0 -101 -24 -161.5t-78 -88t-145 -27.5q-94 0 -149.5 27.5t-80.5 88t-25 161.5v426h88v-426q0 -75 15.5 -117.5t51 -61.5t96.5 -19t96 19t51 61.5t16 117.5v426h88v-60q30 9 48.5 34t20.5 60l61 -5q-2 -55 -40.5 -92z" />
    <glyph glyph-name="uni1EE8" unicode="&#x1ee8;" horiz-adv-x="695" 
d="M673.5 627q-38.5 -37 -89.5 -42v-321q0 -101 -24 -161.5t-78 -88t-145 -27.5q-94 0 -149.5 27.5t-80.5 88t-25 161.5v426h88v-426q0 -75 15.5 -117.5t51 -61.5t96.5 -19t96 19t51 61.5t16 117.5v426h88v-60q30 9 48.5 34t20.5 60l61 -5q-2 -55 -40.5 -92zM490 848
l-191 -120l-30 39l173 146z" />
    <glyph glyph-name="uni1EF0" unicode="&#x1ef0;" horiz-adv-x="695" 
d="M673.5 627q-38.5 -37 -89.5 -42v-321q0 -101 -24 -161.5t-78 -88t-145 -27.5q-94 0 -149.5 27.5t-80.5 88t-25 161.5v426h88v-426q0 -75 15.5 -117.5t51 -61.5t96.5 -19t96 19t51 61.5t16 117.5v426h88v-60q30 9 48.5 34t20.5 60l61 -5q-2 -55 -40.5 -92zM371 -77v-57
q0 -26 -26 -26h-27q-26 0 -26 26v57q0 25 26 25h27q26 0 26 -25z" />
    <glyph glyph-name="uni1EEA" unicode="&#x1eea;" horiz-adv-x="695" 
d="M673.5 627q-38.5 -37 -89.5 -42v-321q0 -101 -24 -161.5t-78 -88t-145 -27.5q-94 0 -149.5 27.5t-80.5 88t-25 161.5v426h88v-426q0 -75 15.5 -117.5t51 -61.5t96.5 -19t96 19t51 61.5t16 117.5v426h88v-60q30 9 48.5 34t20.5 60l61 -5q-2 -55 -40.5 -92zM391 767
l-29 -39l-192 120l49 65z" />
    <glyph glyph-name="uni1EEC" unicode="&#x1eec;" horiz-adv-x="695" 
d="M673.5 627q-38.5 -37 -89.5 -42v-321q0 -101 -24 -161.5t-78 -88t-145 -27.5q-94 0 -149.5 27.5t-80.5 88t-25 161.5v426h88v-426q0 -75 15.5 -117.5t51 -61.5t96.5 -19t96 19t51 61.5t16 117.5v426h88v-60q30 9 48.5 34t20.5 60l61 -5q-2 -55 -40.5 -92zM368 850
q0 20 -12.5 31t-34.5 11q-14 0 -32 -5l-10 48q29 8 51 8q43 0 69.5 -23.5t26.5 -66.5q0 -42 -28 -72.5t-77 -40.5l-10 43q57 16 57 67z" />
    <glyph glyph-name="uni1EEE" unicode="&#x1eee;" horiz-adv-x="695" 
d="M673.5 627q-38.5 -37 -89.5 -42v-321q0 -101 -24 -161.5t-78 -88t-145 -27.5q-94 0 -149.5 27.5t-80.5 88t-25 161.5v426h88v-426q0 -75 15.5 -117.5t51 -61.5t96.5 -19t96 19t51 61.5t16 117.5v426h88v-60q30 9 48.5 34t20.5 60l61 -5q-2 -55 -40.5 -92zM294 870
q18 -7 40 -20q23 -12 37 -18t32 -8q4 -1 12 -1q20 0 28.5 12.5t8.5 38.5h39q1 -8 1 -23q0 -44 -21.5 -68t-56.5 -21q-25 2 -45 10.5t-44 22.5q-22 12 -38 18.5t-33 6.5q-22 0 -30 -13t-8 -42h-40q-1 8 -1 23q0 46 22.5 70t56.5 21q22 -2 40 -9z" />
    <glyph glyph-name="Uhungarumlaut" unicode="&#x170;" horiz-adv-x="666" 
d="M584 264q0 -101 -24 -161.5t-78 -88t-145 -27.5q-94 0 -149.5 27.5t-80.5 88t-25 161.5v426h88v-426q0 -75 15.5 -117.5t51 -61.5t96.5 -19t96 19t51 61.5t16 117.5v426h88v-426zM367 889l-134 -160l-38 28l110 174zM531 889l-134 -160l-38 28l110 174z" />
    <glyph glyph-name="uni0216" unicode="&#x216;" horiz-adv-x="666" 
d="M584 264q0 -101 -24 -161.5t-78 -88t-145 -27.5q-94 0 -149.5 27.5t-80.5 88t-25 161.5v426h88v-426q0 -75 15.5 -117.5t51 -61.5t96.5 -19t96 19t51 61.5t16 117.5v426h88v-426zM183 759q-4 59 37 95.5t112 36.5q72 0 113.5 -36.5t37.5 -95.5l-44 -7q0 36 -27.5 55.5
t-79.5 19.5q-50 0 -78 -19.5t-28 -55.5z" />
    <glyph glyph-name="Umacron" unicode="&#x16a;" horiz-adv-x="666" 
d="M584 264q0 -101 -24 -161.5t-78 -88t-145 -27.5q-94 0 -149.5 27.5t-80.5 88t-25 161.5v426h88v-426q0 -75 15.5 -117.5t51 -61.5t96.5 -19t96 19t51 61.5t16 117.5v426h88v-426zM473 786h-278v63h278v-63z" />
    <glyph glyph-name="uni1E7A" unicode="&#x1e7a;" horiz-adv-x="666" 
d="M584 264q0 -101 -24 -161.5t-78 -88t-145 -27.5q-94 0 -149.5 27.5t-80.5 88t-25 161.5v426h88v-426q0 -75 15.5 -117.5t51 -61.5t96.5 -19t96 19t51 61.5t16 117.5v426h88v-426zM265 978q12 0 17 -5.5t5 -16.5v-50q0 -21 -22 -21h-25q-10 0 -16 5.5t-6 15.5v50
q0 22 22 22h25zM427 978q21 0 21 -22v-50q0 -21 -21 -21h-26q-22 0 -22 21v50q0 22 22 22h26zM207 776v57h254v-57h-254z" />
    <glyph glyph-name="Uogonek" unicode="&#x172;" horiz-adv-x="666" 
d="M584 690v-426q0 -95 -21 -153.5t-67.5 -88t-124.5 -34.5q-50 -57 -71 -111q-6 -14 -6 -24q0 -28 38 -28q22 0 46 8l10 -35q-49 -20 -84 -20q-34 0 -52 17t-18 45q0 16 6 34q19 55 89 113q-91 1 -145 29t-78 88t-24 160v426h88v-426q0 -75 15.5 -117.5t51 -61.5t96.5 -19
t96 19t51 61.5t16 117.5v426h88z" />
    <glyph glyph-name="Uring" unicode="&#x16e;" horiz-adv-x="666" 
d="M584 264q0 -101 -24 -161.5t-78 -88t-145 -27.5q-94 0 -149.5 27.5t-80.5 88t-25 161.5v426h88v-426q0 -75 15.5 -117.5t51 -61.5t96.5 -19t96 19t51 61.5t16 117.5v426h88v-426zM409.5 901.5q31.5 -30.5 31.5 -74.5t-31.5 -74.5t-75.5 -30.5q-45 0 -76 30t-31 75
q0 44 31.5 74.5t75.5 30.5t75.5 -30.5zM291.5 871q-16.5 -17 -16.5 -44q0 -28 17 -44.5t42 -16.5q26 0 43 16.5t17 44.5q0 27 -17 44t-43 17t-42.5 -17z" />
    <glyph glyph-name="Utilde" unicode="&#x168;" horiz-adv-x="666" 
d="M584 264q0 -101 -24 -161.5t-78 -88t-145 -27.5q-94 0 -149.5 27.5t-80.5 88t-25 161.5v426h88v-426q0 -75 15.5 -117.5t51 -61.5t96.5 -19t96 19t51 61.5t16 117.5v426h88v-426zM294 870q18 -7 40 -20q23 -12 37 -18t32 -8q4 -1 12 -1q20 0 28.5 12.5t8.5 38.5h40
q1 -7 1 -21q0 -46 -21.5 -70t-57.5 -21q-25 2 -45 10.5t-44 22.5q-22 12 -38 18.5t-33 6.5q-22 0 -30 -13t-8 -42h-40q-1 7 -1 21q0 48 22.5 72t56.5 21q22 -2 40 -9z" />
    <glyph glyph-name="uni1E78" unicode="&#x1e78;" horiz-adv-x="666" 
d="M584 264q0 -101 -24 -161.5t-78 -88t-145 -27.5q-94 0 -149.5 27.5t-80.5 88t-25 161.5v426h88v-426q0 -75 15.5 -117.5t51 -61.5t96.5 -19t96 19t51 61.5t16 117.5v426h88v-426zM439 986l-133 -91l-30 35l112 114zM290.5 864.5q18.5 -7.5 44.5 -21.5q21 -12 36 -18.5
t32 -8.5q28 -3 38.5 9t10.5 42h40q1 -7 1 -21q0 -43 -19.5 -67t-51.5 -24q-28 0 -48.5 8t-49.5 24q-21 13 -36.5 19.5t-33.5 6.5q-22 0 -30 -13.5t-8 -42.5h-40q-1 7 -1 21q0 45 20 69.5t52 24.5q25 0 43.5 -7.5z" />
    <glyph glyph-name="V" unicode="V" horiz-adv-x="609" 
d="M383 25q-4 -11 -13 -18t-21 -7h-89q-12 0 -21.5 7t-12.5 18l-209 665h91l163 -547q14 -50 20 -75h27q10 41 21 76l162 546h91z" />
    <glyph glyph-name="W" unicode="W" horiz-adv-x="948" 
d="M777 26q-3 -12 -12.5 -19t-22.5 -7h-100q-13 0 -22.5 7.5t-11.5 19.5l-108 519q-6 26 -16 78h-21l-15 -78l-107 -519q-3 -12 -12.5 -19.5t-22.5 -7.5h-101q-13 0 -22.5 7.5t-11.5 18.5l-140 664h93l108 -538q5 -23 10 -59l4 -26h23q8 47 16 85l107 509q2 13 11.5 21
t22.5 8h96q13 0 22 -8t12 -21l107 -509q10 -49 14 -85h25q9 60 13 84l109 539h93z" />
    <glyph glyph-name="Wacute" unicode="&#x1e82;" horiz-adv-x="948" 
d="M777 26q-3 -12 -12.5 -19t-22.5 -7h-100q-13 0 -22.5 7.5t-11.5 19.5l-108 519q-6 26 -16 78h-21l-15 -78l-107 -519q-3 -12 -12.5 -19.5t-22.5 -7.5h-101q-13 0 -22.5 7.5t-11.5 18.5l-140 664h93l108 -538q5 -23 10 -59l4 -26h23q8 47 16 85l107 509q2 13 11.5 21
t22.5 8h96q13 0 22 -8t12 -21l107 -509q10 -49 14 -85h25q9 60 13 84l109 539h93zM624 855l-192 -120l-29 39l172 147z" />
    <glyph glyph-name="Wcircumflex" unicode="&#x174;" horiz-adv-x="948" 
d="M777 26q-3 -12 -12.5 -19t-22.5 -7h-100q-13 0 -22.5 7.5t-11.5 19.5l-108 519q-6 26 -16 78h-21l-15 -78l-107 -519q-3 -12 -12.5 -19.5t-22.5 -7.5h-101q-13 0 -22.5 7.5t-11.5 18.5l-140 664h93l108 -538q5 -23 10 -59l4 -26h23q8 47 16 85l107 509q2 13 11.5 21
t22.5 8h96q13 0 22 -8t12 -21l107 -509q10 -49 14 -85h25q9 60 13 84l109 539h93zM638 769l-30 -37l-129 97h-8l-130 -97l-29 37l132 127h61z" />
    <glyph glyph-name="Wdieresis" unicode="&#x1e84;" horiz-adv-x="948" 
d="M777 26q-3 -12 -12.5 -19t-22.5 -7h-100q-13 0 -22.5 7.5t-11.5 19.5l-108 519q-6 26 -16 78h-21l-15 -78l-107 -519q-3 -12 -12.5 -19.5t-22.5 -7.5h-101q-13 0 -22.5 7.5t-11.5 18.5l-140 664h93l108 -538q5 -23 10 -59l4 -26h23q8 47 16 85l107 509q2 13 11.5 21
t22.5 8h96q13 0 22 -8t12 -21l107 -509q10 -49 14 -85h25q9 60 13 84l109 539h93zM423 845v-55q0 -24 -23 -24h-29q-23 0 -23 24v55q0 24 23 24h29q23 0 23 -24zM594.5 862.5q6.5 -6.5 6.5 -17.5v-55q0 -24 -24 -24h-28q-24 0 -24 24v55q0 24 24 24h28q11 0 17.5 -6.5z" />
    <glyph glyph-name="Wgrave" unicode="&#x1e80;" horiz-adv-x="948" 
d="M777 26q-3 -12 -12.5 -19t-22.5 -7h-100q-13 0 -22.5 7.5t-11.5 19.5l-108 519q-6 26 -16 78h-21l-15 -78l-107 -519q-3 -12 -12.5 -19.5t-22.5 -7.5h-101q-13 0 -22.5 7.5t-11.5 18.5l-140 664h93l108 -538q5 -23 10 -59l4 -26h23q8 47 16 85l107 509q2 13 11.5 21
t22.5 8h96q13 0 22 -8t12 -21l107 -509q10 -49 14 -85h25q9 60 13 84l109 539h93zM532 767l-29 -39l-192 120l49 65z" />
    <glyph glyph-name="X" unicode="X" horiz-adv-x="611" 
d="M318 324h-25l-172 -324h-96l194 357l-181 333h95l158 -298h29l158 298h95l-182 -333l195 -357h-96z" />
    <glyph glyph-name="Y" unicode="Y" horiz-adv-x="569" 
d="M328 242v-242h-88v244l-229 446h94l145 -291q12 -24 31 -78h7q16 44 31 77l145 292h93z" />
    <glyph glyph-name="Yacute" unicode="&#xdd;" horiz-adv-x="569" 
d="M328 242v-242h-88v244l-229 446h94l145 -291q12 -24 31 -78h7q16 44 31 77l145 292h93zM435 845l-192 -120l-29 39l172 147z" />
    <glyph glyph-name="Ycircumflex" unicode="&#x176;" horiz-adv-x="569" 
d="M328 242v-242h-88v244l-229 446h94l145 -291q12 -24 31 -78h7q16 44 31 77l145 292h93zM449 759l-30 -37l-129 97h-8l-130 -97l-29 37l132 127h61z" />
    <glyph glyph-name="Ydieresis" unicode="&#x178;" horiz-adv-x="569" 
d="M328 242v-242h-88v244l-229 446h94l145 -291q12 -24 31 -78h7q16 44 31 77l145 292h93zM234 836v-55q0 -24 -23 -24h-29q-23 0 -23 24v55q0 24 23 24h29q23 0 23 -24zM405.5 853.5q6.5 -6.5 6.5 -17.5v-55q0 -24 -24 -24h-28q-24 0 -24 24v55q0 24 24 24h28
q11 0 17.5 -6.5z" />
    <glyph glyph-name="uni1E8E" unicode="&#x1e8e;" horiz-adv-x="569" 
d="M328 242v-242h-88v244l-229 446h94l145 -291q12 -24 31 -78h7q16 44 31 77l145 292h93zM325 832v-57q0 -26 -26 -26h-27q-26 0 -26 26v57q0 25 26 25h27q26 0 26 -25z" />
    <glyph glyph-name="uni1EF4" unicode="&#x1ef4;" horiz-adv-x="569" 
d="M328 242v-242h-88v244l-229 446h94l145 -291q12 -24 31 -78h7q16 44 31 77l145 292h93zM323 -77v-57q0 -26 -26 -26h-27q-26 0 -26 26v57q0 25 26 25h27q26 0 26 -25z" />
    <glyph glyph-name="Ygrave" unicode="&#x1ef2;" horiz-adv-x="569" 
d="M328 242v-242h-88v244l-229 446h94l145 -291q12 -24 31 -78h7q16 44 31 77l145 292h93zM342 757l-29 -39l-192 120l49 65z" />
    <glyph glyph-name="uni1EF6" unicode="&#x1ef6;" horiz-adv-x="569" 
d="M328 242v-242h-88v244l-229 446h94l145 -291q12 -24 31 -78h7q16 44 31 77l145 292h93zM320 840q0 20 -12.5 31t-34.5 11q-14 0 -32 -5l-10 48q29 8 51 8q43 0 69.5 -23.5t26.5 -66.5q0 -42 -28 -72.5t-77 -40.5l-10 43q57 16 57 67z" />
    <glyph glyph-name="uni0232" unicode="&#x232;" horiz-adv-x="569" 
d="M328 242v-242h-88v244l-229 446h94l145 -291q12 -24 31 -78h7q16 44 31 77l145 292h93zM425 776h-278v63h278v-63z" />
    <glyph glyph-name="uni1EF8" unicode="&#x1ef8;" horiz-adv-x="569" 
d="M328 242v-242h-88v244l-229 446h94l145 -291q12 -24 31 -78h7q16 44 31 77l145 292h93zM245 860q18 -7 40 -20q23 -12 37 -18t32 -8q4 -1 12 -1q20 0 28.5 12.5t8.5 38.5h40q1 -7 1 -21q0 -46 -21.5 -70t-57.5 -21q-25 2 -45 10.5t-44 22.5q-22 12 -38 18.5t-33 6.5
q-22 0 -30 -13t-8 -42h-40q-1 7 -1 21q0 48 22.5 72t56.5 21q22 -2 40 -9z" />
    <glyph glyph-name="Z" unicode="Z" horiz-adv-x="566" 
d="M519 75v-75h-471v75l367 540h-361v75h458v-75l-366 -540h373z" />
    <glyph glyph-name="Zacute" unicode="&#x179;" horiz-adv-x="566" 
d="M519 75v-75h-471v75l367 540h-361v75h458v-75l-366 -540h373zM431 855l-192 -120l-29 39l172 147z" />
    <glyph glyph-name="Zcaron" unicode="&#x17d;" horiz-adv-x="566" 
d="M519 75v-75h-471v75l367 540h-361v75h458v-75l-366 -540h373zM446 875l-143 -128h-40l-143 128l29 36l130 -87h8l129 87z" />
    <glyph glyph-name="Zdotaccent" unicode="&#x17b;" horiz-adv-x="566" 
d="M519 75v-75h-471v75l367 540h-361v75h458v-75l-366 -540h373zM321 842v-57q0 -26 -26 -26h-27q-26 0 -26 26v57q0 25 26 25h27q26 0 26 -25z" />
    <glyph glyph-name="uni1E92" unicode="&#x1e92;" horiz-adv-x="566" 
d="M519 75v-75h-471v75l367 540h-361v75h458v-75l-366 -540h373zM330 -77v-57q0 -26 -26 -26h-27q-26 0 -26 26v57q0 25 26 25h27q26 0 26 -25z" />
    <glyph glyph-name="a" unicode="a" horiz-adv-x="549" 
d="M434 463.5q41 -35.5 41 -120.5v-343h-67l-10 81q-35 -36 -87.5 -63t-113.5 -27q-67 0 -106.5 35.5t-39.5 100.5v53q0 57 35.5 88.5t99.5 31.5h203v43q0 46 -21 65t-78 19q-72 0 -209 -13l-8 63q134 22 235 22q85 0 126 -35.5zM302 83q47 19 87 54v99l-188 -1
q-34 -1 -48.5 -18t-14.5 -49v-31q0 -39 19 -56t60 -17q38 0 85 19z" />
    <glyph glyph-name="aacute" unicode="&#xe1;" horiz-adv-x="549" 
d="M434 463.5q41 -35.5 41 -120.5v-343h-67l-10 81q-35 -36 -87.5 -63t-113.5 -27q-67 0 -106.5 35.5t-39.5 100.5v53q0 57 35.5 88.5t99.5 31.5h203v43q0 46 -21 65t-78 19q-72 0 -209 -13l-8 63q134 22 235 22q85 0 126 -35.5zM302 83q47 19 87 54v99l-188 -1
q-34 -1 -48.5 -18t-14.5 -49v-31q0 -39 19 -56t60 -17q38 0 85 19zM423 675l-192 -120l-29 39l172 147z" />
    <glyph glyph-name="abreve" unicode="&#x103;" horiz-adv-x="549" 
d="M434 463.5q41 -35.5 41 -120.5v-343h-67l-10 81q-35 -36 -87.5 -63t-113.5 -27q-67 0 -106.5 35.5t-39.5 100.5v53q0 57 35.5 88.5t99.5 31.5h203v43q0 46 -21 65t-78 19q-72 0 -209 -13l-8 63q134 22 235 22q85 0 126 -35.5zM302 83q47 19 87 54v99l-188 -1
q-34 -1 -48.5 -18t-14.5 -49v-31q0 -39 19 -56t60 -17q38 0 85 19zM423 697q4 -59 -37 -95.5t-113 -36.5t-113 36.5t-37 95.5l44 6q-1 -35 27 -55t80 -20q49 0 77 20t28 55z" />
    <glyph glyph-name="uni1EAF" unicode="&#x1eaf;" horiz-adv-x="549" 
d="M434 463.5q41 -35.5 41 -120.5v-343h-67l-10 81q-35 -36 -87.5 -63t-113.5 -27q-67 0 -106.5 35.5t-39.5 100.5v53q0 57 35.5 88.5t99.5 31.5h203v43q0 46 -21 65t-78 19q-72 0 -209 -13l-8 63q134 22 235 22q85 0 126 -35.5zM302 83q47 19 87 54v99l-188 -1
q-34 -1 -48.5 -18t-14.5 -49v-31q0 -39 19 -56t60 -17q38 0 85 19zM391 782l-138 -81l-27 36l119 107zM423 699q4 -59 -37 -95.5t-113 -36.5t-113 36.5t-37 95.5l44 6q-1 -35 27 -55t80 -20q49 0 77 20t28 55z" />
    <glyph glyph-name="uni1EB7" unicode="&#x1eb7;" horiz-adv-x="549" 
d="M422 697q5 -59 -35.5 -95.5t-112.5 -36.5q-73 0 -114 36.5t-37 95.5l43 6q0 -36 28 -55.5t80 -19.5q49 0 77 20t28 55zM434 463.5q41 -35.5 41 -120.5v-343h-67l-10 81q-35 -36 -87.5 -63t-113.5 -27q-67 0 -106.5 35.5t-39.5 100.5v53q0 57 35.5 88.5t99.5 31.5h203v43
q0 46 -21 65t-78 19q-72 0 -209 -13l-8 63q134 22 235 22q85 0 126 -35.5zM302 83q47 19 87 54v99l-188 -1q-34 -1 -48.5 -18t-14.5 -49v-31q0 -39 19 -56t60 -17q38 0 85 19zM304 -89v-57q0 -26 -26 -26h-27q-26 0 -26 26v57q0 25 26 25h27q26 0 26 -25z" />
    <glyph glyph-name="uni1EB1" unicode="&#x1eb1;" horiz-adv-x="549" 
d="M434 463.5q41 -35.5 41 -120.5v-343h-67l-10 81q-35 -36 -87.5 -63t-113.5 -27q-67 0 -106.5 35.5t-39.5 100.5v53q0 57 35.5 88.5t99.5 31.5h203v43q0 46 -21 65t-78 19q-72 0 -209 -13l-8 63q134 22 235 22q85 0 126 -35.5zM302 83q47 19 87 54v99l-188 -1
q-34 -1 -48.5 -18t-14.5 -49v-31q0 -39 19 -56t60 -17q38 0 85 19zM321 737l-27 -36l-139 81l46 62zM195.5 650q27.5 -20 77.5 -20q51 0 79 19.5t28 55.5l44 -6q4 -59 -37.5 -95.5t-113.5 -36.5q-71 0 -112 36.5t-37 95.5l44 6q0 -35 27.5 -55z" />
    <glyph glyph-name="uni1EB3" unicode="&#x1eb3;" horiz-adv-x="549" 
d="M434 463.5q41 -35.5 41 -120.5v-343h-67l-10 81q-35 -36 -87.5 -63t-113.5 -27q-67 0 -106.5 35.5t-39.5 100.5v53q0 57 35.5 88.5t99.5 31.5h203v43q0 46 -21 65t-78 19q-72 0 -209 -13l-8 63q134 22 235 22q85 0 126 -35.5zM302 83q47 19 87 54v99l-188 -1
q-34 -1 -48.5 -18t-14.5 -49v-31q0 -39 19 -56t60 -17q38 0 85 19zM299 787q0 28 -34 28q-17 0 -37 -7l-9 43q30 10 58 10q34 0 54.5 -18t20.5 -53q0 -38 -24.5 -64t-70.5 -36l-9 39q51 15 51 58zM423 699q4 -59 -37 -95.5t-113 -36.5t-113 36.5t-37 95.5l44 6
q-1 -35 27 -55t80 -20q49 0 77 20t28 55z" />
    <glyph glyph-name="uni1EB5" unicode="&#x1eb5;" horiz-adv-x="549" 
d="M434 463.5q41 -35.5 41 -120.5v-343h-67l-10 81q-35 -36 -87.5 -63t-113.5 -27q-67 0 -106.5 35.5t-39.5 100.5v53q0 57 35.5 88.5t99.5 31.5h203v43q0 46 -21 65t-78 19q-72 0 -209 -13l-8 63q134 22 235 22q85 0 126 -35.5zM302 83q47 19 87 54v99l-188 -1
q-34 -1 -48.5 -18t-14.5 -49v-31q0 -39 19 -56t60 -17q38 0 85 19zM232.5 833q16.5 -7 37.5 -21q19 -12 32.5 -18t30.5 -8q26 -2 36 9.5t10 39.5h37q1 -8 1 -22q0 -40 -18.5 -62.5t-49.5 -22.5q-26 0 -44 8t-42 23q-20 12 -32.5 18t-29.5 6q-21 0 -29.5 -12.5t-8.5 -39.5
h-37q-1 7 -1 21q0 42 19 65t49 23q23 0 39.5 -7zM423 699q4 -59 -37 -95.5t-113 -36.5t-113 36.5t-37 95.5l44 6q-1 -35 27 -55t79 -20q50 0 78 20t28 55z" />
    <glyph glyph-name="acircumflex" unicode="&#xe2;" horiz-adv-x="549" 
d="M434 463.5q41 -35.5 41 -120.5v-343h-67l-10 81q-35 -36 -87.5 -63t-113.5 -27q-67 0 -106.5 35.5t-39.5 100.5v53q0 57 35.5 88.5t99.5 31.5h203v43q0 46 -21 65t-78 19q-72 0 -209 -13l-8 63q134 22 235 22q85 0 126 -35.5zM302 83q47 19 87 54v99l-188 -1
q-34 -1 -48.5 -18t-14.5 -49v-31q0 -39 19 -56t60 -17q38 0 85 19zM437 589l-30 -37l-129 97h-8l-130 -97l-29 37l132 127h61z" />
    <glyph glyph-name="uni1EA5" unicode="&#x1ea5;" horiz-adv-x="549" 
d="M434 463.5q41 -35.5 41 -120.5v-343h-67l-10 81q-35 -36 -87.5 -63t-113.5 -27q-67 0 -106.5 35.5t-39.5 100.5v53q0 57 35.5 88.5t99.5 31.5h203v43q0 46 -21 65t-78 19q-72 0 -209 -13l-8 63q134 22 235 22q85 0 126 -35.5zM302 83q47 19 87 54v99l-188 -1
q-34 -1 -48.5 -18t-14.5 -49v-31q0 -39 19 -56t60 -17q38 0 85 19zM528 759l-128 -100l-32 32l104 122zM339 679l88 -86l-58 -9l-94 60l-38 -25l-94 -57l8 62l97 83z" />
    <glyph glyph-name="uni1EAD" unicode="&#x1ead;" horiz-adv-x="549" 
d="M437 589l-30 -37l-130 97h-8l-129 -97l-29 37l131 127h62zM434 463.5q41 -35.5 41 -120.5v-343h-67l-10 81q-35 -36 -87.5 -63t-113.5 -27q-67 0 -106.5 35.5t-39.5 100.5v53q0 57 35.5 88.5t99.5 31.5h203v43q0 46 -21 65t-78 19q-72 0 -209 -13l-8 63q134 22 235 22
q85 0 126 -35.5zM302 83q47 19 87 54v99l-188 -1q-34 -1 -48.5 -18t-14.5 -49v-31q0 -39 19 -56t60 -17q38 0 85 19zM304 -89v-57q0 -26 -26 -26h-27q-26 0 -26 26v57q0 25 26 25h27q26 0 26 -25z" />
    <glyph glyph-name="uni1EA7" unicode="&#x1ea7;" horiz-adv-x="549" 
d="M434 463.5q41 -35.5 41 -120.5v-343h-67l-10 81q-35 -36 -87.5 -63t-113.5 -27q-67 0 -106.5 35.5t-39.5 100.5v53q0 57 35.5 88.5t99.5 31.5h203v43q0 46 -21 65t-78 19q-72 0 -209 -13l-8 63q134 22 235 22q85 0 126 -35.5zM302 83q47 19 87 54v99l-188 -1
q-34 -1 -48.5 -18t-14.5 -49v-31q0 -39 19 -56t60 -17q38 0 85 19zM179 691l-32 -32l-127 100l55 54zM396 624l8 -62l-94 57l-38 25l-94 -60l-58 9l88 86l92 28z" />
    <glyph glyph-name="uni1EA9" unicode="&#x1ea9;" horiz-adv-x="549" 
d="M434 463.5q41 -35.5 41 -120.5v-343h-67l-10 81q-35 -36 -87.5 -63t-113.5 -27q-67 0 -106.5 35.5t-39.5 100.5v53q0 57 35.5 88.5t99.5 31.5h203v43q0 46 -21 65t-78 19q-72 0 -209 -13l-8 63q134 22 235 22q85 0 126 -35.5zM302 83q47 19 87 54v99l-188 -1
q-34 -1 -48.5 -18t-14.5 -49v-31q0 -39 19 -56t60 -17q38 0 85 19zM416 730.5q12 14.5 12 35.5q0 27 -33 27q-18 0 -38 -7l-9 44q33 10 56 10q36 0 56.5 -18t20.5 -54q0 -37 -24.5 -63.5t-70.5 -35.5l-9 38q27 9 39 23.5zM304 707l126 -111l-28 -37l-124 85h-8l-124 -85
l-30 37l127 111h61z" />
    <glyph glyph-name="uni1EAB" unicode="&#x1eab;" horiz-adv-x="549" 
d="M434 463.5q41 -35.5 41 -120.5v-343h-67l-10 81q-35 -36 -87.5 -63t-113.5 -27q-67 0 -106.5 35.5t-39.5 100.5v53q0 57 35.5 88.5t99.5 31.5h203v43q0 46 -21 65t-78 19q-72 0 -209 -13l-8 63q134 22 235 22q85 0 126 -35.5zM302 83q47 19 87 54v99l-188 -1
q-34 -1 -48.5 -18t-14.5 -49v-31q0 -39 19 -56t60 -17q38 0 85 19zM236.5 829q16.5 -7 37.5 -21q20 -13 35.5 -19.5t36.5 -6.5q20 0 28.5 12t8.5 37h37q1 -7 1 -21q0 -40 -18.5 -62.5t-49.5 -22.5q-26 0 -44.5 7.5t-41.5 22.5q-20 13 -33.5 19t-30.5 6q-20 0 -28 -12.5
t-8 -40.5h-37q-1 8 -1 22q0 42 19 64.5t49 22.5q23 0 39.5 -7zM304 707l126 -111l-28 -37l-124 85h-8l-124 -85l-30 37l127 111h61z" />
    <glyph glyph-name="uni0201" unicode="&#x201;" horiz-adv-x="549" 
d="M434 463.5q41 -35.5 41 -120.5v-343h-67l-10 81q-35 -36 -87.5 -63t-113.5 -27q-67 0 -106.5 35.5t-39.5 100.5v53q0 57 35.5 88.5t99.5 31.5h203v43q0 46 -21 65t-78 19q-72 0 -209 -13l-8 63q134 22 235 22q85 0 126 -35.5zM302 83q47 19 87 54v99l-188 -1
q-34 -1 -48.5 -18t-14.5 -49v-31q0 -39 19 -56t60 -17q38 0 85 19zM233 577l-37 -28l-134 160l62 42zM398 577l-38 -28l-134 160l62 42z" />
    <glyph glyph-name="adieresis" unicode="&#xe4;" horiz-adv-x="549" 
d="M434 463.5q41 -35.5 41 -120.5v-343h-67l-10 81q-35 -36 -87.5 -63t-113.5 -27q-67 0 -106.5 35.5t-39.5 100.5v53q0 57 35.5 88.5t99.5 31.5h203v43q0 46 -21 65t-78 19q-72 0 -209 -13l-8 63q134 22 235 22q85 0 126 -35.5zM302 83q47 19 87 54v99l-188 -1
q-34 -1 -48.5 -18t-14.5 -49v-31q0 -39 19 -56t60 -17q38 0 85 19zM222 666v-55q0 -24 -23 -24h-29q-23 0 -23 24v55q0 24 23 24h29q23 0 23 -24zM393.5 683.5q6.5 -6.5 6.5 -17.5v-55q0 -24 -24 -24h-28q-24 0 -24 24v55q0 24 24 24h28q11 0 17.5 -6.5z" />
    <glyph glyph-name="uni1EA1" unicode="&#x1ea1;" horiz-adv-x="549" 
d="M434 463.5q41 -35.5 41 -120.5v-343h-67l-10 81q-35 -36 -87.5 -63t-113.5 -27q-67 0 -106.5 35.5t-39.5 100.5v53q0 57 35.5 88.5t99.5 31.5h203v43q0 46 -21 65t-78 19q-72 0 -209 -13l-8 63q134 22 235 22q85 0 126 -35.5zM302 83q47 19 87 54v99l-188 -1
q-34 -1 -48.5 -18t-14.5 -49v-31q0 -39 19 -56t60 -17q38 0 85 19zM304 -89v-57q0 -26 -26 -26h-28q-26 0 -26 26v57q0 25 26 25h28q26 0 26 -25z" />
    <glyph glyph-name="agrave" unicode="&#xe0;" horiz-adv-x="549" 
d="M434 463.5q41 -35.5 41 -120.5v-343h-67l-10 81q-35 -36 -87.5 -63t-113.5 -27q-67 0 -106.5 35.5t-39.5 100.5v53q0 57 35.5 88.5t99.5 31.5h203v43q0 46 -21 65t-78 19q-72 0 -209 -13l-8 63q134 22 235 22q85 0 126 -35.5zM302 83q47 19 87 54v99l-188 -1
q-34 -1 -48.5 -18t-14.5 -49v-31q0 -39 19 -56t60 -17q38 0 85 19zM330 587l-29 -39l-192 120l49 65z" />
    <glyph glyph-name="uni1EA3" unicode="&#x1ea3;" horiz-adv-x="549" 
d="M434 463.5q41 -35.5 41 -120.5v-343h-67l-10 81q-35 -36 -87.5 -63t-113.5 -27q-67 0 -106.5 35.5t-39.5 100.5v53q0 57 35.5 88.5t99.5 31.5h203v43q0 46 -21 65t-78 19q-72 0 -209 -13l-8 63q134 22 235 22q85 0 126 -35.5zM302 83q47 19 87 54v99l-188 -1
q-34 -1 -48.5 -18t-14.5 -49v-31q0 -39 19 -56t60 -17q38 0 85 19zM308 670q0 20 -12.5 31t-34.5 11q-14 0 -32 -5l-10 48q29 8 51 8q43 0 69.5 -23.5t26.5 -66.5q0 -42 -28 -72.5t-77 -40.5l-10 43q57 16 57 67z" />
    <glyph glyph-name="uni0203" unicode="&#x203;" horiz-adv-x="549" 
d="M434 463.5q41 -35.5 41 -120.5v-343h-67l-10 81q-35 -36 -87.5 -63t-113.5 -27q-67 0 -106.5 35.5t-39.5 100.5v53q0 57 35.5 88.5t99.5 31.5h203v43q0 46 -21 65t-78 19q-72 0 -209 -13l-8 63q134 22 235 22q85 0 126 -35.5zM302 83q47 19 87 54v99l-188 -1
q-34 -1 -48.5 -18t-14.5 -49v-31q0 -39 19 -56t60 -17q38 0 85 19zM122 579q-4 59 37 95.5t112 36.5q72 0 113.5 -36.5t37.5 -95.5l-44 -7q0 36 -27.5 55.5t-79.5 19.5q-50 0 -78 -19.5t-28 -55.5z" />
    <glyph glyph-name="amacron" unicode="&#x101;" horiz-adv-x="549" 
d="M434 463.5q41 -35.5 41 -120.5v-343h-67l-10 81q-35 -36 -87.5 -63t-113.5 -27q-67 0 -106.5 35.5t-39.5 100.5v53q0 57 35.5 88.5t99.5 31.5h203v43q0 46 -21 65t-78 19q-72 0 -209 -13l-8 63q134 22 235 22q85 0 126 -35.5zM302 83q47 19 87 54v99l-188 -1
q-34 -1 -48.5 -18t-14.5 -49v-31q0 -39 19 -56t60 -17q38 0 85 19zM413 605h-278v63h278v-63z" />
    <glyph glyph-name="aogonek" unicode="&#x105;" horiz-adv-x="549" 
d="M487 -193q-49 -20 -84 -20q-34 0 -52 17t-18 45q0 16 6 34q19 58 93 117h-24l-10 81q-35 -36 -87.5 -63t-113.5 -27q-67 0 -106.5 35.5t-39.5 100.5v53q0 57 35.5 88.5t99.5 31.5h203v43q0 46 -21 65t-78 19q-72 0 -209 -13l-8 63q134 22 235 22q85 0 126 -35.5
t41 -120.5v-343h-2q-26 -30 -44 -56.5t-30 -57.5q-6 -14 -6 -24q0 -28 38 -28q22 0 46 8zM302 83q47 19 87 54v99l-188 -1q-34 -1 -48.5 -18t-14.5 -49v-31q0 -39 19 -56t60 -17q38 0 85 19z" />
    <glyph glyph-name="aring" unicode="&#xe5;" horiz-adv-x="549" 
d="M434 463.5q41 -35.5 41 -120.5v-343h-67l-10 81q-35 -36 -87.5 -63t-113.5 -27q-67 0 -106.5 35.5t-39.5 100.5v53q0 57 35.5 88.5t99.5 31.5h203v43q0 46 -21 65t-78 19q-72 0 -209 -13l-8 63q134 22 235 22q85 0 126 -35.5zM302 83q47 19 87 54v99l-188 -1
q-34 -1 -48.5 -18t-14.5 -49v-31q0 -39 19 -56t60 -17q38 0 85 19zM348.5 720.5q31.5 -30.5 31.5 -74.5t-31.5 -74.5t-75.5 -30.5q-45 0 -76 30t-31 75q0 44 31.5 74.5t75.5 30.5t75.5 -30.5zM230.5 690q-16.5 -17 -16.5 -44q0 -28 17 -44.5t42 -16.5q26 0 43 16.5t17 44.5
q0 27 -17 44t-43 17t-42.5 -17z" />
    <glyph glyph-name="aringacute" unicode="&#x1fb;" horiz-adv-x="549" 
d="M218 754l-26 37l147 118l45 -63zM198 558q-31 30 -31 75q0 44 31.5 74.5t75.5 30.5t75.5 -30.5t31.5 -74.5t-31.5 -74.5t-75.5 -30.5q-45 0 -76 30zM231 677.5q-17 -16.5 -17 -44.5t17 -44.5t43 -16.5q25 0 42 16.5t17 44.5q0 27 -17 44t-42 17q-26 0 -43 -16.5z
M434 463.5q41 -35.5 41 -120.5v-343h-67l-10 81q-35 -36 -87.5 -63t-113.5 -27q-67 0 -106.5 35.5t-39.5 100.5v53q0 57 35.5 88.5t99.5 31.5h203v43q0 46 -21 65t-78 19q-72 0 -209 -13l-8 63q134 22 235 22q85 0 126 -35.5zM302 83q47 19 87 54v99l-188 -1
q-34 -1 -48.5 -18t-14.5 -49v-31q0 -39 19 -56t60 -17q38 0 85 19z" />
    <glyph glyph-name="atilde" unicode="&#xe3;" horiz-adv-x="549" 
d="M434 463.5q41 -35.5 41 -120.5v-343h-67l-10 81q-35 -36 -87.5 -63t-113.5 -27q-67 0 -106.5 35.5t-39.5 100.5v53q0 57 35.5 88.5t99.5 31.5h203v43q0 46 -21 65t-78 19q-72 0 -209 -13l-8 63q134 22 235 22q85 0 126 -35.5zM302 83q47 19 87 54v99l-188 -1
q-34 -1 -48.5 -18t-14.5 -49v-31q0 -39 19 -56t60 -17q38 0 85 19zM233 690q18 -7 40 -20q23 -12 37 -18t32 -8q4 -1 12 -1q20 0 28.5 12.5t8.5 38.5h40q1 -7 1 -21q0 -46 -21.5 -70t-57.5 -21q-25 2 -45 10.5t-44 22.5q-22 12 -38 18.5t-33 6.5q-22 0 -30 -13t-8 -42h-40
q-1 7 -1 21q0 48 22.5 72t56.5 21q22 -2 40 -9z" />
    <glyph glyph-name="ae" unicode="&#xe6;" horiz-adv-x="871" 
d="M802 72l8 -57q-31 -13 -86 -20t-103 -7q-84 0 -134 25t-74 81q-33 -39 -91 -71t-125 -32t-106.5 35.5t-39.5 100.5v53q0 57 35.5 88.5t99.5 31.5h203v43q0 46 -21 65t-78 19q-72 0 -209 -13l-8 63q134 22 235 22q102 0 139 -50q26 26 66.5 38t98.5 12q109 0 159 -39.5
t51 -119.5q0 -69 -31 -103.5t-96 -34.5h-216q4 -57 21 -88t48 -42.5t84 -11.5q83 0 170 12zM535 412.5q-29 -14.5 -42.5 -48.5t-15.5 -96h196q63 0 63 68q0 49 -27 70t-93 21q-52 0 -81 -14.5zM307 84.5q50 20.5 91 58.5q-9 41 -9 93l-188 -1q-34 -1 -48.5 -18t-14.5 -49
v-31q0 -39 19 -56t60 -17q40 0 90 20.5z" />
    <glyph glyph-name="aeacute" unicode="&#x1fd;" horiz-adv-x="871" 
d="M802 72l8 -57q-31 -13 -86 -20t-103 -7q-84 0 -134 25t-74 81q-33 -39 -91 -71t-125 -32t-106.5 35.5t-39.5 100.5v53q0 57 35.5 88.5t99.5 31.5h203v43q0 46 -21 65t-78 19q-72 0 -209 -13l-8 63q134 22 235 22q102 0 139 -50q26 26 66.5 38t98.5 12q109 0 159 -39.5
t51 -119.5q0 -69 -31 -103.5t-96 -34.5h-216q4 -57 21 -88t48 -42.5t84 -11.5q83 0 170 12zM535 412.5q-29 -14.5 -42.5 -48.5t-15.5 -96h196q63 0 63 68q0 49 -27 70t-93 21q-52 0 -81 -14.5zM307 84.5q50 20.5 91 58.5q-9 41 -9 93l-188 -1q-34 -1 -48.5 -18t-14.5 -49
v-31q0 -39 19 -56t60 -17q40 0 90 20.5zM608 668l-191 -120l-30 39l173 146z" />
    <glyph glyph-name="b" unicode="b" horiz-adv-x="570" 
d="M473.5 439.5q42.5 -59.5 42.5 -194.5q0 -87 -20 -143t-67 -85t-129 -29q-54 0 -115.5 9t-108.5 26v677h85v-182q0 -69 -9 -108q87 89 188 89q91 0 133.5 -59.5zM374 78.5q28 17.5 40.5 57t13.5 109.5q-1 70 -11 108t-35 55t-72 17q-35 0 -68.5 -17.5t-81.5 -55.5l1 -276
q69 -18 137 -16q48 1 76 18.5z" />
    <glyph glyph-name="c" unicode="c" horiz-adv-x="489" 
d="M367.5 493.5q42.5 -5.5 75.5 -17.5l-11 -55q-66 6 -132 6q-60 0 -93 -16.5t-48 -55.5t-15 -111t15 -111.5t48 -56t93 -16.5q80 0 143 10l9 -57q-72 -25 -167 -25q-85 0 -135 25t-73 80.5t-23 150.5t23 150.5t73 80t136 24.5q39 0 81.5 -5.5z" />
    <glyph glyph-name="cacute" unicode="&#x107;" horiz-adv-x="489" 
d="M367.5 493.5q42.5 -5.5 75.5 -17.5l-11 -55q-66 6 -132 6q-60 0 -93 -16.5t-48 -55.5t-15 -111t15 -111.5t48 -56t93 -16.5q80 0 143 10l9 -57q-72 -25 -167 -25q-85 0 -135 25t-73 80.5t-23 150.5t23 150.5t73 80t136 24.5q39 0 81.5 -5.5zM417 675l-192 -120l-29 39
l172 147z" />
    <glyph glyph-name="ccaron" unicode="&#x10d;" horiz-adv-x="489" 
d="M367.5 493.5q42.5 -5.5 75.5 -17.5l-11 -55q-66 6 -132 6q-60 0 -93 -16.5t-48 -55.5t-15 -111t15 -111.5t48 -56t93 -16.5q80 0 143 10l9 -57q-72 -25 -167 -25q-85 0 -135 25t-73 80.5t-23 150.5t23 150.5t73 80t136 24.5q39 0 81.5 -5.5zM432 695l-143 -128h-40
l-143 128l29 36l130 -87h8l129 87z" />
    <glyph glyph-name="ccedilla" unicode="&#xe7;" horiz-adv-x="489" 
d="M367.5 493.5q42.5 -5.5 75.5 -17.5l-11 -55q-66 6 -132 6q-60 0 -93 -16.5t-48 -55.5t-15 -111t15 -111.5t48 -56t93 -16.5q80 0 143 10l9 -57q-72 -25 -167 -25q-85 0 -135 25t-73 80.5t-23 150.5t23 150.5t73 80t136 24.5q39 0 81.5 -5.5zM270 -53q39 0 57.5 -14
t18.5 -48q0 -59 -38 -93.5t-100 -34.5q-9 0 -29 2l13 45q41 -1 67 19t26 53q0 16 -12 22t-47 7l9 40q26 2 35 2z" />
    <glyph glyph-name="uni1E09" unicode="&#x1e09;" horiz-adv-x="489" 
d="M367.5 493.5q42.5 -5.5 75.5 -17.5l-11 -55q-66 6 -132 6q-60 0 -93 -16.5t-48 -55.5t-15 -111t15 -111.5t48 -56t93 -16.5q80 0 143 10l9 -57q-72 -25 -167 -25q-85 0 -135 25t-73 80.5t-23 150.5t23 150.5t73 80t136 24.5q39 0 81.5 -5.5zM270 -53q40 0 58.5 -14.5
t18.5 -49.5q0 -58 -38.5 -92t-99.5 -34q-10 0 -30 2l14 45q41 -1 66.5 19t25.5 53q0 16 -12 22t-47 7l9 40q26 2 35 2zM423 669l-191 -120l-30 39l173 146z" />
    <glyph glyph-name="ccircumflex" unicode="&#x109;" horiz-adv-x="489" 
d="M367.5 493.5q42.5 -5.5 75.5 -17.5l-11 -55q-66 6 -132 6q-60 0 -93 -16.5t-48 -55.5t-15 -111t15 -111.5t48 -56t93 -16.5q80 0 143 10l9 -57q-72 -25 -167 -25q-85 0 -135 25t-73 80.5t-23 150.5t23 150.5t73 80t136 24.5q39 0 81.5 -5.5zM431 590l-30 -37l-129 97h-8
l-130 -97l-29 37l132 127h61z" />
    <glyph glyph-name="cdotaccent" unicode="&#x10b;" horiz-adv-x="489" 
d="M367.5 493.5q42.5 -5.5 75.5 -17.5l-11 -55q-66 6 -132 6q-60 0 -93 -16.5t-48 -55.5t-15 -111t15 -111.5t48 -56t93 -16.5q80 0 143 10l9 -57q-72 -25 -167 -25q-85 0 -135 25t-73 80.5t-23 150.5t23 150.5t73 80t136 24.5q39 0 81.5 -5.5zM308 662v-57q0 -26 -26 -26
h-27q-26 0 -26 26v57q0 25 26 25h27q26 0 26 -25z" />
    <glyph glyph-name="d" unicode="d" horiz-adv-x="573" 
d="M494 700v-700h-66l-8 70q-94 -82 -193 -82q-90 0 -130.5 63.5t-40.5 193.5q0 94 19.5 149.5t60 80t104.5 24.5q91 0 173 -44q-4 41 -4 95v150h85zM154.5 134.5q11.5 -39.5 35.5 -56t65 -16.5q38 0 69 14.5t85 52.5v269q-51 14 -82.5 20.5t-66.5 6.5q-44 0 -69 -15
t-36.5 -53.5t-11.5 -110.5t11.5 -111.5z" />
    <glyph glyph-name="eth" unicode="&#xf0;" horiz-adv-x="559" 
d="M495 283q0 -96 -18 -160t-66.5 -100t-135.5 -36q-113 0 -166.5 55.5t-53.5 176.5q0 114 47.5 171.5t157.5 57.5q79 0 137 -36q-21 108 -80 164l-78 -60l-31 38l67 52q-62 34 -156 30l10 62l25 1q104 0 181 -47l78 60l30 -39l-67 -51q119 -106 119 -339zM360 84.5
q28 25.5 37.5 73t9.5 129.5q0 36 -3 66q-61 24 -131 24t-99 -39.5t-29 -118.5q0 -87 31 -123.5t100 -36.5q56 0 84 25.5z" />
    <glyph glyph-name="dcaron" unicode="&#x10f;" horiz-adv-x="573" 
d="M494 700v-700h-66l-8 70q-94 -82 -193 -82q-90 0 -130.5 63.5t-40.5 193.5q0 94 19.5 149.5t60 80t104.5 24.5q91 0 173 -44q-4 41 -4 95v150h85zM154.5 134.5q11.5 -39.5 35.5 -56t65 -16.5q38 0 69 14.5t85 52.5v269q-51 14 -82.5 20.5t-66.5 6.5q-44 0 -69 -15
t-36.5 -53.5t-11.5 -110.5t11.5 -111.5zM620 700.5q6 -5.5 6 -20.5v-54q1 -63 -31 -128l-37 9q9 53 9 101q-21 0 -21 22v50q0 14 7 20t23 6h22q16 0 22 -5.5z" />
    <glyph glyph-name="dcroat" unicode="&#x111;" horiz-adv-x="568" 
d="M562 573h-68v-573h-66l-8 70q-94 -82 -193 -82q-90 0 -130.5 63.5t-40.5 193.5q0 94 19.5 149.5t60 80t104.5 24.5q91 0 173 -44q-4 41 -4 95v23h-153v49h153v78h85v-78h68v-49zM154.5 134.5q11.5 -39.5 35.5 -56t65 -16.5q38 0 69 14.5t85 52.5v269q-51 14 -82.5 20.5
t-66.5 6.5q-44 0 -69 -15t-36.5 -53.5t-11.5 -110.5t11.5 -111.5z" />
    <glyph glyph-name="uni1E0D" unicode="&#x1e0d;" horiz-adv-x="573" 
d="M494 700v-700h-66l-8 70q-94 -82 -193 -82q-90 0 -130.5 63.5t-40.5 193.5q0 94 19.5 149.5t60 80t104.5 24.5q91 0 173 -44q-4 41 -4 95v150h85zM154.5 134.5q11.5 -39.5 35.5 -56t65 -16.5q38 0 69 14.5t85 52.5v269q-51 14 -82.5 20.5t-66.5 6.5q-44 0 -69 -15
t-36.5 -53.5t-11.5 -110.5t11.5 -111.5zM334 -89v-57q0 -26 -26 -26h-27q-26 0 -26 26v57q0 25 26 25h27q26 0 26 -25z" />
    <glyph glyph-name="uni1E0F" unicode="&#x1e0f;" horiz-adv-x="573" 
d="M494 700v-700h-66l-8 70q-94 -82 -193 -82q-90 0 -130.5 63.5t-40.5 193.5q0 94 19.5 149.5t60 80t104.5 24.5q91 0 173 -44q-4 41 -4 95v150h85zM154.5 134.5q11.5 -39.5 35.5 -56t65 -16.5q38 0 69 14.5t85 52.5v269q-51 14 -82.5 20.5t-66.5 6.5q-44 0 -69 -15
t-36.5 -53.5t-11.5 -110.5t11.5 -111.5zM433 -153h-278v63h278v-63z" />
    <glyph glyph-name="uni01C6" unicode="&#x1c6;" horiz-adv-x="1083" 
d="M494 700v-700h-66l-8 70q-94 -82 -193 -82q-90 0 -130.5 63.5t-40.5 193.5q0 94 19.5 149.5t60 80t104.5 24.5q91 0 173 -44q-4 41 -4 95v150h85zM154.5 134.5q11.5 -39.5 35.5 -56t65 -16.5q38 0 69 14.5t85 52.5v269q-51 14 -82.5 20.5t-66.5 6.5q-44 0 -69 -15
t-36.5 -53.5t-11.5 -110.5t11.5 -111.5zM1034 69v-69h-412v69l313 348h-310v70h406v-70l-313 -348h316zM992 695l-143 -128h-40l-143 128l29 36l130 -87h8l129 87z" />
    <glyph glyph-name="e" unicode="e" horiz-adv-x="537" 
d="M467 72l9 -57q-32 -13 -86.5 -20t-102.5 -7q-85 0 -135.5 25.5t-74 81.5t-23.5 150q0 95 23 150.5t71.5 79.5t129.5 24q109 0 159 -39.5t50 -119.5q1 -67 -28 -102.5t-88 -35.5h-226q4 -57 21 -88t48 -42.5t84 -11.5q83 0 169 12zM201 412.5q-29 -14.5 -42.5 -48.5
t-15.5 -96h206q53 0 53 72q-1 47 -28 67t-92 20q-52 0 -81 -14.5z" />
    <glyph glyph-name="eacute" unicode="&#xe9;" horiz-adv-x="537" 
d="M467 72l9 -57q-32 -13 -86.5 -20t-102.5 -7q-85 0 -135.5 25.5t-74 81.5t-23.5 150q0 95 23 150.5t71.5 79.5t129.5 24q109 0 159 -39.5t50 -119.5q1 -67 -28 -102.5t-88 -35.5h-226q4 -57 21 -88t48 -42.5t84 -11.5q83 0 169 12zM201 412.5q-29 -14.5 -42.5 -48.5
t-15.5 -96h206q53 0 53 72q-1 47 -28 67t-92 20q-52 0 -81 -14.5zM431 675l-192 -120l-29 39l172 147z" />
    <glyph glyph-name="ebreve" unicode="&#x115;" horiz-adv-x="537" 
d="M467 72l9 -57q-32 -13 -86.5 -20t-102.5 -7q-85 0 -135.5 25.5t-74 81.5t-23.5 150q0 95 23 150.5t71.5 79.5t129.5 24q109 0 159 -39.5t50 -119.5q1 -67 -28 -102.5t-88 -35.5h-226q4 -57 21 -88t48 -42.5t84 -11.5q83 0 169 12zM201 412.5q-29 -14.5 -42.5 -48.5
t-15.5 -96h206q53 0 53 72q-1 47 -28 67t-92 20q-52 0 -81 -14.5zM431 697q4 -59 -37 -95.5t-113 -36.5t-113 36.5t-37 95.5l44 6q-1 -35 27 -55t80 -20q49 0 77 20t28 55z" />
    <glyph glyph-name="ecaron" unicode="&#x11b;" horiz-adv-x="537" 
d="M467 72l9 -57q-32 -13 -86.5 -20t-102.5 -7q-85 0 -135.5 25.5t-74 81.5t-23.5 150q0 95 23 150.5t71.5 79.5t129.5 24q109 0 159 -39.5t50 -119.5q1 -67 -28 -102.5t-88 -35.5h-226q4 -57 21 -88t48 -42.5t84 -11.5q83 0 169 12zM201 412.5q-29 -14.5 -42.5 -48.5
t-15.5 -96h206q53 0 53 72q-1 47 -28 67t-92 20q-52 0 -81 -14.5zM446 694l-143 -128h-40l-143 128l29 36l130 -87h8l129 87z" />
    <glyph glyph-name="uni1E1D" unicode="&#x1e1d;" horiz-adv-x="537" 
d="M430 697q5 -59 -35.5 -95.5t-112.5 -36.5q-73 0 -114 36.5t-37 95.5l43 6q0 -36 28 -55.5t80 -19.5q49 0 77 20t28 55zM467 72l9 -57q-32 -13 -86.5 -20t-102.5 -7q-85 0 -135.5 25.5t-74 81.5t-23.5 150q0 95 23 150.5t71.5 79.5t129.5 24q109 0 159 -39.5t50 -119.5
q1 -67 -28 -102.5t-88 -35.5h-226q4 -57 21 -88t48 -42.5t84 -11.5q83 0 169 12zM201 412.5q-29 -14.5 -42.5 -48.5t-15.5 -96h206q53 0 53 72q-1 47 -28 67t-92 20q-52 0 -81 -14.5zM262 -50q40 0 58.5 -14.5t18.5 -49.5q0 -58 -38.5 -92t-99.5 -34q-10 0 -30 2l14 45
q41 -1 66.5 19t25.5 53q0 16 -12 22t-47 7l9 40q26 2 35 2z" />
    <glyph glyph-name="ecircumflex" unicode="&#xea;" horiz-adv-x="537" 
d="M467 72l9 -57q-32 -13 -86.5 -20t-102.5 -7q-85 0 -135.5 25.5t-74 81.5t-23.5 150q0 95 23 150.5t71.5 79.5t129.5 24q109 0 159 -39.5t50 -119.5q1 -67 -28 -102.5t-88 -35.5h-226q4 -57 21 -88t48 -42.5t84 -11.5q83 0 169 12zM201 412.5q-29 -14.5 -42.5 -48.5
t-15.5 -96h206q53 0 53 72q-1 47 -28 67t-92 20q-52 0 -81 -14.5zM444 589l-30 -37l-129 97h-8l-130 -97l-29 37l132 127h61z" />
    <glyph glyph-name="uni1EBF" unicode="&#x1ebf;" horiz-adv-x="537" 
d="M467 72l9 -57q-32 -13 -86.5 -20t-102.5 -7q-85 0 -135.5 25.5t-74 81.5t-23.5 150q0 95 23 150.5t71.5 79.5t129.5 24q109 0 159 -39.5t50 -119.5q1 -67 -28 -102.5t-88 -35.5h-226q4 -57 21 -88t48 -42.5t84 -11.5q83 0 169 12zM201 412.5q-29 -14.5 -42.5 -48.5
t-15.5 -96h206q53 0 53 72q-1 47 -28 67t-92 20q-52 0 -81 -14.5zM536 759l-128 -100l-32 32l104 122zM347 679l88 -86l-58 -9l-94 60l-38 -25l-94 -57l8 62l97 83z" />
    <glyph glyph-name="uni1EC7" unicode="&#x1ec7;" horiz-adv-x="537" 
d="M445 589l-30 -37l-130 97h-8l-129 -97l-29 37l131 127h62zM467 72l9 -57q-32 -13 -86.5 -20t-102.5 -7q-85 0 -135.5 25.5t-74 81.5t-23.5 150q0 95 23 150.5t71.5 79.5t129.5 24q109 0 159 -39.5t50 -119.5q1 -67 -28 -102.5t-88 -35.5h-226q4 -57 21 -88t48 -42.5
t84 -11.5q83 0 169 12zM201 412.5q-29 -14.5 -42.5 -48.5t-15.5 -96h206q53 0 53 72q-1 47 -28 67t-92 20q-52 0 -81 -14.5zM310 -86v-57q0 -26 -26 -26h-27q-26 0 -26 26v57q0 25 26 25h27q26 0 26 -25z" />
    <glyph glyph-name="uni1EC1" unicode="&#x1ec1;" horiz-adv-x="537" 
d="M467 72l9 -57q-32 -13 -86.5 -20t-102.5 -7q-85 0 -135.5 25.5t-74 81.5t-23.5 150q0 95 23 150.5t71.5 79.5t129.5 24q109 0 159 -39.5t50 -119.5q1 -67 -28 -102.5t-88 -35.5h-226q4 -57 21 -88t48 -42.5t84 -11.5q83 0 169 12zM201 412.5q-29 -14.5 -42.5 -48.5
t-15.5 -96h206q53 0 53 72q-1 47 -28 67t-92 20q-52 0 -81 -14.5zM187 691l-32 -32l-127 100l55 54zM404 624l8 -62l-94 57l-38 25l-94 -60l-58 9l88 86l92 28z" />
    <glyph glyph-name="uni1EC3" unicode="&#x1ec3;" horiz-adv-x="537" 
d="M467 72l9 -57q-32 -13 -86.5 -20t-102.5 -7q-85 0 -135.5 25.5t-74 81.5t-23.5 150q0 95 23 150.5t71.5 79.5t129.5 24q109 0 159 -39.5t50 -119.5q1 -67 -28 -102.5t-88 -35.5h-226q4 -57 21 -88t48 -42.5t84 -11.5q83 0 169 12zM201 412.5q-29 -14.5 -42.5 -48.5
t-15.5 -96h206q53 0 53 72q-1 47 -28 67t-92 20q-52 0 -81 -14.5zM424 730.5q12 14.5 12 35.5q0 27 -33 27q-18 0 -38 -7l-9 44q33 10 56 10q36 0 56.5 -18t20.5 -54q0 -37 -24.5 -63.5t-70.5 -35.5l-9 38q27 9 39 23.5zM312 707l126 -111l-28 -37l-124 85h-8l-124 -85
l-30 37l127 111h61z" />
    <glyph glyph-name="uni1EC5" unicode="&#x1ec5;" horiz-adv-x="537" 
d="M467 72l9 -57q-32 -13 -86.5 -20t-102.5 -7q-85 0 -135.5 25.5t-74 81.5t-23.5 150q0 95 23 150.5t71.5 79.5t129.5 24q109 0 159 -39.5t50 -119.5q1 -67 -28 -102.5t-88 -35.5h-226q4 -57 21 -88t48 -42.5t84 -11.5q83 0 169 12zM201 412.5q-29 -14.5 -42.5 -48.5
t-15.5 -96h206q53 0 53 72q-1 47 -28 67t-92 20q-52 0 -81 -14.5zM244.5 829q16.5 -7 37.5 -21q20 -13 35.5 -19.5t36.5 -6.5q20 0 28.5 12t8.5 37h37q1 -7 1 -21q0 -40 -18.5 -62.5t-49.5 -22.5q-26 0 -44.5 7.5t-41.5 22.5q-20 13 -33.5 19t-30.5 6q-20 0 -28 -12.5
t-8 -40.5h-37q-1 8 -1 22q0 42 19 64.5t49 22.5q23 0 39.5 -7zM312 707l126 -111l-28 -37l-124 85h-8l-124 -85l-30 37l127 111h61z" />
    <glyph glyph-name="uni0205" unicode="&#x205;" horiz-adv-x="537" 
d="M467 72l9 -57q-32 -13 -86.5 -20t-102.5 -7q-85 0 -135.5 25.5t-74 81.5t-23.5 150q0 95 23 150.5t71.5 79.5t129.5 24q109 0 159 -39.5t50 -119.5q1 -67 -28 -102.5t-88 -35.5h-226q4 -57 21 -88t48 -42.5t84 -11.5q83 0 169 12zM201 412.5q-29 -14.5 -42.5 -48.5
t-15.5 -96h206q53 0 53 72q-1 47 -28 67t-92 20q-52 0 -81 -14.5zM241 577l-37 -28l-134 160l62 42zM406 577l-38 -28l-134 160l62 42z" />
    <glyph glyph-name="edieresis" unicode="&#xeb;" horiz-adv-x="537" 
d="M467 72l9 -57q-32 -13 -86.5 -20t-102.5 -7q-85 0 -135.5 25.5t-74 81.5t-23.5 150q0 95 23 150.5t71.5 79.5t129.5 24q109 0 159 -39.5t50 -119.5q1 -67 -28 -102.5t-88 -35.5h-226q4 -57 21 -88t48 -42.5t84 -11.5q83 0 169 12zM201 412.5q-29 -14.5 -42.5 -48.5
t-15.5 -96h206q53 0 53 72q-1 47 -28 67t-92 20q-52 0 -81 -14.5zM230 666v-55q0 -24 -23 -24h-29q-23 0 -23 24v55q0 24 23 24h29q23 0 23 -24zM401.5 683.5q6.5 -6.5 6.5 -17.5v-55q0 -24 -24 -24h-28q-24 0 -24 24v55q0 24 24 24h28q11 0 17.5 -6.5z" />
    <glyph glyph-name="edotaccent" unicode="&#x117;" horiz-adv-x="537" 
d="M467 72l9 -57q-32 -13 -86.5 -20t-102.5 -7q-85 0 -135.5 25.5t-74 81.5t-23.5 150q0 95 23 150.5t71.5 79.5t129.5 24q109 0 159 -39.5t50 -119.5q1 -67 -28 -102.5t-88 -35.5h-226q4 -57 21 -88t48 -42.5t84 -11.5q83 0 169 12zM201 412.5q-29 -14.5 -42.5 -48.5
t-15.5 -96h206q53 0 53 72q-1 47 -28 67t-92 20q-52 0 -81 -14.5zM321 661v-57q0 -26 -26 -26h-27q-26 0 -26 26v57q0 25 26 25h27q26 0 26 -25z" />
    <glyph glyph-name="uni1EB9" unicode="&#x1eb9;" horiz-adv-x="537" 
d="M467 72l9 -57q-32 -13 -86.5 -20t-102.5 -7q-85 0 -135.5 25.5t-74 81.5t-23.5 150q0 95 23 150.5t71.5 79.5t129.5 24q109 0 159 -39.5t50 -119.5q1 -67 -28 -102.5t-88 -35.5h-226q4 -57 21 -88t48 -42.5t84 -11.5q83 0 169 12zM201 412.5q-29 -14.5 -42.5 -48.5
t-15.5 -96h206q53 0 53 72q-1 47 -28 67t-92 20q-52 0 -81 -14.5zM311 -86v-57q0 -26 -26 -26h-28q-26 0 -26 26v57q0 25 26 25h28q26 0 26 -25z" />
    <glyph glyph-name="egrave" unicode="&#xe8;" horiz-adv-x="537" 
d="M467 72l9 -57q-32 -13 -86.5 -20t-102.5 -7q-85 0 -135.5 25.5t-74 81.5t-23.5 150q0 95 23 150.5t71.5 79.5t129.5 24q109 0 159 -39.5t50 -119.5q1 -67 -28 -102.5t-88 -35.5h-226q4 -57 21 -88t48 -42.5t84 -11.5q83 0 169 12zM201 412.5q-29 -14.5 -42.5 -48.5
t-15.5 -96h206q53 0 53 72q-1 47 -28 67t-92 20q-52 0 -81 -14.5zM338 587l-29 -39l-192 120l49 65z" />
    <glyph glyph-name="uni1EBB" unicode="&#x1ebb;" horiz-adv-x="537" 
d="M467 72l9 -57q-32 -13 -86.5 -20t-102.5 -7q-85 0 -135.5 25.5t-74 81.5t-23.5 150q0 95 23 150.5t71.5 79.5t129.5 24q109 0 159 -39.5t50 -119.5q1 -67 -28 -102.5t-88 -35.5h-226q4 -57 21 -88t48 -42.5t84 -11.5q83 0 169 12zM201 412.5q-29 -14.5 -42.5 -48.5
t-15.5 -96h206q53 0 53 72q-1 47 -28 67t-92 20q-52 0 -81 -14.5zM316 670q0 20 -12.5 31t-34.5 11q-14 0 -32 -5l-10 48q29 8 51 8q43 0 69.5 -23.5t26.5 -66.5q0 -42 -28 -72.5t-77 -40.5l-10 43q57 16 57 67z" />
    <glyph glyph-name="uni0207" unicode="&#x207;" horiz-adv-x="537" 
d="M467 72l9 -57q-32 -13 -86.5 -20t-102.5 -7q-85 0 -135.5 25.5t-74 81.5t-23.5 150q0 95 23 150.5t71.5 79.5t129.5 24q109 0 159 -39.5t50 -119.5q1 -67 -28 -102.5t-88 -35.5h-226q4 -57 21 -88t48 -42.5t84 -11.5q83 0 169 12zM201 412.5q-29 -14.5 -42.5 -48.5
t-15.5 -96h206q53 0 53 72q-1 47 -28 67t-92 20q-52 0 -81 -14.5zM130 579q-4 59 37 95.5t112 36.5q72 0 113.5 -36.5t37.5 -95.5l-44 -7q0 36 -27.5 55.5t-79.5 19.5q-50 0 -78 -19.5t-28 -55.5z" />
    <glyph glyph-name="emacron" unicode="&#x113;" horiz-adv-x="537" 
d="M467 72l9 -57q-32 -13 -86.5 -20t-102.5 -7q-85 0 -135.5 25.5t-74 81.5t-23.5 150q0 95 23 150.5t71.5 79.5t129.5 24q109 0 159 -39.5t50 -119.5q1 -67 -28 -102.5t-88 -35.5h-226q4 -57 21 -88t48 -42.5t84 -11.5q83 0 169 12zM201 412.5q-29 -14.5 -42.5 -48.5
t-15.5 -96h206q53 0 53 72q-1 47 -28 67t-92 20q-52 0 -81 -14.5zM420 605h-278v63h278v-63z" />
    <glyph glyph-name="uni1E17" unicode="&#x1e17;" horiz-adv-x="537" 
d="M467 72l9 -57q-32 -13 -86.5 -20t-102.5 -7q-85 0 -135.5 25.5t-74 81.5t-23.5 150q0 95 23 150.5t71.5 79.5t129.5 24q109 0 159 -39.5t50 -119.5q1 -67 -28 -102.5t-88 -35.5h-226q4 -57 21 -88t48 -42.5t84 -11.5q83 0 169 12zM201 412.5q-29 -14.5 -42.5 -48.5
t-15.5 -96h206q53 0 53 72q-1 47 -28 67t-92 20q-52 0 -81 -14.5zM378 774l-133 -90l-30 34l112 115zM420 591h-278v63h278v-63z" />
    <glyph glyph-name="uni1E15" unicode="&#x1e15;" horiz-adv-x="537" 
d="M467 72l9 -57q-32 -13 -86.5 -20t-102.5 -7q-85 0 -135.5 25.5t-74 81.5t-23.5 150q0 95 23 150.5t71.5 79.5t129.5 24q109 0 159 -39.5t50 -119.5q1 -67 -28 -102.5t-88 -35.5h-226q4 -57 21 -88t48 -42.5t84 -11.5q83 0 169 12zM201 412.5q-29 -14.5 -42.5 -48.5
t-15.5 -96h206q53 0 53 72q-1 47 -28 67t-92 20q-52 0 -81 -14.5zM347 718l-30 -34l-133 90l51 59zM420 654v-63h-278v63h278z" />
    <glyph glyph-name="eogonek" unicode="&#x119;" horiz-adv-x="537" 
d="M490 -177q-49 -20 -84 -20q-34 0 -52 17t-18 45q0 16 6 34q15 48 73 100q-59 -11 -128 -11q-85 0 -135.5 25.5t-74 81.5t-23.5 150q0 95 23 150.5t71.5 79.5t129.5 24q109 0 159 -39.5t50 -119.5q1 -67 -28 -102.5t-88 -35.5h-226q4 -57 21 -88t48 -42.5t84 -11.5
q83 0 169 12l9 -56v-1l-0.5 -0.5l-0.5 -0.5q-52 -57 -73 -112q-6 -14 -6 -24q0 -28 38 -28q22 0 46 8zM201 412.5q-29 -14.5 -42.5 -48.5t-15.5 -96h206q53 0 53 72q-1 47 -28 67t-92 20q-52 0 -81 -14.5z" />
    <glyph glyph-name="uni1EBD" unicode="&#x1ebd;" horiz-adv-x="537" 
d="M467 72l9 -57q-32 -13 -86.5 -20t-102.5 -7q-85 0 -135.5 25.5t-74 81.5t-23.5 150q0 95 23 150.5t71.5 79.5t129.5 24q109 0 159 -39.5t50 -119.5q1 -67 -28 -102.5t-88 -35.5h-226q4 -57 21 -88t48 -42.5t84 -11.5q83 0 169 12zM201 412.5q-29 -14.5 -42.5 -48.5
t-15.5 -96h206q53 0 53 72q-1 47 -28 67t-92 20q-52 0 -81 -14.5zM241 690q18 -7 40 -20q23 -12 37 -18t32 -8q4 -1 12 -1q20 0 28.5 12.5t8.5 38.5h40q1 -7 1 -21q0 -46 -21.5 -70t-57.5 -21q-25 2 -45 10.5t-44 22.5q-22 12 -38 18.5t-33 6.5q-22 0 -30 -13t-8 -42h-40
q-1 7 -1 21q0 48 22.5 72t56.5 21q22 -2 40 -9z" />
    <glyph glyph-name="uni0259" unicode="&#x259;" horiz-adv-x="537" 
d="M385.5 474q50.5 -25 74 -81t23.5 -151t-23 -150.5t-71.5 -79.5t-129.5 -24q-110 0 -159.5 40t-49.5 123q0 134 116 134h226q-4 57 -21 88t-48 42.5t-84 11.5q-83 0 -169 -12l-9 57q31 13 86 20t103 7q85 0 135.5 -25zM336 74q29 14 42.5 48t15.5 97h-206
q-30 0 -41.5 -19.5t-11.5 -52.5q1 -47 28 -67t92 -20q52 0 81 14z" />
    <glyph glyph-name="f" unicode="f" horiz-adv-x="380" 
d="M220.5 628.5q-19.5 -18.5 -19.5 -63.5v-78h156v-67h-156v-420h-85v420h-88v62l88 5v87q0 71 33 107t109 36q84 0 137 -7l-7 -63h-100q-48 0 -67.5 -18.5z" />
    <glyph glyph-name="g" unicode="g" horiz-adv-x="558" 
d="M531 440l-72 -6q20 -33 20 -90q0 -82 -47 -118.5t-162 -36.5q-62 0 -101 10q-13 -19 -13 -38q0 -18 11.5 -30t35.5 -16l182 -29q68 -10 95.5 -42.5t27.5 -94.5q0 -58 -22 -90.5t-71.5 -46.5t-138.5 -14t-140 14t-73 46t-22 88q0 43 18 69t62 49q-17 12 -26 31t-9 41
q0 24 10 45t28 34q-33 18 -47.5 49.5t-14.5 78.5q0 56 20 90t65.5 50t123.5 16q67 0 111 -12h154zM371 274.5q29 20.5 29 69.5t-28.5 69.5t-101.5 20.5q-72 0 -101 -20.5t-29 -69.5t29 -69.5t101 -20.5t101 20.5zM418.5 -9q-6.5 13 -24 19.5t-53.5 12.5l-166 23
q-27 -21 -39 -42t-12 -51q0 -35 13 -52.5t44.5 -24t93.5 -6.5q61 0 92.5 7t44.5 24.5t13 51.5q0 25 -6.5 38z" />
    <glyph glyph-name="gbreve" unicode="&#x11f;" horiz-adv-x="558" 
d="M531 440l-72 -6q20 -33 20 -90q0 -82 -47 -118.5t-162 -36.5q-62 0 -101 10q-13 -19 -13 -38q0 -18 11.5 -30t35.5 -16l182 -29q68 -10 95.5 -42.5t27.5 -94.5q0 -58 -22 -90.5t-71.5 -46.5t-138.5 -14t-140 14t-73 46t-22 88q0 43 18 69t62 49q-17 12 -26 31t-9 41
q0 24 10 45t28 34q-33 18 -47.5 49.5t-14.5 78.5q0 56 20 90t65.5 50t123.5 16q67 0 111 -12h154zM371 274.5q29 20.5 29 69.5t-28.5 69.5t-101.5 20.5q-72 0 -101 -20.5t-29 -69.5t29 -69.5t101 -20.5t101 20.5zM418.5 -9q-6.5 13 -24 19.5t-53.5 12.5l-166 23
q-27 -21 -39 -42t-12 -51q0 -35 13 -52.5t44.5 -24t93.5 -6.5q61 0 92.5 7t44.5 24.5t13 51.5q0 25 -6.5 38zM422 698q4 -59 -37 -95.5t-113 -36.5t-113 36.5t-37 95.5l44 6q-1 -35 27 -55t80 -20q49 0 77 20t28 55z" />
    <glyph glyph-name="gcaron" unicode="&#x1e7;" horiz-adv-x="558" 
d="M531 440l-72 -6q20 -33 20 -90q0 -82 -47 -118.5t-162 -36.5q-62 0 -101 10q-13 -19 -13 -38q0 -18 11.5 -30t35.5 -16l182 -29q68 -10 95.5 -42.5t27.5 -94.5q0 -58 -22 -90.5t-71.5 -46.5t-138.5 -14t-140 14t-73 46t-22 88q0 43 18 69t62 49q-17 12 -26 31t-9 41
q0 24 10 45t28 34q-33 18 -47.5 49.5t-14.5 78.5q0 56 20 90t65.5 50t123.5 16q67 0 111 -12h154zM371 274.5q29 20.5 29 69.5t-28.5 69.5t-101.5 20.5q-72 0 -101 -20.5t-29 -69.5t29 -69.5t101 -20.5t101 20.5zM418.5 -9q-6.5 13 -24 19.5t-53.5 12.5l-166 23
q-27 -21 -39 -42t-12 -51q0 -35 13 -52.5t44.5 -24t93.5 -6.5q61 0 92.5 7t44.5 24.5t13 51.5q0 25 -6.5 38zM437 695l-143 -128h-40l-143 128l29 36l130 -87h8l129 87z" />
    <glyph glyph-name="gcircumflex" unicode="&#x11d;" horiz-adv-x="558" 
d="M531 440l-72 -6q20 -33 20 -90q0 -82 -47 -118.5t-162 -36.5q-62 0 -101 10q-13 -19 -13 -38q0 -18 11.5 -30t35.5 -16l182 -29q68 -10 95.5 -42.5t27.5 -94.5q0 -58 -22 -90.5t-71.5 -46.5t-138.5 -14t-140 14t-73 46t-22 88q0 43 18 69t62 49q-17 12 -26 31t-9 41
q0 24 10 45t28 34q-33 18 -47.5 49.5t-14.5 78.5q0 56 20 90t65.5 50t123.5 16q67 0 111 -12h154zM371 274.5q29 20.5 29 69.5t-28.5 69.5t-101.5 20.5q-72 0 -101 -20.5t-29 -69.5t29 -69.5t101 -20.5t101 20.5zM418.5 -9q-6.5 13 -24 19.5t-53.5 12.5l-166 23
q-27 -21 -39 -42t-12 -51q0 -35 13 -52.5t44.5 -24t93.5 -6.5q61 0 92.5 7t44.5 24.5t13 51.5q0 25 -6.5 38zM435 590l-30 -37l-129 97h-8l-130 -97l-29 37l132 127h61z" />
    <glyph glyph-name="uni0123" unicode="&#x123;" horiz-adv-x="558" 
d="M250 563q-6 6 -5 21l-1 55q2 74 32 132l37 -9q-9 -45 -9 -103q10 0 15.5 -6.5t5.5 -17.5v-51q-1 -15 -7.5 -21t-22.5 -6h-23q-16 0 -22 6zM531 440l-72 -6q20 -33 20 -90q0 -82 -47 -118.5t-162 -36.5q-62 0 -101 10q-13 -19 -13 -38q0 -18 11.5 -30t35.5 -16l182 -29
q68 -10 95.5 -42.5t27.5 -94.5q0 -58 -22 -90.5t-71.5 -46.5t-138.5 -14t-140 14t-73 46t-22 88q0 43 18 69t62 49q-17 12 -26 31t-9 41q0 24 10 45t28 34q-33 18 -47.5 49.5t-14.5 78.5q0 56 20 90t65.5 50t123.5 16q67 0 111 -12h154zM371 274.5q29 20.5 29 69.5
t-28.5 69.5t-101.5 20.5q-72 0 -101 -20.5t-29 -69.5t29 -69.5t101 -20.5t101 20.5zM418.5 -9q-6.5 13 -24 19.5t-53.5 12.5l-166 23q-27 -21 -39 -42t-12 -51q0 -35 13 -52.5t44.5 -24t93.5 -6.5q61 0 92.5 7t44.5 24.5t13 51.5q0 25 -6.5 38z" />
    <glyph glyph-name="gdotaccent" unicode="&#x121;" horiz-adv-x="558" 
d="M531 440l-72 -6q20 -33 20 -90q0 -82 -47 -118.5t-162 -36.5q-62 0 -101 10q-13 -19 -13 -38q0 -18 11.5 -30t35.5 -16l182 -29q68 -10 95.5 -42.5t27.5 -94.5q0 -58 -22 -90.5t-71.5 -46.5t-138.5 -14t-140 14t-73 46t-22 88q0 43 18 69t62 49q-17 12 -26 31t-9 41
q0 24 10 45t28 34q-33 18 -47.5 49.5t-14.5 78.5q0 56 20 90t65.5 50t123.5 16q67 0 111 -12h154zM371 274.5q29 20.5 29 69.5t-28.5 69.5t-101.5 20.5q-72 0 -101 -20.5t-29 -69.5t29 -69.5t101 -20.5t101 20.5zM418.5 -9q-6.5 13 -24 19.5t-53.5 12.5l-166 23
q-27 -21 -39 -42t-12 -51q0 -35 13 -52.5t44.5 -24t93.5 -6.5q61 0 92.5 7t44.5 24.5t13 51.5q0 25 -6.5 38zM312 662v-57q0 -26 -26 -26h-27q-26 0 -26 26v57q0 25 26 25h27q26 0 26 -25z" />
    <glyph glyph-name="uni1E21" unicode="&#x1e21;" horiz-adv-x="558" 
d="M531 440l-72 -6q20 -33 20 -90q0 -82 -47 -118.5t-162 -36.5q-62 0 -101 10q-13 -19 -13 -38q0 -18 11.5 -30t35.5 -16l182 -29q68 -10 95.5 -42.5t27.5 -94.5q0 -58 -22 -90.5t-71.5 -46.5t-138.5 -14t-140 14t-73 46t-22 88q0 43 18 69t62 49q-17 12 -26 31t-9 41
q0 24 10 45t28 34q-33 18 -47.5 49.5t-14.5 78.5q0 56 20 90t65.5 50t123.5 16q67 0 111 -12h154zM371 274.5q29 20.5 29 69.5t-28.5 69.5t-101.5 20.5q-72 0 -101 -20.5t-29 -69.5t29 -69.5t101 -20.5t101 20.5zM418.5 -9q-6.5 13 -24 19.5t-53.5 12.5l-166 23
q-27 -21 -39 -42t-12 -51q0 -35 13 -52.5t44.5 -24t93.5 -6.5q61 0 92.5 7t44.5 24.5t13 51.5q0 25 -6.5 38zM411 606h-279v63h279v-63z" />
    <glyph glyph-name="h" unicode="h" horiz-adv-x="581" 
d="M472.5 465q33.5 -34 33.5 -100v-365h-86v341q0 48 -15.5 67t-53.5 19q-41 0 -82.5 -18t-105.5 -58v-351h-85v700h85l1 -193q0 -56 -6 -95q58 42 111 64.5t105 22.5q65 0 98.5 -34z" />
    <glyph glyph-name="hbar" unicode="&#x127;" horiz-adv-x="585" 
d="M476.5 465q33.5 -34 33.5 -100v-365h-86v341q0 48 -15.5 67t-53.5 19q-41 0 -82.5 -18t-105.5 -58v-351h-85v573h-76v49h76v78h85v-78h146v-49h-145v-66q0 -56 -6 -95q58 42 111 64.5t105 22.5q65 0 98.5 -34z" />
    <glyph glyph-name="uni1E2B" unicode="&#x1e2b;" horiz-adv-x="581" 
d="M472.5 465q33.5 -34 33.5 -100v-365h-86v341q0 48 -15.5 67t-53.5 19q-41 0 -82.5 -18t-105.5 -58v-351h-85v700h85l1 -193q0 -56 -6 -95q58 42 111 64.5t105 22.5q65 0 98.5 -34zM448 -58q4 -59 -37 -95.5t-112 -36.5q-72 0 -113.5 36.5t-37.5 95.5l44 7
q0 -36 27.5 -55.5t79.5 -19.5q50 0 78 19.5t28 55.5z" />
    <glyph glyph-name="hcircumflex" unicode="&#x125;" horiz-adv-x="581" 
d="M472.5 465q33.5 -34 33.5 -100v-365h-86v341q0 48 -15.5 67t-53.5 19q-41 0 -82.5 -18t-105.5 -58v-351h-85v700h85l1 -193q0 -56 -6 -95q58 42 111 64.5t105 22.5q65 0 98.5 -34zM283 741l-30 -37l-129 97h-8l-130 -97l-29 37l132 127h61z" />
    <glyph glyph-name="uni1E25" unicode="&#x1e25;" horiz-adv-x="581" 
d="M472.5 465q33.5 -34 33.5 -100v-365h-86v341q0 48 -15.5 67t-53.5 19q-41 0 -82.5 -18t-105.5 -58v-351h-85v700h85l1 -193q0 -56 -6 -95q58 42 111 64.5t105 22.5q65 0 98.5 -34zM339 -86v-57q0 -26 -26 -26h-27q-26 0 -26 26v57q0 25 26 25h27q26 0 26 -25z" />
    <glyph glyph-name="i" unicode="i" horiz-adv-x="248" 
d="M170 668v-57q0 -26 -26 -26h-40q-26 0 -26 26v57q0 12 6.5 19t19.5 7h40q26 0 26 -26zM166 0h-84v487h84v-487z" />
    <glyph glyph-name="dotlessi" unicode="&#x131;" horiz-adv-x="249" 
d="M167 0h-85v487h85v-487z" />
    <glyph glyph-name="iacute" unicode="&#xed;" horiz-adv-x="249" 
d="M167 0h-85v487h85v-487zM275 675l-192 -120l-29 39l172 147z" />
    <glyph glyph-name="ibreve" unicode="&#x12d;" horiz-adv-x="249" 
d="M167 0h-85v487h85v-487zM275 698q4 -59 -37 -95.5t-113 -36.5t-113 36.5t-37 95.5l44 6q-1 -35 27 -55t80 -20q49 0 77 20t28 55z" />
    <glyph glyph-name="icircumflex" unicode="&#xee;" horiz-adv-x="249" 
d="M167 0h-85v487h85v-487zM288 590l-30 -37l-129 97h-8l-130 -97l-29 37l132 127h61z" />
    <glyph glyph-name="uni0209" unicode="&#x209;" horiz-adv-x="249" 
d="M167 0h-85v487h85v-487zM85 578l-37 -28l-134 160l62 42zM250 578l-38 -28l-134 160l62 42z" />
    <glyph glyph-name="idieresis" unicode="&#xef;" horiz-adv-x="249" 
d="M167 0h-85v487h85v-487zM74 666v-55q0 -24 -23 -24h-29q-23 0 -23 24v55q0 24 23 24h29q23 0 23 -24zM245.5 683.5q6.5 -6.5 6.5 -17.5v-55q0 -24 -24 -24h-28q-24 0 -24 24v55q0 24 24 24h28q11 0 17.5 -6.5z" />
    <glyph glyph-name="uni1E2F" unicode="&#x1e2f;" horiz-adv-x="249" 
d="M167 0h-85v487h85v-487zM246 810l-163 -100l-27 37l143 125zM77 652v-50q0 -21 -21 -21h-26q-22 0 -22 21v50q0 22 22 22h26q21 0 21 -22zM239 652v-50q0 -21 -22 -21h-26q-22 0 -22 21v50q0 22 22 22h26q22 0 22 -22z" />
    <glyph glyph-name="i.loclTRK" horiz-adv-x="249" 
d="M167 0h-85v487h85v-487zM165 662v-57q0 -26 -26 -26h-27q-26 0 -26 26v57q0 25 26 25h27q26 0 26 -25z" />
    <glyph glyph-name="uni1ECB" unicode="&#x1ecb;" horiz-adv-x="248" 
d="M170 668v-57q0 -26 -26 -26h-40q-26 0 -26 26v57q0 12 6.5 19t19.5 7h40q26 0 26 -26zM166 0h-84v487h84v-487zM167 -86v-57q0 -26 -26 -26h-28q-26 0 -26 26v57q0 25 26 25h28q26 0 26 -25z" />
    <glyph glyph-name="igrave" unicode="&#xec;" horiz-adv-x="249" 
d="M167 0h-85v487h85v-487zM182 587l-29 -39l-192 120l49 65z" />
    <glyph glyph-name="uni1EC9" unicode="&#x1ec9;" horiz-adv-x="249" 
d="M167 0h-85v487h85v-487zM159 671q0 20 -12.5 31t-34.5 11q-14 0 -32 -5l-10 48q29 8 51 8q43 0 69.5 -23.5t26.5 -66.5q0 -42 -28 -72.5t-77 -40.5l-10 43q57 16 57 67z" />
    <glyph glyph-name="uni020B" unicode="&#x20b;" horiz-adv-x="249" 
d="M167 0h-85v487h85v-487zM-26 580q-4 59 37 95.5t112 36.5q72 0 113.5 -36.5t37.5 -95.5l-44 -7q0 36 -27.5 55.5t-79.5 19.5q-50 0 -78 -19.5t-28 -55.5z" />
    <glyph glyph-name="ij" unicode="&#x133;" horiz-adv-x="498" 
d="M170 668v-57q0 -26 -26 -26h-40q-26 0 -26 26v57q0 12 6.5 19t19.5 7h40q26 0 26 -26zM166 0h-84v487h84v-487zM419 668v-57q0 -26 -25 -26h-40q-26 0 -26 26v57q0 26 26 26h40q25 0 25 -26zM416 -12q0 -58 -25 -108t-69 -83l-47 37q29 36 42.5 72t13.5 82v499h85v-499z
" />
    <glyph glyph-name="imacron" unicode="&#x12b;" horiz-adv-x="249" 
d="M167 0h-85v487h85v-487zM264 606h-278v63h278v-63z" />
    <glyph glyph-name="iogonek" unicode="&#x12f;" horiz-adv-x="249" 
d="M86 605v57q0 25 26 25h27q26 0 26 -25v-57q0 -26 -26 -26h-27q-26 0 -26 26zM175 -193q-49 -20 -84 -20q-34 0 -52 17t-18 45q0 16 6 34q19 58 93 117h-38v487h85v-487h-6q-26 -30 -44 -56.5t-30 -57.5q-6 -14 -6 -24q0 -28 38 -28q22 0 46 8z" />
    <glyph glyph-name="itilde" unicode="&#x129;" horiz-adv-x="249" 
d="M167 0h-85v487h85v-487zM85 691q18 -7 40 -20q23 -12 37 -18t32 -8q4 -1 12 -1q20 0 28.5 12.5t8.5 38.5h40q1 -7 1 -21q0 -46 -21.5 -70t-57.5 -21q-25 2 -45 10.5t-44 22.5q-22 12 -38 18.5t-33 6.5q-22 0 -30 -13t-8 -42h-40q-1 7 -1 21q0 48 22.5 72t56.5 21
q22 -2 40 -9z" />
    <glyph glyph-name="j" unicode="j" horiz-adv-x="250" 
d="M171 668v-57q0 -26 -25 -26h-40q-26 0 -26 26v57q0 26 26 26h40q25 0 25 -26zM168 -12q0 -58 -25 -108t-69 -83l-47 37q29 36 42.5 72t13.5 82v499h85v-499z" />
    <glyph glyph-name="uni0237" unicode="&#x237;" horiz-adv-x="250" 
d="M168 -12q0 -58 -25 -108t-69 -83l-47 37q29 36 42.5 72t13.5 82v499h85v-499z" />
    <glyph glyph-name="jcircumflex" unicode="&#x135;" horiz-adv-x="250" 
d="M168 -12q0 -58 -25 -108t-69 -83l-47 37q29 36 42.5 72t13.5 82v499h85v-499zM288 590l-30 -37l-129 97h-8l-130 -97l-29 37l132 127h61z" />
    <glyph glyph-name="k" unicode="k" horiz-adv-x="509" 
d="M224 244h-66q5 -45 5 -78v-166h-85v700h85l1 -311q0 -38 -5 -83h64l154 181h99l-153 -179q-7 -9 -16.5 -18t-17.5 -15v-2q7 -6 17.5 -17t16.5 -22l169 -234h-99z" />
    <glyph glyph-name="uni0137" unicode="&#x137;" horiz-adv-x="509" 
d="M492 0h-99l-169 244h-66q5 -45 5 -78v-166h-85v700h85l1 -311q0 -38 -5 -83h64l154 181h99l-153 -179q-7 -9 -16.5 -18t-17.5 -15v-2q7 -6 17.5 -17t16.5 -22zM310 -64.5q6 -6.5 6 -21.5v-55q-1 -72 -32 -132l-36 10q9 52 9 103q-10 0 -16 6.5t-6 17.5v50q1 15 8 21.5
t22 6.5h23q16 0 22 -6.5z" />
    <glyph glyph-name="kgreenlandic" unicode="&#x138;" horiz-adv-x="509" 
d="M227 217h-69q5 -45 5 -78v-139h-85v487h85l1 -125q1 -41 -5 -84h61l157 209h99l-154 -196q-6 -8 -16 -18t-18 -16v-2q8 -6 34 -39l170 -216h-99z" />
    <glyph glyph-name="l" unicode="l" horiz-adv-x="297" 
d="M163 134q0 -32 17.5 -48.5t49.5 -16.5h47l10 -65q-13 -6 -40 -9.5t-49 -3.5q-55 0 -87 32.5t-32 91.5v585h85z" />
    <glyph glyph-name="lacute" unicode="&#x13a;" horiz-adv-x="297" 
d="M163 134q0 -32 17.5 -48.5t49.5 -16.5h47l10 -65q-13 -6 -40 -9.5t-49 -3.5q-55 0 -87 32.5t-32 91.5v585h85zM271 872l-192 -120l-29 39l172 147z" />
    <glyph glyph-name="lcaron" unicode="&#x13e;" horiz-adv-x="297" 
d="M163 134q0 -32 17.5 -48.5t49.5 -16.5h47l10 -65q-13 -6 -40 -9.5t-49 -3.5q-55 0 -87 32.5t-32 91.5v585h85zM294 696.5q6 -5.5 6 -20.5v-54q1 -63 -31 -128l-37 9q9 53 9 101q-21 0 -21 22v50q0 14 7 20t23 6h22q16 0 22 -5.5z" />
    <glyph glyph-name="uni013C" unicode="&#x13c;" horiz-adv-x="297" 
d="M163 134q0 -32 17.5 -48.5t49.5 -16.5h47l10 -65q-13 -6 -40 -9.5t-49 -3.5q-55 0 -87 32.5t-32 91.5v585h85zM206.5 -67q6.5 -6 5.5 -21l1 -55q-1 -71 -32 -132l-37 10q9 51 9 103q-10 0 -16 6.5t-5 16.5v51q1 15 7.5 21t22.5 6h22q16 0 22.5 -6z" />
    <glyph glyph-name="ldot" unicode="&#x140;" horiz-adv-x="320" 
d="M163 134q0 -32 17.5 -48.5t49.5 -16.5h47l10 -65q-13 -6 -40 -9.5t-49 -3.5q-55 0 -87 32.5t-32 91.5v585h85zM246 341.5q-7 6.5 -7 19.5v57q0 13 7 19.5t19 6.5h28q26 0 26 -26v-57q0 -26 -26 -26h-28q-12 0 -19 6.5z" />
    <glyph glyph-name="uni1E37" unicode="&#x1e37;" horiz-adv-x="297" 
d="M163 134q0 -32 17.5 -48.5t49.5 -16.5h47l10 -65q-13 -6 -40 -9.5t-49 -3.5q-55 0 -87 32.5t-32 91.5v585h85zM228 -86v-57q0 -26 -26 -26h-27q-26 0 -26 26v57q0 25 26 25h27q26 0 26 -25z" />
    <glyph glyph-name="uni01C9" unicode="&#x1c9;" horiz-adv-x="547" 
d="M163 134q0 -32 17.5 -48.5t49.5 -16.5h47l10 -65q-13 -6 -40 -9.5t-49 -3.5q-55 0 -87 32.5t-32 91.5v585h85zM468 668v-57q0 -26 -25 -26h-40q-26 0 -26 26v57q0 26 26 26h40q25 0 25 -26zM465 -12q0 -58 -25 -108t-69 -83l-47 37q29 36 42.5 72t13.5 82v499h85v-499z
" />
    <glyph glyph-name="uni1E3B" unicode="&#x1e3b;" horiz-adv-x="297" 
d="M163 134q0 -32 17.5 -48.5t49.5 -16.5h47l10 -65q-13 -6 -40 -9.5t-49 -3.5q-55 0 -87 32.5t-32 91.5v585h85zM326 -150h-278v63h278v-63z" />
    <glyph glyph-name="lslash" unicode="&#x142;" horiz-adv-x="328" 
d="M309 4q-13 -6 -40 -9.5t-49 -3.5q-55 0 -87 32.5t-32 91.5v219l-80 -33v55l80 33v311h85v-275l108 45v-55l-109 -45v-236q0 -65 66 -65h48z" />
    <glyph glyph-name="m" unicode="m" horiz-adv-x="876" 
d="M767.5 465q33.5 -34 33.5 -100v-365h-84v341q-1 45 -18.5 65.5t-57.5 20.5q-35 0 -67.5 -16t-92.5 -59v-352h-82v341q0 46 -18.5 66t-57.5 20q-35 0 -67.5 -16t-92.5 -59v-352h-85v487h70l5 -77q52 45 100.5 67t98.5 22q102 0 123 -87q101 87 196 87q63 0 96.5 -34z" />
    <glyph glyph-name="uni1E43" unicode="&#x1e43;" horiz-adv-x="876" 
d="M767.5 465q33.5 -34 33.5 -100v-365h-84v341q-1 45 -18.5 65.5t-57.5 20.5q-35 0 -67.5 -16t-92.5 -59v-352h-82v341q0 46 -18.5 66t-57.5 20q-35 0 -67.5 -16t-92.5 -59v-352h-85v487h70l5 -77q52 45 100.5 67t98.5 22q102 0 123 -87q101 87 196 87q63 0 96.5 -34z
M480 -86v-57q0 -26 -26 -26h-27q-26 0 -26 26v57q0 25 26 25h27q26 0 26 -25z" />
    <glyph glyph-name="n" unicode="n" horiz-adv-x="581" 
d="M472.5 465q33.5 -34 33.5 -100v-365h-85v341q0 48 -16 67t-54 19q-40 0 -80 -17.5t-108 -58.5v-351h-85v487h72l6 -77q116 89 218 89q65 0 98.5 -34z" />
    <glyph glyph-name="nacute" unicode="&#x144;" horiz-adv-x="581" 
d="M472.5 465q33.5 -34 33.5 -100v-365h-85v341q0 48 -16 67t-54 19q-40 0 -80 -17.5t-108 -58.5v-351h-85v487h72l6 -77q116 89 218 89q65 0 98.5 -34zM453 675l-192 -120l-29 39l172 147z" />
    <glyph glyph-name="ncaron" unicode="&#x148;" horiz-adv-x="581" 
d="M472.5 465q33.5 -34 33.5 -100v-365h-85v341q0 48 -16 67t-54 19q-40 0 -80 -17.5t-108 -58.5v-351h-85v487h72l6 -77q116 89 218 89q65 0 98.5 -34zM468 694l-143 -128h-40l-143 128l29 36l130 -87h8l129 87z" />
    <glyph glyph-name="uni0146" unicode="&#x146;" horiz-adv-x="581" 
d="M472.5 465q33.5 -34 33.5 -100v-365h-85v341q0 48 -16 67t-54 19q-40 0 -80 -17.5t-108 -58.5v-351h-85v487h72l6 -77q116 89 218 89q65 0 98.5 -34zM325 -64.5q6 -6.5 5 -21.5l1 -55q-1 -69 -32 -132l-37 10q9 52 9 103q-10 0 -16 6.5t-5 17.5v50q1 15 7.5 21.5
t22.5 6.5h23q16 0 22 -6.5z" />
    <glyph glyph-name="uni1E45" unicode="&#x1e45;" horiz-adv-x="581" 
d="M472.5 465q33.5 -34 33.5 -100v-365h-85v341q0 48 -16 67t-54 19q-40 0 -80 -17.5t-108 -58.5v-351h-85v487h72l6 -77q116 89 218 89q65 0 98.5 -34zM343 661v-57q0 -26 -26 -26h-27q-26 0 -26 26v57q0 25 26 25h27q26 0 26 -25z" />
    <glyph glyph-name="uni1E47" unicode="&#x1e47;" horiz-adv-x="581" 
d="M472.5 465q33.5 -34 33.5 -100v-365h-85v341q0 48 -16 67t-54 19q-40 0 -80 -17.5t-108 -58.5v-351h-85v487h72l6 -77q116 89 218 89q65 0 98.5 -34zM337 -86v-57q0 -26 -26 -26h-27q-26 0 -26 26v57q0 25 26 25h27q26 0 26 -25z" />
    <glyph glyph-name="eng" unicode="&#x14b;" horiz-adv-x="581" 
d="M506 365v-433q0 -66 -31 -101.5t-91 -35.5q-42 0 -88 13l10 54h43q72 0 72 77v402q0 43 -16.5 61.5t-55.5 18.5q-38 0 -82.5 -18t-103.5 -53v-350h-85v487h66l8 -80q117 92 221 92q133 0 133 -134z" />
    <glyph glyph-name="uni01CC" unicode="&#x1cc;" horiz-adv-x="831" 
d="M472.5 465q33.5 -34 33.5 -100v-365h-85v341q0 48 -16 67t-54 19q-40 0 -80 -17.5t-108 -58.5v-351h-85v487h72l6 -77q116 89 218 89q65 0 98.5 -34zM752 668v-57q0 -26 -25 -26h-40q-26 0 -26 26v57q0 26 26 26h40q25 0 25 -26zM749 -12q0 -58 -25 -108t-69 -83l-47 37
q29 36 42.5 72t13.5 82v499h85v-499z" />
    <glyph glyph-name="uni1E49" unicode="&#x1e49;" horiz-adv-x="581" 
d="M472.5 465q33.5 -34 33.5 -100v-365h-85v341q0 48 -16 67t-54 19q-40 0 -80 -17.5t-108 -58.5v-351h-85v487h72l6 -77q116 89 218 89q65 0 98.5 -34zM436 -150h-278v63h278v-63z" />
    <glyph glyph-name="ntilde" unicode="&#xf1;" horiz-adv-x="581" 
d="M472.5 465q33.5 -34 33.5 -100v-365h-85v341q0 48 -16 67t-54 19q-40 0 -80 -17.5t-108 -58.5v-351h-85v487h72l6 -77q116 89 218 89q65 0 98.5 -34zM263 690q18 -7 40 -20q23 -12 37 -18t32 -8q4 -1 12 -1q20 0 28.5 12.5t8.5 38.5h40q1 -7 1 -21q0 -46 -21.5 -70
t-57.5 -21q-25 2 -45 10.5t-44 22.5q-22 12 -38 18.5t-33 6.5q-22 0 -30 -13t-8 -42h-40q-1 7 -1 21q0 48 22.5 72t56.5 21q22 -2 40 -9z" />
    <glyph glyph-name="o" unicode="o" horiz-adv-x="568" 
d="M418.5 473.5q49.5 -25.5 72 -81t22.5 -149.5q0 -95 -22.5 -150.5t-72 -80.5t-134.5 -25q-84 0 -134 25t-72.5 80.5t-22.5 150.5q0 94 22.5 149.5t72.5 81t134 25.5q85 0 134.5 -25.5zM200 410.5q-30 -16.5 -43 -56t-13 -111.5t13 -111.5t43 -56t84 -16.5t84.5 16.5
t43.5 56t13 111.5t-13 111.5t-43.5 56t-84.5 16.5t-84 -16.5z" />
    <glyph glyph-name="oacute" unicode="&#xf3;" horiz-adv-x="568" 
d="M418.5 473.5q49.5 -25.5 72 -81t22.5 -149.5q0 -95 -22.5 -150.5t-72 -80.5t-134.5 -25q-84 0 -134 25t-72.5 80.5t-22.5 150.5q0 94 22.5 149.5t72.5 81t134 25.5q85 0 134.5 -25.5zM200 410.5q-30 -16.5 -43 -56t-13 -111.5t13 -111.5t43 -56t84 -16.5t84.5 16.5
t43.5 56t13 111.5t-13 111.5t-43.5 56t-84.5 16.5t-84 -16.5zM435 671l-192 -120l-29 39l172 147z" />
    <glyph glyph-name="obreve" unicode="&#x14f;" horiz-adv-x="568" 
d="M418.5 473.5q49.5 -25.5 72 -81t22.5 -149.5q0 -95 -22.5 -150.5t-72 -80.5t-134.5 -25q-84 0 -134 25t-72.5 80.5t-22.5 150.5q0 94 22.5 149.5t72.5 81t134 25.5q85 0 134.5 -25.5zM200 410.5q-30 -16.5 -43 -56t-13 -111.5t13 -111.5t43 -56t84 -16.5t84.5 16.5
t43.5 56t13 111.5t-13 111.5t-43.5 56t-84.5 16.5t-84 -16.5zM435 693q4 -59 -37 -95.5t-113 -36.5t-113 36.5t-37 95.5l44 6q-1 -35 27 -55t80 -20q49 0 77 20t28 55z" />
    <glyph glyph-name="ocircumflex" unicode="&#xf4;" horiz-adv-x="568" 
d="M418.5 473.5q49.5 -25.5 72 -81t22.5 -149.5q0 -95 -22.5 -150.5t-72 -80.5t-134.5 -25q-84 0 -134 25t-72.5 80.5t-22.5 150.5q0 94 22.5 149.5t72.5 81t134 25.5q85 0 134.5 -25.5zM200 410.5q-30 -16.5 -43 -56t-13 -111.5t13 -111.5t43 -56t84 -16.5t84.5 16.5
t43.5 56t13 111.5t-13 111.5t-43.5 56t-84.5 16.5t-84 -16.5zM449 585l-30 -37l-129 97h-8l-130 -97l-29 37l132 127h61z" />
    <glyph glyph-name="uni1ED1" unicode="&#x1ed1;" horiz-adv-x="568" 
d="M418.5 473.5q49.5 -25.5 72 -81t22.5 -149.5q0 -95 -22.5 -150.5t-72 -80.5t-134.5 -25q-84 0 -134 25t-72.5 80.5t-22.5 150.5q0 94 22.5 149.5t72.5 81t134 25.5q85 0 134.5 -25.5zM200 410.5q-30 -16.5 -43 -56t-13 -111.5t13 -111.5t43 -56t84 -16.5t84.5 16.5
t43.5 56t13 111.5t-13 111.5t-43.5 56t-84.5 16.5t-84 -16.5zM540 755l-128 -100l-32 32l104 122zM351 675l88 -86l-58 -9l-94 60l-38 -25l-94 -57l8 62l97 83z" />
    <glyph glyph-name="uni1ED9" unicode="&#x1ed9;" horiz-adv-x="568" 
d="M449 585l-30 -37l-130 97h-8l-129 -97l-29 37l131 127h62zM418.5 473.5q49.5 -25.5 72 -81t22.5 -149.5q0 -95 -22.5 -150.5t-72 -80.5t-134.5 -25q-84 0 -134 25t-72.5 80.5t-22.5 150.5q0 94 22.5 149.5t72.5 81t134 25.5q85 0 134.5 -25.5zM200 410.5
q-30 -16.5 -43 -56t-13 -111.5t13 -111.5t43 -56t84 -16.5t84.5 16.5t43.5 56t13 111.5t-13 111.5t-43.5 56t-84.5 16.5t-84 -16.5zM322 -86v-57q0 -26 -26 -26h-27q-26 0 -26 26v57q0 25 26 25h27q26 0 26 -25z" />
    <glyph glyph-name="uni1ED3" unicode="&#x1ed3;" horiz-adv-x="568" 
d="M418.5 473.5q49.5 -25.5 72 -81t22.5 -149.5q0 -95 -22.5 -150.5t-72 -80.5t-134.5 -25q-84 0 -134 25t-72.5 80.5t-22.5 150.5q0 94 22.5 149.5t72.5 81t134 25.5q85 0 134.5 -25.5zM200 410.5q-30 -16.5 -43 -56t-13 -111.5t13 -111.5t43 -56t84 -16.5t84.5 16.5
t43.5 56t13 111.5t-13 111.5t-43.5 56t-84.5 16.5t-84 -16.5zM191 687l-32 -32l-127 100l55 54zM408 620l8 -62l-94 57l-38 25l-94 -60l-58 9l88 86l92 28z" />
    <glyph glyph-name="uni1ED5" unicode="&#x1ed5;" horiz-adv-x="568" 
d="M418.5 473.5q49.5 -25.5 72 -81t22.5 -149.5q0 -95 -22.5 -150.5t-72 -80.5t-134.5 -25q-84 0 -134 25t-72.5 80.5t-22.5 150.5q0 94 22.5 149.5t72.5 81t134 25.5q85 0 134.5 -25.5zM200 410.5q-30 -16.5 -43 -56t-13 -111.5t13 -111.5t43 -56t84 -16.5t84.5 16.5
t43.5 56t13 111.5t-13 111.5t-43.5 56t-84.5 16.5t-84 -16.5zM428 726.5q12 14.5 12 35.5q0 27 -33 27q-18 0 -38 -7l-9 44q33 10 56 10q36 0 56.5 -18t20.5 -54q0 -37 -24.5 -63.5t-70.5 -35.5l-9 38q27 9 39 23.5zM316 703l126 -111l-28 -37l-124 85h-8l-124 -85l-30 37
l127 111h61z" />
    <glyph glyph-name="uni1ED7" unicode="&#x1ed7;" horiz-adv-x="568" 
d="M418.5 473.5q49.5 -25.5 72 -81t22.5 -149.5q0 -95 -22.5 -150.5t-72 -80.5t-134.5 -25q-84 0 -134 25t-72.5 80.5t-22.5 150.5q0 94 22.5 149.5t72.5 81t134 25.5q85 0 134.5 -25.5zM200 410.5q-30 -16.5 -43 -56t-13 -111.5t13 -111.5t43 -56t84 -16.5t84.5 16.5
t43.5 56t13 111.5t-13 111.5t-43.5 56t-84.5 16.5t-84 -16.5zM248.5 825q16.5 -7 37.5 -21q20 -13 35.5 -19.5t36.5 -6.5q20 0 28.5 12t8.5 37h37q1 -7 1 -21q0 -40 -18.5 -62.5t-49.5 -22.5q-26 0 -44.5 7.5t-41.5 22.5q-20 13 -33.5 19t-30.5 6q-20 0 -28 -12.5t-8 -40.5
h-37q-1 8 -1 22q0 42 19 64.5t49 22.5q23 0 39.5 -7zM316 703l126 -111l-28 -37l-124 85h-8l-124 -85l-30 37l127 111h61z" />
    <glyph glyph-name="uni020D" unicode="&#x20d;" horiz-adv-x="568" 
d="M418.5 473.5q49.5 -25.5 72 -81t22.5 -149.5q0 -95 -22.5 -150.5t-72 -80.5t-134.5 -25q-84 0 -134 25t-72.5 80.5t-22.5 150.5q0 94 22.5 149.5t72.5 81t134 25.5q85 0 134.5 -25.5zM200 410.5q-30 -16.5 -43 -56t-13 -111.5t13 -111.5t43 -56t84 -16.5t84.5 16.5
t43.5 56t13 111.5t-13 111.5t-43.5 56t-84.5 16.5t-84 -16.5zM245 573l-37 -28l-134 160l62 42zM410 573l-38 -28l-134 160l62 42z" />
    <glyph glyph-name="odieresis" unicode="&#xf6;" horiz-adv-x="568" 
d="M418.5 473.5q49.5 -25.5 72 -81t22.5 -149.5q0 -95 -22.5 -150.5t-72 -80.5t-134.5 -25q-84 0 -134 25t-72.5 80.5t-22.5 150.5q0 94 22.5 149.5t72.5 81t134 25.5q85 0 134.5 -25.5zM200 410.5q-30 -16.5 -43 -56t-13 -111.5t13 -111.5t43 -56t84 -16.5t84.5 16.5
t43.5 56t13 111.5t-13 111.5t-43.5 56t-84.5 16.5t-84 -16.5zM234 662v-55q0 -24 -23 -24h-29q-23 0 -23 24v55q0 24 23 24h29q23 0 23 -24zM405.5 679.5q6.5 -6.5 6.5 -17.5v-55q0 -24 -24 -24h-28q-24 0 -24 24v55q0 24 24 24h28q11 0 17.5 -6.5z" />
    <glyph glyph-name="uni022B" unicode="&#x22b;" horiz-adv-x="568" 
d="M418.5 473.5q49.5 -25.5 72 -81t22.5 -149.5q0 -95 -22.5 -150.5t-72 -80.5t-134.5 -25q-84 0 -134 25t-72.5 80.5t-22.5 150.5q0 94 22.5 149.5t72.5 81t134 25.5q85 0 134.5 -25.5zM200 410.5q-30 -16.5 -43 -56t-13 -111.5t13 -111.5t43 -56t84 -16.5t84.5 16.5
t43.5 56t13 111.5t-13 111.5t-43.5 56t-84.5 16.5t-84 -16.5zM412 778v-56h-254v56h254zM239 648v-50q0 -21 -21 -21h-26q-22 0 -22 21v50q0 22 22 22h26q21 0 21 -22zM401 648v-50q0 -21 -22 -21h-26q-22 0 -22 21v50q0 22 22 22h26q22 0 22 -22z" />
    <glyph glyph-name="uni0231" unicode="&#x231;" horiz-adv-x="568" 
d="M418.5 473.5q49.5 -25.5 72 -81t22.5 -149.5q0 -95 -22.5 -150.5t-72 -80.5t-134.5 -25q-84 0 -134 25t-72.5 80.5t-22.5 150.5q0 94 22.5 149.5t72.5 81t134 25.5q85 0 134.5 -25.5zM200 410.5q-30 -16.5 -43 -56t-13 -111.5t13 -111.5t43 -56t84 -16.5t84.5 16.5
t43.5 56t13 111.5t-13 111.5t-43.5 56t-84.5 16.5t-84 -16.5zM412 773l-64 -51l-190 5l64 51zM321 649v-52q0 -24 -24 -24h-25q-24 0 -24 24v52q0 23 24 23h25q24 0 24 -23z" />
    <glyph glyph-name="uni1ECD" unicode="&#x1ecd;" horiz-adv-x="568" 
d="M418.5 473.5q49.5 -25.5 72 -81t22.5 -149.5q0 -95 -22.5 -150.5t-72 -80.5t-134.5 -25q-84 0 -134 25t-72.5 80.5t-22.5 150.5q0 94 22.5 149.5t72.5 81t134 25.5q85 0 134.5 -25.5zM200 410.5q-30 -16.5 -43 -56t-13 -111.5t13 -111.5t43 -56t84 -16.5t84.5 16.5
t43.5 56t13 111.5t-13 111.5t-43.5 56t-84.5 16.5t-84 -16.5zM323 -86v-57q0 -26 -26 -26h-28q-26 0 -26 26v57q0 25 26 25h28q26 0 26 -25z" />
    <glyph glyph-name="ograve" unicode="&#xf2;" horiz-adv-x="568" 
d="M418.5 473.5q49.5 -25.5 72 -81t22.5 -149.5q0 -95 -22.5 -150.5t-72 -80.5t-134.5 -25q-84 0 -134 25t-72.5 80.5t-22.5 150.5q0 94 22.5 149.5t72.5 81t134 25.5q85 0 134.5 -25.5zM200 410.5q-30 -16.5 -43 -56t-13 -111.5t13 -111.5t43 -56t84 -16.5t84.5 16.5
t43.5 56t13 111.5t-13 111.5t-43.5 56t-84.5 16.5t-84 -16.5zM342 583l-29 -39l-192 120l49 65z" />
    <glyph glyph-name="uni1ECF" unicode="&#x1ecf;" horiz-adv-x="568" 
d="M418.5 473.5q49.5 -25.5 72 -81t22.5 -149.5q0 -95 -22.5 -150.5t-72 -80.5t-134.5 -25q-84 0 -134 25t-72.5 80.5t-22.5 150.5q0 94 22.5 149.5t72.5 81t134 25.5q85 0 134.5 -25.5zM200 410.5q-30 -16.5 -43 -56t-13 -111.5t13 -111.5t43 -56t84 -16.5t84.5 16.5
t43.5 56t13 111.5t-13 111.5t-43.5 56t-84.5 16.5t-84 -16.5zM320 666q0 20 -12.5 31t-34.5 11q-14 0 -32 -5l-10 48q29 8 51 8q43 0 69.5 -23.5t26.5 -66.5q0 -42 -28 -72.5t-77 -40.5l-10 43q57 16 57 67z" />
    <glyph glyph-name="ohorn" unicode="&#x1a1;" horiz-adv-x="580" 
d="M555.5 460q-30.5 -35 -74.5 -48q32 -58 32 -169q0 -95 -22.5 -150.5t-72 -80.5t-134.5 -25q-84 0 -134 25t-72.5 80.5t-22.5 150.5q0 94 22.5 149.5t72.5 81t134 25.5q116 0 167 -48q32 7 52 33t23 63l61 -5q-1 -47 -31.5 -82zM368.5 75.5q30.5 16.5 43.5 56t13 111.5
t-13 111.5t-43.5 56t-84.5 16.5t-84 -16.5t-43 -56t-13 -111.5t13 -111.5t43 -56t84 -16.5t84.5 16.5z" />
    <glyph glyph-name="uni1EDB" unicode="&#x1edb;" horiz-adv-x="580" 
d="M555.5 460q-30.5 -35 -74.5 -48q32 -58 32 -169q0 -95 -22.5 -150.5t-72 -80.5t-134.5 -25q-84 0 -134 25t-72.5 80.5t-22.5 150.5q0 94 22.5 149.5t72.5 81t134 25.5q116 0 167 -48q32 7 52 33t23 63l61 -5q-1 -47 -31.5 -82zM368.5 75.5q30.5 16.5 43.5 56t13 111.5
t-13 111.5t-43.5 56t-84.5 16.5t-84 -16.5t-43 -56t-13 -111.5t13 -111.5t43 -56t84 -16.5t84.5 16.5zM439 664l-191 -120l-30 39l173 146z" />
    <glyph glyph-name="uni1EE3" unicode="&#x1ee3;" horiz-adv-x="580" 
d="M555.5 460q-30.5 -35 -74.5 -48q32 -58 32 -169q0 -95 -22.5 -150.5t-72 -80.5t-134.5 -25q-84 0 -134 25t-72.5 80.5t-22.5 150.5q0 94 22.5 149.5t72.5 81t134 25.5q116 0 167 -48q32 7 52 33t23 63l61 -5q-1 -47 -31.5 -82zM368.5 75.5q30.5 16.5 43.5 56t13 111.5
t-13 111.5t-43.5 56t-84.5 16.5t-84 -16.5t-43 -56t-13 -111.5t13 -111.5t43 -56t84 -16.5t84.5 16.5zM322 -86v-57q0 -26 -26 -26h-27q-26 0 -26 26v57q0 25 26 25h27q26 0 26 -25z" />
    <glyph glyph-name="uni1EDD" unicode="&#x1edd;" horiz-adv-x="580" 
d="M555.5 460q-30.5 -35 -74.5 -48q32 -58 32 -169q0 -95 -22.5 -150.5t-72 -80.5t-134.5 -25q-84 0 -134 25t-72.5 80.5t-22.5 150.5q0 94 22.5 149.5t72.5 81t134 25.5q116 0 167 -48q32 7 52 33t23 63l61 -5q-1 -47 -31.5 -82zM368.5 75.5q30.5 16.5 43.5 56t13 111.5
t-13 111.5t-43.5 56t-84.5 16.5t-84 -16.5t-43 -56t-13 -111.5t13 -111.5t43 -56t84 -16.5t84.5 16.5zM341 583l-29 -39l-192 120l49 65z" />
    <glyph glyph-name="uni1EDF" unicode="&#x1edf;" horiz-adv-x="580" 
d="M555.5 460q-30.5 -35 -74.5 -48q32 -58 32 -169q0 -95 -22.5 -150.5t-72 -80.5t-134.5 -25q-84 0 -134 25t-72.5 80.5t-22.5 150.5q0 94 22.5 149.5t72.5 81t134 25.5q116 0 167 -48q32 7 52 33t23 63l61 -5q-1 -47 -31.5 -82zM368.5 75.5q30.5 16.5 43.5 56t13 111.5
t-13 111.5t-43.5 56t-84.5 16.5t-84 -16.5t-43 -56t-13 -111.5t13 -111.5t43 -56t84 -16.5t84.5 16.5zM318 666q0 20 -12.5 31t-34.5 11q-14 0 -32 -5l-10 48q29 8 51 8q43 0 69.5 -23.5t26.5 -66.5q0 -42 -28 -72.5t-77 -40.5l-10 43q57 16 57 67z" />
    <glyph glyph-name="uni1EE1" unicode="&#x1ee1;" horiz-adv-x="580" 
d="M555.5 460q-30.5 -35 -74.5 -48q32 -58 32 -169q0 -95 -22.5 -150.5t-72 -80.5t-134.5 -25q-84 0 -134 25t-72.5 80.5t-22.5 150.5q0 94 22.5 149.5t72.5 81t134 25.5q116 0 167 -48q32 7 52 33t23 63l61 -5q-1 -47 -31.5 -82zM368.5 75.5q30.5 16.5 43.5 56t13 111.5
t-13 111.5t-43.5 56t-84.5 16.5t-84 -16.5t-43 -56t-13 -111.5t13 -111.5t43 -56t84 -16.5t84.5 16.5zM244 686q18 -7 40 -20q23 -12 37 -18t32 -8q4 -1 12 -1q20 0 28.5 12.5t8.5 38.5h39q1 -8 1 -23q0 -44 -21.5 -68t-56.5 -21q-25 2 -45 10.5t-44 22.5q-22 12 -38 18.5
t-33 6.5q-22 0 -30 -13t-8 -42h-40q-1 8 -1 23q0 46 22.5 70t56.5 21q22 -2 40 -9z" />
    <glyph glyph-name="ohungarumlaut" unicode="&#x151;" horiz-adv-x="568" 
d="M418.5 473.5q49.5 -25.5 72 -81t22.5 -149.5q0 -95 -22.5 -150.5t-72 -80.5t-134.5 -25q-84 0 -134 25t-72.5 80.5t-22.5 150.5q0 94 22.5 149.5t72.5 81t134 25.5q85 0 134.5 -25.5zM200 410.5q-30 -16.5 -43 -56t-13 -111.5t13 -111.5t43 -56t84 -16.5t84.5 16.5
t43.5 56t13 111.5t-13 111.5t-43.5 56t-84.5 16.5t-84 -16.5zM319 705l-134 -160l-38 28l110 174zM483 705l-134 -160l-38 28l110 174z" />
    <glyph glyph-name="uni020F" unicode="&#x20f;" horiz-adv-x="568" 
d="M418.5 473.5q49.5 -25.5 72 -81t22.5 -149.5q0 -95 -22.5 -150.5t-72 -80.5t-134.5 -25q-84 0 -134 25t-72.5 80.5t-22.5 150.5q0 94 22.5 149.5t72.5 81t134 25.5q85 0 134.5 -25.5zM200 410.5q-30 -16.5 -43 -56t-13 -111.5t13 -111.5t43 -56t84 -16.5t84.5 16.5
t43.5 56t13 111.5t-13 111.5t-43.5 56t-84.5 16.5t-84 -16.5zM134 575q-4 59 37 95.5t112 36.5q72 0 113.5 -36.5t37.5 -95.5l-44 -7q0 36 -27.5 55.5t-79.5 19.5q-50 0 -78 -19.5t-28 -55.5z" />
    <glyph glyph-name="omacron" unicode="&#x14d;" horiz-adv-x="568" 
d="M418.5 473.5q49.5 -25.5 72 -81t22.5 -149.5q0 -95 -22.5 -150.5t-72 -80.5t-134.5 -25q-84 0 -134 25t-72.5 80.5t-22.5 150.5q0 94 22.5 149.5t72.5 81t134 25.5q85 0 134.5 -25.5zM200 410.5q-30 -16.5 -43 -56t-13 -111.5t13 -111.5t43 -56t84 -16.5t84.5 16.5
t43.5 56t13 111.5t-13 111.5t-43.5 56t-84.5 16.5t-84 -16.5zM425 602h-278v63h278v-63z" />
    <glyph glyph-name="uni1E53" unicode="&#x1e53;" horiz-adv-x="568" 
d="M418.5 473.5q49.5 -25.5 72 -81t22.5 -149.5q0 -95 -22.5 -150.5t-72 -80.5t-134.5 -25q-84 0 -134 25t-72.5 80.5t-22.5 150.5q0 94 22.5 149.5t72.5 81t134 25.5q85 0 134.5 -25.5zM200 410.5q-30 -16.5 -43 -56t-13 -111.5t13 -111.5t43 -56t84 -16.5t84.5 16.5
t43.5 56t13 111.5t-13 111.5t-43.5 56t-84.5 16.5t-84 -16.5zM383 770l-133 -90l-30 34l112 115zM425 587h-278v63h278v-63z" />
    <glyph glyph-name="uni1E51" unicode="&#x1e51;" horiz-adv-x="568" 
d="M418.5 473.5q49.5 -25.5 72 -81t22.5 -149.5q0 -95 -22.5 -150.5t-72 -80.5t-134.5 -25q-84 0 -134 25t-72.5 80.5t-22.5 150.5q0 94 22.5 149.5t72.5 81t134 25.5q85 0 134.5 -25.5zM200 410.5q-30 -16.5 -43 -56t-13 -111.5t13 -111.5t43 -56t84 -16.5t84.5 16.5
t43.5 56t13 111.5t-13 111.5t-43.5 56t-84.5 16.5t-84 -16.5zM352 714l-30 -34l-133 90l51 59zM425 650v-63h-278v63h278z" />
    <glyph glyph-name="uni01EB" unicode="&#x1eb;" horiz-adv-x="568" 
d="M252 -112q-6 -14 -6 -24q0 -28 38 -28q22 0 46 8l10 -35q-49 -20 -84 -20q-34 0 -52 17t-18 45q0 16 6 34q18 52 76 102q-78 3 -124.5 29t-67.5 80.5t-21 146.5q0 94 22.5 149.5t72.5 81t134 25.5q85 0 134.5 -25.5t72 -81t22.5 -149.5q0 -89 -19.5 -143t-63 -81
t-116.5 -31q-44 -52 -62 -100zM157 131.5q13 -39.5 43 -56t84 -16.5t84.5 16.5t43.5 56t13 111.5t-13 111.5t-43.5 56t-84.5 16.5t-84 -16.5t-43 -56t-13 -111.5t13 -111.5z" />
    <glyph glyph-name="oslash" unicode="&#xf8;" horiz-adv-x="568" 
d="M490 395q23 -56 23 -152q0 -95 -22.5 -150.5t-72 -80.5t-134.5 -25q-56 0 -93 10l-34 -72l-39 19l32 68q-50 26 -72.5 81.5t-22.5 149.5t22.5 149.5t72.5 81t134 25.5q50 0 88 -9l33 70l39 -19l-30 -65q53 -25 76 -81zM153.5 143.5q9.5 -37.5 30.5 -56.5l156 334
q-24 6 -56 6q-54 0 -84 -16.5t-43 -56t-13 -111.5q0 -62 9.5 -99.5zM368.5 75.5q30.5 16.5 43.5 56t13 111.5q0 64 -10.5 102.5t-34.5 57.5l-157 -337q24 -7 61 -7q54 0 84.5 16.5z" />
    <glyph glyph-name="oslashacute" unicode="&#x1ff;" horiz-adv-x="568" 
d="M490 395q23 -56 23 -152q0 -95 -22.5 -150.5t-72 -80.5t-134.5 -25q-56 0 -93 10l-34 -72l-39 19l32 68q-50 26 -72.5 81.5t-22.5 149.5t22.5 149.5t72.5 81t134 25.5q50 0 88 -9l33 70l39 -19l-30 -65q53 -25 76 -81zM153.5 143.5q9.5 -37.5 30.5 -56.5l156 334
q-24 6 -56 6q-54 0 -84 -16.5t-43 -56t-13 -111.5q0 -62 9.5 -99.5zM368.5 75.5q30.5 16.5 43.5 56t13 111.5q0 64 -10.5 102.5t-34.5 57.5l-157 -337q24 -7 61 -7q54 0 84.5 16.5zM441 664l-191 -120l-30 39l173 146z" />
    <glyph glyph-name="otilde" unicode="&#xf5;" horiz-adv-x="568" 
d="M418.5 473.5q49.5 -25.5 72 -81t22.5 -149.5q0 -95 -22.5 -150.5t-72 -80.5t-134.5 -25q-84 0 -134 25t-72.5 80.5t-22.5 150.5q0 94 22.5 149.5t72.5 81t134 25.5q85 0 134.5 -25.5zM200 410.5q-30 -16.5 -43 -56t-13 -111.5t13 -111.5t43 -56t84 -16.5t84.5 16.5
t43.5 56t13 111.5t-13 111.5t-43.5 56t-84.5 16.5t-84 -16.5zM245 686q18 -7 40 -20q23 -12 37 -18t32 -8q4 -1 12 -1q20 0 28.5 12.5t8.5 38.5h40q1 -7 1 -21q0 -46 -21.5 -70t-57.5 -21q-25 2 -45 10.5t-44 22.5q-22 12 -38 18.5t-33 6.5q-22 0 -30 -13t-8 -42h-40
q-1 7 -1 21q0 48 22.5 72t56.5 21q22 -2 40 -9z" />
    <glyph glyph-name="uni1E4D" unicode="&#x1e4d;" horiz-adv-x="568" 
d="M418.5 473.5q49.5 -25.5 72 -81t22.5 -149.5q0 -95 -22.5 -150.5t-72 -80.5t-134.5 -25q-84 0 -134 25t-72.5 80.5t-22.5 150.5q0 94 22.5 149.5t72.5 81t134 25.5q85 0 134.5 -25.5zM200 410.5q-30 -16.5 -43 -56t-13 -111.5t13 -111.5t43 -56t84 -16.5t84.5 16.5
t43.5 56t13 111.5t-13 111.5t-43.5 56t-84.5 16.5t-84 -16.5zM390 801l-133 -91l-30 35l112 114zM241.5 679.5q18.5 -7.5 44.5 -21.5q21 -12 36 -18.5t32 -8.5q28 -3 38.5 9t10.5 42h40q1 -7 1 -21q0 -43 -19.5 -67t-51.5 -24q-28 0 -48.5 8t-49.5 24q-21 13 -36.5 19.5
t-33.5 6.5q-22 0 -30 -13.5t-8 -42.5h-40q-1 7 -1 21q0 45 20 69.5t52 24.5q25 0 43.5 -7.5z" />
    <glyph glyph-name="uni1E4F" unicode="&#x1e4f;" horiz-adv-x="568" 
d="M418.5 473.5q49.5 -25.5 72 -81t22.5 -149.5q0 -95 -22.5 -150.5t-72 -80.5t-134.5 -25q-84 0 -134 25t-72.5 80.5t-22.5 150.5q0 94 22.5 149.5t72.5 81t134 25.5q85 0 134.5 -25.5zM200 410.5q-30 -16.5 -43 -56t-13 -111.5t13 -111.5t43 -56t84 -16.5t84.5 16.5
t43.5 56t13 111.5t-13 111.5t-43.5 56t-84.5 16.5t-84 -16.5zM217 824q12 0 17 -5.5t5 -16.5v-50q0 -22 -22 -22h-25q-22 0 -22 22v50q0 22 22 22h25zM379 824q21 0 21 -22v-50q0 -22 -21 -22h-26q-21 0 -21 22v50q0 22 21 22h26zM241.5 679.5q18.5 -7.5 44.5 -21.5
q21 -12 36 -18.5t32 -8.5q28 -3 38.5 9t10.5 42h40q1 -7 1 -21q0 -43 -19.5 -67t-51.5 -24q-28 0 -48.5 8t-49.5 24q-21 13 -36.5 19.5t-33.5 6.5q-22 0 -30 -13.5t-8 -42.5h-40q-1 7 -1 21q0 45 20 69.5t52 24.5q25 0 43.5 -7.5z" />
    <glyph glyph-name="uni022D" unicode="&#x22d;" horiz-adv-x="568" 
d="M418.5 473.5q49.5 -25.5 72 -81t22.5 -149.5q0 -95 -22.5 -150.5t-72 -80.5t-134.5 -25q-84 0 -134 25t-72.5 80.5t-22.5 150.5q0 94 22.5 149.5t72.5 81t134 25.5q85 0 134.5 -25.5zM200 410.5q-30 -16.5 -43 -56t-13 -111.5t13 -111.5t43 -56t84 -16.5t84.5 16.5
t43.5 56t13 111.5t-13 111.5t-43.5 56t-84.5 16.5t-84 -16.5zM412 787l-64 -51l-190 6l64 51zM241.5 679.5q18.5 -7.5 44.5 -21.5q21 -12 36 -18.5t32 -8.5q28 -3 38.5 9t10.5 42h40q1 -7 1 -21q0 -43 -19.5 -67t-51.5 -24q-28 0 -48.5 8t-49.5 24q-21 13 -36.5 19.5
t-33.5 6.5q-22 0 -30 -13.5t-8 -42.5h-40q-1 7 -1 21q0 45 20 69.5t52 24.5q25 0 43.5 -7.5z" />
    <glyph glyph-name="oe" unicode="&#x153;" horiz-adv-x="907" 
d="M837 72l8 -57q-31 -13 -85.5 -20t-103.5 -7q-68 0 -113.5 16t-72.5 51q-27 -36 -72 -52t-114 -16q-84 0 -134 25t-72.5 80.5t-22.5 150.5q0 94 22.5 149.5t72.5 81t134 25.5q67 0 112 -15.5t71 -49.5q26 34 69 49.5t107 15.5q213 0 215 -150q0 -55 -15 -86t-48 -44
t-89 -13h-192q4 -59 21 -90.5t48.5 -43.5t85.5 -12q82 0 168 12zM364.5 73.5q29.5 14.5 43.5 48.5t17 95q-1 10 -1 30v26q-3 59 -17 92.5t-43.5 47.5t-79.5 14q-54 0 -84 -16.5t-43 -56t-13 -111.5t13 -111.5t43 -56t84 -16.5q51 0 80.5 14.5zM569 412.5
q-28 -14.5 -41 -48.5t-15 -95h188q39 0 55 15.5t16 54.5q0 46 -29 67t-98 21q-48 0 -76 -14.5z" />
    <glyph glyph-name="p" unicode="p" horiz-adv-x="580" 
d="M484 435q40 -64 40 -194q0 -93 -20 -148.5t-60 -80t-104 -24.5q-96 0 -180 50q3 -34 3 -98v-141h-85v688h70l7 -78q39 42 94 66t108 24q87 0 127 -64zM388.5 77.5q25.5 15.5 37 54t11.5 109.5q0 69 -11 109t-34.5 57.5t-62.5 17.5q-38 0 -75.5 -17.5t-90.5 -56.5v-260
q9 -2 43.5 -11.5t61.5 -13.5t51 -4q44 0 69.5 15.5z" />
    <glyph glyph-name="thorn" unicode="&#xfe;" horiz-adv-x="574" 
d="M476.5 438q40.5 -61 40.5 -198q0 -94 -18.5 -149.5t-57 -79.5t-102.5 -24q-93 0 -178 44q2 -31 2 -91v-141h-85v901h85v-170q0 -67 -3 -101q86 70 182 70q94 0 134.5 -61zM381 75q25 17 36.5 56.5t11.5 109.5t-11.5 110.5t-36 57.5t-66.5 17q-34 0 -70 -16.5t-82 -50.5
v-265q89 -36 149 -36q44 0 69 17z" />
    <glyph glyph-name="q" unicode="q" horiz-adv-x="570" 
d="M385 490q62 -9 109 -25v-666h-85l-1 167q0 57 8 100q-95 -79 -194 -79q-85 0 -126 61.5t-41 193.5q0 88 20 144t68 84.5t131 28.5q49 0 111 -9zM165 102.5q23 -40.5 85 -40.5q40 0 74 15t85 50v284q-63 16 -126 16q-54 0 -84 -16t-43.5 -57t-13.5 -118q0 -93 23 -133.5z
" />
    <glyph glyph-name="r" unicode="r" horiz-adv-x="401" 
d="M383 499l-10 -80h-28q-38 0 -77 -14.5t-105 -47.5v-357h-85v487h66l9 -77q111 89 208 89h22z" />
    <glyph glyph-name="racute" unicode="&#x155;" horiz-adv-x="401" 
d="M383 499l-10 -80h-28q-38 0 -77 -14.5t-105 -47.5v-357h-85v487h66l9 -77q111 89 208 89h22zM370 675l-192 -120l-29 39l172 147z" />
    <glyph glyph-name="rcaron" unicode="&#x159;" horiz-adv-x="401" 
d="M383 499l-10 -80h-28q-38 0 -77 -14.5t-105 -47.5v-357h-85v487h66l9 -77q111 89 208 89h22zM385 695l-143 -128h-40l-143 128l29 36l130 -87h8l129 87z" />
    <glyph glyph-name="uni0157" unicode="&#x157;" horiz-adv-x="401" 
d="M383 499l-10 -80h-28q-38 0 -77 -14.5t-105 -47.5v-357h-85v487h66l9 -77q111 89 208 89h22zM147 -64.5q6 -6.5 5 -21.5l1 -55q-1 -69 -32 -132l-37 10q9 52 9 103q-10 0 -16 6.5t-5 17.5v50q1 15 7.5 21.5t22.5 6.5h23q16 0 22 -6.5z" />
    <glyph glyph-name="uni0211" unicode="&#x211;" horiz-adv-x="401" 
d="M383 499l-10 -80h-28q-38 0 -77 -14.5t-105 -47.5v-357h-85v487h66l9 -77q111 89 208 89h22zM180 578l-37 -28l-134 160l62 42zM345 578l-38 -28l-134 160l62 42z" />
    <glyph glyph-name="uni1E5B" unicode="&#x1e5b;" horiz-adv-x="401" 
d="M383 499l-10 -80h-28q-38 0 -77 -14.5t-105 -47.5v-357h-85v487h66l9 -77q111 89 208 89h22zM162 -86v-57q0 -26 -26 -26h-27q-26 0 -26 26v57q0 25 26 25h27q26 0 26 -25z" />
    <glyph glyph-name="uni0213" unicode="&#x213;" horiz-adv-x="401" 
d="M383 499l-10 -80h-28q-38 0 -77 -14.5t-105 -47.5v-357h-85v487h66l9 -77q111 89 208 89h22zM69 580q-4 59 37 95.5t112 36.5q72 0 113.5 -36.5t37.5 -95.5l-44 -7q0 36 -27.5 55.5t-79.5 19.5q-50 0 -78 -19.5t-28 -55.5z" />
    <glyph glyph-name="uni1E5F" unicode="&#x1e5f;" horiz-adv-x="401" 
d="M383 499l-10 -80h-28q-38 0 -77 -14.5t-105 -47.5v-357h-85v487h66l9 -77q111 89 208 89h22zM261 -150h-278v63h278v-63z" />
    <glyph glyph-name="s" unicode="s" horiz-adv-x="508" 
d="M337.5 495q60.5 -4 107.5 -11l-7 -62q-17 0 -51 2q-26 1 -65.5 2t-91.5 1q-39 0 -59 -4t-29 -17.5t-9 -40.5q0 -25 7.5 -38t21.5 -19.5t42 -12.5l142 -32q60 -15 86.5 -44.5t26.5 -89.5q0 -59 -22 -89t-65.5 -40.5t-120.5 -10.5q-102 0 -191 14l6 62q78 -4 135 -4h33
q58 0 87.5 5t42.5 19.5t13 43.5q0 33 -17.5 45.5t-59.5 22.5l-140 32q-60 14 -85 45t-25 91q0 54 18 83t55.5 40t101.5 11q52 0 112.5 -4z" />
    <glyph glyph-name="sacute" unicode="&#x15b;" horiz-adv-x="508" 
d="M337.5 495q60.5 -4 107.5 -11l-7 -62q-17 0 -51 2q-26 1 -65.5 2t-91.5 1q-39 0 -59 -4t-29 -17.5t-9 -40.5q0 -25 7.5 -38t21.5 -19.5t42 -12.5l142 -32q60 -15 86.5 -44.5t26.5 -89.5q0 -59 -22 -89t-65.5 -40.5t-120.5 -10.5q-102 0 -191 14l6 62q78 -4 135 -4h33
q58 0 87.5 5t42.5 19.5t13 43.5q0 33 -17.5 45.5t-59.5 22.5l-140 32q-60 14 -85 45t-25 91q0 54 18 83t55.5 40t101.5 11q52 0 112.5 -4zM408 675l-192 -120l-29 39l172 147z" />
    <glyph glyph-name="uni1E65" unicode="&#x1e65;" horiz-adv-x="508" 
d="M337.5 495q60.5 -4 107.5 -11l-7 -62q-17 0 -51 2q-26 1 -65.5 2t-91.5 1q-39 0 -59 -4t-29 -17.5t-9 -40.5q0 -25 7.5 -38t21.5 -19.5t42 -12.5l142 -32q60 -15 86.5 -44.5t26.5 -89.5q0 -59 -22 -89t-65.5 -40.5t-120.5 -10.5q-102 0 -191 14l6 62q78 -4 135 -4h33
q58 0 87.5 5t42.5 19.5t13 43.5q0 33 -17.5 45.5t-59.5 22.5l-140 32q-60 14 -85 45t-25 91q0 54 18 83t55.5 40t101.5 11q52 0 112.5 -4zM294 816v-52q0 -24 -24 -24h-24q-24 0 -24 24v52q0 23 24 23h24q24 0 24 -23zM367 658l-175 -101l-27 37l156 126z" />
    <glyph glyph-name="scaron" unicode="&#x161;" horiz-adv-x="508" 
d="M337.5 495q60.5 -4 107.5 -11l-7 -62q-17 0 -51 2q-26 1 -65.5 2t-91.5 1q-39 0 -59 -4t-29 -17.5t-9 -40.5q0 -25 7.5 -38t21.5 -19.5t42 -12.5l142 -32q60 -15 86.5 -44.5t26.5 -89.5q0 -59 -22 -89t-65.5 -40.5t-120.5 -10.5q-102 0 -191 14l6 62q78 -4 135 -4h33
q58 0 87.5 5t42.5 19.5t13 43.5q0 33 -17.5 45.5t-59.5 22.5l-140 32q-60 14 -85 45t-25 91q0 54 18 83t55.5 40t101.5 11q52 0 112.5 -4zM423 695l-143 -128h-40l-143 128l29 36l130 -87h8l129 87z" />
    <glyph glyph-name="uni1E67" unicode="&#x1e67;" horiz-adv-x="508" 
d="M337.5 495q60.5 -4 107.5 -11l-7 -62q-17 0 -51 2q-26 1 -65.5 2t-91.5 1q-39 0 -59 -4t-29 -17.5t-9 -40.5q0 -25 7.5 -38t21.5 -19.5t42 -12.5l142 -32q60 -15 86.5 -44.5t26.5 -89.5q0 -59 -22 -89t-65.5 -40.5t-120.5 -10.5q-102 0 -191 14l6 62q78 -4 135 -4h33
q58 0 87.5 5t42.5 19.5t13 43.5q0 33 -17.5 45.5t-59.5 22.5l-140 32q-60 14 -85 45t-25 91q0 54 18 83t55.5 40t101.5 11q52 0 112.5 -4zM294 832v-51q0 -24 -24 -24h-25q-23 0 -23 24v51q0 24 23 24h25q24 0 24 -24zM411 688l-132 -118h-40l-132 118l29 36l119 -77h8
l118 77z" />
    <glyph glyph-name="scedilla" unicode="&#x15f;" horiz-adv-x="508" 
d="M337.5 495q60.5 -4 107.5 -11l-7 -62q-17 0 -51 2q-26 1 -65.5 2t-91.5 1q-39 0 -59 -4t-29 -17.5t-9 -40.5q0 -25 7.5 -38t21.5 -19.5t42 -12.5l142 -32q60 -15 86.5 -44.5t26.5 -89.5q0 -59 -22 -89t-65.5 -40.5t-120.5 -10.5q-102 0 -191 14l6 62q78 -4 135 -4h33
q58 0 87.5 5t42.5 19.5t13 43.5q0 33 -17.5 45.5t-59.5 22.5l-140 32q-60 14 -85 45t-25 91q0 54 18 83t55.5 40t101.5 11q52 0 112.5 -4zM241 -52q39 0 57.5 -14t18.5 -48q0 -59 -38 -93.5t-100 -34.5q-9 0 -29 2l13 45q41 -1 67 19t26 53q0 16 -12 22t-47 7l9 40
q26 2 35 2z" />
    <glyph glyph-name="scircumflex" unicode="&#x15d;" horiz-adv-x="508" 
d="M337.5 495q60.5 -4 107.5 -11l-7 -62q-17 0 -51 2q-26 1 -65.5 2t-91.5 1q-39 0 -59 -4t-29 -17.5t-9 -40.5q0 -25 7.5 -38t21.5 -19.5t42 -12.5l142 -32q60 -15 86.5 -44.5t26.5 -89.5q0 -59 -22 -89t-65.5 -40.5t-120.5 -10.5q-102 0 -191 14l6 62q78 -4 135 -4h33
q58 0 87.5 5t42.5 19.5t13 43.5q0 33 -17.5 45.5t-59.5 22.5l-140 32q-60 14 -85 45t-25 91q0 54 18 83t55.5 40t101.5 11q52 0 112.5 -4zM421 590l-30 -37l-129 97h-8l-130 -97l-29 37l132 127h61z" />
    <glyph glyph-name="uni0219" unicode="&#x219;" horiz-adv-x="508" 
d="M337.5 495q60.5 -4 107.5 -11l-7 -62q-17 0 -51 2q-26 1 -65.5 2t-91.5 1q-39 0 -59 -4t-29 -17.5t-9 -40.5q0 -25 7.5 -38t21.5 -19.5t42 -12.5l142 -32q60 -15 86.5 -44.5t26.5 -89.5q0 -59 -22 -89t-65.5 -40.5t-120.5 -10.5q-102 0 -191 14l6 62q78 -4 135 -4h33
q58 0 87.5 5t42.5 19.5t13 43.5q0 33 -17.5 45.5t-59.5 22.5l-140 32q-60 14 -85 45t-25 91q0 54 18 83t55.5 40t101.5 11q52 0 112.5 -4zM294 -64.5q6 -6.5 6 -21.5v-55q-1 -71 -31 -132l-37 10q9 52 9 103q-10 0 -16 6.5t-6 17.5l1 50q1 15 7.5 21.5t21.5 6.5h23
q16 0 22 -6.5z" />
    <glyph glyph-name="uni1E61" unicode="&#x1e61;" horiz-adv-x="508" 
d="M337.5 495q60.5 -4 107.5 -11l-7 -62q-17 0 -51 2q-26 1 -65.5 2t-91.5 1q-39 0 -59 -4t-29 -17.5t-9 -40.5q0 -25 7.5 -38t21.5 -19.5t42 -12.5l142 -32q60 -15 86.5 -44.5t26.5 -89.5q0 -59 -22 -89t-65.5 -40.5t-120.5 -10.5q-102 0 -191 14l6 62q78 -4 135 -4h33
q58 0 87.5 5t42.5 19.5t13 43.5q0 33 -17.5 45.5t-59.5 22.5l-140 32q-60 14 -85 45t-25 91q0 54 18 83t55.5 40t101.5 11q52 0 112.5 -4zM298 662v-57q0 -26 -26 -26h-27q-26 0 -26 26v57q0 25 26 25h27q26 0 26 -25z" />
    <glyph glyph-name="uni1E63" unicode="&#x1e63;" horiz-adv-x="508" 
d="M337.5 495q60.5 -4 107.5 -11l-7 -62q-17 0 -51 2q-26 1 -65.5 2t-91.5 1q-39 0 -59 -4t-29 -17.5t-9 -40.5q0 -25 7.5 -38t21.5 -19.5t42 -12.5l142 -32q60 -15 86.5 -44.5t26.5 -89.5q0 -59 -22 -89t-65.5 -40.5t-120.5 -10.5q-102 0 -191 14l6 62q78 -4 135 -4h33
q58 0 87.5 5t42.5 19.5t13 43.5q0 33 -17.5 45.5t-59.5 22.5l-140 32q-60 14 -85 45t-25 91q0 54 18 83t55.5 40t101.5 11q52 0 112.5 -4zM289 -88v-57q0 -26 -26 -26h-27q-26 0 -26 26v57q0 25 26 25h27q26 0 26 -25z" />
    <glyph glyph-name="uni1E69" unicode="&#x1e69;" horiz-adv-x="508" 
d="M298 662v-57q0 -26 -26 -26h-27q-26 0 -26 26v57q0 25 26 25h27q26 0 26 -25zM337.5 495q60.5 -4 107.5 -11l-7 -62q-17 0 -51 2q-26 1 -65.5 2t-91.5 1q-39 0 -59 -4t-29 -17.5t-9 -40.5q0 -25 7.5 -38t21.5 -19.5t42 -12.5l142 -32q60 -15 86.5 -44.5t26.5 -89.5
q0 -59 -22 -89t-65.5 -40.5t-120.5 -10.5q-102 0 -191 14l6 62q78 -4 135 -4h33q58 0 87.5 5t42.5 19.5t13 43.5q0 33 -17.5 45.5t-59.5 22.5l-140 32q-60 14 -85 45t-25 91q0 54 18 83t55.5 40t101.5 11q52 0 112.5 -4zM289 -88v-57q0 -26 -26 -26h-27q-26 0 -26 26v57
q0 25 26 25h27q26 0 26 -25z" />
    <glyph glyph-name="germandbls" unicode="&#xdf;" horiz-adv-x="675" 
d="M618 206.5q20 -27.5 20 -80.5q0 -56 -19.5 -85.5t-57.5 -40.5t-100 -11q-82 0 -160 11l5 64q64 -5 139 -5q44 1 66 5.5t33 19.5t11 46t-14.5 45t-52.5 31l-106 47q-40 18 -61 45t-21 67q0 32 12.5 53t32 35t55.5 33l23 12q37 21 50.5 39t13.5 49q0 34 -30.5 49.5
t-111.5 15.5q-58 0 -88 -9.5t-43 -34.5t-13 -73v-534h-85v419h-88v66l88 2v56q0 75 26 113.5t73 51.5t126 13q82 0 131 -12t72 -41t23 -79q0 -43 -18 -72t-69 -59l-37 -20q-36 -20 -49 -32.5t-13 -38.5q0 -24 14.5 -36.5t50.5 -28.5l104 -46q48 -22 68 -49.5z" />
    <glyph glyph-name="t" unicode="t" horiz-adv-x="381" 
d="M200 420v-286q0 -35 15 -50t51 -15h74l10 -65q-22 -6 -55 -9.5t-55 -3.5q-61 0 -93 34t-32 98v297h-88v62l88 5v144h85v-144h155v-67h-155z" />
    <glyph glyph-name="tbar" unicode="&#x167;" horiz-adv-x="381" 
d="M200 420v-115h130v-48h-130v-123q0 -35 15 -50t51 -15h74l10 -65q-22 -6 -55 -9.5t-55 -3.5q-61 0 -93 34t-32 98v134h-65v48h65v115h-88v62l88 5v144h85v-144h155v-67h-155z" />
    <glyph glyph-name="tcaron" unicode="&#x165;" horiz-adv-x="381" 
d="M200 420v-286q0 -35 15 -50t51 -15h74l10 -65q-22 -6 -55 -9.5t-55 -3.5q-61 0 -93 34t-32 98v297h-88v62l88 5v144h85v-144h155v-67h-155zM345 752.5q6 -5.5 6 -20.5v-54q1 -63 -31 -128l-37 9q9 53 9 101q-21 0 -21 22v50q0 14 7 20t23 6h22q16 0 22 -5.5z" />
    <glyph glyph-name="uni0163" unicode="&#x163;" horiz-adv-x="381" 
d="M200 420v-286q0 -35 15 -50t51 -15h74l10 -65q-22 -6 -55 -9.5t-55 -3.5q-61 0 -93 34t-32 98v297h-88v62l88 5v144h85v-144h155v-67h-155zM239 -50q39 0 57.5 -14t18.5 -48q0 -59 -38 -93.5t-100 -34.5q-9 0 -29 2l13 45q41 -1 67 19t26 53q0 16 -12 22t-47 7l9 40
q26 2 35 2z" />
    <glyph glyph-name="uni021B" unicode="&#x21b;" horiz-adv-x="381" 
d="M200 420v-286q0 -35 15 -50t51 -15h74l10 -65q-22 -6 -55 -9.5t-55 -3.5q-61 0 -93 34t-32 98v297h-88v62l88 5v144h85v-144h155v-67h-155zM270.5 -64.5q6.5 -6.5 5.5 -21.5l1 -55q-1 -69 -32 -132l-37 10q9 52 9 103q-10 0 -16 6.5t-5 17.5v50q1 15 7.5 21.5t22.5 6.5
h22q16 0 22.5 -6.5z" />
    <glyph glyph-name="uni1E97" unicode="&#x1e97;" horiz-adv-x="381" 
d="M200 420v-286q0 -35 15 -50t51 -15h74l10 -65q-22 -6 -55 -9.5t-55 -3.5q-61 0 -93 34t-32 98v297h-88v62l88 5v144h85v-144h155v-67h-155zM109 757v-55q0 -24 -23 -24h-29q-24 0 -24 24v55q0 24 24 24h29q23 0 23 -24zM286 757v-55q0 -24 -23 -24h-29q-24 0 -24 24v55
q0 24 24 24h29q23 0 23 -24z" />
    <glyph glyph-name="uni1E6D" unicode="&#x1e6d;" horiz-adv-x="381" 
d="M200 420v-286q0 -35 15 -50t51 -15h74l10 -65q-22 -6 -55 -9.5t-55 -3.5q-61 0 -93 34t-32 98v297h-88v62l88 5v144h85v-144h155v-67h-155zM287 -86v-57q0 -26 -26 -26h-27q-26 0 -26 26v57q0 25 26 25h27q26 0 26 -25z" />
    <glyph glyph-name="uni1E6F" unicode="&#x1e6f;" horiz-adv-x="381" 
d="M200 420v-286q0 -35 15 -50t51 -15h74l10 -65q-22 -6 -55 -9.5t-55 -3.5q-61 0 -93 34t-32 98v297h-88v62l88 5v144h85v-144h155v-67h-155zM386 -150h-278v63h278v-63z" />
    <glyph glyph-name="u" unicode="u" horiz-adv-x="570" 
d="M492 487v-487h-68l-6 71q-56 -42 -107.5 -63t-102.5 -21q-66 0 -99.5 34t-33.5 100v366h85v-342q-1 -46 17 -65t60 -19q37 0 75 16.5t95 53.5v356h85z" />
    <glyph glyph-name="uacute" unicode="&#xfa;" horiz-adv-x="570" 
d="M492 487v-487h-68l-6 71q-56 -42 -107.5 -63t-102.5 -21q-66 0 -99.5 34t-33.5 100v366h85v-342q-1 -46 17 -65t60 -19q37 0 75 16.5t95 53.5v356h85zM435 678l-192 -120l-29 39l172 147z" />
    <glyph glyph-name="ubreve" unicode="&#x16d;" horiz-adv-x="570" 
d="M492 487v-487h-68l-6 71q-56 -42 -107.5 -63t-102.5 -21q-66 0 -99.5 34t-33.5 100v366h85v-342q-1 -46 17 -65t60 -19q37 0 75 16.5t95 53.5v356h85zM435 700q4 -59 -37 -95.5t-113 -36.5t-113 36.5t-37 95.5l44 6q-1 -35 27 -55t80 -20q49 0 77 20t28 55z" />
    <glyph glyph-name="ucircumflex" unicode="&#xfb;" horiz-adv-x="570" 
d="M492 487v-487h-68l-6 71q-56 -42 -107.5 -63t-102.5 -21q-66 0 -99.5 34t-33.5 100v366h85v-342q-1 -46 17 -65t60 -19q37 0 75 16.5t95 53.5v356h85zM448 593l-30 -37l-129 97h-8l-130 -97l-29 37l132 127h61z" />
    <glyph glyph-name="uni0215" unicode="&#x215;" horiz-adv-x="570" 
d="M492 487v-487h-68l-6 71q-56 -42 -107.5 -63t-102.5 -21q-66 0 -99.5 34t-33.5 100v366h85v-342q-1 -46 17 -65t60 -19q37 0 75 16.5t95 53.5v356h85zM245 580l-37 -28l-134 160l62 42zM410 580l-38 -28l-134 160l62 42z" />
    <glyph glyph-name="udieresis" unicode="&#xfc;" horiz-adv-x="570" 
d="M492 487v-487h-68l-6 71q-56 -42 -107.5 -63t-102.5 -21q-66 0 -99.5 34t-33.5 100v366h85v-342q-1 -46 17 -65t60 -19q37 0 75 16.5t95 53.5v356h85zM234 669v-55q0 -24 -23 -24h-29q-23 0 -23 24v55q0 24 23 24h29q23 0 23 -24zM405.5 686.5q6.5 -6.5 6.5 -17.5v-55
q0 -24 -24 -24h-28q-24 0 -24 24v55q0 24 24 24h28q11 0 17.5 -6.5z" />
    <glyph glyph-name="uni1EE5" unicode="&#x1ee5;" horiz-adv-x="570" 
d="M492 487v-487h-68l-6 71q-56 -42 -107.5 -63t-102.5 -21q-66 0 -99.5 34t-33.5 100v366h85v-342q-1 -46 17 -65t60 -19q37 0 75 16.5t95 53.5v356h85zM317 -88v-57q0 -26 -26 -26h-28q-26 0 -26 26v57q0 25 26 25h28q26 0 26 -25z" />
    <glyph glyph-name="ugrave" unicode="&#xf9;" horiz-adv-x="570" 
d="M492 487v-487h-68l-6 71q-56 -42 -107.5 -63t-102.5 -21q-66 0 -99.5 34t-33.5 100v366h85v-342q-1 -46 17 -65t60 -19q37 0 75 16.5t95 53.5v356h85zM342 590l-29 -39l-192 120l49 65z" />
    <glyph glyph-name="uni1EE7" unicode="&#x1ee7;" horiz-adv-x="570" 
d="M492 487v-487h-68l-6 71q-56 -42 -107.5 -63t-102.5 -21q-66 0 -99.5 34t-33.5 100v366h85v-342q-1 -46 17 -65t60 -19q37 0 75 16.5t95 53.5v356h85zM319 673q0 20 -12.5 31t-34.5 11q-14 0 -32 -5l-10 48q29 8 51 8q43 0 69.5 -23.5t26.5 -66.5q0 -42 -28 -72.5
t-77 -40.5l-10 43q57 16 57 67z" />
    <glyph glyph-name="uhorn" unicode="&#x1b0;" horiz-adv-x="596" 
d="M581.5 450q-38.5 -38 -89.5 -43v-407h-68l-6 71q-56 -42 -107.5 -63t-102.5 -21q-66 0 -99.5 34t-33.5 100v366h85v-342q-1 -46 17 -65t60 -19q37 0 75 16.5t95 53.5v356h85v-34q29 9 47.5 34t20.5 59l61 -5q-1 -53 -39.5 -91z" />
    <glyph glyph-name="uni1EE9" unicode="&#x1ee9;" horiz-adv-x="596" 
d="M581.5 450q-38.5 -38 -89.5 -43v-407h-68l-6 71q-56 -42 -107.5 -63t-102.5 -21q-66 0 -99.5 34t-33.5 100v366h85v-342q-1 -46 17 -65t60 -19q37 0 75 16.5t95 53.5v356h85v-34q29 9 47.5 34t20.5 59l61 -5q-1 -53 -39.5 -91zM440 671l-191 -120l-30 39l173 146z" />
    <glyph glyph-name="uni1EF1" unicode="&#x1ef1;" horiz-adv-x="596" 
d="M581.5 450q-38.5 -38 -89.5 -43v-407h-68l-6 71q-56 -42 -107.5 -63t-102.5 -21q-66 0 -99.5 34t-33.5 100v366h85v-342q-1 -46 17 -65t60 -19q37 0 75 16.5t95 53.5v356h85v-34q29 9 47.5 34t20.5 59l61 -5q-1 -53 -39.5 -91zM316 -88v-57q0 -26 -26 -26h-27
q-26 0 -26 26v57q0 25 26 25h27q26 0 26 -25z" />
    <glyph glyph-name="uni1EEB" unicode="&#x1eeb;" horiz-adv-x="596" 
d="M581.5 450q-38.5 -38 -89.5 -43v-407h-68l-6 71q-56 -42 -107.5 -63t-102.5 -21q-66 0 -99.5 34t-33.5 100v366h85v-342q-1 -46 17 -65t60 -19q37 0 75 16.5t95 53.5v356h85v-34q29 9 47.5 34t20.5 59l61 -5q-1 -53 -39.5 -91zM342 590l-29 -39l-192 120l49 65z" />
    <glyph glyph-name="uni1EED" unicode="&#x1eed;" horiz-adv-x="596" 
d="M581.5 450q-38.5 -38 -89.5 -43v-407h-68l-6 71q-56 -42 -107.5 -63t-102.5 -21q-66 0 -99.5 34t-33.5 100v366h85v-342q-1 -46 17 -65t60 -19q37 0 75 16.5t95 53.5v356h85v-34q29 9 47.5 34t20.5 59l61 -5q-1 -53 -39.5 -91zM319 673q0 20 -12.5 31t-34.5 11
q-14 0 -32 -5l-10 48q29 8 51 8q43 0 69.5 -23.5t26.5 -66.5q0 -42 -28 -72.5t-77 -40.5l-10 43q57 16 57 67z" />
    <glyph glyph-name="uni1EEF" unicode="&#x1eef;" horiz-adv-x="596" 
d="M581.5 450q-38.5 -38 -89.5 -43v-407h-68l-6 71q-56 -42 -107.5 -63t-102.5 -21q-66 0 -99.5 34t-33.5 100v366h85v-342q-1 -46 17 -65t60 -19q37 0 75 16.5t95 53.5v356h85v-34q29 9 47.5 34t20.5 59l61 -5q-1 -53 -39.5 -91zM245 694q18 -7 40 -20q23 -12 37 -18t32 -8
q4 -1 12 -1q20 0 28.5 12.5t8.5 38.5h39q1 -8 1 -23q0 -44 -21.5 -68t-56.5 -21q-25 2 -45 10.5t-44 22.5q-22 12 -38 18.5t-33 6.5q-22 0 -30 -13t-8 -42h-40q-1 8 -1 23q0 46 22.5 70t56.5 21q22 -2 40 -9z" />
    <glyph glyph-name="uhungarumlaut" unicode="&#x171;" horiz-adv-x="570" 
d="M492 487v-487h-68l-6 71q-56 -42 -107.5 -63t-102.5 -21q-66 0 -99.5 34t-33.5 100v366h85v-342q-1 -46 17 -65t60 -19q37 0 75 16.5t95 53.5v356h85zM318 712l-134 -160l-38 28l110 174zM482 712l-134 -160l-38 28l110 174z" />
    <glyph glyph-name="uni0217" unicode="&#x217;" horiz-adv-x="570" 
d="M492 487v-487h-68l-6 71q-56 -42 -107.5 -63t-102.5 -21q-66 0 -99.5 34t-33.5 100v366h85v-342q-1 -46 17 -65t60 -19q37 0 75 16.5t95 53.5v356h85zM134 583q-4 59 37 95.5t112 36.5q72 0 113.5 -36.5t37.5 -95.5l-44 -7q0 36 -27.5 55.5t-79.5 19.5q-50 0 -78 -19.5
t-28 -55.5z" />
    <glyph glyph-name="umacron" unicode="&#x16b;" horiz-adv-x="570" 
d="M492 487v-487h-68l-6 71q-56 -42 -107.5 -63t-102.5 -21q-66 0 -99.5 34t-33.5 100v366h85v-342q-1 -46 17 -65t60 -19q37 0 75 16.5t95 53.5v356h85zM424 609h-278v63h278v-63z" />
    <glyph glyph-name="uni1E7B" unicode="&#x1e7b;" horiz-adv-x="570" 
d="M492 487v-487h-68l-6 71q-56 -42 -107.5 -63t-102.5 -21q-66 0 -99.5 34t-33.5 100v366h85v-342q-1 -46 17 -65t60 -19q37 0 75 16.5t95 53.5v356h85zM216 801q12 0 17 -5.5t5 -16.5v-50q0 -21 -22 -21h-25q-10 0 -16 5.5t-6 15.5v50q0 22 22 22h25zM378 801q21 0 21 -22
v-50q0 -21 -21 -21h-26q-22 0 -22 21v50q0 22 22 22h26zM158 599v57h254v-57h-254z" />
    <glyph glyph-name="uogonek" unicode="&#x173;" horiz-adv-x="570" 
d="M508 -193q-49 -20 -84 -20q-34 0 -52 17t-18 45q0 16 6 34q19 58 93 117h-29l-6 71q-56 -42 -107.5 -63t-102.5 -21q-66 0 -99.5 34t-33.5 100v366h85v-342q-1 -46 17 -65t60 -19q37 0 75 16.5t95 53.5v356h85v-487h2q-26 -30 -44 -56.5t-30 -57.5q-6 -14 -6 -24
q0 -28 38 -28q22 0 46 8z" />
    <glyph glyph-name="uring" unicode="&#x16f;" horiz-adv-x="570" 
d="M492 487v-487h-68l-6 71q-56 -42 -107.5 -63t-102.5 -21q-66 0 -99.5 34t-33.5 100v366h85v-342q-1 -46 17 -65t60 -19q37 0 75 16.5t95 53.5v356h85zM360.5 724.5q31.5 -30.5 31.5 -74.5t-31.5 -74.5t-75.5 -30.5q-45 0 -76 30t-31 75q0 44 31.5 74.5t75.5 30.5
t75.5 -30.5zM242.5 694q-16.5 -17 -16.5 -44q0 -28 17 -44.5t42 -16.5q26 0 43 16.5t17 44.5q0 27 -17 44t-43 17t-42.5 -17z" />
    <glyph glyph-name="utilde" unicode="&#x169;" horiz-adv-x="570" 
d="M492 487v-487h-68l-6 71q-56 -42 -107.5 -63t-102.5 -21q-66 0 -99.5 34t-33.5 100v366h85v-342q-1 -46 17 -65t60 -19q37 0 75 16.5t95 53.5v356h85zM245 694q18 -7 40 -20q23 -12 37 -18t32 -8q4 -1 12 -1q20 0 28.5 12.5t8.5 38.5h40q1 -7 1 -21q0 -46 -21.5 -70
t-57.5 -21q-25 2 -45 10.5t-44 22.5q-22 12 -38 18.5t-33 6.5q-22 0 -30 -13t-8 -42h-40q-1 7 -1 21q0 48 22.5 72t56.5 21q22 -2 40 -9z" />
    <glyph glyph-name="uni1E79" unicode="&#x1e79;" horiz-adv-x="570" 
d="M492 487v-487h-68l-6 71q-56 -42 -107.5 -63t-102.5 -21q-66 0 -99.5 34t-33.5 100v366h85v-342q-1 -46 17 -65t60 -19q37 0 75 16.5t95 53.5v356h85zM390 809l-133 -91l-30 35l112 114zM241.5 687.5q18.5 -7.5 44.5 -21.5q21 -12 36 -18.5t32 -8.5q28 -3 38.5 9t10.5 42
h40q1 -7 1 -21q0 -43 -19.5 -67t-51.5 -24q-28 0 -48.5 8t-49.5 24q-21 13 -36.5 19.5t-33.5 6.5q-22 0 -30 -13.5t-8 -42.5h-40q-1 7 -1 21q0 45 20 69.5t52 24.5q25 0 43.5 -7.5z" />
    <glyph glyph-name="v" unicode="v" horiz-adv-x="530" 
d="M333 21q-8 -21 -30 -21h-77q-22 0 -30 21l-178 466h91l120 -341l29 -85h13l30 85l120 341h90z" />
    <glyph glyph-name="w" unicode="w" horiz-adv-x="824" 
d="M657 24q-3 -11 -12 -17.5t-21 -6.5h-77q-12 0 -21.5 7.5t-11.5 19.5l-80 331l-9 42q-5 26 -7 35h-12l-6 -25q-9 -40 -11 -52l-79 -331q-3 -12 -12 -19.5t-22 -7.5h-76q-12 0 -21 6.5t-12 17.5l-142 463h88l101 -359q9 -31 16 -73h13l18 73l81 332q2 12 10.5 19.5
t21.5 7.5h77q12 0 20.5 -7.5t11.5 -20.5l80 -331q3 -14 8 -34l9 -39h13l6 26q6 30 11 47l101 359h88z" />
    <glyph glyph-name="wacute" unicode="&#x1e83;" horiz-adv-x="824" 
d="M657 24q-3 -11 -12 -17.5t-21 -6.5h-77q-12 0 -21.5 7.5t-11.5 19.5l-80 331l-9 42q-5 26 -7 35h-12l-6 -25q-9 -40 -11 -52l-79 -331q-3 -12 -12 -19.5t-22 -7.5h-76q-12 0 -21 6.5t-12 17.5l-142 463h88l101 -359q9 -31 16 -73h13l18 73l81 332q2 12 10.5 19.5
t21.5 7.5h77q12 0 20.5 -7.5t11.5 -20.5l80 -331q3 -14 8 -34l9 -39h13l6 26q6 30 11 47l101 359h88zM562 675l-192 -120l-29 39l172 147z" />
    <glyph glyph-name="wcircumflex" unicode="&#x175;" horiz-adv-x="824" 
d="M657 24q-3 -11 -12 -17.5t-21 -6.5h-77q-12 0 -21.5 7.5t-11.5 19.5l-80 331l-9 42q-5 26 -7 35h-12l-6 -25q-9 -40 -11 -52l-79 -331q-3 -12 -12 -19.5t-22 -7.5h-76q-12 0 -21 6.5t-12 17.5l-142 463h88l101 -359q9 -31 16 -73h13l18 73l81 332q2 12 10.5 19.5
t21.5 7.5h77q12 0 20.5 -7.5t11.5 -20.5l80 -331q3 -14 8 -34l9 -39h13l6 26q6 30 11 47l101 359h88zM576 590l-30 -37l-129 97h-8l-130 -97l-29 37l132 127h61z" />
    <glyph glyph-name="wdieresis" unicode="&#x1e85;" horiz-adv-x="824" 
d="M657 24q-3 -11 -12 -17.5t-21 -6.5h-77q-12 0 -21.5 7.5t-11.5 19.5l-80 331l-9 42q-5 26 -7 35h-12l-6 -25q-9 -40 -11 -52l-79 -331q-3 -12 -12 -19.5t-22 -7.5h-76q-12 0 -21 6.5t-12 17.5l-142 463h88l101 -359q9 -31 16 -73h13l18 73l81 332q2 12 10.5 19.5
t21.5 7.5h77q12 0 20.5 -7.5t11.5 -20.5l80 -331q3 -14 8 -34l9 -39h13l6 26q6 30 11 47l101 359h88zM361 666v-55q0 -24 -23 -24h-29q-23 0 -23 24v55q0 24 23 24h29q23 0 23 -24zM532.5 683.5q6.5 -6.5 6.5 -17.5v-55q0 -24 -24 -24h-28q-24 0 -24 24v55q0 24 24 24h28
q11 0 17.5 -6.5z" />
    <glyph glyph-name="wgrave" unicode="&#x1e81;" horiz-adv-x="824" 
d="M657 24q-3 -11 -12 -17.5t-21 -6.5h-77q-12 0 -21.5 7.5t-11.5 19.5l-80 331l-9 42q-5 26 -7 35h-12l-6 -25q-9 -40 -11 -52l-79 -331q-3 -12 -12 -19.5t-22 -7.5h-76q-12 0 -21 6.5t-12 17.5l-142 463h88l101 -359q9 -31 16 -73h13l18 73l81 332q2 12 10.5 19.5
t21.5 7.5h77q12 0 20.5 -7.5t11.5 -20.5l80 -331q3 -14 8 -34l9 -39h13l6 26q6 30 11 47l101 359h88zM469 587l-29 -39l-192 120l49 65z" />
    <glyph glyph-name="x" unicode="x" horiz-adv-x="528" 
d="M274 220h-20l-138 -220h-93l163 251l-151 236h92l125 -201h24l125 201h92l-151 -236l163 -251h-92z" />
    <glyph glyph-name="y" unicode="y" horiz-adv-x="529" 
d="M510 487l-195 -514q-64 -172 -213 -179l-8 56q57 18 89.5 49.5t52.5 79.5l9 21h-20q-11 0 -19 6t-11 16l-177 465h91l129 -363q14 -41 18 -59h14q1 4 21 59l127 363h92z" />
    <glyph glyph-name="yacute" unicode="&#xfd;" horiz-adv-x="529" 
d="M510 487l-195 -514q-64 -172 -213 -179l-8 56q57 18 89.5 49.5t52.5 79.5l9 21h-20q-11 0 -19 6t-11 16l-177 465h91l129 -363q14 -41 18 -59h14q1 4 21 59l127 363h92zM417 675l-192 -120l-29 39l172 147z" />
    <glyph glyph-name="ycircumflex" unicode="&#x177;" horiz-adv-x="529" 
d="M510 487l-195 -514q-64 -172 -213 -179l-8 56q57 18 89.5 49.5t52.5 79.5l9 21h-20q-11 0 -19 6t-11 16l-177 465h91l129 -363q14 -41 18 -59h14q1 4 21 59l127 363h92zM430 590l-30 -37l-129 97h-8l-130 -97l-29 37l132 127h61z" />
    <glyph glyph-name="ydieresis" unicode="&#xff;" horiz-adv-x="529" 
d="M510 487l-195 -514q-64 -172 -213 -179l-8 56q57 18 89.5 49.5t52.5 79.5l9 21h-20q-11 0 -19 6t-11 16l-177 465h91l129 -363q14 -41 18 -59h14q1 4 21 59l127 363h92zM215 666v-55q0 -24 -23 -24h-29q-23 0 -23 24v55q0 24 23 24h29q23 0 23 -24zM386.5 683.5
q6.5 -6.5 6.5 -17.5v-55q0 -24 -24 -24h-28q-24 0 -24 24v55q0 24 24 24h28q11 0 17.5 -6.5z" />
    <glyph glyph-name="uni1E8F" unicode="&#x1e8f;" horiz-adv-x="529" 
d="M510 487l-195 -514q-64 -172 -213 -179l-8 56q57 18 89.5 49.5t52.5 79.5l9 21h-20q-11 0 -19 6t-11 16l-177 465h91l129 -363q14 -41 18 -59h14q1 4 21 59l127 363h92zM306 662v-57q0 -26 -26 -26h-27q-26 0 -26 26v57q0 25 26 25h27q26 0 26 -25z" />
    <glyph glyph-name="uni1EF5" unicode="&#x1ef5;" horiz-adv-x="529" 
d="M510 487l-195 -514q-64 -172 -213 -179l-8 56q57 18 89.5 49.5t52.5 79.5l9 21h-20q-11 0 -19 6t-11 16l-177 465h91l129 -363q14 -41 18 -59h14q1 4 21 59l127 363h92zM472 -88v-57q0 -26 -26 -26h-27q-26 0 -26 26v57q0 25 26 25h27q26 0 26 -25z" />
    <glyph glyph-name="ygrave" unicode="&#x1ef3;" horiz-adv-x="529" 
d="M510 487l-195 -514q-64 -172 -213 -179l-8 56q57 18 89.5 49.5t52.5 79.5l9 21h-20q-11 0 -19 6t-11 16l-177 465h91l129 -363q14 -41 18 -59h14q1 4 21 59l127 363h92zM324 587l-29 -39l-192 120l49 65z" />
    <glyph glyph-name="uni1EF7" unicode="&#x1ef7;" horiz-adv-x="529" 
d="M510 487l-195 -514q-64 -172 -213 -179l-8 56q57 18 89.5 49.5t52.5 79.5l9 21h-20q-11 0 -19 6t-11 16l-177 465h91l129 -363q14 -41 18 -59h14q1 4 21 59l127 363h92zM301 671q0 20 -12.5 31t-34.5 11q-14 0 -32 -5l-10 48q29 8 51 8q43 0 69.5 -23.5t26.5 -66.5
q0 -42 -28 -72.5t-77 -40.5l-10 43q57 16 57 67z" />
    <glyph glyph-name="uni0233" unicode="&#x233;" horiz-adv-x="529" 
d="M510 487l-195 -514q-64 -172 -213 -179l-8 56q57 18 89.5 49.5t52.5 79.5l9 21h-20q-11 0 -19 6t-11 16l-177 465h91l129 -363q14 -41 18 -59h14q1 4 21 59l127 363h92zM406 606h-278v63h278v-63z" />
    <glyph glyph-name="uni1EF9" unicode="&#x1ef9;" horiz-adv-x="529" 
d="M510 487l-195 -514q-64 -172 -213 -179l-8 56q57 18 89.5 49.5t52.5 79.5l9 21h-20q-11 0 -19 6t-11 16l-177 465h91l129 -363q14 -41 18 -59h14q1 4 21 59l127 363h92zM227 691q18 -7 40 -20q23 -12 37 -18t32 -8q4 -1 12 -1q20 0 28.5 12.5t8.5 38.5h40q1 -7 1 -21
q0 -46 -21.5 -70t-57.5 -21q-25 2 -45 10.5t-44 22.5q-22 12 -38 18.5t-33 6.5q-22 0 -30 -13t-8 -42h-40q-1 7 -1 21q0 48 22.5 72t56.5 21q22 -2 40 -9z" />
    <glyph glyph-name="z" unicode="z" horiz-adv-x="510" 
d="M461 69v-69h-412v69l313 348h-310v70h406v-70l-313 -348h316z" />
    <glyph glyph-name="zacute" unicode="&#x17a;" horiz-adv-x="510" 
d="M461 69v-69h-412v69l313 348h-310v70h406v-70l-313 -348h316zM404 675l-192 -120l-29 39l172 147z" />
    <glyph glyph-name="zcaron" unicode="&#x17e;" horiz-adv-x="510" 
d="M461 69v-69h-412v69l313 348h-310v70h406v-70l-313 -348h316zM419 695l-143 -128h-40l-143 128l29 36l130 -87h8l129 87z" />
    <glyph glyph-name="zdotaccent" unicode="&#x17c;" horiz-adv-x="510" 
d="M461 69v-69h-412v69l313 348h-310v70h406v-70l-313 -348h316zM294 662v-57q0 -26 -26 -26h-27q-26 0 -26 26v57q0 25 26 25h27q26 0 26 -25z" />
    <glyph glyph-name="uni1E93" unicode="&#x1e93;" horiz-adv-x="510" 
d="M461 69v-69h-412v69l313 348h-310v70h406v-70l-313 -348h316zM299 -88v-57q0 -26 -26 -26h-27q-26 0 -26 26v57q0 25 26 25h27q26 0 26 -25z" />
    <glyph glyph-name="c_t" horiz-adv-x="829" 
d="M647 420v-286q0 -35 15.5 -50t51.5 -15h74l9 -65q-21 -6 -54 -9.5t-56 -3.5q-61 0 -92.5 34t-31.5 98v297h-263q-60 0 -93 -16t-48 -53.5t-15 -106.5q0 -72 14.5 -111.5t47 -56t91.5 -16.5q74 0 131 10l8 -57q-65 -25 -153 -25q-85 0 -134.5 25t-72 80.5t-22.5 150.5
q0 131 55.5 187t176.5 56h277v144h84v-144h156v-67h-156z" />
    <glyph glyph-name="f_f_y" horiz-adv-x="1204" 
d="M1186 487l-195 -514q-66 -172 -213 -179l-9 56q57 18 89.5 49.5t52.5 79.5l9 21h-19q-24 0 -30 22l-136 355q-16 43 -63 43h-140v-420h-85v420h-246v-420h-85v420h-88v62l88 5v75q0 69 35.5 105.5t106.5 36.5q74 0 122 -7l-6 -63h-86q-49 0 -68 -17t-19 -65v-65h246v87
q0 71 33.5 107t108.5 36q84 0 137 -7l-7 -63h-100q-48 0 -67.5 -18.5t-19.5 -63.5v-78h156q49 0 80.5 -22.5t47.5 -68.5l98 -272q11 -32 18 -59h15q3 7 19 59l128 363h92z" />
    <glyph glyph-name="f_t" horiz-adv-x="715" 
d="M533 420v-286q0 -35 15.5 -50t50.5 -15h74l10 -65q-22 -6 -55 -9.5t-55 -3.5q-61 0 -93 34t-32 98v297h-247v-420h-85v420h-88v62l88 5v87q0 71 33 107t109 36q78 0 130 -7l-7 -63h-93q-48 0 -67.5 -18.5t-19.5 -63.5v-78h247v144h85v-144h155v-67h-155z" />
    <glyph glyph-name="f_y" horiz-adv-x="873" 
d="M855 487l-195 -514q-66 -172 -213 -179l-9 56q57 18 90 49.5t52 79.5l9 21h-19q-24 0 -30 22l-136 355q-16 43 -63 43h-140v-420h-85v420h-88v62l88 5v87q0 71 33 107t109 36q84 0 137 -7l-7 -63h-100q-48 0 -67.5 -18.5t-19.5 -63.5v-78h156q49 0 80.5 -22.5t47.5 -68.5
l98 -272q11 -33 18 -59h14l17 52l131 370h92z" />
    <glyph glyph-name="s_t" horiz-adv-x="859" 
d="M677 420v-286q0 -35 15.5 -50t51.5 -15h74l9 -65q-21 -6 -54 -9.5t-55 -3.5q-61 0 -93 34t-32 98v297h-340q-52 0 -75 -3t-34 -14t-11 -38q0 -25 7.5 -38t21.5 -19.5t42 -12.5l142 -32q60 -15 86.5 -44.5t26.5 -89.5q0 -59 -22 -89t-65.5 -40.5t-120.5 -10.5
q-102 0 -191 14l6 62q78 -4 135 -4h33q58 0 87.5 5t42.5 19.5t13 43.5q0 33 -17.5 45.5t-59.5 22.5l-140 32q-60 14 -85 45t-25 91q0 50 19.5 76.5t59.5 36t111 9.5h353v144h84v-144h156v-67h-156z" />
    <glyph glyph-name="t_t" horiz-adv-x="727" 
d="M546 420v-286q0 -35 15.5 -50t50.5 -15h74l10 -65q-22 -6 -55 -9.5t-55 -3.5q-61 0 -93 34t-32 98v297h-261v-286q0 -35 15 -50t51 -15h74l10 -65q-22 -6 -55 -9.5t-55 -3.5q-61 0 -93 34t-32 98v297h-88v62l88 5v144h85v-144h261v144h85v-144h155v-67h-155z" />
    <glyph glyph-name="t_y" horiz-adv-x="895" 
d="M877 487l-195 -514q-66 -172 -213 -179l-9 56q57 18 89.5 49t53.5 80l8 21h-19q-11 0 -19 6t-11 16l-136 355q-16 43 -62 43h-164v-286q0 -35 15 -50t51 -15h74l10 -65q-22 -6 -55 -9.5t-55 -3.5q-61 0 -93 34t-32 98v297h-88v62l88 5v144h85v-144h180q49 0 80 -22.5
t47 -68.5l98 -272q14 -41 18 -59h14l12 35q1 4 7 20l129 367h92z" />
    <glyph glyph-name="ordfeminine" unicode="&#xaa;" horiz-adv-x="441" 
d="M339.5 582q28.5 -25 28.5 -83v-227h-51l-8 61q-26 -27 -64.5 -47t-82.5 -20q-45 0 -71.5 22.5t-26.5 64.5v38q0 38 24.5 59.5t68.5 21.5h147v28q0 26 -14.5 39.5t-48.5 13.5q-51 0 -155 -8l-7 48q112 14 175 14q57 0 85.5 -25zM140.5 331.5q13.5 -10.5 41.5 -10.5
t61.5 14t60.5 35v65l-127 -8q-27 -1 -38.5 -11.5t-11.5 -30.5v-18q0 -25 13.5 -35.5z" />
    <glyph glyph-name="ordmasculine" unicode="&#xba;" horiz-adv-x="444" 
d="M318 590.5q35 -16.5 51 -54t16 -101.5q0 -63 -16 -100t-51 -54t-96 -17t-96 17t-51 54t-16 100q0 64 16 101.5t51 54t96 16.5t96 -16.5zM164.5 543.5q-20.5 -10.5 -29.5 -36t-9 -72.5q0 -46 9 -71t29.5 -35.5t57.5 -10.5t57 10.5t29 35.5t9 71q0 47 -9 72.5t-29 36
t-57 10.5t-57.5 -10.5z" />
    <glyph glyph-name="uni0410" unicode="&#x410;" horiz-adv-x="622" 
d="M453 216h-284l-68 -216h-91l222 666q3 11 12 17.5t21 6.5h92q12 0 21 -6.5t12 -17.5l222 -666h-91zM429 292l-87 274q-9 26 -17 56h-28q-8 -30 -17 -56l-87 -274h236z" />
    <glyph glyph-name="uni0411" unicode="&#x411;" horiz-adv-x="599" 
d="M456.5 373.5q48.5 -19.5 70 -63t21.5 -120.5q0 -87 -25.5 -129.5t-75.5 -56t-141 -13.5q-118 0 -217 9h-2v690q108 6 214 6q105 0 210 -6l-8 -73h-328v-224h146q87 0 135.5 -19.5zM407 77q29 10 40.5 37t11.5 80q0 51 -11 78.5t-40.5 39.5t-86.5 12h-146v-256
q38 -1 146 -1q57 0 86 10z" />
    <glyph glyph-name="uni0412" unicode="&#x412;" horiz-adv-x="620" 
d="M530.5 303.5q31.5 -45.5 31.5 -131.5q0 -71 -22 -110t-69 -54.5t-129 -15.5q-95 0 -147 1.5t-108 6.5v690q49 5 95.5 6.5t128.5 1.5q87 0 136.5 -15.5t71.5 -54.5t22 -110q0 -75 -28 -113.5t-89 -44.5v-4q75 -7 106.5 -52.5zM173 623v-232h148q52 1 80.5 11t41.5 34.5
t13 71.5t-14 71.5t-45.5 34t-89.5 9.5h-134zM415.5 77q30.5 10 44 35.5t13.5 74.5q0 54 -14 83t-46 41t-91 13h-149v-256q41 -1 155 -1q57 0 87.5 10z" />
    <glyph glyph-name="uni0413" unicode="&#x413;" horiz-adv-x="518" 
d="M497 684l-4 -68h-253q-36 0 -52 -16.5t-16 -54.5v-545h-87v561q0 57 35.5 93.5t90.5 36.5q196 0 286 -7z" />
    <glyph glyph-name="uni0403" unicode="&#x403;" horiz-adv-x="518" 
d="M497 684l-4 -68h-253q-36 0 -52 -16.5t-16 -54.5v-545h-87v561q0 57 35.5 93.5t90.5 36.5q196 0 286 -7zM444 855l-192 -120l-29 39l172 147z" />
    <glyph glyph-name="uni0490" unicode="&#x490;" horiz-adv-x="523" 
d="M502 842v-165l-4 -61h-258q-36 0 -52 -16.5t-16 -54.5v-545h-87v561q0 57 35.5 93.5t90.5 36.5q151 0 224 -6l10 157h57z" />
    <glyph glyph-name="uni0414" unicode="&#x414;" horiz-adv-x="693" 
d="M661 72v-223h-61l-8 151h-500l-9 -151h-61v223h67q48 104 70.5 224t30.5 265q2 61 39 95t101 34h246v-618h85zM488 72v546h-142q-37 0 -53.5 -16t-18.5 -54q-9 -155 -31 -267.5t-69 -208.5h314z" />
    <glyph glyph-name="uni0415" unicode="&#x415;" horiz-adv-x="560" 
d="M505 73l4 -68q-92 -6 -295 -6q-62 0 -97.5 32.5t-35.5 87.5v452q0 55 36 87.5t97 32.5q203 0 295 -6l-4 -69h-277q-31 0 -45 -16t-14 -50v-150h297v-71h-297v-189q0 -35 14 -51t45 -16h277z" />
    <glyph glyph-name="uni0400" unicode="&#x400;" horiz-adv-x="560" 
d="M505 73l4 -68q-92 -6 -295 -6q-62 0 -97.5 32.5t-35.5 87.5v452q0 55 36 87.5t97 32.5q203 0 295 -6l-4 -69h-277q-31 0 -45 -16t-14 -50v-150h297v-71h-297v-189q0 -35 14 -51t45 -16h277zM361 767l-29 -39l-192 120l49 65z" />
    <glyph glyph-name="uni0401" unicode="&#x401;" horiz-adv-x="560" 
d="M505 73l4 -68q-92 -6 -295 -6q-62 0 -97.5 32.5t-35.5 87.5v452q0 55 36 87.5t97 32.5q203 0 295 -6l-4 -69h-277q-31 0 -45 -16t-14 -50v-150h297v-71h-297v-189q0 -35 14 -51t45 -16h277zM253 846v-55q0 -24 -23 -24h-29q-24 0 -24 24v55q0 24 24 24h29q23 0 23 -24z
M430 846v-55q0 -24 -23 -24h-29q-24 0 -24 24v55q0 24 24 24h29q23 0 23 -24z" />
    <glyph glyph-name="uni0416" unicode="&#x416;" horiz-adv-x="908" 
d="M730 315.5q38 -37.5 65 -97.5t69 -181q3 -8 6 -17t7 -20h-93l-19 51q-39 108 -63.5 160.5t-58.5 82.5t-86 30h-65q6 -37 6 -73v-251h-84v251q0 29 7 73h-71q-51 0 -85 -30t-58.5 -82t-63.5 -159l-20 -53h-92q4 11 7 20t6 17q42 121 68.5 181t65 97.5t96.5 42.5v4
q-54 6 -91 43t-61.5 92t-61.5 161q-2 7 -11 32h90l9 -24q36 -99 60 -151.5t58 -86t83 -33.5h71q-6 39 -6 79v216h84v-216q0 -48 -6 -79h66q48 0 82 33t58.5 85t60.5 150l10 27h90q-3 -9 -5.5 -15.5t-4.5 -12.5q-37 -106 -62 -162.5t-62 -94t-92 -43.5v-4q59 -5 97 -42.5z
" />
    <glyph glyph-name="uni0417" unicode="&#x417;" horiz-adv-x="550" 
d="M378.5 682.5q48.5 -15.5 70 -54.5t21.5 -110q0 -75 -27.5 -113.5t-88.5 -44.5v-4q74 -7 105 -52.5t31 -131.5q0 -71 -21.5 -110t-68 -54.5t-127.5 -15.5q-142 0 -236 22l7 64q113 -13 215 -13q55 0 84.5 10t43 36t13.5 76q0 53 -14 82.5t-45.5 41.5t-88.5 12h-116v69h116
q50 0 77.5 10t40 35t12.5 71q0 48 -13.5 73.5t-44 35t-86.5 9.5q-65 0 -117 -5t-61 -6l-7 67q89 16 190 16q87 0 135.5 -15.5z" />
    <glyph glyph-name="uni0418" unicode="&#x418;" horiz-adv-x="691" 
d="M604 0h-85v503q0 47 5 79h-5q-14 -34 -36 -75l-306 -507h-90v690h85v-498q0 -37 -5 -82h4q15 33 39 75l303 505h91v-690z" />
    <glyph glyph-name="uni0419" unicode="&#x419;" horiz-adv-x="691" 
d="M604 0h-85v503q0 47 5 79h-5q-14 -34 -36 -75l-306 -507h-90v690h85v-498q0 -37 -5 -82h4q15 33 39 75l303 505h91v-690zM499 883q4 -60 -37 -99t-112 -39q-72 0 -113.5 39t-37.5 99h65q0 -43 22.5 -66.5t63.5 -23.5q40 0 62 23.5t22 66.5h65z" />
    <glyph glyph-name="uni040D" unicode="&#x40d;" horiz-adv-x="691" 
d="M604 0h-85v503q0 47 5 79h-5q-14 -34 -36 -75l-306 -507h-90v690h85v-498q0 -37 -5 -82h4q15 33 39 75l303 505h91v-690zM405 767l-29 -39l-192 120l49 65z" />
    <glyph glyph-name="uni048A" unicode="&#x48a;" horiz-adv-x="719" 
d="M266.5 763q-35.5 18 -53 49.5t-15.5 69.5h65q0 -43 22.5 -66.5t63.5 -23.5t62.5 23.5t21.5 66.5h65q4 -59 -37 -98t-112 -39q-47 0 -82.5 18zM677 25l-5 -66l-29 -69h-76l28 110h-76v503q0 47 5 79h-5q-14 -34 -36 -75l-306 -507h-90v690h85v-498q0 -37 -5 -82h4
q15 33 39 75l303 505h91v-642z" />
    <glyph glyph-name="uni041A" unicode="&#x41a;" horiz-adv-x="600" 
d="M418 318.5q37 -34.5 63 -90.5t66 -167l22 -61h-93l-15 42q-39 111 -64 165.5t-61 85.5t-93 31h-75q6 -37 6 -73v-251h-87v690h87v-216q0 -41 -6 -79h75q56 0 93.5 36.5t62 92.5t62.5 166h90q-5 -15 -7 -19q-40 -113 -65.5 -170.5t-62 -95t-91.5 -43.5v-4q56 -5 93 -39.5z
" />
    <glyph glyph-name="uni040C" unicode="&#x40c;" horiz-adv-x="600" 
d="M418 318.5q37 -34.5 63 -90.5t66 -167l22 -61h-93l-15 42q-39 111 -64 165.5t-61 85.5t-93 31h-75q6 -37 6 -73v-251h-87v690h87v-216q0 -41 -6 -79h75q56 0 93.5 36.5t62 92.5t62.5 166h90q-5 -15 -7 -19q-40 -113 -65.5 -170.5t-62 -95t-91.5 -43.5v-4q56 -5 93 -39.5z
M453 855l-192 -120l-29 39l172 147z" />
    <glyph glyph-name="uni041B" unicode="&#x41b;" horiz-adv-x="651" 
d="M564 0h-88v618h-138q-35 0 -53 -17t-21 -53l-2 -24q-17 -186 -29 -260t-41 -134q-60 -131 -174 -131l-8 68q34 11 58 30.5t41 56.5q20 44 31 90t19 116t19 204q12 126 137 126h249v-690z" />
    <glyph glyph-name="uni041C" unicode="&#x41c;" horiz-adv-x="877" 
d="M765.5 680.5q9.5 -9.5 9.5 -27.5l29 -653h-88l-25 617h-21l-154 -509q-8 -30 -38 -30h-79q-31 0 -40 30l-154 509h-20l-24 -617h-88l27 653q2 37 37 37h100q28 0 37 -30l129 -421q7 -20 17 -60l9 -33h18q5 16 10 38l16 57l129 419q8 30 38 30h99q17 0 26.5 -9.5z" />
    <glyph glyph-name="uni041D" unicode="&#x41d;" 
d="M581 690v-690h-88v331h-318v-331h-88v690h88v-283h318v283h88z" />
    <glyph glyph-name="uni041E" unicode="&#x41e;" 
d="M495 669.5q59 -33.5 85 -111t26 -213.5t-26 -213.5t-85 -111t-161 -33.5q-103 0 -161.5 33.5t-85 111t-26.5 213.5t26.5 213.5t85 111t161.5 33.5q102 0 161 -33.5zM226.5 598q-38.5 -26 -55.5 -86t-17 -167t17 -167t55.5 -86t107.5 -26t107.5 26t55.5 86t17 167t-17 167
t-55.5 86t-107.5 26t-107.5 -26z" />
    <glyph glyph-name="uni041F" unicode="&#x41f;" horiz-adv-x="669" 
d="M582 0h-88v618h-319v-618h-88v690h495v-690z" />
    <glyph glyph-name="uni0420" unicode="&#x420;" horiz-adv-x="590" 
d="M457 680q47 -19 68 -65.5t21 -131.5t-20.5 -131.5t-65.5 -65.5t-126 -19q-73 0 -159 8v-275h-88v690q54 6 101 7.5t137 1.5q85 0 132 -19zM403.5 356q28.5 12 41 41.5t12.5 85.5t-12.5 86t-41 42t-80.5 12q-109 0 -148 -1v-279h148q52 1 80.5 13z" />
    <glyph glyph-name="uni0421" unicode="&#x421;" horiz-adv-x="570" 
d="M435 697.5q40 -4.5 85 -15.5l-9 -67q-50 5 -86.5 7t-92.5 2q-69 0 -107 -26t-54.5 -86t-16.5 -167t16.5 -167t54.5 -86t107 -26q116 0 193 11l9 -66q-45 -12 -90.5 -17.5t-111.5 -5.5q-101 0 -159.5 34.5t-85 112t-26.5 210.5t26.5 210.5t85 112t159.5 34.5
q63 0 103 -4.5z" />
    <glyph glyph-name="uni0422" unicode="&#x422;" horiz-adv-x="581" 
d="M557 612h-223v-612h-88v612h-222v78h533v-78z" />
    <glyph glyph-name="uni0423" unicode="&#x423;" horiz-adv-x="563" 
d="M551 690l-186 -520q-32 -87 -68.5 -132t-99.5 -45q-26 0 -57.5 4t-53.5 10l10 65q39 -4 71 -4q33 0 50 8.5t28.5 28t30.5 65.5l12 31h-38q-28 0 -44.5 11.5t-24.5 35.5l-160 442h91l139 -399q6 -16 23 -16h40l147 415h90z" />
    <glyph glyph-name="uni040E" unicode="&#x40e;" horiz-adv-x="563" 
d="M551 690l-186 -520q-32 -87 -68.5 -132t-99.5 -45q-26 0 -57.5 4t-53.5 10l10 65q39 -4 71 -4q33 0 50 8.5t28.5 28t30.5 65.5l12 31h-38q-28 0 -44.5 11.5t-24.5 35.5l-160 442h91l139 -399q6 -16 23 -16h40l147 415h90zM432 883q4 -60 -37 -99t-112 -39
q-72 0 -113.5 39t-37.5 99h65q0 -43 22.5 -66.5t63.5 -23.5q40 0 62 23.5t22 66.5h65z" />
    <glyph glyph-name="uni0424" unicode="&#x424;" horiz-adv-x="822" 
d="M739.5 185q-30.5 -62 -98.5 -91.5t-186 -33.5v-97h-88v97q-118 4 -186.5 33.5t-99 91t-30.5 167.5q0 108 30.5 171t99 92.5t186.5 33.5v97h87l1 -97q118 -4 186 -33.5t98.5 -92.5t31.5 -171q-1 -105 -31.5 -167zM162 225q21 -46 70 -67t138 -24v441q-89 -3 -138 -24.5
t-70 -68t-21 -130.5q0 -81 21 -127zM589 158q49 21 70 67t22 127q-1 84 -22 130.5t-70 68t-138 24.5v-441q89 3 138 24z" />
    <glyph glyph-name="uni0425" unicode="&#x425;" horiz-adv-x="613" 
d="M319 324h-26l-172 -324h-95l194 357l-181 333h95l158 -298h29l158 298h95l-182 -333l195 -357h-96z" />
    <glyph glyph-name="uni0427" unicode="&#x427;" horiz-adv-x="625" 
d="M538 690v-690h-87v316q-59 -33 -121 -49t-116 -16q-79 0 -116.5 38t-37.5 118v283h88v-265q-1 -50 22 -72.5t75 -22.5q53 0 98.5 12t107.5 42v306h87z" />
    <glyph glyph-name="uni0426" unicode="&#x426;" horiz-adv-x="691" 
d="M659 72v-223h-61l-9 151h-502v690h88v-618h311v618h88v-618h85z" />
    <glyph glyph-name="uni0428" unicode="&#x428;" horiz-adv-x="929" 
d="M842 690v-690h-755v690h86v-618h249v618h85v-618h249v618h86z" />
    <glyph glyph-name="uni0429" unicode="&#x429;" horiz-adv-x="952" 
d="M920 72v-223h-61l-9 151h-763v690h86v-618h245v618h86v-618h246v618h85v-618h85z" />
    <glyph glyph-name="uni040F" unicode="&#x40f;" horiz-adv-x="674" 
d="M587 690v-690h-213l-4 -151h-60l-6 151h-217v690h88v-618h324v618h88z" />
    <glyph glyph-name="uni042C" unicode="&#x42c;" horiz-adv-x="594" 
d="M456 391.5q49 -20.5 70 -66t21 -125.5q0 -81 -21 -126t-67 -63.5t-125 -18.5q-91 0 -141 1.5t-104 6.5h-2v690h88v-278h146q86 0 135 -20.5zM406 80q29 11 41 38.5t12 82.5q0 53 -11.5 81.5t-41 42t-85.5 13.5h-146v-268q39 -1 146 -1q56 0 85 11z" />
    <glyph glyph-name="uni042A" unicode="&#x42a;" horiz-adv-x="748" 
d="M610 391.5q49 -20.5 70 -66t21 -125.5q0 -81 -21 -126t-67 -63.5t-125 -18.5q-91 0 -141 1.5t-105 6.5v612h-219v78h308v-278h144q86 0 135 -20.5zM560 80q29 11 41 38.5t12 82.5q0 53 -11.5 81.5t-41 42t-85.5 13.5h-144v-268q38 -1 144 -1q56 0 85 11z" />
    <glyph glyph-name="uni042B" unicode="&#x42b;" horiz-adv-x="846" 
d="M456 391.5q49 -20.5 70 -66t21 -125.5q0 -81 -21 -126t-67 -63.5t-125 -18.5q-91 0 -141 1.5t-104 6.5h-2v690h88v-278h146q86 0 135 -20.5zM759 690v-690h-87v690h87zM406 80q29 11 41 38.5t12 82.5q0 53 -11.5 81.5t-41 42t-85.5 13.5h-146v-268q39 -1 146 -1
q56 0 85 11z" />
    <glyph glyph-name="uni0409" unicode="&#x409;" horiz-adv-x="970" 
d="M832 391.5q49 -20.5 70.5 -66t21.5 -124.5q0 -82 -21.5 -127t-67.5 -63.5t-125 -18.5q-90 0 -139 1.5t-103 6.5v618h-130q-33 0 -48 -17.5t-18 -52.5q-18 -201 -30 -277t-41 -141t-69 -96t-103 -35l-7 60q28 11 51 32.5t45 63.5q30 58 41.5 128t23.5 228l4 50
q8 129 143 129h225v-278h142q86 0 135 -20.5zM782 80q29 11 41 39t12 84q0 52 -11 80.5t-40.5 41.5t-86.5 13h-142v-268q38 -1 142 -1q56 0 85 11z" />
    <glyph glyph-name="uni040A" unicode="&#x40a;" horiz-adv-x="979" 
d="M841 390q49 -20 70 -65t21 -125q0 -81 -21 -126t-67 -63.5t-125 -18.5q-90 0 -139.5 1.5t-103.5 6.5v338h-301v-338h-88v690h88v-280h301v280h87v-280h143q86 0 135 -20zM791 80q29 11 41 38.5t12 82.5q0 53 -11.5 81.5t-41 42t-85.5 13.5h-143v-268q38 -1 143 -1
q56 0 85 11z" />
    <glyph glyph-name="uni0405" unicode="&#x405;" horiz-adv-x="561" 
d="M484 682l-6 -64q-97 5 -195 5q-58 0 -85 -5.5t-40.5 -27.5t-13.5 -72q0 -55 19.5 -78t67.5 -35l140 -35q77 -19 108 -65t31 -129q0 -78 -23.5 -118.5t-72.5 -55t-135 -14.5q-109 0 -214 19l6 65q56 -2 72 -2q73 -3 111 -3q71 0 104 6.5t48 30t15 74.5q0 39 -9 61
t-27 33.5t-51 19.5l-143 36q-73 18 -104.5 64.5t-31.5 127.5q0 79 23 118t69.5 51.5t131.5 12.5q122 -2 205 -20z" />
    <glyph glyph-name="uni0404" unicode="&#x404;" horiz-adv-x="577" 
d="M536 11q-44 -12 -88 -17.5t-109 -5.5q-104 0 -164 34.5t-87 112t-27 210.5t27 210.5t87 112t164 34.5q63 0 104.5 -4.5t85.5 -15.5l-9 -68q-45 5 -83 7t-99 2q-65 0 -103.5 -21t-57.5 -69.5t-24 -131.5l295 -1v-68l-296 -1q1 -100 19 -157t57.5 -82t109.5 -25
q112 0 188 11z" />
    <glyph glyph-name="uni042D" unicode="&#x42d;" horiz-adv-x="577" 
d="M402 667.5q60 -34.5 86.5 -112t26.5 -210.5t-26.5 -210.5t-86.5 -112t-164 -34.5q-65 0 -109.5 5.5t-87.5 17.5l9 67q76 -11 188 -11q70 0 110 25t57.5 82t18.5 157l-296 1v68l295 1q-4 83 -23.5 131t-58 69.5t-103.5 21.5q-60 0 -98.5 -2t-82.5 -7l-10 68q44 11 86 15.5
t105 4.5q104 0 164 -34.5z" />
    <glyph glyph-name="uni0406" unicode="&#x406;" horiz-adv-x="262" 
d="M175 0h-88v690h88v-690z" />
    <glyph glyph-name="uni0407" unicode="&#x407;" horiz-adv-x="262" 
d="M175 0h-88v690h88v-690zM80 846v-55q0 -24 -23 -24h-29q-24 0 -24 24v55q0 24 24 24h29q23 0 23 -24zM257 846v-55q0 -24 -23 -24h-29q-24 0 -24 24v55q0 24 24 24h29q23 0 23 -24z" />
    <glyph glyph-name="uni0408" unicode="&#x408;" horiz-adv-x="340" 
d="M256 145q0 -76 -34.5 -115t-99.5 -39q-21 0 -48.5 3.5t-43.5 9.5l10 62h50q78 0 78 76v548h88v-545z" />
    <glyph glyph-name="uni040B" unicode="&#x40b;" horiz-adv-x="776" 
d="M681 403.5q39 -38.5 39 -117.5v-286h-88v269q0 53 -22.5 74.5t-77.5 21.5q-53 0 -97 -12t-101 -42v-311h-88v612h-222v78h533v-78h-223v-229q57 30 116 44.5t112 14.5q80 0 119 -38.5z" />
    <glyph glyph-name="uni042E" unicode="&#x42e;" horiz-adv-x="927" 
d="M753 669.5q59 -33.5 85 -110.5t26 -214t-26 -214t-85 -110.5t-162 -33.5q-95 0 -150 31.5t-81 104t-28 200.5h-156v-323h-88v690h88v-296h157q4 117 31 184t81.5 96t145.5 29q103 0 162 -33.5zM699 92q39 26 55.5 86t17.5 167q-1 107 -17.5 167t-55.5 86t-108 26
q-66 0 -103 -26t-53 -86t-16 -167t16 -167t53 -86t103 -26q69 0 108 26z" />
    <glyph glyph-name="uni042F" unicode="&#x42f;" horiz-adv-x="613" 
d="M426 697.5q47 -1.5 100 -7.5v-690h-88v281l-150 -1q-35 0 -57 -17t-34 -56l-60 -207h-94l64 211q13 42 38 65.5t56 31.5l-1 5q-67 10 -97.5 55t-30.5 125q0 112 50.5 159t168.5 47q88 0 135 -1.5zM438 356v266q-39 1 -146 1q-49 0 -77 -11.5t-41 -40t-14 -79.5
q0 -69 29 -102.5t99 -33.5h150z" />
    <glyph glyph-name="uni0402" unicode="&#x402;" horiz-adv-x="752" 
d="M662 398q46 -44 46 -164q0 -132 -65 -187.5t-191 -50.5l-8 64q64 5 101.5 20t56.5 49t19 97q0 60 -12.5 90t-36.5 40t-65 10q-42 0 -82.5 -12.5t-90.5 -40.5v-313h-88v612h-222v78h533v-78h-223v-228q97 58 201 58q81 0 127 -44z" />
    <glyph glyph-name="uni0462" unicode="&#x462;" horiz-adv-x="620" 
d="M495.5 391.5q48.5 -20.5 70 -66t21.5 -125.5q0 -81 -21.5 -126t-67 -63.5t-125.5 -18.5q-91 0 -140.5 1.5t-103.5 6.5h-3v547h-116v64h116v119h88v-119h239v-64h-239v-135h146q87 0 135.5 -20.5zM446 80q29 11 40.5 38.5t11.5 82.5q0 53 -11 81.5t-40.5 42t-86.5 13.5
h-146v-268q39 -1 146 -1q57 0 86 11z" />
    <glyph glyph-name="uni046A" unicode="&#x46a;" horiz-adv-x="858" 
d="M16 23q63 157 98 222t90 95.5t157 30.5v4l-254 269q-9 9 -9 21q0 10 8 17.5t21 7.5h600q13 0 21.5 -7.5t8.5 -18.5t-9 -20l-251 -269v-4q103 0 158 -30.5t90 -95.5t98 -222l9 -23h-92q-57 155 -90 216t-73.5 79t-128.5 18q3 -42 3 -73v-240h-84v240q0 17 4 73
q-88 0 -128.5 -18t-73.5 -78.5t-90 -216.5h-92zM631 623h-409l207 -216z" />
    <glyph glyph-name="uni0472" unicode="&#x472;" 
d="M495 669.5q59 -33.5 85 -111t26 -213.5t-26 -213.5t-85 -111t-161 -33.5q-103 0 -161.5 33.5t-85 111t-26.5 213.5t26.5 213.5t85 111t161.5 33.5q102 0 161 -33.5zM231.5 601.5q-37.5 -22.5 -55.5 -75t-21 -143.5h358q-3 91 -21 143.5t-55.5 75t-102.5 22.5
t-102.5 -22.5zM438 89q38 23 55.5 77t20.5 149h-360q3 -95 20.5 -149t55.5 -77t104 -23t104 23z" />
    <glyph glyph-name="uni0474" unicode="&#x474;" horiz-adv-x="646" 
d="M238.5 7q-9.5 7 -12.5 18l-209 665h91l163 -547q14 -50 20 -75h27q7 28 12 44q2 10 9 32l114 452q15 57 51.5 82.5t94.5 25.5q13 0 47 -4l-1 -65l-26 2q-35 0 -53 -13t-28 -49l-155 -550q-4 -11 -13 -18t-21 -7h-89q-12 0 -21.5 7z" />
    <glyph glyph-name="uni0492" unicode="&#x492;" horiz-adv-x="536" 
d="M225 599.5q-16 -16.5 -16 -54.5v-182h213v-64h-213v-299h-88v299h-113v64h113v198q0 57 35.5 93.5t90.5 36.5q197 0 287 -7l-5 -68h-253q-35 0 -51 -16.5z" />
    <glyph glyph-name="uni0494" unicode="&#x494;" horiz-adv-x="587" 
d="M460 420q39 -22 63 -84t24 -174q0 -122 -31.5 -192t-85 -100.5t-130.5 -40.5l-17 61q65 13 101.5 36.5t56 78.5t19.5 157q0 87 -13.5 131t-38.5 58.5t-69 14.5q-41 0 -80.5 -13t-86.5 -40v-313h-87v561q0 57 35.5 93.5t90.5 36.5q190 0 278 -7l-4 -68h-245
q-36 0 -52 -16.5t-16 -54.5v-162q93 59 195 59q54 0 93 -22z" />
    <glyph glyph-name="uni0496" unicode="&#x496;" horiz-adv-x="928" 
d="M922 68v-178h-83l-4 69h-18v41h-40l-19 51q-39 108 -63.5 160.5t-58.5 82.5t-86 30h-66q7 -44 7 -73v-251h-84v251q0 29 7 73h-71q-52 0 -86 -30t-58.5 -82.5t-63.5 -160.5l-19 -51h-92q4 11 7 20t6 17q42 121 68.5 181t65 97.5t96.5 42.5v4q-54 6 -91 43t-61.5 92
t-61.5 161q-2 7 -11 32h89l10 -27q36 -98 60.5 -150t58 -85t81.5 -33h72q-6 39 -6 79v216h84v-216q0 -48 -6 -79h66q48 0 82 33t58.5 85t60.5 150l10 27h90l-12 -35q-37 -103 -62 -158.5t-61.5 -92t-90.5 -42.5v-4q56 -5 93 -39t63.5 -91t62.5 -160h77z" />
    <glyph glyph-name="uni0498" unicode="&#x498;" horiz-adv-x="550" 
d="M378.5 682.5q48.5 -15.5 70 -54.5t21.5 -110q0 -75 -27.5 -113.5t-88.5 -44.5v-4q74 -7 105 -52.5t31 -131.5q0 -71 -21.5 -110t-68 -54.5t-127.5 -15.5q-142 0 -236 22l7 64q113 -13 215 -13q55 0 84.5 10t43 36t13.5 76q0 53 -14 82.5t-45.5 41.5t-88.5 12h-116v69h116
q50 0 77.5 10t40 35t12.5 71q0 48 -13.5 73.5t-44 35t-86.5 9.5q-65 0 -117 -5t-61 -6l-7 67q89 16 190 16q87 0 135.5 -15.5zM263 -41q39 0 57.5 -14t18.5 -48q0 -59 -38 -93.5t-100 -34.5q-9 0 -29 2l13 45q41 -1 67 19t26 53q0 16 -12 22t-47 7l9 40q26 2 35 2z" />
    </font>
</defs>
</svg>
